<?xml version="1.0" encoding="UTF-8"?><svg id="a" xmlns="http://www.w3.org/2000/svg" xmlns:xlink="http://www.w3.org/1999/xlink" viewBox="0 0 447.2874 373.2888"><defs><linearGradient id="b" x1="572.5012" y1="-146.755" x2="502.5877" y2="-267.8488" gradientTransform="translate(-193.5453 462.5931) rotate(-11.6693) scale(.7105 .7439) skewX(-22.9181)" gradientUnits="userSpaceOnUse"><stop offset=".3027" stop-color="#3a81bb" stop-opacity="0"/><stop offset=".6996" stop-color="#1f4d82"/></linearGradient><linearGradient id="c" x1="728.5028" y1="-76.4869" x2="660.2559" y2="-194.6941" gradientTransform="translate(-170.0043 284.2673) rotate(13.0091) scale(.8142 .6155) skewX(22.0815)" xlink:href="#b"/><linearGradient id="d" x1="-728.2331" y1="-249.3575" x2="-796.4801" y2="-367.5647" gradientTransform="translate(627.6274 378.8111) rotate(5.7526) scale(.3313 .3031) skewX(10.9192)" xlink:href="#b"/><linearGradient id="h" x1="327.9069" y1="182.3525" x2="327.9069" y2="77.8611" gradientTransform="translate(-4.7762 8.635) rotate(-1.0463) scale(1.0131 .9711) skewX(-.8643)" gradientUnits="userSpaceOnUse"><stop offset="0" stop-color="#414141"/><stop offset=".196" stop-color="#3e3e3e"/><stop offset="1" stop-color="#3a3a3a"/></linearGradient><radialGradient id="j" cx="-1639.6041" cy="1448.425" fx="-1639.6041" fy="1448.425" r="138.0355" gradientTransform="translate(833.6501 565.7571) rotate(-1.7306) scale(.2973 -.3217) skewX(-.8562)" gradientUnits="userSpaceOnUse"><stop offset=".6733" stop-color="#fcfcfc" stop-opacity="0"/><stop offset="1" stop-color="#fcfcfc"/></radialGradient><radialGradient id="l" cx="327.5698" cy="125.3151" fx="327.5698" fy="125.3151" r="40.093" gradientTransform="translate(-4.7762 8.635) rotate(-1.0463) scale(1.0131 .9711) skewX(-.8643)" gradientUnits="userSpaceOnUse"><stop offset=".1088" stop-color="#0f0f0d" stop-opacity="0"/><stop offset=".8856" stop-color="#414141" stop-opacity="0"/><stop offset=".9339" stop-color="#1e1e1d" stop-opacity=".6841"/><stop offset=".9874" stop-color="#0f0f0d"/></radialGradient><radialGradient id="q" cx="-1633.2865" cy="2417.739" fx="-1633.2865" fy="2417.739" r="202.1725" gradientTransform="translate(831.7447 522.4952) rotate(-1.7306) scale(.2973 -.1842) skewX(-.4902)" gradientUnits="userSpaceOnUse"><stop offset="0" stop-color="#2e6b26"/><stop offset="1" stop-color="#6ab536"/></radialGradient><radialGradient id="s" cx="-1628.3666" cy="1246.0623" fx="-1628.3666" fy="1246.0623" r="90.5003" gradientTransform="translate(834.5316 585.7701) rotate(-1.7306) scale(.2973 -.3952) skewX(-1.0516)" gradientUnits="userSpaceOnUse"><stop offset="0" stop-color="#000"/><stop offset=".7192" stop-color="#fff"/></radialGradient><radialGradient id="u" cx="-1630.8438" cy="1517.5637" fx="-1630.8438" fy="1517.5637" r="43.7722" gradientTransform="translate(833.6501 565.7571) rotate(-1.7306) scale(.2973 -.3217) skewX(-.8562)" gradientUnits="userSpaceOnUse"><stop offset="0" stop-color="#6ab536"/><stop offset="1" stop-color="#2e6b26"/></radialGradient><radialGradient id="w" cx="327.7622" cy="140.8971" fx="327.7622" fy="140.8971" r="26.7481" gradientTransform="translate(-4.7762 8.635) rotate(-1.0463) scale(1.0131 .9711) skewX(-.8643)" gradientUnits="userSpaceOnUse"><stop offset="0" stop-color="#000"/><stop offset=".7842" stop-color="#4f4f4f" stop-opacity="0"/></radialGradient><radialGradient id="z" cx="327.8102" cy="163.1558" fx="327.8102" fy="163.1558" r="32.1879" gradientTransform="translate(-4.7762 8.635) rotate(-1.0463) scale(1.0131 .9711) skewX(-.8643)" gradientUnits="userSpaceOnUse"><stop offset="0" stop-color="#f5f5f5"/><stop offset="1" stop-color="#e3e3e3"/></radialGradient><linearGradient id="ae" x1="159.9296" y1="124.2449" x2="159.9296" y2="55.3113" gradientTransform="translate(33.3786 4.4229) rotate(-.7839) scale(.8883 .951) skewX(.6432)" xlink:href="#h"/><radialGradient id="ag" cx="-2113.7158" cy="1554.3579" fx="-2113.7158" fy="1554.3579" r="81.0513" gradientTransform="translate(853.5361 592.6671) rotate(-.7839) scale(.3144 -.3366) skewX(-.6432)" xlink:href="#j"/><radialGradient id="ai" cx="159.7282" cy="86.617" fx="159.7282" fy="86.617" r="26.0368" gradientTransform="translate(33.3786 4.4229) rotate(-.7839) scale(.8883 .951) skewX(.6432)" xlink:href="#l"/><radialGradient id="an" cx="-2110.5326" cy="2555.6292" fx="-2110.5326" fy="2555.6292" r="115.8541" gradientTransform="translate(852.4414 547.3819) rotate(-.7839) scale(.3144 -.1927) skewX(-.3682)" xlink:href="#q"/><radialGradient id="ap" cx="-2108.0499" cy="1326.0476" fx="-2108.0499" fy="1326.0476" r="52.0316" gradientTransform="translate(854.0425 613.6162) rotate(-.7839) scale(.3144 -.4134) skewX(-.7901)" xlink:href="#s"/><radialGradient id="ar" cx="-2109.779" cy="1597.2016" fx="-2109.779" fy="1597.2016" r="25.8739" gradientTransform="translate(853.5361 592.6671) rotate(-.7839) scale(.3144 -.3366) skewX(-.6432)" xlink:href="#u"/><radialGradient id="at" cx="160.4752" cy="96.9131" fx="160.4752" fy="96.9131" r="17.4201" gradientTransform="translate(33.3786 4.4229) rotate(-.7839) scale(.8883 .951) skewX(.6432)" xlink:href="#w"/><radialGradient id="aw" cx="159.871" cy="111.6071" fx="159.871" fy="111.6071" r="19.5599" gradientTransform="translate(33.3786 4.4229) rotate(-.7839) scale(.8883 .951) skewX(.6432)" xlink:href="#z"/><linearGradient id="ay" x1="372.4587" y1="27.291" x2="329.8608" y2="-46.4907" gradientTransform="translate(-193.4686 266.4053) rotate(14.5897) scale(.869 .6209) skewX(24.049)" xlink:href="#b"/></defs><g><g><path d="m187.9187,259.4573l-51.5266-28.8296c-2.8179-1.8173-3.4315-4.0729,1.1244-7.7049l72.2357-47.7041c4.5559-3.6319,11.2859-5.208,13.8383-4.0338l61.2287,42.0025c2.5524,1.1742.9132,5.1065-3.6427,8.7385l-82.9112,35.4106c-4.5559,3.6319-7.7943,3.2951-10.3467,2.1208Z" style="fill:url(#b); opacity:.1;"/><g><path d="m244.7707,187.8782c.0538-.329.0522-.6509,0-.9656v-6.3868h-2.3941v3.8436c-.7909.9969-1.3563,1.086-3.0929,2.1438l-79.8815,43.7864c-5.8163,3.5426-10.7442,2.2186-14.8752-.0211L22.9482,163.8825c-.1943-.1305-.3507-.2305-.4921-.3196v-4.1188h-3.6349l.1397,6.6083c.0544,1.8972,1.9785,3.7256,4.6636,5.5284l120.8351,65.8898c4.1521,2.2477,9.1083,3.5704,14.9703-.0144l80.4978-44.327c2.9506-1.8044,4.5153-3.5579,4.8252-5.1564h.0178v-.0945Z" style="fill:#323970; opacity:.3;"/><path d="m244.8236,186.1171c.0538-.329.0522-.6509,0-.9656v-6.3868h-2.3941v3.8436c-.7909.9969-1.3563,1.086-3.0929,2.1438l-79.8815,43.7864c-5.8163,3.5426-10.7442,2.2186-14.8752-.0211L23.0012,162.1214c-.1943-.1305-.3507-.2305-.4921-.3196v-4.1188h-3.6349l.1397,6.6083c.0544,1.8972,1.9785,3.7256,4.6636,5.5284l120.8351,65.8898c4.1521,2.2477,9.1083,3.5704,14.9703-.0144l80.4978-44.327c2.9506-1.8044,4.5153-3.5579,4.8252-5.1564h.0178v-.0945Z" style="fill:#8f94ba;"/><path d="m244.8236,178.7648h-2.3941v3.8436c-.7909.9969-1.3563,1.086-3.0929,2.1438l-79.8815,43.7864c-3.0585,1.8629-5.8711,2.3789-8.4516,2.1248v7.1964c2.5879.2427,5.4091-.2872,8.4794-2.1647l80.4978-44.327c2.9506-1.8044,4.5153-3.5579,4.8252-5.1564h.0178v-.0945c.0538-.329.0522-.6509,0-.9656v-6.3868Z" style="fill:#8f94ba;"/><path d="m149.0342,237.5237c1.8274.4483,3.7812.5522,5.8669.0822v-7.1813c-2.0855.4634-4.0394.3501-5.8669-.1076v7.2067Z" style="fill:#d3dcdf;"/><path d="m144.635,229.2049L23.0564,162.809c-4.7024-3.1586-6.232-6.2949-.4157-9.8375l79.2333-43.4633c5.8163-3.5426,15.4386-3.7877,19.5696-1.5479l121.0123,66.9659c4.131,2.2398,2.7522,6.9709-3.0641,10.5135l-79.8815,43.7864c-5.8163,3.5426-10.7442,2.2186-14.8752-.0211Z" style="fill:#f3f3fb;"/><path d="m106.8103,197.6601l-30.8215-16.1986c-.6293-.326-1.0838-1.4112.0804-2.0263l21.3899-11.5957c.7792-.4153,2.2875-.304,2.9168.022l30.397,16.4194c.6293.326.5062,1.4069-.2731,1.8222l-21.1285,11.3945c-.7792.4153-1.9317.4883-2.561.1623Z" style="fill:#6d73be; opacity:.31;"/><path d="m177.6183,199.7947l-104.4989-58.0908c-2.7938-1.5407-2.2998-4.1373,1.0978-5.7702l29.2223-15.8867c3.3976-1.6329,8.4634-1.7083,11.2572-.1675l104.9935,58.4573c2.7938,1.5407,2.2998,4.1373-1.0978,5.7702l-29.7169,15.5202c-3.3976,1.6329-8.4634,1.7083-11.2572.1675Z" style="fill:#d7dada;"/><g><path d="m104.8954,131.7128c-.1902.0971-.5652.0554-.8348-.0927l-6.5112-3.5788c-.269-.1479-.3363-.3493-.1461-.4464l4.5707-2.3325c.1893-.0966.5655-.0528.8345.095l6.5112,3.5788c.2696.1482.3356.3475.1463.4441l-4.5707,2.3325Z" style="fill:#2f3942;"/><path d="m114.526,137.0062c-.1902.0971-.5638.0562-.8348-.0927l-6.5105-3.5784c-.2718-.1494-.3356-.3489-.1454-.446l4.5707-2.3325c.1893-.0966.5621-.0547.8339.0947l6.5105,3.5784c.271.1489.3356.3475.1463.4441l-4.5707,2.3325Z" style="fill:#2f3942;"/><path d="m112.7371,143.5891c-.1894.0966-.5609.0554-.8305-.0928l-6.5112-3.5788c-.2737-.1504-.3363-.3478-.147-.4445l4.5706-2.3325c.1912-.0976.5609-.0569.8346.0935l6.5112,3.5788c.2696.1482.334.3461.1428.4437l-4.5706,2.3325Z" style="fill:#2f3942;"/><path d="m124.6946,142.5952c-.1902.0971-.5664.0548-.8368-.0939l-6.5117-3.5791c-.2704-.1486-.3335-.3478-.1433-.4449l4.5707-2.3325c.1893-.0966.5614-.0551.8318.0935l6.5117,3.5791c.2704.1486.3376.3486.1484.4452l-4.5707,2.3325Z" style="fill:#2f3942;"/><path d="m122.373,148.8853c-.1894.0966-.5641.0536-.8337-.0946l-6.5125-3.5795c-.2716-.1493-.337-.3482-.1477-.4448l4.5706-2.3325c.1912-.0976.5637-.0554.8353.0939l6.5125,3.5795c.2696.1482.3373.3479.1461.4455l-4.5706,2.3325Z" style="fill:#2f3942;"/><path d="m134.3225,147.887c-.1902.0971-.5617.0574-.8347-.0927l-6.5106-3.5785c-.271-.1489-.3341-.3481-.1439-.4452l4.5707-2.3325c.1893-.0966.5614-.0551.8324.0938l6.5106,3.5785c.273.15.3354.3474.1462.444l-4.5707,2.3325Z" style="fill:#2f3942;"/><path d="m120.9605,155.2763c-.1897.0968-.5646.0538-.8357-.0952l-6.5098-3.578c-.271-.1489-.3375-.3486-.1477-.4454l4.571-2.3327c.1917-.0978.5654-.055.8363.094l6.5098,3.578c.2711.149.3388.3488.1471.4466l-4.571,2.3327Z" style="fill:#2f3942;"/><path d="m132.5357,154.4711c-.1894.0966-.5609.0554-.8306-.0929l-6.5131-3.5798c-.269-.1479-.3377-.3486-.1484-.4452l4.5706-2.3325c.1912-.0976.5669-.0536.836.0943l6.5131,3.5798c.2697.1483.3341.3462.143.4438l-4.5706,2.3325Z" style="fill:#2f3942;"/><path d="m144.4898,153.4753c-.1902.0971-.5632.0566-.8355-.0931l-6.5098-3.578c-.2697-.1483-.3356-.3489-.1454-.446l4.5707-2.3325c.1893-.0966.5641-.0536.8339.0947l6.5098,3.578c.2723.1497.3362.3479.147.4445l-4.5707,2.3325Z" style="fill:#2f3942;"/><path d="m130.5897,160.5689c-.1897.0968-.5613.0556-.8337-.094l-6.5098-3.578c-.2697-.1483-.3369-.3483-.1472-.4451l4.571-2.3327c.1917-.0978.5661-.0546.8358.0937l6.5098,3.578c.2723.1497.3367.3476.1451.4454l-4.571,2.3327Z" style="fill:#2f3942;"/><path d="m142.705,160.0605c-.1894.0966-.5648.0532-.8339-.0947l-6.5125-3.5795c-.271-.1489-.3355-.3474-.1462-.444l4.5706-2.3325c.1912-.0976.5629-.0558.8338.0931l6.5125,3.5795c.269.1479.3374.348.1462.4456l-4.5706,2.3325Z" style="fill:#2f3942;"/><path d="m154.6558,159.0629c-.1902.0971-.5632.0566-.8328-.0916l-6.5125-3.5795c-.2697-.1483-.3342-.3482-.144-.4453l4.5707-2.3325c.1893-.0966.5628-.0543.8325.0939l6.5125,3.5795c.2696.1482.3335.3464.1443.443l-4.5707,2.3325Z" style="fill:#2f3942;"/><path d="m140.7557,166.1564c-.1897.0968-.5613.0556-.8309-.0925l-6.5125-3.5795c-.2697-.1483-.3356-.3475-.1458-.4443l4.571-2.3327c.1917-.0978.5647-.0553.8344.0929l6.5125,3.5795c.2696.1482.334.3461.1423.4439l-4.571,2.3327Z" style="fill:#2f3942;"/><path d="m152.3349,165.3534c-.1894.0966-.5635.054-.8332-.0943l-6.5112-3.5788c-.2696-.1482-.3369-.3481-.1475-.4448l4.5706-2.3325c.1912-.0976.5656-.0543.8352.0938l6.5112,3.5788c.2697.1483.3367.3476.1456.4452l-4.5706,2.3325Z" style="fill:#2f3942;"/><path d="m164.2877,164.357c-.1902.0971-.5645.0558-.8355-.0931l-6.5086-3.5773c-.2716-.1493-.3361-.3492-.1459-.4463l4.5707-2.3325c.1893-.0966.5628-.0543.8344.095l6.5086,3.5773c.271.1489.3363.3479.147.4445l-4.5707,2.3325Z" style="fill:#2f3942;"/><path d="m150.9242,171.7454c-.1897.0968-.5639.0542-.8349-.0947l-6.5086-3.5773c-.2737-.1504-.3375-.3486-.1477-.4454l4.571-2.3327c.1917-.0978.5626-.0564.8363.094l6.5086,3.5773c.271.1489.338.3483.1463.4461l-4.571,2.3327Z" style="fill:#2f3942;"/><path d="m162.5028,170.942c-.1894.0966-.5641.0536-.8337-.0946l-6.5125-3.5795c-.2697-.1483-.337-.3482-.1477-.4448l4.5706-2.3325c.1912-.0976.5656-.0543.8353.0939l6.5125,3.5795c.2696.1482.3373.3479.1461.4455l-4.5706,2.3325Z" style="fill:#2f3942;"/><path d="m173.9216,169.6521c-.1902.0971-.5632.0566-.8368-.0939l-6.5131-3.5798c-.2697-.1483-.3322-.3471-.142-.4441l4.5707-2.3325c.1893-.0966.5607-.0555.8305.0928l6.5131,3.5798c.2737.1504.3376.3486.1484.4452l-4.5707,2.3325Z" style="fill:#2f3942;"/><path d="m160.5548,177.0388c-.1897.0968-.5614.0556-.8323-.0933l-6.5125-3.5795c-.2689-.1478-.3361-.3478-.1464-.4446l4.571-2.3327c.1917-.0978.5661-.0546.835.0932l6.5125,3.5795c.271.1489.3354.3469.1437.4447l-4.571,2.3327Z" style="fill:#2f3942;"/><path d="m172.1347,176.2361c-.1894.0966-.5635.054-.8344-.095l-6.5112-3.5788c-.2697-.1483-.337-.3482-.1477-.4448l4.5706-2.3325c.1912-.0976.5656-.0543.8353.0939l6.5112,3.5788c.271.1489.338.3483.1468.4459l-4.5706,2.3325Z" style="fill:#2f3942;"/><path d="m184.0876,175.2397c-.1902.0971-.5658.0551-.8369-.0939l-6.5085-3.5773c-.2711-.149-.3349-.3486-.1447-.4456l4.5707-2.3325c.1893-.0966.5621-.0547.8332.0943l6.5085,3.5773c.2711.149.3376.3486.1484.4452l-4.5707,2.3325Z" style="fill:#2f3942;"/><path d="m170.7215,182.6267c-.1897.0968-.562.0553-.8323-.0933l-6.5112-3.5788c-.2716-.1493-.3356-.3475-.1458-.4443l4.571-2.3327c.1917-.0978.5628-.0564.8344.0929l6.5112,3.5788c.2703.1486.3354.3469.1437.4447l-4.571,2.3327Z" style="fill:#2f3942;"/><path d="m182.3007,181.8237c-.1894.0966-.5641.0536-.8345-.095l-6.5105-3.5784c-.2703-.1486-.3357-.3475-.1463-.4441l4.5706-2.3325c.1912-.0976.5637-.0554.8339.0932l6.5105,3.5784c.2704.1486.3381.3484.1469.4459l-4.5706,2.3325Z" style="fill:#2f3942;"/><path d="m193.7182,180.533c-.1902.0971-.5645.0558-.8368-.0939l-6.5078-3.5769c-.273-.15-.3356-.3489-.1454-.446l4.5707-2.3325c.1893-.0966.5609-.0554.8339.0947l6.5078,3.5769c.2723.1497.3376.3486.1484.4452l-4.5707,2.3325Z" style="fill:#2f3942;"/><path d="m180.3554,187.9218c-.1897.0968-.5646.0538-.8363-.0955l-6.5105-3.5784c-.2697-.1482-.3369-.3483-.1472-.4451l4.571-2.3327c.1917-.0978.5661-.0546.8358.0937l6.5105,3.5784c.2716.1493.3393.3491.1477.4469l-4.571,2.3327Z" style="fill:#2f3942;"/><path d="m197.1716,189.9974c-.1894.0966-.711-.0271-1.1717-.2803l-11.0734-6.0864c-.4549-.25-.676-.5345-.4867-.6312l4.5706-2.3325c.1912-.0976.7194.0302,1.1743.2802l11.0734,6.0864c.4607.2532.6752.5337.4841.6312l-4.5706,2.3325Z" style="fill:#2f3942;"/><path d="m203.8842,186.1205c-.1902.0971-.5645.0558-.8368-.0939l-6.5072-3.5766c-.2737-.1504-.3361-.3492-.1459-.4463l4.5707-2.3325c.1893-.0966.5607-.0555.8344.095l6.5072,3.5766c.2723.1497.3376.3486.1484.4452l-4.5707,2.3325Z" style="fill:#2f3942;"/><path d="m189.9841,193.2141c-.1897.0968-.5482.0629-.7997-.0754l-6.0437-3.3218c-.2515-.1383-.3016-.3289-.1119-.4257l4.571-2.3327c.1917-.0978.549-.064.8005.0743l6.0437,3.3218c.2515.1383.3028.329.1111.4268l-4.571,2.3327Z" style="fill:#2f3942;"/><path d="m210.9102,182.8164c-.1898.0969-.7083-.0236-1.1632-.2736l-10.9341-6.0098c-.4492-.2469-.6641-.5295-.4743-.6264l4.571-2.3327c.1897-.0968.7136.0282,1.1628.275l10.9341,6.0098c.4549.25.6644.5281.4747.625l-4.571,2.3327Z" style="fill:#2f3942;"/><path d="m196.1994,174.7308c-.1898.0969-.5661.0546-.8365-.094l-6.5105-3.5784c-.2703-.1486-.3342-.3482-.1444-.4451l4.571-2.3327c.1897-.0968.5626-.0548.8329.0937l6.5105,3.5784c.2704.1486.3377.3486.148.4454l-4.571,2.3327Z" style="fill:#2f3942;"/><path d="m186.0335,169.1432c-.1898.0969-.5654.055-.8363-.094l-6.5112-3.5788c-.2697-.1483-.3356-.3489-.1458-.4458l4.571-2.3327c.1897-.0968.5645-.0538.8343.0945l6.5112,3.5788c.271.1489.3376.3485.1478.4453l-4.571,2.3327Z" style="fill:#2f3942;"/><path d="m176.4015,163.8492c-.1898.0969-.5661.0546-.8356-.0936l-6.5125-3.5795c-.2697-.1483-.3356-.3489-.1458-.4458l4.571-2.3327c.1897-.0968.5645-.0538.8343.0945l6.5125,3.5795c.2696.1482.3369.3481.1472.445l-4.571,2.3327Z" style="fill:#2f3942;"/><path d="m166.2336,158.2605c-.1898.0969-.5654.055-.8351-.0933l-6.5112-3.5788c-.2696-.1482-.3355-.3489-.1456-.4457l4.571-2.3327c.1897-.0968.5645-.0538.8341.0944l6.5112,3.5788c.2697.1483.3363.3478.1466.4447l-4.571,2.3327Z" style="fill:#2f3942;"/><path d="m156.6037,152.9676c-.1898.0969-.5667.0542-.8358-.0937l-6.5125-3.5795c-.271-.1489-.3341-.3481-.1443-.445l4.571-2.3327c.1897-.0968.5618-.0553.8328.0936l6.5125,3.5795c.269.1479.337.3482.1473.445l-4.571,2.3327Z" style="fill:#2f3942;"/><path d="m146.4345,147.3782c-.1898.0969-.5628.0564-.8325-.0919l-6.5131-3.5798c-.269-.1479-.3363-.3493-.1464-.4462l4.571-2.3327c.1897-.0968.5659-.053.8349.0948l6.5131,3.5798c.2697.1483.3338.3464.144.4432l-4.571,2.3327Z" style="fill:#2f3942;"/><path d="m136.2718,141.7924c-.1898.0969-.5661.0546-.8357-.0936l-6.5125-3.5795c-.2716-.1493-.3356-.3489-.1458-.4458l4.571-2.3327c.1897-.0968.5626-.0548.8343.0945l6.5125,3.5795c.2696.1482.3369.3481.1472.445l-4.571,2.3327Z" style="fill:#2f3942;"/><path d="m126.6358,136.4962c-.1898.0969-.5628.0564-.8324-.0918l-6.5112-3.5788c-.2737-.1504-.3349-.3486-.1451-.4454l4.571-2.3327c.1897-.0968.5599-.0563.8336.0941l6.5112,3.5788c.2696.1482.3336.3463.1439.4432l-4.571,2.3327Z" style="fill:#2f3942;"/><path d="m116.4712,130.9094c-.1898.0969-.7049-.0217-1.1481-.2653l-10.6989-5.8805c-.4452-.2447-.6501-.5218-.4603-.6187l4.571-2.3327c.1897-.0968.7036.0226,1.1488.2673l10.6989,5.8805c.4432.2436.6493.5198.4596.6167l-4.571,2.3327Z" style="fill:#2f3942;"/><path d="m102.5724,138.0023c-.1894.0966-.7029-.0227-1.1461-.2663l-10.6989-5.8805c-.4452-.2447-.6515-.5211-.4622-.6177l4.5706-2.3325c.1912-.0976.7046.0221,1.1498.2668l10.6989,5.8805c.4432.2436.6497.5196.4585.6172l-4.5706,2.3325Z" style="fill:#2f3942;"/><path d="m90.9953,138.8064c-.1897.0968-.5634.0545-.833-.0937l-6.5112-3.5788c-.269-.1479-.3376-.3486-.1479-.4455l4.571-2.3327c.1917-.0978.5674-.0538.8365.094l6.5112,3.5788c.2696.1482.336.3473.1444.4451l-4.571,2.3327Z" style="fill:#2f3942;"/><path d="m101.1625,144.3947c-.1897.0968-.5646.0538-.8342-.0943l-6.5112-3.5788c-.2704-.1486-.3362-.3479-.1465-.4447l4.571-2.3327c.1917-.0978.5647-.0553.8351.0933l6.5112,3.5788c.2696.1482.3373.3479.1456.4457l-4.571,2.3327Z" style="fill:#2f3942;"/><path d="m110.7945,149.6887c-.1897.0968-.5646.0538-.8369-.0958l-6.5098-3.578c-.2704-.1486-.3349-.3471-.1451-.444l4.571-2.3327c.1917-.0978.5633-.0561.8337.0926l6.5098,3.578c.2723.1497.34.3494.1483.4472l-4.571,2.3327Z" style="fill:#2f3942;"/><path d="m158.3496,183.271c-.1897.0968-.1742.3888-.8306.028-.6578-.3616-56.8669-31.256-57.5-31.604-.6299-.3462-1.2567-.9742-1.067-1.071l4.4729-2.2826c.1907-.0973,1.6063.5346,2.097.8044,7.7822,4.2774,63.9246,35.1352,57.2557,31.4697.6199.3407.2356.2756.0449.373l-4.4729,2.2826Z" style="fill:#2f3942;"/><path d="m182.8978,196.8304c-.1898.0969-.4621.1637-.7064.0294l-9.1518-5.0302c-.2476-.1361-.4975-.4899-.3077-.5868l4.471-2.2817c.1921-.098.8476.0487,1.0953.1849l9.1518,5.0302c.2444.1343.111.2745-.0811.3725l-4.471,2.2817Z" style="fill:#2f3942;"/><path d="m170.5918,190.0666c-.1898.0969-.4047.1952-.6504.0602l-9.1537-5.0312c-.2478-.1362-.5515-.5196-.3617-.6165l4.471-2.2817c.1921-.098.9015.0783,1.1493.2145l9.1537,5.0312c.2457.1351.0549.2437-.1372.3417l-4.471,2.2817Z" style="fill:#2f3942;"/><path d="m83.9828,142.4023c-.1907.0973-.3202.3025-.5012.203l-6.7626-3.717c-.1815-.0998-.4352-.5156-.2445-.6129l4.4715-2.2819c.1898-.0969.85.1115,1.0316.2112l6.7626,3.717c.181.0995-.096.1018-.2859.1986l-4.4715,2.2819Z" style="fill:#2f3942;"/><path d="m96.2738,149.1579c-.1907.0973-.084.4324-.3297.2973l-9.1558-5.0324c-.2471-.1358-.3372-.4617-.1465-.559l4.4715-2.2819c.1898-.0969.6865.0216.9336.1574l9.1558,5.0324c.2457.1351-.2676.0075-.4574.1043l-4.4715,2.2819Z" style="fill:#2f3942;"/></g><path d="m117.8765,107.102l127.8575,70.3432c1.1102.6069,3.4695.6733,5.0049-.0716,1.9681-.9549,3.0203-2.9998,3.0203-4.356l1.7058-96.7041c0-2.4142-2.0727-5.5226-4.606-6.9074L123.1824,1.6776c-4.5035-2.2135-9.3362,1.8745-9.3362,4.2887v91.3861c-.013,2.4394.1873,4.531.9406,6.1882.7795,1.7148,2.1289,2.9631,3.0897,3.5614Z" style="fill:#f3f3fb;"/><path d="m119.907,108.2191l125.4737,68.1151c2.4766,1.3723,4.503.5378,4.503-1.8545l1.8025-95.2605c0-2.3923-2.0263-5.4725-4.503-6.8448L119.4961,3.6242c-4.1747-2.0642-5.6498.5908-5.6498,2.9831l.0467,92.6853c0,1.5998.7302,3.8811,1.5464,5.4076s3.2294,2.8328,4.4677,3.5189Z" style="fill:#fff;"/><path d="m119.4961,106.4123l124.9023,69.2105c2.4766,1.3723,4.503.5378,4.503-1.8545l1.7058-93.9683c0-2.3923-2.0263-5.4725-4.503-6.8448L119.4961,4.882c-2.4766-1.3723-4.503-.5378-4.503,1.8545v91.2841c0,1.5998.1199,3.3547.936,4.8811.8162,1.5264,2.3286,2.8245,3.5669,3.5106Z" style="fill:#2f3942;"/><polygon points="123.7483 100.8329 240.5407 165.0995 242.2466 78.9313 123.7483 15.2437 123.7483 100.8329" style="fill:#e5e5e5;"/><path d="m76.0016,180.0065l21.3899-11.5957c.7792-.4153,2.2875-.304,2.9168.0221l30.397,16.4194c.154.0798.2616.2058.327.3552.1604-.4414.0604-.928-.327-1.1287l-30.397-16.4194c-.6293-.326-2.1376-.4374-2.9168-.0221l-21.3899,11.5957c-.7269.3841-.8227.9514-.6388,1.4028.0998-.2294.2986-.4496.6388-.6293Z" style="fill:#c1c3c2;"/><path d="m93.8936,201.5033l.6411-.3903c.5328-.3209.6493-1.0957.24-1.3082l-19.7484-10.7441c-.4093-.2125-1.4115-.244-1.9444.0769l-.849.5192,21.6607,11.8464Z" style="fill:#d7dada;"/><polygon points="189.3857 217.5567 230.3711 194.7149 230.3711 192.7007 189.3857 215.5425 189.3857 217.5567" style="fill:#767e7e;"/></g><path d="m377.0088,363.3199l-108.6195-67.0369c-4.3094-2.9909-6.0977-5.3852-2.1328-6.7071l54.8908-14.7737c3.9648-1.3218,11.5534.2766,15.2411,2.5435l108.2747,67.3172c3.6877,2.2669,3.461,5.2031-.5039,6.5249l-55.3458,14.8726c-3.9648,1.3218-8.1169-.4738-11.8046-2.7406Z" style="fill:url(#c); opacity:.1;"/><path d="m372.2102,277.5846l-42.2808-24.4885c-1.6549-1.1291-2.2633-2.1459-.4637-3.044l24.6744-10.7565c1.7996-.8981,4.9632-.654,6.3993.1731l42.113,24.6453c1.4361.8271,1.1387,2.2386-.6609,3.1366l-24.8773,10.8344c-1.7996.8981-3.4679.3266-4.904-.5005Z" style="fill:url(#d); opacity:.25;"/><g><rect x="357.964" y="295.2557" width="2.2379" height="5.6102" style="fill:#b9b7b5;"/><rect x="182.6896" y="246.5435" width="2.5344" height="3.8734" style="fill:#b9b7b5;"/><path d="m308.3367,322.7623l-123.5065-68.6571c-3.302-1.821-2.7182-4.8898,1.2975-6.8197l34.5377-18.7763c4.0156-1.9299,10.0028-2.019,13.3049-.198l124.0911,69.0902c3.302,1.821,2.7182,4.8898-1.2975,6.8197l-35.1222,18.3432c-4.0156,1.9299-10.0028,2.019-13.3049.198Z" style="fill:#8f94ba;"/><path d="m308.3367,317.959l-123.5065-68.6571c-3.302-1.821-2.7182-4.8898,1.2975-6.8197l34.5377-18.7763c4.0156-1.9299,10.0028-2.019,13.3049-.198l124.0911,69.0902c3.302,1.821,2.7182,4.8898-1.2975,6.8197l-35.1222,18.3432c-4.0156,1.9299-10.0028,2.019-13.3049.198Z" style="fill:#f3f3fb;"/><g><path d="m222.3861,237.4935c-.2248.1147-.668.0655-.9866-.1096l-7.6955-4.2297c-.318-.1748-.3974-.4128-.1726-.5276l5.402-2.7568c.2237-.1142.6684-.0625.9863.1123l7.6955,4.2297c.3186.1751.3966.4107.1729.5249l-5.402,2.7568Z" style="fill:#2f3942;"/><path d="m233.7685,243.7497c-.2248.1147-.6664.0664-.9866-.1096l-7.6947-4.2293c-.3212-.1765-.3966-.4124-.1718-.5271l5.402-2.7568c.2237-.1142.6643-.0647.9855.1119l7.6947,4.2293c.3202.176.3966.4107.1729.5249l-5.402,2.7568Z" style="fill:#2f3942;"/><path d="m231.6541,251.5299c-.2238.1142-.6629.0655-.9815-.1097l-7.6955-4.2297c-.3235-.1778-.3975-.4111-.1737-.5253l5.4019-2.7567c.2259-.1153.663-.0672.9864.1106l7.6955,4.2297c.3186.1751.3948.4091.1688.5244l-5.4019,2.7567Z" style="fill:#2f3942;"/><path d="m245.7866,250.3552c-.2248.1147-.6695.0647-.9891-.1109l-7.6962-4.2301c-.3196-.1757-.3942-.4111-.1694-.5258l5.402-2.7568c.2237-.1142.6635-.0651.9831.1105l7.6962,4.2301c.3196.1757.399.412.1753.5262l-5.402,2.7568Z" style="fill:#2f3942;"/><path d="m243.0428,257.7895c-.2238.1142-.6668.0633-.9854-.1118l-7.6971-4.2306c-.321-.1765-.3983-.4115-.1745-.5257l5.4019-2.7567c.2259-.1153.6662-.0655.9872.111l7.6971,4.2306c.3186.1751.3986.4112.1727.5265l-5.4019,2.7567Z" style="fill:#2f3942;"/><path d="m257.1657,256.6096c-.2248.1147-.6638.0678-.9865-.1095l-7.6949-4.2294c-.3202-.176-.3949-.4114-.17-.5262l5.402-2.7568c.2237-.1142.6635-.0651.9838.1109l7.6949,4.2294c.3227.1773.3964.4106.1728.5248l-5.402,2.7568Z" style="fill:#2f3942;"/><path d="m241.3733,265.343c-.2242.1144-.6673.0636-.9877-.1125l-7.6939-4.2288c-.3202-.176-.3989-.412-.1746-.5264l5.4025-2.757c.2265-.1156.6682-.0649.9884.1111l7.6939,4.2288c.3204.1761.4004.4122.1739.5278l-5.4025,2.757Z" style="fill:#2f3942;"/><path d="m255.054,264.3913c-.2238.1142-.6629.0655-.9817-.1097l-7.6978-4.231c-.318-.1748-.3991-.412-.1753-.5262l5.4019-2.7567c.2259-.1153.6701-.0633.988.1114l7.6978,4.231c.3188.1752.3949.4092.169.5245l-5.4019,2.7567Z" style="fill:#2f3942;"/><path d="m269.1824,263.2144c-.2248.1147-.6656.0669-.9874-.11l-7.6939-4.2288c-.3188-.1752-.3966-.4124-.1718-.5271l5.402-2.7568c.2237-.1142.6668-.0633.9855.1119l7.6939,4.2288c.3218.1769.3974.4111.1737.5253l-5.402,2.7568Z" style="fill:#2f3942;"/><path d="m252.754,271.5982c-.2242.1144-.6635.0658-.9853-.1111l-7.6939-4.2288c-.3188-.1752-.3982-.4116-.174-.526l5.4025-2.757c.2265-.1156.669-.0645.9878.1107l7.6939,4.2288c.3218.1769.398.4109.1715.5265l-5.4025,2.757Z" style="fill:#2f3942;"/><path d="m267.0729,270.9974c-.2238.1142-.6676.0629-.9855-.1119l-7.6971-4.2306c-.3202-.176-.3966-.4106-.1728-.5248l5.4019-2.7567c.2259-.1153.6652-.066.9855.11l7.6971,4.2306c.318.1748.3988.4113.1728.5266l-5.4019,2.7567Z" style="fill:#2f3942;"/><path d="m281.1975,269.8183c-.2248.1147-.6656.0669-.9842-.1083l-7.6971-4.2306c-.3188-.1752-.395-.4115-.1702-.5262l5.402-2.7568c.2237-.1142.6651-.0642.9839.111l7.6971,4.2306c.3186.1751.3942.4094.1705.5235l-5.402,2.7568Z" style="fill:#2f3942;"/><path d="m264.7691,278.2022c-.2242.1144-.6635.0658-.9821-.1094l-7.6971-4.2306c-.3188-.1752-.3966-.4107-.1724-.5252l5.4025-2.757c.2265-.1156.6674-.0654.9862.1098l7.6971,4.2306c.3186.1751.3948.4091.1682.5247l-5.4025,2.757Z" style="fill:#2f3942;"/><path d="m278.4545,277.2531c-.2238.1142-.6659.0638-.9847-.1114l-7.6955-4.2297c-.3186-.1751-.3982-.4115-.1744-.5257l5.4019-2.7567c.2259-.1153.6685-.0642.9871.1109l7.6955,4.2297c.3188.1752.398.4109.172.5262l-5.4019,2.7567Z" style="fill:#2f3942;"/><path d="m292.5815,276.0754c-.2248.1147-.6672.066-.9875-.11l-7.6924-4.228c-.321-.1765-.3973-.4128-.1725-.5275l5.402-2.7568c.2237-.1142.6651-.0642.9862.1122l7.6924,4.228c.3202.176.3974.4112.1737.5253l-5.402,2.7568Z" style="fill:#2f3942;"/><path d="m276.7872,284.8078c-.2242.1144-.6665.0641-.9868-.1119l-7.6924-4.228c-.3235-.1778-.3989-.412-.1746-.5264l5.4025-2.757c.2265-.1156.665-.0667.9884.1111l7.6924,4.228c.3202.176.3994.4117.1729.5273l-5.4025,2.757Z" style="fill:#2f3942;"/><path d="m290.4718,283.8582c-.2238.1142-.6668.0633-.9854-.1118l-7.6971-4.2306c-.3188-.1752-.3983-.4115-.1745-.5258l5.4019-2.7567c.2259-.1153.6685-.0642.9872.111l7.6971,4.2306c.3186.1751.3986.4112.1727.5265l-5.4019,2.7567Z" style="fill:#2f3942;"/><path d="m303.9677,282.3336c-.2248.1147-.6656.0669-.9891-.1109l-7.6978-4.231c-.3188-.1752-.3926-.4102-.1678-.5249l5.402-2.7568c.2237-.1142.6627-.0656.9815.1097l7.6978,4.231c.3235.1778.399.412.1753.5262l-5.402,2.7568Z" style="fill:#2f3942;"/><path d="m288.1696,291.0639c-.2242.1144-.6635.0658-.9837-.1103l-7.6971-4.2306c-.3178-.1747-.3972-.4111-.173-.5255l5.4025-2.757c.2265-.1156.669-.0645.9868.1102l7.6971,4.2306c.3202.176.3964.41.1699.5256l-5.4025,2.757Z" style="fill:#2f3942;"/><path d="m301.8558,290.1152c-.2238.1142-.6659.0638-.9862-.1122l-7.6955-4.2297c-.3188-.1752-.3983-.4115-.1745-.5258l5.4019-2.7567c.2259-.1153.6685-.0642.9872.111l7.6955,4.2297c.3202.176.3994.4117.1735.527l-5.4019,2.7567Z" style="fill:#2f3942;"/><path d="m315.9827,288.9375c-.2248.1147-.6687.0652-.9891-.1109l-7.6923-4.228c-.3204-.1761-.3958-.412-.171-.5267l5.402-2.7568c.2237-.1142.6643-.0647.9847.1114l7.6923,4.228c.3204.1761.399.412.1753.5262l-5.402,2.7568Z" style="fill:#2f3942;"/><path d="m300.1855,297.6682c-.2242.1144-.6643.0653-.9837-.1103l-7.6955-4.2297c-.321-.1765-.3966-.4107-.1724-.5252l5.4025-2.757c.2265-.1156.6652-.0666.9862.1098l7.6955,4.2297c.3194.1756.3964.41.1699.5256l-5.4025,2.757Z" style="fill:#2f3942;"/><path d="m313.8708,296.7191c-.2238.1142-.6668.0633-.9863-.1123l-7.6947-4.2293c-.3194-.1756-.3967-.4107-.1729-.5249l5.4019-2.7567c.2259-.1153.6662-.0655.9856.1101l7.6947,4.2293c.3196.1757.3996.4118.1736.5271l-5.4019,2.7567Z" style="fill:#2f3942;"/><path d="m327.3651,295.1937c-.2248.1147-.6672.066-.9891-.1109l-7.6915-4.2275c-.3227-.1773-.3966-.4124-.1718-.5271l5.402-2.7568c.2237-.1142.6629-.0655.9855.1119l7.6915,4.2275c.3218.1769.399.412.1753.5262l-5.402,2.7568Z" style="fill:#2f3942;"/><path d="m311.5717,303.9265c-.2242.1144-.6673.0636-.9884-.1128l-7.6947-4.2293c-.3188-.1752-.3982-.4116-.174-.526l5.4025-2.757c.2265-.1156.669-.0645.9878.1107l7.6947,4.2293c.321.1765.401.4125.1745.5281l-5.4025,2.757Z" style="fill:#2f3942;"/><path d="m331.4467,306.3796c-.2238.1142-.8404-.0321-1.3848-.3313l-13.0876-7.1934c-.5376-.2955-.799-.6317-.5752-.746l5.4019-2.7567c.2259-.1153.8503.0357,1.3879.3312l13.0876,7.1934c.5445.2992.798.6308.5721.7461l-5.4019,2.7567Z" style="fill:#2f3942;"/><path d="m339.3802,301.7976c-.2248.1147-.6672.066-.9891-.1109l-7.6908-4.2272c-.3235-.1778-.3973-.4128-.1725-.5275l5.402-2.7568c.2237-.1142.6627-.0656.9862.1122l7.6908,4.2272c.3218.1769.399.412.1753.5262l-5.402,2.7568Z" style="fill:#2f3942;"/><path d="m322.9518,310.1814c-.2242.1144-.6479.0743-.9452-.0891l-7.143-3.926c-.2973-.1634-.3565-.3887-.1323-.5031l5.4025-2.757c.2265-.1156.6488-.0756.9461.0878l7.143,3.926c.2973.1634.3578.3888.1313.5044l-5.4025,2.757Z" style="fill:#2f3942;"/><path d="m347.6842,297.8925c-.2244.1145-.8371-.0279-1.3747-.3234l-12.923-7.1029c-.5309-.2918-.7849-.6258-.5606-.7403l5.4025-2.757c.2242-.1144.8435.0333,1.3743.3251l12.923,7.1029c.5376.2955.7853.6242.561.7387l-5.4025,2.757Z" style="fill:#2f3942;"/><path d="m330.2977,288.3361c-.2244.1145-.669.0645-.9886-.1112l-7.6947-4.2293c-.3194-.1756-.395-.4115-.1707-.526l5.4025-2.757c.2242-.1144.665-.0648.9844.1108l7.6947,4.2293c.3196.1757.3991.412.1749.5264l-5.4025,2.757Z" style="fill:#2f3942;"/><path d="m318.2826,281.7322c-.2244.1145-.6682.0649-.9884-.1111l-7.6955-4.2297c-.3188-.1752-.3966-.4124-.1723-.5269l5.4025-2.757c.2242-.1144.6672-.0636.986.1116l7.6955,4.2297c.3202.176.399.4119.1747.5263l-5.4025,2.757Z" style="fill:#2f3942;"/><path d="m306.8986,275.4752c-.2244.1145-.669.0645-.9876-.1106l-7.6971-4.2306c-.3188-.1752-.3966-.4124-.1723-.5269l5.4025-2.757c.2242-.1144.6672-.0636.986.1116l7.6971,4.2306c.3186.1751.3982.4115.1739.5259l-5.4025,2.757Z" style="fill:#2f3942;"/><path d="m294.8813,268.87c-.2244.1145-.6682.0649-.987-.1103l-7.6955-4.2297c-.3186-.1751-.3965-.4123-.1721-.5268l5.4025-2.757c.2242-.1144.6672-.0636.9858.1115l7.6955,4.2297c.3188.1752.3975.4111.1733.5255l-5.4025,2.757Z" style="fill:#2f3942;"/><path d="m283.4998,262.6143c-.2244.1145-.6698.0641-.9878-.1107l-7.6971-4.2306c-.3202-.176-.3949-.4114-.1705-.5259l5.4025-2.757c.2242-.1144.664-.0654.9842.1107l7.6971,4.2306c.318.1748.3983.4115.1741.526l-5.4025,2.757Z" style="fill:#2f3942;"/><path d="m271.4808,256.0083c-.2244.1145-.6651.0666-.9839-.1086l-7.6978-4.231c-.318-.1748-.3974-.4128-.1731-.5273l5.4025-2.757c.2242-.1144.6688-.0627.9868.1121l7.6978,4.231c.3188.1752.3945.4094.1702.5239l-5.4025,2.757Z" style="fill:#2f3942;"/><path d="m259.4696,249.4065c-.2244.1145-.669.0645-.9877-.1106l-7.6971-4.2306c-.321-.1765-.3966-.4124-.1723-.5269l5.4025-2.757c.2242-.1144.665-.0648.986.1116l7.6971,4.2306c.3186.1751.3982.4115.1739.5259l-5.4025,2.757Z" style="fill:#2f3942;"/><path d="m248.081,243.1469c-.2244.1145-.6652.0666-.9838-.1085l-7.6955-4.2297c-.3235-.1778-.3958-.412-.1715-.5265l5.4025-2.757c.2242-.1144.6617-.0666.9852.1112l7.6955,4.2297c.3186.1751.3943.4093.17.5238l-5.4025,2.757Z" style="fill:#2f3942;"/><path d="m236.0674,236.5439c-.2244.1145-.8331-.0257-1.3569-.3136l-12.645-6.9501c-.5262-.2892-.7684-.6167-.544-.7312l5.4025-2.757c.2242-.1144.8315.0267,1.3577.316l12.645,6.9501c.5238.2879.7674.6144.5432.7288l-5.4025,2.757Z" style="fill:#2f3942;"/><path d="m219.6406,244.9269c-.2238.1142-.8308-.0268-1.3546-.3147l-12.645-6.9501c-.5262-.2892-.7701-.6159-.5463-.7301l5.4019-2.7567c.2259-.1153.8328.0261,1.359.3153l12.645,6.9501c.5238.2879.7679.6142.5419.7295l-5.4019,2.7567Z" style="fill:#2f3942;"/><path d="m205.9577,245.8773c-.2242.1144-.6659.0644-.9845-.1107l-7.6955-4.2297c-.318-.1748-.399-.412-.1748-.5265l5.4025-2.757c.2265-.1156.6706-.0636.9886.1112l7.6955,4.2297c.3186.1751.3972.4104.1707.526l-5.4025,2.757Z" style="fill:#2f3942;"/><path d="m217.9742,252.4821c-.2242.1144-.6673.0636-.9859-.1115l-7.6955-4.2297c-.3196-.1757-.3974-.4112-.1732-.5256l5.4025-2.757c.2265-.1156.6674-.0654.987.1103l7.6955,4.2297c.3186.1751.3986.4112.1721.5268l-5.4025,2.757Z" style="fill:#2f3942;"/><path d="m229.3582,258.7391c-.2242.1144-.6673.0636-.9892-.1133l-7.6939-4.2288c-.3196-.1757-.3958-.4103-.1715-.5247l5.4025-2.757c.2265-.1156.6658-.0663.9854.1094l7.6939,4.2288c.3218.1769.4018.413.1753.5286l-5.4025,2.757Z" style="fill:#2f3942;"/><path d="m285.5632,298.4297c-.2242.1144-.2058.4595-.9817.0331-.7775-.4273-67.2105-36.9413-67.9588-37.3526-.7444-.4092-1.4853-1.1514-1.2611-1.2658l5.2865-2.6978c.2254-.115,1.8984.6319,2.4785.9507,9.1977,5.0554,75.552,41.526,67.67,37.1938.7327.4027.2785.3258.0531.4408l-5.2865,2.6978Z" style="fill:#2f3942;"/><path d="m314.5766,314.4555c-.2244.1145-.5461.1935-.8349.0347l-10.8165-5.9451c-.2927-.1609-.588-.579-.3637-.6935l5.2842-2.6967c.2271-.1159,1.0018.0576,1.2945.2185l10.8165,5.9451c.2888.1587.1312.3244-.0959.4403l-5.2842,2.6967Z" style="fill:#2f3942;"/><path d="m300.0321,306.4614c-.2244.1145-.4783.2307-.7687.0711l-10.8187-5.9464c-.2928-.161-.6518-.6141-.4275-.7286l5.2842-2.6967c.2271-.1159,1.0655.0926,1.3583.2536l10.8187,5.9464c.2904.1596.0649.288-.1621.4039l-5.2842,2.6967Z" style="fill:#2f3942;"/><path d="m197.6696,250.1273c-.2254.115-.3785.3576-.5924.24l-7.9927-4.3931c-.2145-.1179-.5143-.6094-.2889-.7244l5.2848-2.697c.2244-.1145,1.0047.1317,1.2192.2496l7.9927,4.3931c.2139.1176-.1135.1203-.3379.2348l-5.2848,2.697Z" style="fill:#2f3942;"/><path d="m212.1963,258.1117c-.2254.115-.0992.511-.3897.3514l-10.8212-5.9477c-.292-.1605-.3985-.5457-.1731-.6607l5.2848-2.697c.2244-.1145.8114.0255,1.1034.186l10.8212,5.9477c.2904.1596-.3162.0088-.5406.1233l-5.2848,2.697Z" style="fill:#2f3942;"/></g></g><g><path d="m344.2984,260.3851l-60.9488-33.8814c-1.6295-.8986-1.3414-2.4131.6403-3.3654l17.0439-9.2659c1.9817-.9524,4.9363-.9963,6.5658-.0977l61.2373,34.0951c1.6295.8986,1.3414,2.4131-.6403,3.3654l-17.3323,9.0521c-1.9817.9524-4.9363.9963-6.5658.0977Z" style="fill:#8f94ba;"/><rect x="282.2359" y="220.1952" width="7.4604" height="4.8659" style="fill:#b9b7b5;"/><rect x="366.6635" y="244.8312" width="3.2361" height="4.4197" style="fill:#b9b7b5;"/><path d="m344.3049,256.1394l-60.9488-33.8814c-1.6295-.8986-1.3414-2.4131.6403-3.3654l17.0439-9.2659c1.9817-.9524,4.9363-.9963,6.5658-.0977l61.2373,34.0951c1.6295.8986,1.3414,2.4131-.6403,3.3654l-17.3323,9.0521c-1.9817.9524-4.9363.9963-6.5658.0977Z" style="fill:#f3f3fb;"/><polygon points="340.161 190.2582 315.8034 177.6068 315.8034 226.5341 336.642 241.2504 340.161 239.1855 340.161 190.2582" style="fill:#8f94ba;"/><polygon points="336.7549 192.2045 312.3973 179.5531 312.3973 228.4805 336.7549 241.1318 336.7549 192.2045" style="fill:#ececeb;"/></g><g><path d="m244.1527,153.9705l185.6145,102.1193c1.6117.8811,5.0368.9775,7.2657-.104,2.8571-1.3863,4.3846-4.3549,4.3846-6.3237l2.4764-140.3882c0-3.5048-3.009-8.0173-6.6866-10.0277L251.8555.9229c-6.5378-3.2134-13.5537,2.7213-13.5537,6.226v132.6678c-.0189,3.5413.2718,6.5778,1.3655,8.9836,1.1317,2.4895,3.0906,4.3016,4.4854,5.1702Z" style="fill:#f3f3fb;"/><path d="m247.1005,155.5923l182.1538,98.8846c3.5954,1.9923,6.5371.7808,6.5371-2.6922l2.6168-138.2924c0-3.473-2.9417-7.9446-6.5371-9.9368L246.5039,3.7488c-6.0605-2.9966-8.202.8576-8.202,4.3306l.0678,134.554c0,2.3225,1.0601,5.6343,2.2449,7.8503,1.1848,2.216,4.6882,4.1124,6.4859,5.1085Z" style="fill:#fff;"/><path d="m246.5039,152.9694l181.3244,100.4749c3.5954,1.9923,6.5371.7808,6.5371-2.6922l2.4764-136.4165c0-3.473-2.9417-7.9446-6.5371-9.9368L246.5039,5.5748c-3.5954-1.9923-6.5371-.7808-6.5371,2.6922v132.5198c0,2.3225.174,4.8701,1.3588,7.086,1.1848,2.216,3.3805,4.1004,5.1782,5.0965Z" style="fill:#2f3942;"/><polygon points="252.677 144.8696 422.228 238.1673 424.7044 113.0744 252.677 20.6173 252.677 144.8696" style="fill:#e5e5e5;"/></g></g><g id="e"><g id="f"><g id="g"><path id="i" d="m327.8589,172.8165c-12.9904-6.5641-23.5924-34.0794-23.661-61.2193-.0682-26.997,10.3217-43.6707,23.1877-37.2835,12.8959,6.4021,23.5654,33.6228,23.758,60.7964.1936,27.3181-10.2637,44.2859-23.2847,37.7063Zm-.4536-94.3967c-11.7841-5.8545-21.2982,9.4295-21.231,34.1673.0676,24.8577,9.776,50.0442,21.6645,56.0471,11.914,6.0157,21.4847-9.5153,21.3122-34.522-.1716-24.8855-9.9366-49.8254-21.7458-55.6924Z" style="fill:url(#h);"/><path id="k" d="m327.3856,74.3328c-12.861-6.3848-23.2468,10.2823-23.1786,37.269.0686,27.1295,10.6665,54.6337,23.6518,61.1953,13.0158,6.5769,23.4691-10.3844,23.2755-37.6915-.1925-27.1627-10.8579-54.3732-23.7487-60.7728Z" style="fill:url(#j); isolation:isolate; opacity:.32;"/><path id="m" d="m327.8589,172.8165c-12.9904-6.5641-23.5924-34.0794-23.661-61.2193-.0682-26.997,10.3217-43.6707,23.1877-37.2835,12.8959,6.4021,23.5654,33.6228,23.758,60.7964.1936,27.3181-10.2637,44.2859-23.2847,37.7063Zm-.4536-94.3967c-11.7841-5.8545-21.2982,9.4295-21.231,34.1673.0676,24.8577,9.776,50.0442,21.6645,56.0471,11.914,6.0157,21.4847-9.5153,21.3122-34.522-.1716-24.8855-9.9366-49.8254-21.7458-55.6924Z" style="fill:url(#l); isolation:isolate; opacity:.44;"/><path id="n" d="m327.4065,78.6813c-11.8751-5.9-21.4629,9.4934-21.3955,34.4127.0677,25.041,9.8512,50.4164,21.8322,56.467,12.007,6.0637,21.6521-9.5805,21.478-34.7726-.1733-25.0693-10.0141-50.1945-21.9148-56.1071Z"/><path id="o" d="m327.8589,172.8165c-12.9904-6.5641-23.5924-34.0794-23.661-61.2193-.0682-26.997,10.3217-43.6707,23.1877-37.2835,12.8959,6.4021,23.5654,33.6228,23.758,60.7964.1936,27.3181-10.2637,44.2859-23.2847,37.7063Zm-.4684-97.4586c-12.8672-6.3891-23.259,9.996-23.1917,36.637.0677,26.7801,10.6688,53.9992,23.6588,60.5629,13.0205,6.579,23.4798-10.0919,23.2887-37.0473-.1901-26.8148-10.8586-53.7485-23.7558-60.1525Z" style="fill:#0f0f0d; isolation:isolate; opacity:.35;"/></g><g id="p"><path id="r" d="m327.4053,78.4198c-11.7893-5.8571-21.3076,9.4247-21.2404,34.1626.0676,24.8578,9.7802,50.0463,21.6739,56.0518,11.9193,6.0184,21.4942-9.5104,21.3218-34.5172-.1716-24.8857-9.9409-49.8276-21.7553-55.6972Z" style="fill:url(#q);"/><path id="t" d="m327.4053,78.4198c-11.7893-5.8571-21.3076,9.4247-21.2404,34.1626.0676,24.8578,9.7802,50.0463,21.6739,56.0518,11.9193,6.0184,21.4942-9.5104,21.3218-34.5172-.1716-24.8857-9.9409-49.8276-21.7553-55.6972Z" style="fill:url(#s); isolation:isolate; opacity:.13;"/><path id="v" d="m327.4231,82.1386c-3.5155-1.7477-6.3489,2.8083-6.3181,10.1647.0308,7.367,2.9218,14.8,6.4465,16.5607,3.527,1.7619,6.3654-2.8159,6.3253-10.1959-.04-7.3694-2.936-14.7807-6.4537-16.5295Z" style="fill:url(#u); isolation:isolate; opacity:.7;"/><path id="x" d="m316.1924,79.3568c-.001.0149-.0019.0293-.0029.044-.0277-.0029-.0282-.017.0029-.044Zm16.3157,36.8761l-.2387,10.9956,3.5579,9.7973-3.4734,6.2821,2.3547,6.4956-2.2987,4.1608.3573,11.2856-9.909-4.9981-.2118-48.9498c-3.9326-6.1569-6.6333-16.5495-6.6716-26.9419-.0064-1.7372.1039-3.2839.2147-4.9594.4227.0437,7.2459-2.5515,7.2459-2.5515-.054.6202,8.0066,4.6256,7.9463,3.9481,0,0,6.6662,9.2603,7.3341,9.8844.1786,1.7937.2455,3.4106.2557,5.1274.0618,10.4257-2.621,18.1474-6.4634,20.4236Zm6.1955-25.6789c.0044.0431.0079.085.0122.1279.0731.0684.0754.0347-.0122-.1279Z" style="fill:url(#w); isolation:isolate; opacity:.3;"/><path id="y" d="m316.2236,147.066c-3.8398-8.9035-6.2848-20.3882-6.3201-31.8579-.041-13.3138,3.2339-23.921,8.6676-28.0385-.0923,1.2779-.185,2.4541-.1798,3.7812.0308,7.8676,2.2557,15.8217,5.495,20.6108l.1606,36.116,4.1159,10.6326,4.0357-6.5306-.285-7.6641,1.8936-3.0625-1.9356-4.9823,2.8622-4.6263-2.9255-7.5203.2009-8.3015c3.1662-1.5907,5.3802-7.3384,5.3347-15.2269-.0077-1.3306-.0637-2.5829-.2181-3.986,2.003,3.5006,3.7285,7.5929,5.12,12.0301-3.3654-11.1495-8.7653-19.988-14.8156-22.9977-10.01-4.9794-18.0601,7.8738-17.9966,28.7774.036,11.866,2.6768,23.7944,6.79,32.8464h0Zm10.5583-.8965l-1.3741-.6911-.1306-28.5124,1.3702.6857.1344,28.5178Zm-2.233-60.707c1.0713.1259,2.1925.4801,3.2661,1.0143,1.1221.4564,2.1976,1.2969,3.2739,2.2399.0515.5349.1029,1.0697.1056,1.5804.0201,3.8828-1.4785,6.2976-3.335,5.3724s-3.3837-4.8459-3.4012-8.7251c-.0023-.5102.0442-.996.0906-1.4818Z" style="fill:#0f0f0d; isolation:isolate; opacity:.2;"/><path id="aa" d="m327.4053,78.4198c-11.7841-5.8545-21.2982,9.4295-21.231,34.1673.0676,24.8577,9.776,50.0442,21.6645,56.0471,11.914,6.0157,21.4847-9.5153,21.3122-34.522-.1716-24.8855-9.9366-49.8254-21.7458-55.6924Zm-3.2316,6.066c1.0712.1259,2.1922.4799,3.2656,1.0139,1.1219.4563,2.1973,1.2966,3.2734,2.2393.0515.5347.1029,1.0695.1055,1.5801.0199,3.882-1.4785,6.2963-3.3348,5.3714-1.8556-.9246-3.3831-4.8448-3.4005-8.7232-.0023-.5101.0442-.9958.0907-1.4815Zm2.0971,32.1824l.1334,28.5119-1.3739-.6909-.1295-28.5065,1.37.6855Zm1.5335,44.7906c-10.0196-5.0527-18.2112-26.1719-18.2753-47.2328-.0405-13.311,3.2344-23.9162,8.6675-28.0331-.0923,1.2777-.1851,2.4536-.1799,3.7804.0305,7.866,2.2548,15.8183,5.4936,20.6063l.1593,36.1086,4.1149,10.6302,4.0355-6.5294-.2847-7.6625,1.8935-3.062-1.9351-4.9812,2.862-4.6254-2.9249-7.5186.2012-8.2998c3.1659-1.5905,5.3798-7.3372,5.3346-15.224-.0076-1.3303-.0636-2.5824-.2179-3.9851,5.4737,9.5659,8.8865,23.545,9.0234,36.9478.1383,21.0639-7.8808,34.1671-17.9677,29.0804v.0002Z" style="fill:url(#z);"/></g></g></g><g id="ab"><g id="ac"><g id="ad"><path id="af" d="m177.3743,116.4061c-6.8397-3.7636-12.3903-21.1541-12.3903-38.7756,0-17.6215,5.5506-28.9744,12.3903-25.2984,6.8584,3.6861,12.452,21.0998,12.452,38.8091s-5.5935,29.0389-12.4519,25.2649Zm0-61.3784c-6.2621-3.369-11.3452,7.029-11.3452,23.1712,0,16.1422,5.0831,32.0692,11.3452,35.5116,6.2778,3.4511,11.3968-6.9275,11.3968-23.1432,0-16.2156-5.119-32.1622-11.3968-35.5397Z" style="fill:url(#ae);"/><path id="ah" d="m177.3743,52.3446c-6.837-3.6746-12.3855,7.6738-12.3855,25.2885s5.5485,34.9983,12.3855,38.7605c6.8557,3.7724,12.4471-7.5528,12.4471-25.2551,0-17.7022-5.5914-35.1093-12.4471-38.7939Z" style="fill:url(#ag); isolation:isolate; opacity:.32;"/><path id="aj" d="m177.3743,116.4061c-6.8397-3.7636-12.3903-21.1541-12.3903-38.7756,0-17.6215,5.5506-28.9744,12.3903-25.2984,6.8584,3.6861,12.452,21.0998,12.452,38.8091s-5.5935,29.0389-12.4519,25.2649Zm0-61.3784c-6.2621-3.369-11.3452,7.029-11.3452,23.1712,0,16.1422,5.0831,32.0692,11.3452,35.5116,6.2778,3.4511,11.3968-6.9275,11.3968-23.1432,0-16.2156-5.119-32.1622-11.3968-35.5397Z" style="fill:url(#ai); isolation:isolate; opacity:.44;"/><path id="ak" d="m177.3743,55.1993c-6.3103-3.3951-11.4324,7.0768-11.4324,23.3359,0,16.2591,5.1221,32.3032,11.4324,35.7729,6.3263,3.4785,11.4848-6.9738,11.4848-23.3074,0-16.3336-5.1585-32.3977-11.4848-35.8014Z"/><path id="al" d="m177.3743,116.4061c-6.8397-3.7636-12.3903-21.1541-12.3903-38.7756,0-17.6215,5.5506-28.9744,12.3903-25.2984,6.8584,3.6861,12.452,21.0998,12.452,38.8091s-5.5935,29.0389-12.4519,25.2649Zm0-63.3884c-6.8396-3.6769-12.3903,7.4845-12.3903,24.8716,0,17.3871,5.5507,34.5867,12.3903,38.35,6.8584,3.7737,12.4519-7.3646,12.4519-24.8381,0-17.4735-5.5935-34.6965-12.452-38.3836Z" style="fill:#0f0f0d; isolation:isolate; opacity:.35;"/></g><g id="am"><path id="ao" d="m177.3743,55.0277c-6.2649-3.3705-11.3502,7.0263-11.3502,23.1685,0,16.1423,5.0853,32.0703,11.3502,35.5143,6.2806,3.4526,11.4019-6.9247,11.4019-23.1404,0-16.2157-5.1213-32.1635-11.4019-35.5424Z" style="fill:url(#an);"/><path id="aq" d="m177.3743,55.0277c-6.2649-3.3705-11.3502,7.0263-11.3502,23.1685,0,16.1423,5.0853,32.0703,11.3502,35.5143,6.2806,3.4526,11.4019-6.9247,11.4019-23.1404,0-16.2157-5.1213-32.1635-11.4019-35.5424Z" style="fill:url(#ap); isolation:isolate; opacity:.13;"/><path id="as" d="m177.3742,57.4671c-1.8677-1.0057-3.3862,2.0946-3.3862,6.9104s1.5185,9.5567,3.3862,10.569c1.8691,1.013,3.3908-2.0856,3.3908-6.9079,0-4.8223-1.5217-9.565-3.3908-10.5715Z" style="fill:url(#ar); isolation:isolate; opacity:.7;"/><path id="au" d="m171.4028,56.0923c-.0005.0098-.0011.0193-.0017.029-.0148-.0008-.015-.01.0017-.029Zm8.5845,23.4686l-.1575,7.1683,1.859,6.2326-1.859,4.2059,1.2287,4.1219-1.2287,2.7781.1575,7.281-5.2234-2.8675v-31.7546c-2.0738-3.8636-3.4867-10.5463-3.4867-17.3461,0-1.138.0617-2.1562.1239-3.2592.2248.0117,3.8623-1.9649,3.8623-1.9649-.0302.4092,4.2536,2.7145,4.2233,2.2723,0,0,3.5253,5.8076,3.8793,6.1901.0895,1.1682.1201,2.2247.1201,3.3486,0,6.8165-1.4506,11.9614-3.4988,13.5935Zm3.3727-17.0255c.0022.0281.004.0554.0061.0834.0388.0419.0401.0198-.0061-.0834Z" style="fill:url(#at); isolation:isolate; opacity:.3;"/><path id="av" d="m171.2867,100.2002c-2.013-5.6235-3.2866-12.9825-3.2866-20.4384,0-8.6756,1.7564-15.7344,4.6519-18.6445-.0517.8405-.1035,1.6141-.1035,2.4824,0,5.1433,1.1643,10.2499,2.8729,13.2481v23.459s2.1504,6.7265,2.1504,6.7265l2.1522-4.3719-.1297-4.954,1.0119-2.0565-1.0119-3.161,1.5309-3.1131-1.5309-4.7801.1297-5.4147c1.6868-1.1592,2.8812-4.996,2.8812-10.1497,0-.8701-.026-1.6873-.1039-2.5995,1.0557,2.2119,1.9612,4.8207,2.6873,7.6662-1.7557-7.1589-4.6052-12.7342-7.819-14.4662-5.3158-2.8648-9.6169,5.8696-9.6168,19.5032,0,7.7145,1.3766,15.3544,3.5339,21.0639h0Zm5.5854-.9713l-.7254-.3967v-18.5159s.7254.394.7254.394v18.5186Zm-1.0363-39.4678c.5699.0399,1.1658.2274,1.736.5347.5962.2545,1.1666.7626,1.7372,1.3377.0259.3484.0519.6968.0519,1.0312,0,2.5417-.8039,4.1809-1.7891,3.6487s-1.7878-3.0378-1.7878-5.5778c0-.3342.0259-.6544.0518-.9746Z" style="fill:#0f0f0d; isolation:isolate; opacity:.2;"/><path id="ax" d="m177.3743,55.0277c-6.2621-3.369-11.3452,7.029-11.3452,23.1712,0,16.1422,5.0831,32.0692,11.3452,35.5116,6.2778,3.4511,11.3968-6.9275,11.3968-23.1432,0-16.2156-5.119-32.1622-11.3968-35.5397Zm-1.7359,4.1083c.5698.0398,1.1657.2272,1.7359.5345.5962.2544,1.1665.7624,1.7371,1.3374.0259.3484.0519.6968.0519,1.0312,0,2.5416-.8039,4.1809-1.7889,3.6488s-1.7877-3.0375-1.7877-5.5773c0-.3342.0259-.6544.0518-.9746Zm1.0362,20.9482v18.5179s-.7254-.3966-.7254-.3966v-18.5152s.7254.3939.7254.3939Zm.6997,28.9965c-5.2815-2.8985-9.571-16.2635-9.571-29.9438,0-8.6753,1.7562-15.734,4.6516-18.6443-.0517.8404-.1035,1.614-.1035,2.4823,0,5.1431,1.1642,10.2494,2.8727,13.2472v23.4581s2.1502,6.726,2.1502,6.726l2.152-4.372-.1297-4.9538,1.0118-2.0566-1.0118-3.1607,1.5308-3.1131-1.5308-4.7797.1297-5.4145c1.6866-1.1593,2.8809-4.9961,2.8809-10.1496,0-.8701-.026-1.6872-.1039-2.5993,2.8841,6.0431,4.6527,15.0376,4.6787,23.7603,0,13.6658-4.2891,22.4322-9.6078,19.5133h0Z" style="fill:url(#aw);"/></g></g></g></g><g><path d="m93.491,373.027l-58.5943-26.7849c-4.6463-3.2359-4.8923-7.7886-.7761-8.9902l72.8902-39.683c4.1161-1.2015,7.5875-.1738,11.5521,2.2952l57.6013,40.1705c3.9646,2.469-1.1206,11.1855-5.2368,12.387l-13.9393,6.0929c-4.1161,1.2015-59.5326,16.9814-63.4972,14.5124Z" style="fill:url(#ay); opacity:.1;"/><g><path d="m116.3951,254.8099L6.6392,325.1394c-3.1919,1.3539-6.6392-.537-6.6392-3.4281v-81.8308c0-2.891,2.797-5.7058,5.6177-7.1678l77.093-41.4695c3.0217-1.3539,4.4775-1.7934,8.7415,1.0253l21.3467,12.8009c2.002,1.1635,3.2671,1.6671,3.2483,5.7124-.0912,19.5941.3478,44.028.3478,44.028Z" style="fill:#ba8736;"/><polygon points="0 324.3574 31.8786 344.0372 28.8755 255.1735 0 238.8843 0 324.3574" style="fill:#997033;"/><path d="m111.313,301.5688l-76.4313,42.323c-2.8876,1.2362-6.0061-1.2871-6.0061-3.9269v-83.4824c0-2.6397,2.5303-5.2098,5.0821-6.5448l80.5242-43.8121c2.1901,2.1867,1.4742,4.5216,1.4742,7.1613l.439,81.7371c0,2.6397-1.9015,5.1368-5.0821,6.5448Z" style="fill:#edb145;"/><path d="m82.7589,271.4757c3.9274-6.4241,3.6179-13.5365-.6911-15.886-4.309-2.3495-10.9859.9537-14.9133,7.3778-3.9274,6.4242-3.6179,13.5366.6911,15.8861.6969.38,1.4563.6099,2.2554.7049l-1.3314,19.4288,15.5928-7.5265-3.4719-17.3964c.6698-.7928,1.2987-1.6567,1.8684-2.5886Z" style="fill:#2f3942;"/><path d="m65.112,152.0648c-3.1635-.0331-6.5643.645-10.1053,2.1186-16.7836,6.9844-30.4379,29.169-30.4379,49.4532v35.6774l4.1126,1.8707,6.5029-6.972v-34.4661c0-14.0546,9.2281-29.426,20.5712-34.2654,2.29-.977,4.4911-1.4431,6.5502-1.462,8.0425.2502,13.7911,7.2193,13.7911,18.1743v29.0008l.23-.1255v.1255l3.8826,1.2014,5.2354-6.3027v-27.7897c0-16.2351-8.5326-26.4054-20.3327-26.2385Z" style="fill:#9e7438;"/><path d="m69.2245,153.2662c-3.1635-.0331-6.5643.645-10.1053,2.1186-16.7836,6.9844-30.4379,29.169-30.4379,49.4532v36.3466l1.4975-.6692,9.1179-5.1014v-34.4661c0-14.0546,9.2281-29.426,20.5712-34.2654,2.29-.977,4.4911-1.4431,6.5502-1.462,8.0425.2502,13.7911,7.2193,13.7911,18.1743v29.0008l.23-.1255v.1255l9.1179-5.1013v-27.7897c0-16.2351-8.5326-26.4054-20.3327-26.2385Z" style="fill:#ce9849;"/></g></g></svg>