<?xml version="1.0" encoding="UTF-8"?><svg xmlns="http://www.w3.org/2000/svg" xmlns:xlink="http://www.w3.org/1999/xlink" viewBox="0 0 791.0489 515.0429"><defs><linearGradient id="b" x1="427.567" y1="625.0657" x2="389.1679" y2="318.1625" gradientUnits="userSpaceOnUse"><stop offset=".2097" stop-color="#3a81bb" stop-opacity="0"/><stop offset=".6996" stop-color="#1f4d82"/></linearGradient><linearGradient id="g" x1="160.7524" y1="1063.266" x2="160.7524" y2="783.5613" gradientTransform="translate(-20.9 1076.7091) scale(1 -1)" gradientUnits="userSpaceOnUse"><stop offset="0" stop-color="#414141"/><stop offset=".196" stop-color="#3e3e3e"/><stop offset="1" stop-color="#3a3a3a"/></linearGradient><radialGradient id="i" cx="613.332" cy="1679.7233" fx="613.332" fy="1679.7233" r="475.8974" gradientTransform="translate(-86.026 738.3911) scale(.3539 -.3539)" gradientUnits="userSpaceOnUse"><stop offset=".6733" stop-color="#fcfcfc" stop-opacity="0"/><stop offset="1" stop-color="#fcfcfc"/></radialGradient><radialGradient id="k" cx="632.4975" cy="1617.0363" fx="632.4975" fy="1617.0363" r="395.8793" gradientTransform="translate(-86.026 738.3911) scale(.3539 -.3539)" gradientUnits="userSpaceOnUse"><stop offset=".1088" stop-color="#0f0f0d" stop-opacity="0"/><stop offset=".8856" stop-color="#414141" stop-opacity="0"/><stop offset=".9339" stop-color="#1e1e1d" stop-opacity=".6841"/><stop offset=".9874" stop-color="#0f0f0d"/></radialGradient><radialGradient id="p" cx="645.6916" cy="2897.7591" fx="645.6916" fy="2897.7591" r="768.9273" gradientTransform="translate(-86.026 668.8996) scale(.3539 -.2026)" gradientUnits="userSpaceOnUse"><stop offset="0" stop-color="#2e6b26"/><stop offset="1" stop-color="#6ab536"/></radialGradient><radialGradient id="r" cx="670.8078" cy="1485.2692" fx="670.8078" fy="1485.2692" r="340.1232" gradientTransform="translate(-86.026 772.0998) scale(.3539 -.4347)" gradientUnits="userSpaceOnUse"><stop offset="0" stop-color="#000"/><stop offset=".7192" stop-color="#fff"/></radialGradient><radialGradient id="t" cx="639.9387" cy="1858.4611" fx="639.9387" fy="1858.4611" r="150.169" gradientTransform="translate(-86.026 738.3911) scale(.3539 -.3539)" gradientUnits="userSpaceOnUse"><stop offset="0" stop-color="#6ab536"/><stop offset="1" stop-color="#2e6b26"/></radialGradient><radialGradient id="v" cx="665.7245" cy="1283.6889" fx="665.7245" fy="1283.6889" r="221.8007" gradientTransform="translate(-83.761 826.1585) scale(.3356 -.5572)" gradientUnits="userSpaceOnUse"><stop offset="0" stop-color="#000"/><stop offset=".7842" stop-color="#4f4f4f" stop-opacity="0"/></radialGradient><radialGradient id="y" cx="636.7401" cy="1903.5967" fx="636.7401" fy="1903.5967" r="513.2746" gradientTransform="translate(-86.026 738.3911) scale(.3539 -.3539)" gradientUnits="userSpaceOnUse"><stop offset="0" stop-color="#f5f5f5"/><stop offset="1" stop-color="#e3e3e3"/></radialGradient></defs><g id="a"><polygon points="791.0489 515.0429 36.0387 479.6242 31.3125 473.1545 650.6748 324.3392 791.0489 515.0429" style="fill:url(#b); opacity:.1;"/><g><path d="m651.118,326.432V10.8855c0-5.987-5.0509-10.8855-11.2243-10.8855H134.3162c-6.1734,0-11.2243,4.8985-11.2243,10.8855v315.5465h528.0261Z" style="fill:#2f3942;"/><rect x="142.9885" y="22.0462" width="486.7023" height="295.5965" style="fill:#d0e6f4;"/><path d="m647.8638,344.5388H126.9805c-6.1734,0-93.5091,117.6541-93.5091,117.6541-6.4589,8.0902-2.6624,17.5348,6.2705,17.5348h692.2999c8.7344,0,15.1575-8.2698,10.2039-15.8334-4.9536-7.5636-88.2085-119.3555-94.3819-119.3555Z" style="fill:#26211d; opacity:.7;"/><path d="m647.8638,332.6637H126.9805c-6.1734,0-93.5091,117.6541-93.5091,117.6541-6.4589,8.0902-2.6624,17.5348,6.2705,17.5348h692.2999c8.7344,0,15.1575-8.2698,10.2039-15.8334-4.9536-7.5636-88.2085-119.3555-94.3819-119.3555Z" style="fill:#fff;"/><path d="m647.8638,324.3392H126.9805c-6.1734,0-93.5091,117.6541-93.5091,117.6541-6.4589,8.0902-2.6624,17.5348,6.2705,17.5348h692.2999c8.7344,0,15.1575-8.2698,10.2039-15.8334-4.9536-7.5636-88.2085-119.3555-94.3819-119.3555Z" style="fill:#f1f3fb;"/><rect x="212.6585" y="324.3392" width="348.8929" height="8.3245" style="fill:#2f3942;"/><polygon points="406.6733 395.4664 119.0103 395.4664 158.9283 343.4808 406.6733 343.4808 406.6733 395.4664" style="fill:#d9dce9;"/><polygon points="406.6733 441.8015 277.7319 441.8015 288.1866 407.8978 406.6733 407.8978 406.6733 441.8015" style="fill:#d9dce9;"/><polygon points="287.1411 411.2882 406.6733 411.2882 406.6733 407.8978 288.1866 407.8978 287.1411 411.2882" style="fill:#acb5c0;"/><polygon points="371.7039 395.4664 659.3669 395.4664 619.4489 343.4807 371.7039 343.4807 371.7039 395.4664" style="fill:#d9dce9;"/><polygon points="371.7039 441.8015 500.6453 441.8015 490.1906 407.8978 371.7039 407.8978 371.7039 441.8015" style="fill:#d9dce9;"/><polygon points="491.236 411.2881 371.7039 411.2881 371.7039 407.8978 490.1906 407.8978 491.236 411.2881" style="fill:#acb5c0;"/><g><g><rect x="154.272" y="363.2862" width="44.323" height="5.5376" style="fill:#2f3942;"/><rect x="154.272" y="366.1515" width="44.323" height="2.8646" style="fill:#2f3942;"/></g><g><rect x="184.0216" y="363.2862" width="26.215" height="5.5376" style="fill:#2f3942;"/><rect x="184.0216" y="366.1515" width="26.215" height="2.8646" style="fill:#2f3942;"/></g><g><rect x="213.9766" y="363.2862" width="26.215" height="5.5376" style="fill:#2f3942;"/><rect x="213.9766" y="366.1515" width="26.215" height="2.8646" style="fill:#2f3942;"/></g><g><rect x="243.7262" y="363.2862" width="26.215" height="5.5376" style="fill:#2f3942;"/><rect x="243.7262" y="366.1515" width="26.215" height="2.8646" style="fill:#2f3942;"/></g><g><rect x="273.2704" y="363.2862" width="26.215" height="5.5376" style="fill:#2f3942;"/><rect x="273.2704" y="366.1515" width="26.215" height="2.8646" style="fill:#2f3942;"/></g><g><rect x="303.02" y="363.2862" width="26.215" height="5.5376" style="fill:#2f3942;"/><rect x="303.02" y="366.1515" width="26.215" height="2.8646" style="fill:#2f3942;"/></g><g><rect x="332.975" y="363.2862" width="26.215" height="5.5376" style="fill:#2f3942;"/><rect x="332.975" y="366.1515" width="26.215" height="2.8646" style="fill:#2f3942;"/></g><g><rect x="362.7246" y="363.2862" width="26.215" height="5.5376" style="fill:#2f3942;"/><rect x="362.7246" y="366.1515" width="26.215" height="2.8646" style="fill:#2f3942;"/></g><g><rect x="391.8715" y="363.19" width="26.215" height="5.5376" style="fill:#2f3942;"/><rect x="391.8715" y="366.0553" width="26.215" height="2.8646" style="fill:#2f3942;"/></g><g><rect x="421.6211" y="363.19" width="26.215" height="5.5376" style="fill:#2f3942;"/><rect x="421.6211" y="366.0553" width="26.215" height="2.8646" style="fill:#2f3942;"/></g><g><rect x="451.5761" y="363.19" width="26.215" height="5.5376" style="fill:#2f3942;"/><rect x="451.5761" y="366.0553" width="26.215" height="2.8646" style="fill:#2f3942;"/></g><g><rect x="481.3257" y="363.19" width="26.215" height="5.5376" style="fill:#2f3942;"/><rect x="481.3257" y="366.0553" width="26.215" height="2.8646" style="fill:#2f3942;"/></g><g><rect x="510.8699" y="363.19" width="26.215" height="5.5376" style="fill:#2f3942;"/><rect x="510.8699" y="366.0553" width="26.215" height="2.8646" style="fill:#2f3942;"/></g><g><rect x="540.6195" y="363.19" width="26.215" height="5.5376" style="fill:#2f3942;"/><rect x="540.6195" y="366.0553" width="26.215" height="2.8646" style="fill:#2f3942;"/></g><g><rect x="570.5745" y="363.19" width="26.215" height="5.5376" style="fill:#2f3942;"/><rect x="570.5745" y="366.0553" width="26.215" height="2.8646" style="fill:#2f3942;"/></g><g><rect x="588.0794" y="363.19" width="38.4597" height="5.5376" style="fill:#2f3942;"/><rect x="588.0794" y="366.0553" width="38.4597" height="2.8646" style="fill:#2f3942;"/></g><g><rect x="147.84" y="372.7915" width="47.2205" height="5.5376" style="fill:#2f3942;"/><rect x="147.84" y="375.6568" width="47.2205" height="2.8646" style="fill:#2f3942;"/></g><g><rect x="198.5951" y="372.7915" width="26.215" height="5.5376" style="fill:#2f3942;"/><rect x="198.5951" y="375.6568" width="26.215" height="2.8646" style="fill:#2f3942;"/></g><g><rect x="228.5501" y="372.7915" width="26.215" height="5.5376" style="fill:#2f3942;"/><rect x="228.5501" y="375.6568" width="26.215" height="2.8646" style="fill:#2f3942;"/></g><g><rect x="258.2997" y="372.7915" width="26.215" height="5.5376" style="fill:#2f3942;"/><rect x="258.2997" y="375.6568" width="26.215" height="2.8646" style="fill:#2f3942;"/></g><g><rect x="287.8438" y="372.7915" width="26.215" height="5.5376" style="fill:#2f3942;"/><rect x="287.8438" y="375.6568" width="26.215" height="2.8646" style="fill:#2f3942;"/></g><g><rect x="317.5934" y="372.7915" width="26.215" height="5.5376" style="fill:#2f3942;"/><rect x="317.5934" y="375.6568" width="26.215" height="2.8646" style="fill:#2f3942;"/></g><g><rect x="347.5485" y="372.7915" width="26.215" height="5.5376" style="fill:#2f3942;"/><rect x="347.5485" y="375.6568" width="26.215" height="2.8646" style="fill:#2f3942;"/></g><g><rect x="377.2981" y="372.7915" width="26.215" height="5.5376" style="fill:#2f3942;"/><rect x="377.2981" y="375.6568" width="26.215" height="2.8646" style="fill:#2f3942;"/></g><g><rect x="406.445" y="372.6953" width="26.215" height="5.5376" style="fill:#2f3942;"/><rect x="406.445" y="375.5606" width="26.215" height="2.8646" style="fill:#2f3942;"/></g><g><rect x="436.1946" y="372.6953" width="26.215" height="5.5376" style="fill:#2f3942;"/><rect x="436.1946" y="375.5606" width="26.215" height="2.8646" style="fill:#2f3942;"/></g><g><rect x="466.1496" y="372.6953" width="26.215" height="5.5376" style="fill:#2f3942;"/><rect x="466.1496" y="375.5606" width="26.215" height="2.8646" style="fill:#2f3942;"/></g><g><rect x="495.8992" y="372.6953" width="26.215" height="5.5376" style="fill:#2f3942;"/><rect x="495.8992" y="375.5606" width="26.215" height="2.8646" style="fill:#2f3942;"/></g><g><rect x="525.4433" y="372.6953" width="26.215" height="5.5376" style="fill:#2f3942;"/><rect x="525.4433" y="375.5606" width="26.215" height="2.8646" style="fill:#2f3942;"/></g><g><rect x="555.1929" y="372.6953" width="26.215" height="5.5376" style="fill:#2f3942;"/><rect x="555.1929" y="375.5606" width="26.215" height="2.8646" style="fill:#2f3942;"/></g><g><rect x="585.148" y="372.6953" width="26.215" height="5.5376" style="fill:#2f3942;"/><rect x="585.148" y="375.5606" width="26.215" height="2.8646" style="fill:#2f3942;"/></g><g><rect x="605.9465" y="372.6953" width="27.5624" height="5.5376" style="fill:#2f3942;"/><rect x="605.9465" y="375.5606" width="27.5624" height="2.8646" style="fill:#2f3942;"/></g><g><rect x="143.2443" y="382.9626" width="56.8244" height="5.5376" style="fill:#2f3942;"/><rect x="143.2443" y="385.8279" width="56.8244" height="2.8646" style="fill:#2f3942;"/></g><g><rect x="185.4952" y="382.9626" width="26.215" height="5.5376" style="fill:#2f3942;"/><rect x="185.4952" y="385.8279" width="26.215" height="2.8646" style="fill:#2f3942;"/></g><g><rect x="215.4502" y="382.9626" width="26.215" height="5.5376" style="fill:#2f3942;"/><rect x="215.4502" y="385.8279" width="26.215" height="2.8646" style="fill:#2f3942;"/></g><g><rect x="245.1998" y="382.9626" width="26.215" height="5.5376" style="fill:#2f3942;"/><rect x="245.1998" y="385.8279" width="26.215" height="2.8646" style="fill:#2f3942;"/></g><g><rect x="274.744" y="382.9626" width="26.215" height="5.5376" style="fill:#2f3942;"/><rect x="274.744" y="385.8279" width="26.215" height="2.8646" style="fill:#2f3942;"/></g><g><rect x="304.4936" y="382.9626" width="26.215" height="5.5376" style="fill:#2f3942;"/><rect x="304.4936" y="385.8279" width="26.215" height="2.8646" style="fill:#2f3942;"/></g><g><rect x="334.4486" y="382.9626" width="26.215" height="5.5376" style="fill:#2f3942;"/><rect x="334.4486" y="385.8279" width="26.215" height="2.8646" style="fill:#2f3942;"/></g><g><rect x="364.1982" y="382.9626" width="26.215" height="5.5376" style="fill:#2f3942;"/><rect x="364.1982" y="385.8279" width="26.215" height="2.8646" style="fill:#2f3942;"/></g><g><rect x="393.3451" y="382.8664" width="26.215" height="5.5376" style="fill:#2f3942;"/><rect x="393.3451" y="385.7317" width="26.215" height="2.8646" style="fill:#2f3942;"/></g><g><rect x="423.0947" y="382.8664" width="26.215" height="5.5376" style="fill:#2f3942;"/><rect x="423.0947" y="385.7317" width="26.215" height="2.8646" style="fill:#2f3942;"/></g><g><rect x="453.0497" y="382.8664" width="26.215" height="5.5376" style="fill:#2f3942;"/><rect x="453.0497" y="385.7317" width="26.215" height="2.8646" style="fill:#2f3942;"/></g><g><rect x="482.7993" y="382.8664" width="26.215" height="5.5376" style="fill:#2f3942;"/><rect x="482.7993" y="385.7317" width="26.215" height="2.8646" style="fill:#2f3942;"/></g><g><rect x="512.3435" y="382.8664" width="26.215" height="5.5376" style="fill:#2f3942;"/><rect x="512.3435" y="385.7317" width="26.215" height="2.8646" style="fill:#2f3942;"/></g><g><rect x="542.0931" y="382.8664" width="26.215" height="5.5376" style="fill:#2f3942;"/><rect x="542.0931" y="385.7317" width="26.215" height="2.8646" style="fill:#2f3942;"/></g><g><rect x="572.0481" y="382.8664" width="26.215" height="5.5376" style="fill:#2f3942;"/><rect x="572.0481" y="385.7317" width="26.215" height="2.8646" style="fill:#2f3942;"/></g><g><rect x="589.553" y="382.8664" width="48.414" height="5.5376" style="fill:#2f3942;"/><rect x="589.553" y="385.7317" width="48.414" height="2.8646" style="fill:#2f3942;"/></g><g><rect x="159.2451" y="352.0529" width="35.0392" height="5.5376" style="fill:#2f3942;"/><rect x="159.2451" y="354.9182" width="35.0392" height="2.8646" style="fill:#2f3942;"/></g><g><rect x="197.8189" y="352.0529" width="26.215" height="5.5376" style="fill:#2f3942;"/><rect x="197.8189" y="354.9182" width="26.215" height="2.8646" style="fill:#2f3942;"/></g><g><rect x="227.7739" y="352.0529" width="26.215" height="5.5376" style="fill:#2f3942;"/><rect x="227.7739" y="354.9182" width="26.215" height="2.8646" style="fill:#2f3942;"/></g><g><rect x="257.5235" y="352.0529" width="26.215" height="5.5376" style="fill:#2f3942;"/><rect x="257.5235" y="354.9182" width="26.215" height="2.8646" style="fill:#2f3942;"/></g><g><rect x="287.0677" y="352.0529" width="26.215" height="5.5376" style="fill:#2f3942;"/><rect x="287.0677" y="354.9182" width="26.215" height="2.8646" style="fill:#2f3942;"/></g><g><rect x="316.8173" y="352.0529" width="26.215" height="5.5376" style="fill:#2f3942;"/><rect x="316.8173" y="354.9182" width="26.215" height="2.8646" style="fill:#2f3942;"/></g><g><rect x="346.7723" y="352.0529" width="26.215" height="5.5376" style="fill:#2f3942;"/><rect x="346.7723" y="354.9182" width="26.215" height="2.8646" style="fill:#2f3942;"/></g><g><rect x="376.5219" y="352.0529" width="26.215" height="5.5376" style="fill:#2f3942;"/><rect x="376.5219" y="354.9182" width="26.215" height="2.8646" style="fill:#2f3942;"/></g><g><rect x="405.6688" y="351.9567" width="26.215" height="5.5376" style="fill:#2f3942;"/><rect x="405.6688" y="354.822" width="26.215" height="2.8646" style="fill:#2f3942;"/></g><g><rect x="435.4184" y="351.9567" width="26.215" height="5.5376" style="fill:#2f3942;"/><rect x="435.4184" y="354.822" width="26.215" height="2.8646" style="fill:#2f3942;"/></g><g><rect x="465.3734" y="351.9567" width="26.215" height="5.5376" style="fill:#2f3942;"/><rect x="465.3734" y="354.822" width="26.215" height="2.8646" style="fill:#2f3942;"/></g><g><rect x="495.123" y="351.9567" width="26.215" height="5.5376" style="fill:#2f3942;"/><rect x="495.123" y="354.822" width="26.215" height="2.8646" style="fill:#2f3942;"/></g><g><rect x="524.6672" y="351.9567" width="26.215" height="5.5376" style="fill:#2f3942;"/><rect x="524.6672" y="354.822" width="26.215" height="2.8646" style="fill:#2f3942;"/></g><g><rect x="554.4168" y="351.9567" width="26.215" height="5.5376" style="fill:#2f3942;"/><rect x="554.4168" y="354.822" width="26.215" height="2.8646" style="fill:#2f3942;"/></g><g><rect x="584.3718" y="351.9567" width="26.215" height="5.5376" style="fill:#2f3942;"/><rect x="584.3718" y="354.822" width="26.215" height="2.8646" style="fill:#2f3942;"/></g><g><rect x="605.1703" y="351.9567" width="14.5574" height="5.5376" style="fill:#2f3942;"/><rect x="605.1703" y="354.822" width="14.5574" height="2.8646" style="fill:#2f3942;"/></g></g></g><g><path d="m577.297,232.4515l-357.4585-6.6453c-1.1357-.0211-2.0472-.9396-2.0254-2.041l1.8087-91.5096c.0218-1.1015.9688-1.9854,2.1046-1.9642l357.4585,6.6453c1.1357.0211,2.0472.9396,2.0254,2.041l-1.8087,91.5096c-.0218,1.1015-.9688,1.9854-2.1046,1.9642Z" style="fill:#333433; opacity:.7;"/><rect x="225.8459" y="126.3471" width="361.6549" height="95.5324" rx="2.0339" ry="2.0339" style="fill:#efbb54;"/><g><circle cx="282.0436" cy="174.1133" r="22.5" style="fill:#333433;"/><circle cx="341.5354" cy="174.1133" r="22.5" style="fill:#333433;"/><circle cx="401.0272" cy="174.1133" r="22.5" style="fill:#333433;"/><circle cx="460.519" cy="174.1133" r="22.5" style="fill:#333433;"/><circle cx="520.0108" cy="174.1133" r="22.5" style="fill:#333433;"/></g><rect x="556.349" y="143.4566" width="7.8962" height="61.3133" style="fill:#333433;"/></g></g><g id="c"><g id="d"><g id="e"><g id="f"><path id="h" d="m139.8527,307.8773C62.7375,307.8773,0,245.1395,0,168.0249S62.7375,28.1726,139.8527,28.1726s139.8521,62.7371,139.8521,139.8524-62.7368,139.8524-139.8521,139.8524Zm0-267.9375c-70.5955,0-128.0292,57.4587-128.0292,128.0852s57.4337,128.0852,128.0292,128.0852,128.0286-57.4594,128.0286-128.0852S210.4482,39.9398,139.8527,39.9398Z" style="fill:url(#g);"/><path id="j" d="m139.8527,28.2272C62.7674,28.2272.0547,90.9399.0547,168.0249s62.713,139.7977,139.798,139.7977,139.7974-62.7133,139.7974-139.7977S216.9377,28.2272,139.8527,28.2272Z" style="fill:url(#i); isolation:isolate; opacity:.32;"/><path id="l" d="m139.8527,307.8773C62.7375,307.8773,0,245.1395,0,168.0249S62.7375,28.1726,139.8527,28.1726s139.8521,62.7371,139.8521,139.8524-62.7368,139.8524-139.8521,139.8524Zm0-267.9375c-70.5955,0-128.0292,57.4587-128.0292,128.0852s57.4337,128.0852,128.0292,128.0852,128.0286-57.4594,128.0286-128.0852S210.4482,39.9398,139.8527,39.9398Z" style="fill:url(#k); isolation:isolate; opacity:.44;"/><path id="m" d="m139.8527,40.6889C68.7132,40.6889,10.8374,98.5646,10.8374,169.7038s57.8757,129.015,129.0153,129.015,129.0146-57.8764,129.0146-129.0149S210.9922,40.6889,139.8527,40.6889Z"/><path id="n" d="m139.8527,307.8773C62.7375,307.8773,0,245.1395,0,168.0249S62.7375,28.1726,139.8527,28.1726s139.8521,62.7371,139.8521,139.8524-62.7368,139.8524-139.8521,139.8524Zm0-276.7116c-77.1149,0-139.8527,61.9028-139.8527,137.9919s62.7378,137.9919,139.8527,137.9919,139.8521-61.9035,139.8521-137.9919S216.9679,31.1657,139.8527,31.1657Z" style="fill:#0f0f0d; isolation:isolate; opacity:.35;"/></g><g id="o"><path id="q" d="m139.8527,39.9398C69.226,39.9398,11.7672,97.3982,11.7672,168.0249s57.4587,128.0852,128.0855,128.0852,128.0852-57.4591,128.0852-128.0852S210.4794,39.9398,139.8527,39.9398Z" style="fill:url(#p);"/><path id="s" d="m139.8527,39.9398C69.226,39.9398,11.7672,97.3982,11.7672,168.0249s57.4587,128.0852,128.0855,128.0852,128.0852-57.4591,128.0852-128.0852S210.4794,39.9398,139.8527,39.9398Z" style="fill:url(#r); isolation:isolate; opacity:.13;"/><path id="u" d="m139.8524,50.5888c-21.037,0-38.1517,17.1147-38.1517,38.1517s17.1147,38.1517,38.1517,38.1517,38.1517-17.115,38.1517-38.1517-17.1147-38.1517-38.1517-38.1517Z" style="fill:url(#t); isolation:isolate; opacity:.7;"/><path id="w" d="m72.5381,58.6334c-.0061.044-.0122.0868-.0186.1305-.1665.0312-.1691-.0084.0186-.1305Zm96.7203,82.2123l-1.7715,31.6497,20.903,22.7725-20.903,22.7725,13.8171,15.0529-13.8171,15.0529,1.7715,31.3912h-58.8116v-138.6918c-23.383-11.9653-39.3258-37.8254-39.3258-67.5452,0-4.9739.6964-9.5694,1.3985-14.5366,2.5366-.4781,43.5571-17.6703,43.5571-17.6703-.3405,1.8583,47.8922,1.8583,47.5517,0,0,0,39.6309,17.0527,43.6073,17.8889,1.0056,4.8833,1.3487,9.4177,1.3487,14.3177,0,29.7201-16.2971,55.5802-39.3259,67.5455Zm37.9087-82.2123c.0247.1173.0444.2321.0685.3491.4353.0916.4501-.008-.0685-.3491Z" style="fill:url(#v); isolation:isolate; opacity:.3;"/><path id="x" d="m71.2267,251.6878c-22.7294-19.7677-37.1194-48.9069-37.1194-81.5156,0-37.9431,19.843-72.9676,52.5257-92.5231-.5835,3.7943-1.1674,7.2968-1.1674,11.0911,0,22.4738,13.1313,42.0293,32.3908,51.0773v102.4465l24.2202,24.2253,24.2202-24.2253-1.459-21.3064,11.3804-11.383-11.3804-11.383,17.2166-17.2205-17.2166-17.2205,1.459-23.9334c18.9675-9.048,32.3908-28.6032,32.3908-51.0773,0-3.7943-.2919-7.2968-1.1674-11.0911,11.8595,7.1598,22.0279,16.4,30.1795,27.0915-19.7128-27.0722-51.737-44.6856-87.8993-44.6856-59.9163,0-108.4878,48.3397-108.4878,107.9699,0,33.7414,15.5551,63.864,39.9139,83.6629l.0003.0003Zm62.9712-17.596h-8.1706v-80.8482h8.1706v80.8482Zm-11.6724-169.8686c6.4197-1.1674,13.1313-1.7512,19.5514-1.7512,6.7116-.2919,13.1313.5835,19.5514,1.7512.2919,1.4593.5835,2.9186.5835,4.3779,0,11.0911-9.046,20.1391-20.1349,20.1391s-20.1349-9.048-20.1349-20.1391c0-1.4593.2919-2.9186.5835-4.3779Z" style="fill:#0f0f0d; isolation:isolate; opacity:.2;"/><path id="z" d="m139.8527,39.9398C69.2571,39.9398,11.8235,97.3985,11.8235,168.0249s57.4337,128.0852,128.0292,128.0852,128.0286-57.4594,128.0286-128.0852S210.4482,39.9398,139.8527,39.9398Zm-19.5514,22.0186c6.4197-1.1674,13.1313-1.7512,19.5514-1.7512,6.7116-.2919,13.1313.5835,19.5514,1.7512.2919,1.4593.5835,2.9186.5835,4.3779,0,11.0911-9.046,20.1391-20.1349,20.1391s-20.1349-9.048-20.1349-20.1391c0-1.4593.2919-2.9186.5835-4.3779Zm11.6724,89.0204v80.8482h-8.1706v-80.8482h8.1706Zm7.879,124.9206c-59.5292,0-107.9696-48.1587-107.9696-107.9921,0-37.9431,19.843-72.9676,52.5257-92.5231-.5835,3.7943-1.1674,7.2968-1.1674,11.0911,0,22.4738,13.1313,42.0293,32.3908,51.0773v102.4465l24.2202,24.2253,24.2202-24.2253-1.459-21.3064,11.3804-11.383-11.3804-11.383,17.2166-17.2205-17.2166-17.2205,1.459-23.9334c18.9675-9.048,32.3908-28.6032,32.3908-51.0773,0-3.7943-.2919-7.2968-1.1674-11.0911,32.3908,19.5555,52.2341,54.5797,52.5257,92.5231,0,59.5414-48.1488,107.9921-107.9696,107.9921l.0006.0003Z" style="fill:url(#y);"/></g></g></g></g></svg>