<?xml version="1.0" encoding="UTF-8"?><svg id="a" xmlns="http://www.w3.org/2000/svg" xmlns:xlink="http://www.w3.org/1999/xlink" viewBox="0 0 419.3756 349.9947"><defs><linearGradient id="b" x1="570.3017" y1="-157.468" x2="504.7509" y2="-271.0052" gradientTransform="translate(-207.6493 454.2276) rotate(-11.6693) scale(.7105 .7439) skewX(-22.9181)" gradientUnits="userSpaceOnUse"><stop offset=".3027" stop-color="#3a81bb" stop-opacity="0"/><stop offset=".6996" stop-color="#1f4d82"/></linearGradient><linearGradient id="c" x1="713.4887" y1="-111.6163" x2="649.5006" y2="-222.4471" gradientTransform="translate(-176.2355 287.8437) rotate(13.0091) scale(.8142 .6155) skewX(22.0815)" xlink:href="#b"/><linearGradient id="d" x1="-714.8577" y1="-284.6788" x2="-778.8458" y2="-395.5096" gradientTransform="translate(600.7221 371.9098) rotate(5.7526) scale(.3313 .3031) skewX(10.9192)" xlink:href="#b"/><linearGradient id="h" x1="307.1894" y1="171.5422" x2="307.1894" y2="73.5713" gradientTransform="translate(-4.2209 7.5388) rotate(-1.0463) scale(1.0131 .9711) skewX(-.8643)" gradientUnits="userSpaceOnUse"><stop offset="0" stop-color="#414141"/><stop offset=".196" stop-color="#3e3e3e"/><stop offset="1" stop-color="#3a3a3a"/></linearGradient><radialGradient id="j" cx="-1612.5112" cy="1419.8013" fx="-1612.5112" fy="1419.8013" r="129.4217" gradientTransform="translate(804.8596 549.6298) rotate(-1.7306) scale(.2973 -.3217) skewX(-.8562)" gradientUnits="userSpaceOnUse"><stop offset=".6733" stop-color="#fcfcfc" stop-opacity="0"/><stop offset="1" stop-color="#fcfcfc"/></radialGradient><radialGradient id="l" cx="306.8733" cy="118.0641" fx="306.8733" fy="118.0641" r="37.5911" gradientTransform="translate(-4.2209 7.5388) rotate(-1.0463) scale(1.0131 .9711) skewX(-.8643)" gradientUnits="userSpaceOnUse"><stop offset=".1088" stop-color="#0f0f0d" stop-opacity="0"/><stop offset=".8856" stop-color="#414141" stop-opacity="0"/><stop offset=".9339" stop-color="#1e1e1d" stop-opacity=".6841"/><stop offset=".9874" stop-color="#0f0f0d"/></radialGradient><radialGradient id="q" cx="-1606.5878" cy="2368.9879" fx="-1606.5878" fy="2368.9879" r="189.5564" gradientTransform="translate(803.0264 508.0071) rotate(-1.7306) scale(.2973 -.1842) skewX(-.4902)" gradientUnits="userSpaceOnUse"><stop offset="0" stop-color="#2e6b26"/><stop offset="1" stop-color="#6ab536"/></radialGradient><radialGradient id="s" cx="-1601.9749" cy="1219.5326" fx="-1601.9749" fy="1219.5326" r="84.8528" gradientTransform="translate(805.7026 568.7674) rotate(-1.7306) scale(.2973 -.3952) skewX(-1.0516)" gradientUnits="userSpaceOnUse"><stop offset="0" stop-color="#000"/><stop offset=".7192" stop-color="#fff"/></radialGradient><radialGradient id="u" cx="-1604.2975" cy="1484.6256" fx="-1604.2975" fy="1484.6256" r="41.0407" gradientTransform="translate(804.8596 549.6298) rotate(-1.7306) scale(.2973 -.3217) skewX(-.8562)" gradientUnits="userSpaceOnUse"><stop offset="0" stop-color="#6ab536"/><stop offset="1" stop-color="#2e6b26"/></radialGradient><radialGradient id="w" cx="307.0537" cy="132.6737" fx="307.0537" fy="132.6737" r="25.079" gradientTransform="translate(-4.2209 7.5388) rotate(-1.0463) scale(1.0131 .9711) skewX(-.8643)" gradientUnits="userSpaceOnUse"><stop offset="0" stop-color="#000"/><stop offset=".7842" stop-color="#4f4f4f" stop-opacity="0"/></radialGradient><radialGradient id="z" cx="307.0987" cy="153.5435" fx="307.0987" fy="153.5435" r="30.1793" gradientTransform="translate(-4.2209 7.5388) rotate(-1.0463) scale(1.0131 .9711) skewX(-.8643)" gradientUnits="userSpaceOnUse"><stop offset="0" stop-color="#f5f5f5"/><stop offset="1" stop-color="#e3e3e3"/></radialGradient><linearGradient id="ae" x1="152.4002" y1="117.371" x2="152.4002" y2="52.739" gradientTransform="translate(29.0989 3.3407) rotate(-.7839) scale(.8883 .951) skewX(.6432)" xlink:href="#h"/><radialGradient id="ag" cx="-2060.4861" cy="1520.3864" fx="-2060.4861" fy="1520.3864" r="75.9935" gradientTransform="translate(825.5146 576.5511) rotate(-.7839) scale(.3144 -.3366) skewX(-.6432)" xlink:href="#j"/><radialGradient id="ai" cx="152.2114" cy="82.0911" fx="152.2114" fy="82.0911" r="24.412" gradientTransform="translate(29.0989 3.3407) rotate(-.7839) scale(.8883 .951) skewX(.6432)" xlink:href="#l"/><radialGradient id="an" cx="-2057.5016" cy="2500.4788" fx="-2057.5016" fy="2500.4788" r="108.6246" gradientTransform="translate(824.4614 532.9816) rotate(-.7839) scale(.3144 -.1927) skewX(-.3682)" xlink:href="#q"/><radialGradient id="ap" cx="-2055.1738" cy="1295.5545" fx="-2055.1738" fy="1295.5545" r="48.7847" gradientTransform="translate(825.9989 596.5838) rotate(-.7839) scale(.3144 -.4134) skewX(-.7901)" xlink:href="#s"/><radialGradient id="ar" cx="-2056.795" cy="1560.5565" fx="-2056.795" fy="1560.5565" r="24.2593" gradientTransform="translate(825.5146 576.5511) rotate(-.7839) scale(.3144 -.3366) skewX(-.6432)" xlink:href="#u"/><radialGradient id="at" cx="152.9119" cy="91.7447" fx="152.9119" fy="91.7447" r="16.333" gradientTransform="translate(29.0989 3.3407) rotate(-.7839) scale(.8883 .951) skewX(.6432)" xlink:href="#w"/><radialGradient id="aw" cx="152.3453" cy="105.5218" fx="152.3453" fy="105.5218" r="18.3394" gradientTransform="translate(29.0989 3.3407) rotate(-.7839) scale(.8883 .951) skewX(.6432)" xlink:href="#z"/><linearGradient id="ay" x1="378.7505" y1="-15.0804" x2="338.8108" y2="-84.258" gradientTransform="translate(-197.3319 271.7252) rotate(14.5897) scale(.869 .6209) skewX(24.049)" xlink:href="#b"/></defs><g><g><path d="m176.1921,243.2666l-48.3112-27.0306c-2.6421-1.7039-3.2173-3.8188,1.0542-7.2241l67.728-44.7272c4.2716-3.4053,10.5817-4.883,12.9748-3.7821l57.4079,39.3815c2.3931,1.1009.8562,4.7879-3.4154,8.1932l-77.7374,33.2008c-4.2716,3.4053-7.3079,3.0894-9.701,1.9885Z" style="fill:url(#b); opacity:.1;"/><g><path d="m229.4964,176.1542c.0505-.3085.049-.6103,0-.9053v-5.9882h-2.2447v3.6038c-.7416.9347-1.2717,1.0182-2.8999,2.01l-74.8967,41.054c-5.4534,3.3216-10.0737,2.0802-13.947-.0198l-113.9919-62.2527c-.1822-.1224-.3288-.2161-.4614-.2996v-3.8618h-3.408l.131,6.1959c.051,1.7788,1.8551,3.4931,4.3725,5.1834l113.2947,61.7781c3.893,2.1074,8.5399,3.3476,14.0361-.0135l75.4745-41.5609c2.7664-1.6918,4.2336-3.3359,4.5241-4.8347h.0167v-.0886Z" style="fill:#323970; opacity:.3;"/><path d="m229.546,174.503c.0505-.3085.049-.6103,0-.9053v-5.9882h-2.2447v3.6038c-.7416.9347-1.2717,1.0182-2.8999,2.01l-74.8967,41.054c-5.4534,3.3216-10.0737,2.0802-13.947-.0198l-113.9919-62.2527c-.1822-.1224-.3288-.2161-.4614-.2996v-3.8618h-3.408l.131,6.1959c.051,1.7788,1.8551,3.4931,4.3725,5.1834l113.2947,61.7781c3.893,2.1074,8.5399,3.3476,14.0361-.0135l75.4745-41.5609c2.7664-1.6918,4.2336-3.3359,4.5241-4.8347h.0167v-.0886Z" style="fill:#8f94ba;"/><path d="m229.546,167.6095h-2.2447v3.6038c-.7416.9347-1.2717,1.0182-2.8999,2.01l-74.8967,41.054c-2.8677,1.7467-5.5047,2.2305-7.9242,1.9922v6.7473c2.4264.2275,5.0716-.2692,7.9502-2.0296l75.4745-41.5609c2.7664-1.6918,4.2336-3.3359,4.5241-4.8347h.0167v-.0886c.0505-.3085.049-.6103,0-.9053v-5.9882Z" style="fill:#8f94ba;"/><path d="m139.7341,222.7017c1.7134.4204,3.5453.5177,5.5008.077v-6.7332c-1.9553.4345-3.7874.3283-5.5008-.1009v6.757Z" style="fill:#d3dcdf;"/><path d="m135.6095,214.902l-113.9919-62.2527c-4.409-2.9615-5.8431-5.9021-.3897-9.2237l74.2889-40.7511c5.4534-3.3216,14.4752-3.5513,18.3484-1.4513l113.4609,62.7871c3.8732,2.1,2.5804,6.5359-2.8729,9.8574l-74.8967,41.054c-5.4534,3.3216-10.0737,2.0802-13.9469-.0198Z" style="fill:#f3f3fb;"/><path d="m100.1451,185.3256l-28.8981-15.1877c-.59-.3057-1.0161-1.3231.0753-1.8998l20.0551-10.8721c.7306-.3894,2.1448-.285,2.7348.0207l28.5001,15.3948c.59.3057.4746,1.3191-.256,1.7085l-19.81,10.6835c-.7306.3894-1.8111.4579-2.4012.1522Z" style="fill:#6d73be; opacity:.31;"/><path d="m166.5345,187.3271l-97.9779-54.4658c-2.6195-1.4446-2.1563-3.8791,1.0293-5.4101l27.3988-14.8953c3.1856-1.531,7.9353-1.6017,10.5548-.1571l98.4417,54.8094c2.6195,1.4446,2.1563,3.8791-1.0293,5.4101l-27.8625,14.5517c-3.1856,1.531-7.9353,1.6017-10.5548.1571Z" style="fill:#d7dada;"/><g><path d="m98.3497,123.4936c-.1783.091-.5299.052-.7827-.0869l-6.1049-3.3554c-.2523-.1386-.3153-.3275-.1369-.4185l4.2854-2.187c.1774-.0906.5302-.0496.7825.0891l6.1049,3.3554c.2528.1389.3146.3258.1372.4164l-4.2854,2.187Z" style="fill:#2f3942;"/><path d="m107.3793,128.4567c-.1783.091-.5287.0527-.7827-.0869l-6.1042-3.3551c-.2548-.1401-.3146-.3272-.1363-.4182l4.2854-2.187c.1774-.0906.527-.0513.7818.0887l6.1042,3.3551c.254.1396.3146.3258.1372.4164l-4.2854,2.187Z" style="fill:#2f3942;"/><path d="m105.702,134.6288c-.1775.0906-.5259.0519-.7786-.087l-6.1049-3.3554c-.2566-.141-.3154-.3261-.1378-.4167l4.2853-2.1869c.1792-.0915.5259-.0533.7825.0877l6.1049,3.3554c.2528.1389.3132.3245.1339.416l-4.2853,2.1869Z" style="fill:#2f3942;"/><path d="m116.9133,133.6969c-.1783.091-.5311.0514-.7846-.088l-6.1054-3.3557c-.2535-.1394-.3127-.3261-.1344-.4171l4.2854-2.187c.1774-.0906.5264-.0517.7799.0877l6.1054,3.3557c.2535.1394.3165.3269.1391.4174l-4.2854,2.187Z" style="fill:#2f3942;"/><path d="m114.7367,139.5945c-.1775.0906-.5289.0503-.7817-.0887l-6.1061-3.3562c-.2547-.14-.316-.3265-.1385-.4171l4.2853-2.1869c.1792-.0915.5285-.0519.7832.0881l6.1061,3.3562c.2528.1389.3162.3262.137.4177l-4.2853,2.1869Z" style="fill:#2f3942;"/><path d="m125.9404,138.6585c-.1783.091-.5266.0538-.7826-.0869l-6.1043-3.3552c-.2541-.1396-.3132-.3264-.1349-.4174l4.2854-2.187c.1774-.0906.5264-.0517.7804.088l6.1043,3.3552c.256.1407.3145.3257.137.4163l-4.2854,2.187Z" style="fill:#2f3942;"/><path d="m113.4122,145.5867c-.1779.0908-.5294.0505-.7836-.0892l-6.1036-3.3547c-.254-.1396-.3164-.3268-.1385-.4176l4.2858-2.1872c.1797-.0917.5301-.0515.7841.0881l6.1036,3.3547c.2542.1397.3176.327.1379.4187l-4.2858,2.1872Z" style="fill:#2f3942;"/><path d="m124.2652,144.8317c-.1775.0906-.5259.0519-.7788-.0871l-6.1067-3.3564c-.2523-.1386-.3166-.3268-.1391-.4174l4.2853-2.1869c.1792-.0915.5316-.0502.7838.0884l6.1067,3.3564c.2529.139.3133.3246.134.4161l-4.2853,2.1869Z" style="fill:#2f3942;"/><path d="m135.4733,143.8981c-.1783.091-.528.053-.7833-.0873l-6.1036-3.3547c-.2529-.139-.3146-.3272-.1363-.4182l4.2854-2.187c.1774-.0906.5289-.0503.7818.0887l6.1036,3.3547c.2553.1403.3153.3262.1378.4167l-4.2854,2.187Z" style="fill:#2f3942;"/><path d="m122.4406,150.549c-.1779.0908-.5263.0522-.7816-.0882l-6.1036-3.3547c-.2529-.139-.3159-.3265-.138-.4173l4.2858-2.1872c.1797-.0917.5307-.0512.7836.0878l6.1036,3.3547c.2553.1403.3157.3259.136.4176l-4.2858,2.1872Z" style="fill:#2f3942;"/><path d="m133.7998,150.0723c-.1775.0906-.5296.0499-.7818-.0887l-6.1061-3.3562c-.254-.1396-.3146-.3257-.137-.4163l4.2853-2.1869c.1792-.0915.5277-.0523.7818.0873l6.1061,3.3562c.2523.1386.3164.3263.1371.4178l-4.2853,2.1869Z" style="fill:#2f3942;"/><path d="m145.0049,149.137c-.1783.091-.528.053-.7808-.0859l-6.1061-3.3562c-.2529-.139-.3134-.3265-.135-.4175l4.2854-2.187c.1774-.0906.5277-.051.7806.088l6.1061,3.3562c.2528.1389.3127.3248.1353.4153l-4.2854,2.187Z" style="fill:#2f3942;"/><path d="m131.9722,155.7879c-.1779.0908-.5263.0522-.7791-.0868l-6.1061-3.3562c-.2529-.139-.3146-.3258-.1367-.4166l4.2858-2.1872c.1797-.0917.5295-.0519.7823.0871l6.1061,3.3562c.2528.1389.3132.3245.1335.4162l-4.2858,2.1872Z" style="fill:#2f3942;"/><path d="m142.8288,155.035c-.1775.0906-.5283.0506-.7812-.0884l-6.1049-3.3554c-.2528-.1389-.3159-.3264-.1383-.417l4.2853-2.1869c.1792-.0915.5303-.0509.7831.088l6.1049,3.3554c.2529.139.3157.3259.1365.4174l-4.2853,2.1869Z" style="fill:#2f3942;"/><path d="m154.0358,154.1007c-.1783.091-.5293.0523-.7834-.0873l-6.1024-3.3541c-.2547-.14-.3152-.3274-.1368-.4185l4.2854-2.187c.1774-.0906.5277-.051.7823.089l6.1024,3.3541c.254.1396.3153.3262.1378.4167l-4.2854,2.187Z" style="fill:#2f3942;"/><path d="m141.5062,161.0281c-.1779.0908-.5287.0508-.7828-.0888l-6.1024-3.3541c-.2566-.141-.3164-.3268-.1385-.4176l4.2858-2.1872c.1797-.0917.5275-.0529.7841.0881l6.1024,3.3541c.254.1396.3169.3266.1372.4183l-4.2858,2.1872Z" style="fill:#2f3942;"/><path d="m152.3622,160.2748c-.1775.0906-.5289.0503-.7817-.0887l-6.1061-3.3561c-.2529-.139-.316-.3265-.1385-.4171l4.2853-2.1869c.1792-.0915.5303-.0509.7832.0881l6.1061,3.3561c.2528.1389.3162.3262.137.4177l-4.2853,2.1869Z" style="fill:#2f3942;"/><path d="m163.0685,159.0654c-.1783.091-.528.053-.7846-.088l-6.1067-3.3564c-.2529-.139-.3115-.3254-.1331-.4164l4.2854-2.187c.1774-.0906.5257-.052.7786.087l6.1067,3.3564c.2566.141.3165.3269.1391.4174l-4.2854,2.187Z" style="fill:#2f3942;"/><path d="m150.5358,165.9911c-.1779.0908-.5263.0522-.7804-.0875l-6.1061-3.3562c-.2521-.1386-.3151-.3261-.1372-.4169l4.2858-2.1872c.1797-.0917.5307-.0512.7829.0874l6.1061,3.3562c.254.1396.3144.3252.1347.4169l-4.2858,2.1872Z" style="fill:#2f3942;"/><path d="m161.3931,165.2386c-.1775.0906-.5283.0506-.7823-.089l-6.1049-3.3554c-.2529-.139-.316-.3265-.1385-.4171l4.2853-2.1869c.1792-.0915.5303-.0509.7832.0881l6.1049,3.3554c.254.1396.3169.3266.1376.418l-4.2853,2.1869Z" style="fill:#2f3942;"/><path d="m172.6001,164.3043c-.1783.091-.5305.0517-.7846-.088l-6.1023-3.354c-.2542-.1397-.314-.3268-.1357-.4178l4.2854-2.187c.1774-.0906.527-.0513.7812.0884l6.1023,3.354c.2542.1397.3166.3269.1391.4174l-4.2854,2.187Z" style="fill:#2f3942;"/><path d="m160.0681,171.2304c-.1779.0908-.527.0518-.7804-.0875l-6.1049-3.3554c-.2547-.14-.3146-.3258-.1367-.4166l4.2858-2.1872c.1797-.0917.5277-.0529.7823.0871l6.1049,3.3554c.2534.1393.3144.3252.1347.4169l-4.2858,2.1872Z" style="fill:#2f3942;"/><path d="m170.9247,170.4775c-.1775.0906-.5289.0503-.7825-.0891l-6.1042-3.3551c-.2534-.1393-.3147-.3258-.1372-.4164l4.2853-2.1869c.1792-.0915.5285-.0519.7819.0874l6.1042,3.3551c.2535.1394.317.3266.1377.4181l-4.2853,2.1869Z" style="fill:#2f3942;"/><path d="m181.6297,169.2673c-.1783.091-.5293.0523-.7846-.088l-6.1017-3.3537c-.256-.1407-.3146-.3272-.1363-.4182l4.2854-2.187c.1774-.0906.5259-.0519.7818.0887l6.1017,3.3537c.2553.1403.3165.3269.1391.4174l-4.2854,2.187Z" style="fill:#2f3942;"/><path d="m169.1008,176.1951c-.1779.0908-.5294.0505-.7841-.0895l-6.1042-3.3551c-.2529-.139-.3159-.3265-.138-.4173l4.2858-2.1872c.1797-.0917.5307-.0512.7836.0878l6.1042,3.3551c.2547.14.3181.3273.1385.419l-4.2858,2.1872Z" style="fill:#2f3942;"/><path d="m184.8677,178.1411c-.1775.0906-.6667-.0254-1.0986-.2628l-10.3824-5.7066c-.4265-.2344-.6338-.5012-.4563-.5918l4.2853-2.1869c.1792-.0915.6745.0283,1.101.2628l10.3824,5.7066c.4319.2374.6331.5004.4538.5919l-4.2853,2.1869Z" style="fill:#2f3942;"/><path d="m191.1613,174.5062c-.1783.091-.5293.0523-.7846-.088l-6.1012-3.3534c-.2566-.141-.3152-.3274-.1368-.4185l4.2854-2.187c.1774-.0906.5257-.052.7823.089l6.1012,3.3534c.2553.1403.3165.3269.1391.4174l-4.2854,2.187Z" style="fill:#2f3942;"/><path d="m178.1286,181.1571c-.1779.0908-.514.059-.7498-.0707l-5.6666-3.1145c-.2358-.1296-.2828-.3083-.1049-.3991l4.2858-2.1872c.1797-.0917.5147-.06.7505.0696l5.6666,3.1145c.2358.1296.2839.3084.1042.4001l-4.2858,2.1872Z" style="fill:#2f3942;"/><path d="m197.7489,171.4082c-.178.0908-.6641-.0221-1.0906-.2565l-10.2518-5.6348c-.4211-.2315-.6227-.4965-.4447-.5873l4.2858-2.1872c.1779-.0908.6691.0264,1.0902.2579l10.2518,5.6348c.4265.2344.623.4952.4451.586l-4.2858,2.1872Z" style="fill:#2f3942;"/><path d="m183.9561,163.8272c-.178.0908-.5307.0512-.7843-.0882l-6.1042-3.3551c-.2534-.1393-.3134-.3265-.1354-.4173l4.2858-2.1872c.1779-.0908.5275-.0514.7809.0879l6.1042,3.3551c.2535.1394.3166.3268.1387.4176l-4.2858,2.1872Z" style="fill:#2f3942;"/><path d="m174.4246,158.5883c-.178.0908-.5301.0515-.7841-.0881l-6.1049-3.3554c-.2529-.139-.3147-.3272-.1367-.418l4.2858-2.1872c.1779-.0908.5293-.0504.7822.0886l6.1049,3.3554c.254.1396.3165.3268.1386.4175l-4.2858,2.1872Z" style="fill:#2f3942;"/><path d="m165.3936,153.6246c-.178.0908-.5307.0512-.7835-.0878l-6.1061-3.3561c-.2529-.139-.3147-.3272-.1367-.418l4.2858-2.1872c.1779-.0908.5293-.0504.7822.0886l6.1061,3.3561c.2528.1389.3159.3264.138.4172l-4.2858,2.1872Z" style="fill:#2f3942;"/><path d="m155.8603,148.3847c-.178.0908-.5301.0515-.783-.0875l-6.1049-3.3554c-.2528-.1389-.3145-.3271-.1365-.4179l4.2858-2.1872c.1779-.0908.5293-.0504.7821.0885l6.1049,3.3554c.2529.139.3154.3261.1375.4169l-4.2858,2.1872Z" style="fill:#2f3942;"/><path d="m146.8313,143.422c-.178.0908-.5314.0508-.7836-.0878l-6.1061-3.3562c-.254-.1396-.3132-.3264-.1353-.4172l4.2858-2.1872c.1779-.0908.5267-.0518.7808.0878l6.1061,3.3562c.2523.1386.316.3265.1381.4173l-4.2858,2.1872Z" style="fill:#2f3942;"/><path d="m137.2966,138.1815c-.178.0908-.5277.0529-.7806-.0861l-6.1067-3.3564c-.2523-.1386-.3153-.3275-.1373-.4183l4.2858-2.1872c.1779-.0908.5306-.0497.7828.0889l6.1067,3.3564c.2529.139.3129.3248.135.4156l-4.2858,2.1872Z" style="fill:#2f3942;"/><path d="m127.7681,132.9443c-.178.0908-.5307.0512-.7835-.0878l-6.1061-3.3562c-.2547-.14-.3146-.3272-.1367-.418l4.2858-2.1872c.1779-.0908.5275-.0514.7822.0886l6.1061,3.3562c.2528.1389.3159.3264.138.4172l-4.2858,2.1872Z" style="fill:#2f3942;"/><path d="m118.7335,127.9785c-.178.0908-.5277.0529-.7804-.0861l-6.1049-3.3554c-.2566-.141-.314-.3268-.136-.4176l4.2858-2.1872c.1779-.0908.525-.0528.7816.0882l6.1049,3.3554c.2528.1389.3128.3247.1349.4155l-4.2858,2.1872Z" style="fill:#2f3942;"/><path d="m109.2031,122.7403c-.178.0908-.6609-.0204-1.0764-.2488l-10.0313-5.5135c-.4174-.2294-.6095-.4892-.4316-.5801l4.2858-2.1872c.1779-.0908.6597.0212,1.0771.2506l10.0313,5.5135c.4155.2284.6088.4874.4309.5782l-4.2858,2.1872Z" style="fill:#2f3942;"/><path d="m96.1717,129.3906c-.1775.0906-.6591-.0213-1.0746-.2497l-10.0313-5.5135c-.4174-.2294-.6109-.4886-.4334-.5792l4.2853-2.1869c.1792-.0915.6606.0207,1.0781.2501l10.0313,5.5135c.4155.2284.6091.4872.4299.5787l-4.2853,2.1869Z" style="fill:#2f3942;"/><path d="m85.317,130.1446c-.1779.0908-.5282.0511-.781-.0878l-6.1049-3.3554c-.2523-.1386-.3165-.3269-.1386-.4177l4.2858-2.1872c.1797-.0917.532-.0505.7843.0882l6.1049,3.3554c.2528.1389.3151.3256.1354.4173l-4.2858,2.1872Z" style="fill:#2f3942;"/><path d="m94.8497,135.3841c-.1779.0908-.5294.0505-.7822-.0884l-6.1049-3.3554c-.2535-.1394-.3153-.3262-.1374-.417l4.2858-2.1872c.1797-.0917.5295-.0519.783.0875l6.1049,3.3554c.2528.1389.3162.3262.1365.4179l-4.2858,2.1872Z" style="fill:#2f3942;"/><path d="m103.8807,140.3478c-.1779.0908-.5294.0505-.7847-.0898l-6.1036-3.3547c-.2535-.1394-.314-.3255-.1361-.4163l4.2858-2.1872c.1797-.0917.5282-.0526.7817.0868l6.1036,3.3547c.2553.1403.3188.3276.1391.4193l-4.2858,2.1872Z" style="fill:#2f3942;"/><path d="m148.4682,171.8345c-.1779.0908-.1633.3645-.7788.0262-.6168-.339-53.3183-29.3056-53.9119-29.6319-.5906-.3246-1.1783-.9134-1.0004-1.0042l4.1938-2.1402c.1788-.0912,1.506.5013,1.9662.7542,7.2966,4.0105,59.9356,32.9427,53.6828,29.5059.5812.3195.2209.2584.0421.3497l-4.1938,2.1402Z" style="fill:#2f3942;"/><path d="m171.4846,184.5477c-.178.0908-.4332.1535-.6624.0275l-8.5807-4.7163c-.2322-.1276-.4665-.4593-.2885-.5502l4.192-2.1393c.1801-.0919.7947.0457,1.0269.1733l8.5807,4.7163c.2291.1259.1041.2574-.0761.3493l-4.192,2.1393Z" style="fill:#2f3942;"/><path d="m159.9464,178.206c-.178.0908-.3794.1831-.6098.0564l-8.5825-4.7173c-.2323-.1277-.5171-.4872-.3391-.578l4.192-2.1393c.1801-.0919.8452.0735,1.0776.2011l8.5825,4.7173c.2304.1266.0515.2285-.1286.3204l-4.192,2.1393Z" style="fill:#2f3942;"/><path d="m78.7421,133.5161c-.1788.0912-.3002.2837-.4699.1904l-6.3406-3.485c-.1702-.0935-.408-.4834-.2292-.5747l4.1924-2.1395c.178-.0908.797.1045.9672.198l6.3406,3.485c.1697.0933-.09.0954-.268.1862l-4.1924,2.1395Z" style="fill:#2f3942;"/><path d="m90.2661,139.8501c-.1788.0912-.0787.4054-.3091.2788l-8.5845-4.7183c-.2317-.1273-.3161-.4329-.1373-.5242l4.1924-2.1395c.178-.0908.6437.0202.8753.1476l8.5845,4.7183c.2304.1266-.2509.007-.4289.0978l-4.1924,2.1395Z" style="fill:#2f3942;"/></g><path d="m110.5207,100.4185l119.8789,65.9536c1.0409.5691,3.253.6313,4.6926-.0672,1.8453-.8953,2.8318-2.8126,2.8318-4.0842l1.5994-90.6696c0-2.2636-1.9434-5.1779-4.3186-6.4764L115.4956,1.5729c-4.2224-2.0754-8.7536,1.7575-8.7536,4.0211v85.6834c-.0122,2.2871.1756,4.2482.8819,5.802.7309,1.6078,1.9961,2.7782,2.8969,3.3391Z" style="fill:#f3f3fb;"/><path d="m112.4245,101.466l117.6438,63.8645c2.3221,1.2867,4.222.5043,4.222-1.7388l1.69-89.316c0-2.243-1.8999-5.131-4.222-6.4177L112.0392,3.398c-3.9142-1.9354-5.2973.5539-5.2973,2.7969l.0438,86.9015c0,1.5.6846,3.6389,1.4499,5.0701s3.0279,2.656,4.1889,3.2993Z" style="fill:#fff;"/><path d="m112.0392,99.7719l117.1081,64.8916c2.3221,1.2867,4.222.5043,4.222-1.7388l1.5994-88.1044c0-2.243-1.8999-5.131-4.222-6.4177L112.0392,4.5773c-2.3221-1.2867-4.222-.5043-4.222,1.7388v85.5878c0,1.5.1124,3.1453.8776,4.5765.7652,1.4312,2.1833,2.6482,3.3444,3.2916Z" style="fill:#2f3942;"/><polygon points="116.0261 94.5407 225.5304 154.7969 227.1298 74.0058 116.0261 14.2925 116.0261 94.5407" style="fill:#e5e5e5;"/><path d="m71.2589,168.7737l20.0551-10.8721c.7306-.3894,2.1448-.285,2.7348.0207l28.5002,15.3948c.1444.0748.2453.1929.3066.3331.1504-.4139.0567-.8701-.3066-1.0582l-28.5002-15.3948c-.59-.3057-2.0042-.4101-2.7348-.0207l-20.0551,10.8721c-.6816.3601-.7713.892-.599,1.3152.0935-.215.28-.4215.599-.59Z" style="fill:#c1c3c2;"/><path d="m88.0345,188.929l.6011-.3659c.4995-.3009.6088-1.0273.225-1.2265l-18.5161-10.0737c-.3838-.1992-1.3234-.2288-1.823.0721l-.796.4868,20.309,11.1072Z" style="fill:#d7dada;"/><polygon points="177.5676 203.9806 215.9954 182.5642 215.9954 180.6757 177.5676 202.0922 177.5676 203.9806" style="fill:#767e7e;"/></g><path d="m353.4826,340.6478l-101.8414-62.8536c-4.0405-2.8043-5.7172-5.0492-1.9997-6.2885l51.4655-13.8518c3.7174-1.2394,10.8325.2594,14.2901,2.3848l101.5181,63.1165c3.4576,2.1254,3.245,4.8784-.4724,6.1177l-51.8921,13.9445c-3.7174,1.2394-7.6104-.4442-11.068-2.5696Z" style="fill:url(#c); opacity:.1;"/><path d="m348.9834,260.2627l-39.6423-22.9604c-1.5517-1.0586-2.1221-2.012-.4348-2.854l23.1346-10.0852c1.6873-.842,4.6535-.6132,6,.1623l39.4851,23.1073c1.3465.7755,1.0676,2.0989-.6197,2.9409l-23.3249,10.1583c-1.6873.842-3.2515.3062-4.598-.4692Z" style="fill:url(#d); opacity:.25;"/><g><rect x="335.6262" y="276.831" width="2.0983" height="5.2601" style="fill:#b9b7b5;"/><rect x="171.2893" y="231.1586" width="2.3763" height="3.6317" style="fill:#b9b7b5;"/><path d="m289.0958,302.6212l-115.7994-64.3727c-3.096-1.7073-2.5485-4.5847,1.2165-6.3941l32.3824-17.6046c3.7651-1.8094,9.3786-1.893,12.4746-.1857l116.3475,64.7788c3.096,1.7073,2.5485,4.5847-1.2165,6.3941l-32.9305,17.1986c-3.7651,1.8094-9.3786,1.893-12.4746.1857Z" style="fill:#8f94ba;"/><path d="m289.0958,298.1176l-115.7994-64.3727c-3.096-1.7073-2.5485-4.5847,1.2165-6.3941l32.3824-17.6046c3.7651-1.8094,9.3786-1.893,12.4746-.1857l116.3475,64.7788c3.096,1.7073,2.5485,4.5847-1.2165,6.3941l-32.9305,17.1986c-3.7651,1.8094-9.3786,1.893-12.4746.1857Z" style="fill:#f3f3fb;"/><g><path d="m208.5087,222.6734c-.2108.1076-.6263.0614-.9251-.1028l-7.2153-3.9658c-.2981-.1639-.3726-.3871-.1618-.4947l5.0649-2.5848c.2097-.107.6267-.0586.9248.1053l7.2153,3.9658c.2987.1642.3719.3851.1621.4921l-5.0649,2.5848Z" style="fill:#2f3942;"/><path d="m219.1808,228.5391c-.2108.1076-.6248.0623-.9251-.1028l-7.2145-3.9654c-.3012-.1655-.3719-.3867-.1611-.4942l5.0649-2.5848c.2097-.107.6229-.0606.924.1049l7.2145,3.9654c.3003.165.3719.3851.1621.4921l-5.0649,2.5848Z" style="fill:#2f3942;"/><path d="m217.1984,235.8339c-.2098.1071-.6215.0614-.9203-.1028l-7.2153-3.9658c-.3033-.1667-.3727-.3854-.1629-.4925l5.0648-2.5847c.2118-.1081.6216-.063.9249.1037l7.2153,3.9658c.2987.1642.3701.3836.1583.4917l-5.0648,2.5847Z" style="fill:#2f3942;"/><path d="m230.4489,234.7325c-.2108.1076-.6277.0607-.9273-.104l-7.2159-3.9661c-.2996-.1647-.3696-.3854-.1588-.493l5.0649-2.5848c.2097-.107.6221-.0611.9218.1036l7.2159,3.9661c.2996.1647.3741.3863.1644.4934l-5.0649,2.5848Z" style="fill:#2f3942;"/><path d="m227.8763,241.7029c-.2098.1071-.6252.0594-.9239-.1048l-7.2168-3.9666c-.301-.1654-.3735-.3859-.1636-.4929l5.0648-2.5847c.2118-.1081.6246-.0614.9256.1041l7.2168,3.9666c.2987.1642.3738.3856.1619.4937l-5.0648,2.5847Z" style="fill:#2f3942;"/><path d="m241.118,240.5966c-.2108.1076-.6224.0636-.9249-.1027l-7.2147-3.9654c-.3003-.165-.3702-.3858-.1594-.4933l5.0649-2.5848c.2097-.107.6221-.0611.9224.104l7.2147,3.9654c.3025.1663.3717.385.162.492l-5.0649,2.5848Z" style="fill:#2f3942;"/><path d="m226.311,248.785c-.2103.1073-.6257.0597-.9261-.1054l-7.2138-3.965c-.3003-.165-.374-.3862-.1637-.4935l5.0654-2.585c.2124-.1084.6265-.0609.9268.1041l7.2138,3.965c.3004.1651.3754.3865.163.4948l-5.0654,2.585Z" style="fill:#2f3942;"/><path d="m239.138,247.8927c-.2098.1071-.6215.0614-.9204-.1029l-7.2174-3.9669c-.2981-.1639-.3742-.3863-.1644-.4934l5.0648-2.5847c.2118-.1081.6283-.0594.9264.1045l7.2174,3.9669c.2989.1643.3703.3836.1584.4918l-5.0648,2.5847Z" style="fill:#2f3942;"/><path d="m252.3848,246.7892c-.2108.1076-.6241.0627-.9258-.1032l-7.2138-3.965c-.2989-.1643-.3719-.3867-.1611-.4942l5.0649-2.5848c.2097-.107.6251-.0594.924.1049l7.2138,3.965c.3018.1659.3726.3855.1629.4925l-5.0649,2.5848Z" style="fill:#2f3942;"/><path d="m236.9816,254.6499c-.2103.1073-.6221.0617-.9238-.1042l-7.2138-3.965c-.2989-.1643-.3734-.3859-.1631-.4932l5.0654-2.585c.2124-.1084.6273-.0605.9262.1038l7.2138,3.965c.3018.1659.3731.3852.1608.4936l-5.0654,2.585Z" style="fill:#2f3942;"/><path d="m250.407,254.0865c-.2098.1071-.6259.059-.924-.1049l-7.2168-3.9666c-.3003-.165-.3718-.3849-.162-.492l5.0648-2.5847c.2118-.1081.6237-.0619.924.1032l7.2168,3.9666c.2981.1639.3739.3856.162.4938l-5.0648,2.5847Z" style="fill:#2f3942;"/><path d="m263.6501,252.981c-.2108.1076-.6241.0627-.9228-.1015l-7.2168-3.9666c-.2989-.1643-.3704-.3858-.1596-.4934l5.0649-2.5848c.2097-.107.6236-.0602.9225.1041l7.2168,3.9666c.2987.1642.3696.3838.1599.4909l-5.0649,2.5848Z" style="fill:#2f3942;"/><path d="m248.2469,260.8417c-.2103.1073-.6221.0617-.9208-.1025l-7.2168-3.9666c-.2989-.1643-.3719-.3851-.1616-.4924l5.0654-2.585c.2124-.1084.6258-.0613.9247.103l7.2168,3.9666c.2987.1642.3701.3836.1577.4919l-5.0654,2.585Z" style="fill:#2f3942;"/><path d="m261.0783,259.9518c-.2098.1071-.6244.0598-.9233-.1045l-7.2153-3.9658c-.2987-.1642-.3733-.3858-.1635-.4929l5.0648-2.5847c.2118-.1081.6267-.0602.9255.104l7.2153,3.9658c.2989.1643.3731.3852.1613.4933l-5.0648,2.5847Z" style="fill:#2f3942;"/><path d="m274.3237,258.8476c-.2108.1076-.6256.0619-.9258-.1032l-7.2124-3.9642c-.301-.1654-.3725-.387-.1617-.4946l5.0649-2.5848c.2097-.107.6236-.0602.9246.1052l7.2124,3.9642c.3003.165.3726.3855.1629.4925l-5.0649,2.5848Z" style="fill:#2f3942;"/><path d="m259.5151,267.0351c-.2103.1073-.6249.0601-.9252-.1049l-7.2124-3.9642c-.3033-.1667-.374-.3862-.1637-.4935l5.0654-2.585c.2124-.1084.6235-.0626.9268.1041l7.2124,3.9642c.3003.165.3745.386.1621.4944l-5.0654,2.585Z" style="fill:#2f3942;"/><path d="m272.3457,266.1448c-.2098.1071-.6251.0594-.9239-.1048l-7.2168-3.9666c-.2989-.1643-.3735-.3859-.1636-.4929l5.0648-2.5847c.2118-.1081.6267-.0602.9256.1041l7.2168,3.9666c.2987.1642.3737.3856.1619.4937l-5.0648,2.5847Z" style="fill:#2f3942;"/><path d="m284.9994,264.7153c-.2108.1076-.6241.0627-.9273-.104l-7.2174-3.9669c-.2989-.1643-.3681-.3846-.1573-.4922l5.0649-2.5848c.2097-.107.6214-.0615.9203.1028l7.2174,3.9669c.3033.1667.3741.3863.1644.4934l-5.0649,2.5848Z" style="fill:#2f3942;"/><path d="m270.1871,272.9008c-.2103.1073-.6221.0617-.9223-.1034l-7.2168-3.9666c-.298-.1638-.3725-.3854-.1622-.4927l5.0654-2.585c.2124-.1084.6273-.0605.9253.1033l7.2168,3.9666c.3003.165.3716.3844.1593.4928l-5.0654,2.585Z" style="fill:#2f3942;"/><path d="m283.0193,272.0114c-.2098.1071-.6244.0598-.9246-.1052l-7.2153-3.9658c-.2989-.1643-.3735-.3859-.1636-.4929l5.0648-2.5847c.2118-.1081.6267-.0602.9256.1041l7.2153,3.9658c.3003.165.3745.386.1627.4941l-5.0648,2.5847Z" style="fill:#2f3942;"/><path d="m296.2647,270.9071c-.2108.1076-.6269.0611-.9274-.104l-7.2123-3.9641c-.3004-.1651-.3711-.3863-.1603-.4938l5.0649-2.5848c.2097-.107.6229-.0606.9233.1045l7.2123,3.9641c.3004.1651.3741.3863.1644.4934l-5.0649,2.5848Z" style="fill:#2f3942;"/><path d="m281.4532,279.093c-.2103.1073-.6228.0612-.9223-.1034l-7.2153-3.9658c-.301-.1654-.3719-.3851-.1616-.4924l5.0654-2.585c.2124-.1084.6236-.0625.9247.103l7.2153,3.9658c.2995.1646.3716.3844.1593.4928l-5.0654,2.585Z" style="fill:#2f3942;"/><path d="m294.2846,278.2032c-.2098.1071-.6251.0594-.9248-.1053l-7.2145-3.9654c-.2995-.1646-.372-.385-.1621-.4921l5.0648-2.5847c.2118-.1081.6246-.0614.9241.1032l7.2145,3.9654c.2996.1647.3747.3861.1628.4942l-5.0648,2.5847Z" style="fill:#2f3942;"/><path d="m306.9367,276.7729c-.2108.1076-.6256.0619-.9273-.104l-7.2115-3.9637c-.3025-.1663-.3719-.3867-.1611-.4942l5.0649-2.5848c.2097-.107.6215-.0614.924.1049l7.2115,3.9637c.3018.1659.3741.3863.1644.4934l-5.0649,2.5848Z" style="fill:#2f3942;"/><path d="m292.1289,284.9608c-.2103.1073-.6257.0597-.9267-.1058l-7.2145-3.9654c-.2989-.1643-.3734-.3859-.1631-.4932l5.0654-2.585c.2124-.1084.6273-.0605.9262.1038l7.2145,3.9654c.301.1654.376.3868.1636.4952l-5.0654,2.585Z" style="fill:#2f3942;"/><path d="m310.7636,287.2607c-.2098.1071-.7879-.0301-1.2984-.3106l-12.2709-6.7445c-.5041-.2771-.7491-.5923-.5393-.6994l5.0648-2.5847c.2118-.1081.7972.0335,1.3013.3105l12.2709,6.7445c.5105.2806.7482.5914.5364.6995l-5.0648,2.5847Z" style="fill:#2f3942;"/><path d="m318.202,282.9647c-.2108.1076-.6256.0619-.9273-.104l-7.2109-3.9634c-.3033-.1667-.3725-.387-.1617-.4946l5.0649-2.5848c.2097-.107.6214-.0615.9246.1052l7.2109,3.9634c.3018.1659.3741.3863.1644.4934l-5.0649,2.5848Z" style="fill:#2f3942;"/><path d="m302.7988,290.8254c-.2103.1073-.6074.0697-.8862-.0835l-6.6973-3.681c-.2787-.1532-.3343-.3644-.124-.4717l5.0654-2.585c.2124-.1084.6083-.0709.8871.0823l6.6973,3.681c.2787.1532.3355.3645.1231.4729l-5.0654,2.585Z" style="fill:#2f3942;"/><path d="m325.9879,279.3033c-.2104.1074-.7849-.0262-1.289-.3032l-12.1165-6.6597c-.4977-.2736-.736-.5868-.5256-.6941l5.0654-2.585c.2103-.1073.7908.0312,1.2885.3048l12.1165,6.6597c.5041.277.7363.5853.526.6926l-5.0654,2.585Z" style="fill:#2f3942;"/><path d="m309.6863,270.3433c-.2104.1074-.6273.0605-.9269-.1042l-7.2145-3.9654c-.2995-.1646-.3704-.3858-.16-.4932l5.0654-2.585c.2103-.1073.6235-.0608.923.1038l7.2145,3.9654c.2996.1647.3742.3863.164.4936l-5.0654,2.585Z" style="fill:#2f3942;"/><path d="m298.421,264.1515c-.2104.1074-.6265.0609-.9268-.1041l-7.2153-3.9658c-.2989-.1643-.3719-.3867-.1615-.494l5.0654-2.585c.2103-.1073.6256-.0596.9245.1047l7.2153,3.9658c.3003.165.3741.3862.1638.4935l-5.0654,2.585Z" style="fill:#2f3942;"/><path d="m287.7474,258.2849c-.2104.1074-.6273.0605-.926-.1037l-7.2168-3.9666c-.2989-.1643-.3719-.3867-.1615-.494l5.0654-2.585c.2103-.1073.6256-.0596.9245.1047l7.2168,3.9666c.2987.1642.3733.3858.1631.4931l-5.0654,2.585Z" style="fill:#2f3942;"/><path d="m276.48,252.0919c-.2104.1074-.6265.0609-.9254-.1034l-7.2153-3.9658c-.2987-.1642-.3717-.3866-.1614-.4939l5.0654-2.585c.2103-.1073.6256-.0596.9243.1046l7.2153,3.9658c.2989.1643.3727.3854.1625.4927l-5.0654,2.585Z" style="fill:#2f3942;"/><path d="m265.8087,246.2266c-.2104.1074-.628.0601-.9262-.1038l-7.2168-3.9666c-.3003-.165-.3702-.3858-.1599-.4931l5.0654-2.585c.2103-.1073.6226-.0613.9228.1038l7.2168,3.9666c.2981.1639.3735.3859.1632.4932l-5.0654,2.585Z" style="fill:#2f3942;"/><path d="m254.5398,240.0328c-.2104.1074-.6236.0625-.9225-.1018l-7.2174-3.9669c-.2981-.1639-.3726-.3871-.1623-.4944l5.0654-2.585c.2103-.1073.6271-.0588.9252.1051l7.2174,3.9669c.2989.1643.3698.3839.1596.4912l-5.0654,2.585Z" style="fill:#2f3942;"/><path d="m243.2781,233.843c-.2104.1074-.6273.0605-.926-.1037l-7.2168-3.9666c-.301-.1654-.3719-.3867-.1615-.494l5.0654-2.585c.2103-.1073.6235-.0608.9245.1047l7.2168,3.9666c.2987.1642.3733.3858.1631.4931l-5.0654,2.585Z" style="fill:#2f3942;"/><path d="m232.6001,227.974c-.2104.1074-.6236.0625-.9224-.1017l-7.2153-3.9658c-.3033-.1667-.3711-.3863-.1608-.4936l5.0654-2.585c.2103-.1073.6204-.0624.9237.1043l7.2153,3.9658c.2987.1642.3697.3838.1594.4911l-5.0654,2.585Z" style="fill:#2f3942;"/><path d="m221.3363,221.783c-.2104.1074-.7811-.0241-1.2722-.294l-11.8559-6.5164c-.4934-.2712-.7204-.5782-.5101-.6856l5.0654-2.585c.2103-.1073.7796.0251,1.273.2962l11.8559,6.5164c.4911.2699.7195.5761.5093.6834l-5.0654,2.585Z" style="fill:#2f3942;"/><path d="m205.9345,229.6429c-.2098.1071-.779-.0251-1.2701-.2951l-11.8559-6.5164c-.4934-.2712-.722-.5774-.5122-.6845l5.0648-2.5847c.2118-.1081.7808.0245,1.2742.2956l11.8559,6.5164c.4911.2699.7199.5758.5081.684l-5.0648,2.5847Z" style="fill:#2f3942;"/><path d="m193.1055,230.534c-.2103.1073-.6243.0604-.9231-.1038l-7.2153-3.9658c-.2981-.1639-.3741-.3863-.1639-.4936l5.0654-2.585c.2124-.1084.6288-.0596.9269.1042l7.2153,3.9658c.2987.1642.3724.3848.16.4932l-5.0654,2.585Z" style="fill:#2f3942;"/><path d="m204.3721,236.7266c-.2103.1073-.6257.0597-.9244-.1045l-7.2153-3.9658c-.2996-.1647-.3726-.3855-.1624-.4928l5.0654-2.585c.2124-.1084.6258-.0613.9254.1034l7.2153,3.9658c.2987.1642.3737.3856.1614.4939l-5.0654,2.585Z" style="fill:#2f3942;"/><path d="m215.0457,242.5931c-.2103.1073-.6257.0597-.9274-.1062l-7.2138-3.965c-.2996-.1647-.3711-.3847-.1608-.492l5.0654-2.585c.2124-.1084.6242-.0621.9239.1026l7.2138,3.965c.3018.1659.3768.3872.1644.4956l-5.0654,2.585Z" style="fill:#2f3942;"/><path d="m267.7434,279.807c-.2103.1073-.193.4308-.9204.031-.7289-.4007-63.0164-34.6361-63.718-35.0217-.698-.3836-1.3927-1.0795-1.1824-1.1868l4.9566-2.5295c.2113-.1078,1.78.5924,2.3238.8913,8.6238,4.7399,70.8374,38.9347,63.4473,34.8729.6869.3776.2611.3054.0498.4133l-4.9566,2.5295Z" style="fill:#2f3942;"/><path d="m294.9462,294.8327c-.2104.1074-.512.1814-.7828.0325l-10.1415-5.5741c-.2744-.1508-.5513-.5429-.341-.6502l4.9545-2.5284c.2129-.1087.9393.054,1.2137.2048l10.1415,5.5741c.2708.1488.123.3042-.0899.4128l-4.9545,2.5284Z" style="fill:#2f3942;"/><path d="m281.3094,287.3374c-.2104.1074-.4484.2163-.7207.0667l-10.1436-5.5753c-.2746-.1509-.6112-.5758-.4008-.6831l4.9545-2.5284c.2129-.1087.999.0868,1.2736.2377l10.1436,5.5753c.2723.1497.0609.27-.152.3787l-4.9545,2.5284Z" style="fill:#2f3942;"/><path d="m185.3346,234.5188c-.2113.1078-.3548.3352-.5554.225l-7.4939-4.1189c-.2011-.1106-.4822-.5713-.2709-.6792l4.955-2.5287c.2104-.1074.942.1235,1.1431.2341l7.4939,4.1189c.2006.1102-.1064.1128-.3168.2201l-4.955,2.5287Z" style="fill:#2f3942;"/><path d="m198.9547,242.0049c-.2113.1078-.093.4791-.3653.3295l-10.1459-5.5765c-.2738-.1505-.3736-.5117-.1623-.6195l4.955-2.5287c.2104-.1074.7607.0239,1.0345.1744l10.1459,5.5765c.2723.1497-.2965.0083-.5069.1156l-4.955,2.5287Z" style="fill:#2f3942;"/></g></g><g><path d="m322.8134,244.1365l-57.1455-31.7671c-1.5278-.8425-1.2577-2.2625.6003-3.1554l15.9803-8.6877c1.858-.8929,4.6282-.9342,6.156-.0916l57.4159,31.9675c1.5278.8425,1.2577,2.2625-.6003,3.1554l-16.2508,8.4873c-1.858.8929-4.6282.9342-6.156.0916Z" style="fill:#8f94ba;"/><rect x="264.6237" y="206.4545" width="6.9949" height="4.5623" style="fill:#b9b7b5;"/><rect x="343.7828" y="229.5532" width="3.0342" height="4.1439" style="fill:#b9b7b5;"/><path d="m322.8194,240.1557l-57.1455-31.7671c-1.5278-.8425-1.2577-2.2625.6003-3.1554l15.9803-8.6877c1.858-.8929,4.6282-.9342,6.156-.0916l57.4159,31.9675c1.5278.8425,1.2577,2.2625-.6003,3.1554l-16.2508,8.4873c-1.858.8929-4.6282.9342-6.156.0916Z" style="fill:#f3f3fb;"/><polygon points="318.9342 178.3856 296.0966 166.5237 296.0966 212.3978 315.6347 226.1958 318.9342 224.2597 318.9342 178.3856" style="fill:#8f94ba;"/><polygon points="315.7406 180.2105 292.903 168.3486 292.903 214.2227 315.7406 226.0846 315.7406 180.2105" style="fill:#ececeb;"/></g><g><path d="m228.917,144.3624l174.0317,95.7468c1.5111.8261,4.7225.9165,6.8123-.0975,2.6788-1.2998,4.111-4.0831,4.111-5.9291l2.3219-131.6277c0-3.2861-2.8212-7.517-6.2694-9.402L236.1391.8653c-6.1298-3.0129-12.7079,2.5514-12.7079,5.8375v124.389c-.0177,3.3203.2549,6.1673,1.2803,8.423,1.0611,2.3341,2.8978,4.0331,4.2055,4.8475Z" style="fill:#f3f3fb;"/><path d="m231.6808,145.883l170.787,92.714c3.371,1.8679,6.1291.732,6.1291-2.5242l2.4535-129.6627c0-3.2563-2.7581-7.4488-6.1291-9.3167L231.1215,3.5149c-5.6823-2.8096-7.6902.8041-7.6902,4.0604l.0636,126.1575c0,2.1776.9939,5.2827,2.1048,7.3604,1.1109,2.0777,4.3956,3.8558,6.0811,4.7897Z" style="fill:#fff;"/><path d="m231.1215,143.4237l170.0093,94.205c3.371,1.8679,6.1291.732,6.1291-2.5242l2.3219-127.9038c0-3.2563-2.7581-7.4488-6.1291-9.3167L231.1215,5.2269c-3.371-1.8679-6.1291-.732-6.1291,2.5242v124.2503c0,2.1776.1631,4.5661,1.274,6.6438,1.1109,2.0777,3.1696,3.8445,4.8551,4.7785Z" style="fill:#2f3942;"/><polygon points="236.9094 135.8294 395.88 223.3051 398.2019 106.0183 236.9094 19.3307 236.9094 135.8294" style="fill:#e5e5e5;"/></g></g><g id="e"><g id="f"><g id="g"><path id="i" d="m307.3997,162.0323c-12.1798-6.1545-22.1202-31.9527-22.1845-57.399-.064-25.3123,9.6776-40.9456,21.7407-34.9569,12.0912,6.0026,22.0949,31.5247,22.2755,57.0026.1816,25.6133-9.6233,41.5223-21.8316,35.3534Zm-.4253-88.5061c-11.0488-5.4892-19.9692,8.841-19.9061,32.0352.0634,23.3066,9.166,46.9214,20.3126,52.5496,11.1706,5.6403,20.144-8.9216,19.9823-32.3677-.1609-23.3326-9.3165-46.7162-20.3888-52.2171Z" style="fill:url(#h);"/><path id="k" d="m306.956,69.6943c-12.0584-5.9864-21.7962,9.6407-21.7322,34.9433.0643,25.4366,10.0009,51.2245,22.1759,57.3765,12.2036,6.1665,22.0046-9.7364,21.8231-35.3395-.1805-25.4677-10.1803-50.9801-22.2667-56.9804Z" style="fill:url(#j); isolation:isolate; opacity:.32;"/><path id="m" d="m307.3997,162.0323c-12.1798-6.1545-22.1202-31.9527-22.1845-57.399-.064-25.3123,9.6776-40.9456,21.7407-34.9569,12.0912,6.0026,22.0949,31.5247,22.2755,57.0026.1816,25.6133-9.6233,41.5223-21.8316,35.3534Zm-.4253-88.5061c-11.0488-5.4892-19.9692,8.841-19.9061,32.0352.0634,23.3066,9.166,46.9214,20.3126,52.5496,11.1706,5.6403,20.144-8.9216,19.9823-32.3677-.1609-23.3326-9.3165-46.7162-20.3888-52.2171Z" style="fill:url(#l); isolation:isolate; opacity:.44;"/><path id="n" d="m306.9756,73.7714c-11.1341-5.5318-20.1235,8.901-20.0604,32.2653.0635,23.4784,9.2364,47.2703,20.4698,52.9434,11.2577,5.6853,20.301-8.9826,20.1377-32.6027-.1625-23.5049-9.3892-47.0622-20.5472-52.6059Z"/><path id="o" d="m307.3997,162.0323c-12.1798-6.1545-22.1202-31.9527-22.1845-57.399-.064-25.3123,9.6776-40.9456,21.7407-34.9569,12.0912,6.0026,22.0949,31.5247,22.2755,57.0026.1816,25.6133-9.6233,41.5223-21.8316,35.3534Zm-.4391-91.377c-12.0643-5.9904-21.8076,9.3722-21.7445,34.3507.0635,25.1089,10.003,50.6296,22.1824,56.7836,12.208,6.1685,22.0146-9.4621,21.8355-34.7355-.1782-25.1415-10.181-50.3945-22.2734-56.3988Z" style="fill:#0f0f0d; isolation:isolate; opacity:.35;"/></g><g id="p"><path id="r" d="m306.9744,73.5263c-11.0536-5.4916-19.978,8.8366-19.9149,32.0308.0634,23.3066,9.1699,46.9233,20.3214,52.554,11.1755,5.6428,20.1529-8.917,19.9912-32.3633-.1609-23.3328-9.3205-46.7182-20.3977-52.2215Z" style="fill:url(#q);"/><path id="t" d="m306.9744,73.5263c-11.0536-5.4916-19.978,8.8366-19.9149,32.0308.0634,23.3066,9.1699,46.9233,20.3214,52.554,11.1755,5.6428,20.1529-8.917,19.9912-32.3633-.1609-23.3328-9.3205-46.7182-20.3977-52.2215Z" style="fill:url(#s); isolation:isolate; opacity:.13;"/><path id="v" d="m306.9911,77.0129c-3.2961-1.6387-5.9527,2.633-5.9238,9.5304.0289,6.9073,2.7395,13.8764,6.0443,15.5273,3.3069,1.652,5.9681-2.6402,5.9306-9.5597-.0375-6.9095-2.7528-13.8583-6.051-15.498Z" style="fill:url(#u); isolation:isolate; opacity:.7;"/><path id="x" d="m296.4613,74.4047c-.0009.0139-.0018.0275-.0028.0413-.026-.0028-.0265-.0159.0028-.0413Zm15.2976,34.5749l-.2238,10.3094,3.3359,9.1859-3.2566,5.8901,2.2078,6.0903-2.1552,3.9012.335,10.5814-9.2906-4.6862-.1986-45.8952c-3.6872-5.7727-6.2194-15.5168-6.2553-25.2607-.006-1.6288.0974-3.079.2013-4.6499.3963.041,6.7938-2.3923,6.7938-2.3923-.0506.5815,7.507,4.3369,7.4504,3.7018,0,0,6.2502,8.6825,6.8765,9.2676.1675,1.6818.2302,3.1978.2397,4.8075.0579,9.7751-2.4574,17.015-6.0601,19.1491Zm5.8089-24.0765c.0041.0405.0074.0797.0114.12.0686.0641.0707.0325-.0114-.12Z" style="fill:url(#w); isolation:isolate; opacity:.3;"/><path id="y" d="m296.4905,137.8888c-3.6002-8.3479-5.8926-19.1159-5.9257-29.8699-.0385-12.483,3.0321-22.4283,8.1267-26.2889-.0865,1.1982-.1735,2.3009-.1686,3.5452.0289,7.3766,2.1149,14.8343,5.1521,19.3246l.1506,33.8623,3.859,9.9691,3.7839-6.1231-.2672-7.1859,1.7755-2.8714-1.8148-4.6714,2.6836-4.3376-2.7429-7.051.1884-7.7834c2.9686-1.4915,5.0445-6.8805,5.0018-14.2767-.0072-1.2476-.0597-2.4218-.2045-3.7372,1.878,3.2821,3.4958,7.1191,4.8005,11.2794-3.1554-10.4537-8.2184-18.7407-13.8911-21.5626-9.3853-4.6687-16.9331,7.3825-16.8736,26.9816.0338,11.1256,2.5098,22.3096,6.3662,30.7967h0Zm9.8994-.8406l-1.2883-.648-.1224-26.7332,1.2847.6429.126,26.7383Zm-2.0936-56.9187c1.0044.1181,2.0557.4502,3.0623.951,1.0521.4279,2.0604,1.216,3.0696,2.1001.0483.5015.0965,1.003.099,1.4818.0188,3.6405-1.3862,5.9046-3.1269,5.0371s-3.1726-4.5435-3.189-8.1806c-.0022-.4783.0414-.9339.085-1.3894Z" style="fill:#0f0f0d; isolation:isolate; opacity:.2;"/><path id="aa" d="m306.9744,73.5263c-11.0488-5.4892-19.9692,8.8411-19.9061,32.0352.0634,23.3066,9.166,46.9214,20.3126,52.5496,11.1706,5.6403,20.144-8.9216,19.9823-32.3677-.1609-23.3326-9.3165-46.7162-20.3888-52.2171Zm-3.03,5.6875c1.0043.118,2.0554.45,3.0619.9507,1.0519.4278,2.0601,1.2157,3.0692,2.0996.0483.5014.0965,1.0028.0989,1.4815.0187,3.6398-1.3863,5.9034-3.1267,5.0362s-3.172-4.5424-3.1883-8.1788c-.0021-.4782.0415-.9337.085-1.3891Zm1.9663,30.1741l.125,26.7327-1.2881-.6478-.1214-26.7276,1.2846.6427Zm1.4378,41.9956c-9.3943-4.7374-17.0748-24.5387-17.1349-44.2854-.038-12.4804,3.0325-22.4238,8.1266-26.2838-.0865,1.1979-.1735,2.3005-.1687,3.5445.0286,7.3751,2.1141,14.8312,5.1508,19.3204l.1493,33.8553,3.8582,9.9669,3.7836-6.122-.2669-7.1844,1.7753-2.8709-1.8144-4.6704,2.6834-4.3368-2.7423-7.0494.1886-7.7818c2.9683-1.4913,5.0441-6.8793,5.0017-14.2739-.0071-1.2473-.0596-2.4213-.2043-3.7364,5.1321,8.9689,8.3319,22.0758,8.4603,34.6422.1297,19.7494-7.389,32.035-16.8465,27.2658v.0002Z" style="fill:url(#z);"/></g></g></g><g id="ab"><g id="ac"><g id="ad"><path id="af" d="m166.3057,109.1421c-6.4129-3.5287-11.6171-19.8341-11.6172-36.3559,0-16.5218,5.2043-27.1664,11.6171-23.7198,6.4304,3.4561,11.6749,19.7831,11.6749,36.3873,0,16.6042-5.2445,27.2268-11.6749,23.6883Zm0-57.5483c-5.8714-3.1588-10.6372,6.5904-10.6372,21.7253,0,15.1349,4.7659,30.068,10.6372,33.2956,5.8861,3.2357,10.6856-6.4952,10.6856-21.699,0-15.2037-4.7996-30.1552-10.6857-33.3219Z" style="fill:url(#ae);"/><path id="ah" d="m166.3057,49.0782c-6.4104-3.4453-11.6126,7.195-11.6126,23.7105,0,16.5155,5.2023,32.8144,11.6126,36.3417,6.4279,3.537,11.6703-7.0815,11.6703-23.6791,0-16.5976-5.2424-32.9184-11.6704-36.3731Z" style="fill:url(#ag); isolation:isolate; opacity:.32;"/><path id="aj" d="m166.3057,109.1421c-6.4129-3.5287-11.6171-19.8341-11.6172-36.3559,0-16.5218,5.2043-27.1664,11.6171-23.7198,6.4304,3.4561,11.6749,19.7831,11.6749,36.3873,0,16.6042-5.2445,27.2268-11.6749,23.6883Zm0-57.5483c-5.8714-3.1588-10.6372,6.5904-10.6372,21.7253,0,15.1349,4.7659,30.068,10.6372,33.2956,5.8861,3.2357,10.6856-6.4952,10.6856-21.699,0-15.2037-4.7996-30.1552-10.6857-33.3219Z" style="fill:url(#ai); isolation:isolate; opacity:.44;"/><path id="ak" d="m166.3057,51.7547c-5.9165-3.1833-10.719,6.6352-10.7189,21.8797,0,15.2445,4.8024,30.2874,10.719,33.5406,5.9315,3.2614,10.7681-6.5386,10.7681-21.853,0-15.3144-4.8366-30.376-10.7681-33.5673Z"/><path id="al" d="m166.3057,109.1421c-6.4129-3.5287-11.6171-19.8341-11.6172-36.3559,0-16.5218,5.2043-27.1664,11.6171-23.7198,6.4304,3.4561,11.6749,19.7831,11.6749,36.3873,0,16.6042-5.2445,27.2268-11.6749,23.6883Zm0-59.4328c-6.4128-3.4475-11.6171,7.0174-11.6171,23.3195,0,16.3021,5.2043,32.4284,11.6172,35.9569,6.4304,3.5382,11.6749-6.905,11.6749-23.2881,0-16.3831-5.2445-32.5314-11.6749-35.9883Z" style="fill:#0f0f0d; isolation:isolate; opacity:.35;"/></g><g id="am"><path id="ao" d="m166.3057,51.5938c-5.8739-3.1601-10.6419,6.5878-10.6419,21.7228,0,15.135,4.768,30.0691,10.6419,33.2981,5.8887,3.2372,10.6904-6.4926,10.6904-21.6964,0-15.2038-4.8017-30.1564-10.6904-33.3245Z" style="fill:url(#an);"/><path id="aq" d="m166.3057,51.5938c-5.8739-3.1601-10.6419,6.5878-10.6419,21.7228,0,15.135,4.768,30.0691,10.6419,33.2981,5.8887,3.2372,10.6904-6.4926,10.6904-21.6964,0-15.2038-4.8017-30.1564-10.6904-33.3245Z" style="fill:url(#ap); isolation:isolate; opacity:.13;"/><path id="as" d="m166.3057,53.881c-1.7512-.943-3.1749,1.9638-3.1749,6.4792s1.4237,8.9604,3.1749,9.9095c1.7525.9498,3.1792-1.9555,3.1792-6.4768,0-4.5214-1.4267-8.9681-3.1792-9.9118Z" style="fill:url(#ar); isolation:isolate; opacity:.7;"/><path id="au" d="m160.7069,52.592c-.0005.0092-.001.0181-.0015.0272-.0138-.0008-.014-.0094.0015-.0272Zm8.0488,22.0041l-.1477,6.721,1.743,5.8437-1.743,3.9434,1.152,3.8647-1.152,2.6047.1477,6.8267-4.8974-2.6885v-29.773c-1.9444-3.6225-3.2691-9.8882-3.2691-16.2637,0-1.067.0578-2.0217.1162-3.0558.2107.011,3.6213-1.8423,3.6213-1.8423-.0283.3837,3.9882,2.5451,3.9598,2.1305,0,0,3.3053,5.4451,3.6372,5.8038.0839,1.0953.1126,2.0859.1126,3.1396,0,6.3911-1.36,11.215-3.2805,12.7453Zm3.1622-15.963c.0021.0263.0037.0519.0057.0782.0363.0393.0376.0185-.0057-.0782Z" style="fill:url(#at); isolation:isolate; opacity:.3;"/><path id="av" d="m160.598,93.9475c-1.8874-5.2726-3.0815-12.1724-3.0815-19.163,0-8.1342,1.6468-14.7525,4.3617-17.481-.0485.788-.097,1.5133-.097,2.3275,0,4.8223,1.0916,9.6103,2.6936,12.4214v21.9951s2.0162,6.3068,2.0162,6.3068l2.0179-4.0991-.1216-4.6448.9487-1.9282-.9487-2.9637,1.4354-2.9188-1.4354-4.4818.1216-5.0768c1.5815-1.0868,2.7014-4.6842,2.7014-9.5163,0-.8158-.0244-1.582-.0974-2.4372.9898,2.0739,1.8388,4.5199,2.5197,7.1878-1.6461-6.7122-4.3178-11.9396-7.3311-13.5635-4.9841-2.686-9.0167,5.5033-9.0167,18.2862,0,7.2331,1.2907,14.3962,3.3133,19.7494h0Zm5.2369-.9106l-.6802-.372v-17.3605s.6801.3694.6801.3694v17.363Zm-.9716-37.0049c.5343.0374,1.0931.2132,1.6277.5013.559.2386,1.0938.715,1.6288,1.2542.0243.3267.0486.6533.0486.9669,0,2.3831-.7538,3.92-1.6774,3.421s-1.6762-2.8483-1.6762-5.2297c0-.3133.0243-.6136.0486-.9138Z" style="fill:#0f0f0d; isolation:isolate; opacity:.2;"/><path id="ax" d="m166.3057,51.5938c-5.8714-3.1588-10.6372,6.5904-10.6372,21.7253,0,15.1349,4.7659,30.068,10.6372,33.2956,5.8861,3.2357,10.6856-6.4952,10.6856-21.699,0-15.2037-4.7996-30.1552-10.6857-33.3219Zm-1.6275,3.852c.5343.0373,1.093.213,1.6275.5011.559.2385,1.0937.7148,1.6287,1.254.0243.3267.0486.6533.0486.9668,0,2.383-.7537,3.92-1.6773,3.4211s-1.6761-2.848-1.6761-5.2293c0-.3133.0243-.6135.0486-.9138Zm.9715,19.641v17.3623s-.6801-.3719-.6801-.3719v-17.3598s.6801.3693.6801.3693Zm.656,27.187c-4.952-2.7176-8.9738-15.2486-8.9738-28.0752,0-8.1339,1.6466-14.7521,4.3613-17.4809-.0485.788-.097,1.5133-.097,2.3274,0,4.8221,1.0916,9.6098,2.6934,12.4206v21.9943s2.016,6.3063,2.016,6.3063l2.0178-4.0992-.1216-4.6446.9486-1.9282-.9486-2.9635,1.4353-2.9189-1.4353-4.4814.1216-5.0766c1.5814-1.087,2.7012-4.6844,2.7012-9.5163,0-.8158-.0244-1.5819-.0974-2.4371,2.7042,5.666,4.3623,14.0992,4.3867,22.2776,0,12.813-4.0215,21.0324-9.0082,18.2956h0Z" style="fill:url(#aw);"/></g></g></g></g><g><path d="m87.657,349.7493l-54.9378-25.1134c-4.3563-3.034-4.587-7.3026-.7277-8.4292l68.3417-37.2067c3.8593-1.1265,7.114-.1629,10.8312,2.152l54.0069,37.6638c3.7172,2.3149-1.0507,10.4875-4.91,11.6141l-13.0694,5.7127c-3.8593,1.1265-55.8176,15.9217-59.5348,13.6068Z" style="fill:url(#ay); opacity:.1;"/><g><path d="m109.1317,238.9092L6.2249,304.85c-2.9927,1.2694-6.2249-.5035-6.2249-3.2141v-76.7243c0-2.7106,2.6225-5.3497,5.2672-6.7206l72.2822-38.8817c2.8331-1.2694,4.1981-1.6815,8.196.9613l20.0146,12.0021c1.8771,1.0909,3.0633,1.563,3.0456,5.3559-.0855,18.3714.3261,41.2806.3261,41.2806Z" style="fill:#ba8736;"/><polygon points="0 304.1168 29.8893 322.5684 27.0736 239.2501 0 223.9773 0 304.1168" style="fill:#997033;"/><path d="m104.3668,282.7502l-71.6618,39.6819c-2.7074,1.1591-5.6313-1.2068-5.6313-3.6818v-78.2729c0-2.475,2.3724-4.8847,4.765-6.1364l75.4993-41.0781c2.0535,2.0503,1.3822,4.2394,1.3822,6.7144l.4116,76.6365c0,2.475-1.7829,4.8163-4.765,6.1364Z" style="fill:#edb145;"/><path d="m77.5946,254.535c3.6823-6.0232,3.3922-12.6918-.6479-14.8947-4.0401-2.2029-10.3004.8942-13.9827,6.9174-3.6823,6.0233-3.3922,12.6919.6479,14.8947.6534.3563,1.3654.5718,2.1147.6609l-1.2483,18.2164,14.6198-7.0568-3.2553-16.3108c.628-.7434,1.2177-1.5533,1.7518-2.427Z" style="fill:#2f3942;"/><path d="m61.0488,142.5756c-2.9661-.0311-6.1546.6047-9.4747,1.9864-15.7362,6.5486-28.5385,27.3488-28.5385,46.3672v33.451l3.8559,1.7539,6.0971-6.537v-32.3153c0-13.1775,8.6523-27.5898,19.2875-32.1272,2.1471-.916,4.2109-1.353,6.1415-1.3708,7.5406.2346,12.9305,6.7688,12.9305,17.0402v27.1911l.2156-.1176v.1176l3.6403,1.1264,4.9087-5.9094v-26.0555c0-15.222-8.0001-24.7576-19.0639-24.6011Z" style="fill:#9e7438;"/><path d="m64.9047,143.702c-2.9661-.0311-6.1546.6047-9.4747,1.9864-15.7362,6.5486-28.5385,27.3488-28.5385,46.3672v34.0785l1.4041-.6275,8.549-4.783v-32.3153c0-13.1775,8.6523-27.5898,19.2875-32.1272,2.1471-.916,4.2109-1.353,6.1415-1.3708,7.5406.2346,12.9305,6.7688,12.9305,17.0402v27.1911l.2156-.1176v.1176l8.549-4.7829v-26.0555c0-15.222-8.0001-24.7576-19.0639-24.6011Z" style="fill:#ce9849;"/></g></g></svg>