<?xml version="1.0" encoding="UTF-8"?><svg xmlns="http://www.w3.org/2000/svg" xmlns:xlink="http://www.w3.org/1999/xlink" viewBox="0 0 447.2874 373.2888"><defs><linearGradient id="b" x1="572.5012" y1="-146.755" x2="502.5877" y2="-267.8488" gradientTransform="translate(-193.5453 462.5931) rotate(-11.6693) scale(.7105 .7439) skewX(-22.9181)" gradientUnits="userSpaceOnUse"><stop offset=".3027" stop-color="#3a81bb" stop-opacity="0"/><stop offset=".6996" stop-color="#1f4d82"/></linearGradient><linearGradient id="c" x1="728.5028" y1="-76.4869" x2="660.2559" y2="-194.6941" gradientTransform="translate(-170.0043 284.2673) rotate(13.0091) scale(.8142 .6155) skewX(22.0815)" xlink:href="#b"/><linearGradient id="d" x1="-728.2331" y1="-249.3575" x2="-796.4801" y2="-367.5647" gradientTransform="translate(627.6274 378.8111) rotate(5.7526) scale(.3313 .3031) skewX(10.9192)" xlink:href="#b"/><linearGradient id="e" x1="181.0593" y1="50.8651" x2="181.0593" y2="117.064" gradientUnits="userSpaceOnUse"><stop offset="0" stop-color="#414141"/><stop offset=".196" stop-color="#3e3e3e"/><stop offset="1" stop-color="#3a3a3a"/></linearGradient><radialGradient id="g" cx="432.6399" cy="-105.4852" fx="432.6399" fy="-105.4852" r="97.1644" gradientTransform="translate(26.5723 118.7639) scale(.3539)" gradientUnits="userSpaceOnUse"><stop offset=".6733" stop-color="#fcfcfc" stop-opacity="0"/><stop offset="1" stop-color="#fcfcfc"/></radialGradient><radialGradient id="i" cx="435.6066" cy="-90.6487" fx="435.6066" fy="-90.6487" r="79.3049" gradientTransform="translate(26.5723 118.7639) scale(.3539)" gradientUnits="userSpaceOnUse"><stop offset=".1088" stop-color="#0f0f0d" stop-opacity="0"/><stop offset=".8856" stop-color="#414141" stop-opacity="0"/><stop offset=".9339" stop-color="#1e1e1d" stop-opacity=".6841"/><stop offset=".9874" stop-color="#0f0f0d"/></radialGradient><radialGradient id="m" cx="437.603" cy="-146.8487" fx="437.603" fy="-146.8487" r="168.2774" gradientTransform="translate(26.5723 96.7814) scale(.3539 .2026)" gradientUnits="userSpaceOnUse"><stop offset="0" stop-color="#2e6b26"/><stop offset="1" stop-color="#6ab536"/></radialGradient><radialGradient id="o" cx="437.5003" cy="-144.4215" fx="437.5003" fy="-144.4215" r="31.2908" gradientTransform="translate(26.5723 118.7639) scale(.3539)" gradientUnits="userSpaceOnUse"><stop offset="0" stop-color="#6ab536"/><stop offset="1" stop-color="#2e6b26"/></radialGradient><radialGradient id="q" cx="446.7749" cy="-113.8743" fx="446.7749" fy="-113.8743" r="50.6128" gradientTransform="translate(31.4391 137.5463) scale(.3356 .5572)" gradientUnits="userSpaceOnUse"><stop offset="0" stop-color="#000"/><stop offset=".7842" stop-color="#4f4f4f" stop-opacity="0"/></radialGradient><radialGradient id="t" cx="436.2173" cy="-158.4871" fx="436.2173" fy="-158.4871" r="113.0577" gradientTransform="translate(26.5723 118.7639) scale(.3539)" gradientUnits="userSpaceOnUse"><stop offset="0" stop-color="#f5f5f5"/><stop offset=".5481" stop-color="#f2f2f2"/></radialGradient><linearGradient id="v" x1="330.8868" y1="71.5983" x2="330.8868" y2="164.3904" xlink:href="#e"/><radialGradient id="x" cx="854.4146" cy="-11.5654" fx="854.4146" fy="-11.5654" r="136.1969" xlink:href="#g"/><radialGradient id="z" cx="858.573" cy="9.2312" fx="858.573" fy="9.2312" r="111.163" xlink:href="#i"/><radialGradient id="ad" cx="861.3714" cy="-69.5454" fx="861.3714" fy="-69.5454" r="235.8772" gradientTransform="translate(26.5723 108.3533) scale(.3539 .2026)" xlink:href="#m"/><radialGradient id="af" cx="861.2274" cy="-66.1431" fx="861.2274" fy="-66.1431" r="43.8608" xlink:href="#o"/><radialGradient id="ah" cx="893.5983" cy="-31.2332" fx="893.5983" fy="-31.2332" r="70.9448" gradientTransform="translate(31.4391 121.5623) scale(.3356 .5572)" xlink:href="#q"/><radialGradient id="ak" cx="859.4291" cy="-85.859" fx="859.4291" fy="-85.859" r="158.4748" xlink:href="#t"/><linearGradient id="am" x1="372.4587" y1="27.291" x2="329.8608" y2="-46.4907" gradientTransform="translate(-193.4686 266.4053) rotate(14.5897) scale(.869 .6209) skewX(24.049)" xlink:href="#b"/></defs><g style="isolation:isolate;"><g id="a"><g><g><path d="m187.9187,259.4573l-51.5266-28.8296c-2.8179-1.8173-3.4315-4.0729,1.1244-7.7049l72.2357-47.7041c4.5559-3.6319,11.2859-5.208,13.8383-4.0338l61.2287,42.0025c2.5524,1.1742.9132,5.1065-3.6427,8.7385l-82.9112,35.4106c-4.5559,3.6319-7.7943,3.2951-10.3467,2.1208Z" style="fill:url(#b); opacity:.1;"/><g><path d="m244.7707,187.8782c.0538-.329.0522-.6509,0-.9656v-6.3868h-2.3941v3.8436c-.7909.9969-1.3563,1.086-3.0929,2.1438l-79.8815,43.7864c-5.8163,3.5426-10.7442,2.2186-14.8752-.0211L22.9482,163.8825c-.1943-.1305-.3507-.2305-.4921-.3196v-4.1188h-3.6349l.1397,6.6083c.0544,1.8972,1.9785,3.7256,4.6636,5.5284l120.8351,65.8898c4.1521,2.2477,9.1083,3.5704,14.9703-.0144l80.4978-44.327c2.9506-1.8044,4.5153-3.5579,4.8252-5.1564h.0178v-.0945Z" style="fill:#323970; opacity:.3;"/><path d="m244.8236,186.1171c.0538-.329.0522-.6509,0-.9656v-6.3868h-2.3941v3.8436c-.7909.9969-1.3563,1.086-3.0929,2.1438l-79.8815,43.7864c-5.8163,3.5426-10.7442,2.2186-14.8752-.0211L23.0012,162.1214c-.1943-.1305-.3507-.2305-.4921-.3196v-4.1188h-3.6349l.1397,6.6083c.0544,1.8972,1.9785,3.7256,4.6636,5.5284l120.8351,65.8898c4.1521,2.2477,9.1083,3.5704,14.9703-.0144l80.4978-44.327c2.9506-1.8044,4.5153-3.5579,4.8252-5.1564h.0178v-.0945Z" style="fill:#8f94ba;"/><path d="m244.8236,178.7648h-2.3941v3.8436c-.7909.9969-1.3563,1.086-3.0929,2.1438l-79.8815,43.7864c-3.0585,1.8629-5.8711,2.3789-8.4516,2.1248v7.1964c2.5879.2427,5.4091-.2872,8.4794-2.1647l80.4978-44.327c2.9506-1.8044,4.5153-3.5579,4.8252-5.1564h.0178v-.0945c.0538-.329.0522-.6509,0-.9656v-6.3868Z" style="fill:#8f94ba;"/><path d="m149.0342,237.5237c1.8274.4483,3.7812.5522,5.8669.0822v-7.1813c-2.0855.4634-4.0394.3501-5.8669-.1076v7.2067Z" style="fill:#d3dcdf;"/><path d="m144.635,229.2049L23.0564,162.809c-4.7024-3.1586-6.232-6.2949-.4157-9.8375l79.2333-43.4633c5.8163-3.5426,15.4386-3.7877,19.5696-1.5479l121.0123,66.9659c4.131,2.2398,2.7522,6.9709-3.0641,10.5135l-79.8815,43.7864c-5.8163,3.5426-10.7442,2.2186-14.8752-.0211Z" style="fill:#f3f3fb;"/><path d="m106.8103,197.6601l-30.8215-16.1986c-.6293-.326-1.0838-1.4112.0804-2.0263l21.3899-11.5957c.7792-.4153,2.2875-.304,2.9168.022l30.397,16.4194c.6293.326.5062,1.4069-.2731,1.8222l-21.1285,11.3945c-.7792.4153-1.9317.4883-2.561.1623Z" style="fill:#6d73be; opacity:.31;"/><path d="m177.6183,199.7947l-104.4989-58.0908c-2.7938-1.5407-2.2998-4.1373,1.0978-5.7702l29.2223-15.8867c3.3976-1.6329,8.4634-1.7083,11.2572-.1675l104.9935,58.4573c2.7938,1.5407,2.2998,4.1373-1.0978,5.7702l-29.7169,15.5202c-3.3976,1.6329-8.4634,1.7083-11.2572.1675Z" style="fill:#d7dada;"/><g><path d="m104.8954,131.7128c-.1902.0971-.5652.0554-.8348-.0927l-6.5112-3.5788c-.269-.1479-.3363-.3493-.1461-.4464l4.5707-2.3325c.1893-.0966.5655-.0528.8345.095l6.5112,3.5788c.2696.1482.3356.3475.1463.4441l-4.5707,2.3325Z" style="fill:#2f3942;"/><path d="m114.526,137.0062c-.1902.0971-.5638.0562-.8348-.0927l-6.5105-3.5784c-.2718-.1494-.3356-.3489-.1454-.446l4.5707-2.3325c.1893-.0966.5621-.0547.8339.0947l6.5105,3.5784c.271.1489.3356.3475.1463.4441l-4.5707,2.3325Z" style="fill:#2f3942;"/><path d="m112.7371,143.5891c-.1894.0966-.5609.0554-.8305-.0928l-6.5112-3.5788c-.2737-.1504-.3363-.3478-.147-.4445l4.5706-2.3325c.1912-.0976.5609-.0569.8346.0935l6.5112,3.5788c.2696.1482.334.3461.1428.4437l-4.5706,2.3325Z" style="fill:#2f3942;"/><path d="m124.6946,142.5952c-.1902.0971-.5664.0548-.8368-.0939l-6.5117-3.5791c-.2704-.1486-.3335-.3478-.1433-.4449l4.5707-2.3325c.1893-.0966.5614-.0551.8318.0935l6.5117,3.5791c.2704.1486.3376.3486.1484.4452l-4.5707,2.3325Z" style="fill:#2f3942;"/><path d="m122.373,148.8853c-.1894.0966-.5641.0536-.8337-.0946l-6.5125-3.5795c-.2716-.1493-.337-.3482-.1477-.4448l4.5706-2.3325c.1912-.0976.5637-.0554.8353.0939l6.5125,3.5795c.2696.1482.3373.3479.1461.4455l-4.5706,2.3325Z" style="fill:#2f3942;"/><path d="m134.3225,147.887c-.1902.0971-.5617.0574-.8347-.0927l-6.5106-3.5785c-.271-.1489-.3341-.3481-.1439-.4452l4.5707-2.3325c.1893-.0966.5614-.0551.8324.0938l6.5106,3.5785c.273.15.3354.3474.1462.444l-4.5707,2.3325Z" style="fill:#2f3942;"/><path d="m120.9605,155.2763c-.1897.0968-.5646.0538-.8357-.0952l-6.5098-3.578c-.271-.1489-.3375-.3486-.1477-.4454l4.571-2.3327c.1917-.0978.5654-.055.8363.094l6.5098,3.578c.2711.149.3388.3488.1471.4466l-4.571,2.3327Z" style="fill:#2f3942;"/><path d="m132.5357,154.4711c-.1894.0966-.5609.0554-.8306-.0929l-6.5131-3.5798c-.269-.1479-.3377-.3486-.1484-.4452l4.5706-2.3325c.1912-.0976.5669-.0536.836.0943l6.5131,3.5798c.2697.1483.3341.3462.143.4438l-4.5706,2.3325Z" style="fill:#2f3942;"/><path d="m144.4898,153.4753c-.1902.0971-.5632.0566-.8355-.0931l-6.5098-3.578c-.2697-.1483-.3356-.3489-.1454-.446l4.5707-2.3325c.1893-.0966.5641-.0536.8339.0947l6.5098,3.578c.2723.1497.3362.3479.147.4445l-4.5707,2.3325Z" style="fill:#2f3942;"/><path d="m130.5897,160.5689c-.1897.0968-.5613.0556-.8337-.094l-6.5098-3.578c-.2697-.1483-.3369-.3483-.1472-.4451l4.571-2.3327c.1917-.0978.5661-.0546.8358.0937l6.5098,3.578c.2723.1497.3367.3476.1451.4454l-4.571,2.3327Z" style="fill:#2f3942;"/><path d="m142.705,160.0605c-.1894.0966-.5648.0532-.8339-.0947l-6.5125-3.5795c-.271-.1489-.3355-.3474-.1462-.444l4.5706-2.3325c.1912-.0976.5629-.0558.8338.0931l6.5125,3.5795c.269.1479.3374.348.1462.4456l-4.5706,2.3325Z" style="fill:#2f3942;"/><path d="m154.6558,159.0629c-.1902.0971-.5632.0566-.8328-.0916l-6.5125-3.5795c-.2697-.1483-.3342-.3482-.144-.4453l4.5707-2.3325c.1893-.0966.5628-.0543.8325.0939l6.5125,3.5795c.2696.1482.3335.3464.1443.443l-4.5707,2.3325Z" style="fill:#2f3942;"/><path d="m140.7557,166.1564c-.1897.0968-.5613.0556-.8309-.0925l-6.5125-3.5795c-.2697-.1483-.3356-.3475-.1458-.4443l4.571-2.3327c.1917-.0978.5647-.0553.8344.0929l6.5125,3.5795c.2696.1482.334.3461.1423.4439l-4.571,2.3327Z" style="fill:#2f3942;"/><path d="m152.3349,165.3534c-.1894.0966-.5635.054-.8332-.0943l-6.5112-3.5788c-.2696-.1482-.3369-.3481-.1475-.4448l4.5706-2.3325c.1912-.0976.5656-.0543.8352.0938l6.5112,3.5788c.2697.1483.3367.3476.1456.4452l-4.5706,2.3325Z" style="fill:#2f3942;"/><path d="m164.2877,164.357c-.1902.0971-.5645.0558-.8355-.0931l-6.5086-3.5773c-.2716-.1493-.3361-.3492-.1459-.4463l4.5707-2.3325c.1893-.0966.5628-.0543.8344.095l6.5086,3.5773c.271.1489.3363.3479.147.4445l-4.5707,2.3325Z" style="fill:#2f3942;"/><path d="m150.9242,171.7454c-.1897.0968-.5639.0542-.8349-.0947l-6.5086-3.5773c-.2737-.1504-.3375-.3486-.1477-.4454l4.571-2.3327c.1917-.0978.5626-.0564.8363.094l6.5086,3.5773c.271.1489.338.3483.1463.4461l-4.571,2.3327Z" style="fill:#2f3942;"/><path d="m162.5028,170.942c-.1894.0966-.5641.0536-.8337-.0946l-6.5125-3.5795c-.2697-.1483-.337-.3482-.1477-.4448l4.5706-2.3325c.1912-.0976.5656-.0543.8353.0939l6.5125,3.5795c.2696.1482.3373.3479.1461.4455l-4.5706,2.3325Z" style="fill:#2f3942;"/><path d="m173.9216,169.6521c-.1902.0971-.5632.0566-.8368-.0939l-6.5131-3.5798c-.2697-.1483-.3322-.3471-.142-.4441l4.5707-2.3325c.1893-.0966.5607-.0555.8305.0928l6.5131,3.5798c.2737.1504.3376.3486.1484.4452l-4.5707,2.3325Z" style="fill:#2f3942;"/><path d="m160.5548,177.0388c-.1897.0968-.5614.0556-.8323-.0933l-6.5125-3.5795c-.2689-.1478-.3361-.3478-.1464-.4446l4.571-2.3327c.1917-.0978.5661-.0546.835.0932l6.5125,3.5795c.271.1489.3354.3469.1437.4447l-4.571,2.3327Z" style="fill:#2f3942;"/><path d="m172.1347,176.2361c-.1894.0966-.5635.054-.8344-.095l-6.5112-3.5788c-.2697-.1483-.337-.3482-.1477-.4448l4.5706-2.3325c.1912-.0976.5656-.0543.8353.0939l6.5112,3.5788c.271.1489.338.3483.1468.4459l-4.5706,2.3325Z" style="fill:#2f3942;"/><path d="m184.0876,175.2397c-.1902.0971-.5658.0551-.8369-.0939l-6.5085-3.5773c-.2711-.149-.3349-.3486-.1447-.4456l4.5707-2.3325c.1893-.0966.5621-.0547.8332.0943l6.5085,3.5773c.2711.149.3376.3486.1484.4452l-4.5707,2.3325Z" style="fill:#2f3942;"/><path d="m170.7215,182.6267c-.1897.0968-.562.0553-.8323-.0933l-6.5112-3.5788c-.2716-.1493-.3356-.3475-.1458-.4443l4.571-2.3327c.1917-.0978.5628-.0564.8344.0929l6.5112,3.5788c.2703.1486.3354.3469.1437.4447l-4.571,2.3327Z" style="fill:#2f3942;"/><path d="m182.3007,181.8237c-.1894.0966-.5641.0536-.8345-.095l-6.5105-3.5784c-.2703-.1486-.3357-.3475-.1463-.4441l4.5706-2.3325c.1912-.0976.5637-.0554.8339.0932l6.5105,3.5784c.2704.1486.3381.3484.1469.4459l-4.5706,2.3325Z" style="fill:#2f3942;"/><path d="m193.7182,180.533c-.1902.0971-.5645.0558-.8368-.0939l-6.5078-3.5769c-.273-.15-.3356-.3489-.1454-.446l4.5707-2.3325c.1893-.0966.5609-.0554.8339.0947l6.5078,3.5769c.2723.1497.3376.3486.1484.4452l-4.5707,2.3325Z" style="fill:#2f3942;"/><path d="m180.3554,187.9218c-.1897.0968-.5646.0538-.8363-.0955l-6.5105-3.5784c-.2697-.1482-.3369-.3483-.1472-.4451l4.571-2.3327c.1917-.0978.5661-.0546.8358.0937l6.5105,3.5784c.2716.1493.3393.3491.1477.4469l-4.571,2.3327Z" style="fill:#2f3942;"/><path d="m197.1716,189.9974c-.1894.0966-.711-.0271-1.1717-.2803l-11.0734-6.0864c-.4549-.25-.676-.5345-.4867-.6312l4.5706-2.3325c.1912-.0976.7194.0302,1.1743.2802l11.0734,6.0864c.4607.2532.6752.5337.4841.6312l-4.5706,2.3325Z" style="fill:#2f3942;"/><path d="m203.8842,186.1205c-.1902.0971-.5645.0558-.8368-.0939l-6.5072-3.5766c-.2737-.1504-.3361-.3492-.1459-.4463l4.5707-2.3325c.1893-.0966.5607-.0555.8344.095l6.5072,3.5766c.2723.1497.3376.3486.1484.4452l-4.5707,2.3325Z" style="fill:#2f3942;"/><path d="m189.9841,193.2141c-.1897.0968-.5482.0629-.7997-.0754l-6.0437-3.3218c-.2515-.1383-.3016-.3289-.1119-.4257l4.571-2.3327c.1917-.0978.549-.064.8005.0743l6.0437,3.3218c.2515.1383.3028.329.1111.4268l-4.571,2.3327Z" style="fill:#2f3942;"/><path d="m210.9102,182.8164c-.1898.0969-.7083-.0236-1.1632-.2736l-10.9341-6.0098c-.4492-.2469-.6641-.5295-.4743-.6264l4.571-2.3327c.1897-.0968.7136.0282,1.1628.275l10.9341,6.0098c.4549.25.6644.5281.4747.625l-4.571,2.3327Z" style="fill:#2f3942;"/><path d="m196.1994,174.7308c-.1898.0969-.5661.0546-.8365-.094l-6.5105-3.5784c-.2703-.1486-.3342-.3482-.1444-.4451l4.571-2.3327c.1897-.0968.5626-.0548.8329.0937l6.5105,3.5784c.2704.1486.3377.3486.148.4454l-4.571,2.3327Z" style="fill:#2f3942;"/><path d="m186.0335,169.1432c-.1898.0969-.5654.055-.8363-.094l-6.5112-3.5788c-.2697-.1483-.3356-.3489-.1458-.4458l4.571-2.3327c.1897-.0968.5645-.0538.8343.0945l6.5112,3.5788c.271.1489.3376.3485.1478.4453l-4.571,2.3327Z" style="fill:#2f3942;"/><path d="m176.4015,163.8492c-.1898.0969-.5661.0546-.8356-.0936l-6.5125-3.5795c-.2697-.1483-.3356-.3489-.1458-.4458l4.571-2.3327c.1897-.0968.5645-.0538.8343.0945l6.5125,3.5795c.2696.1482.3369.3481.1472.445l-4.571,2.3327Z" style="fill:#2f3942;"/><path d="m166.2336,158.2605c-.1898.0969-.5654.055-.8351-.0933l-6.5112-3.5788c-.2696-.1482-.3355-.3489-.1456-.4457l4.571-2.3327c.1897-.0968.5645-.0538.8341.0944l6.5112,3.5788c.2697.1483.3363.3478.1466.4447l-4.571,2.3327Z" style="fill:#2f3942;"/><path d="m156.6037,152.9676c-.1898.0969-.5667.0542-.8358-.0937l-6.5125-3.5795c-.271-.1489-.3341-.3481-.1443-.445l4.571-2.3327c.1897-.0968.5618-.0553.8328.0936l6.5125,3.5795c.269.1479.337.3482.1473.445l-4.571,2.3327Z" style="fill:#2f3942;"/><path d="m146.4345,147.3782c-.1898.0969-.5628.0564-.8325-.0919l-6.5131-3.5798c-.269-.1479-.3363-.3493-.1464-.4462l4.571-2.3327c.1897-.0968.5659-.053.8349.0948l6.5131,3.5798c.2697.1483.3338.3464.144.4432l-4.571,2.3327Z" style="fill:#2f3942;"/><path d="m136.2718,141.7924c-.1898.0969-.5661.0546-.8357-.0936l-6.5125-3.5795c-.2716-.1493-.3356-.3489-.1458-.4458l4.571-2.3327c.1897-.0968.5626-.0548.8343.0945l6.5125,3.5795c.2696.1482.3369.3481.1472.445l-4.571,2.3327Z" style="fill:#2f3942;"/><path d="m126.6358,136.4962c-.1898.0969-.5628.0564-.8324-.0918l-6.5112-3.5788c-.2737-.1504-.3349-.3486-.1451-.4454l4.571-2.3327c.1897-.0968.5599-.0563.8336.0941l6.5112,3.5788c.2696.1482.3336.3463.1439.4432l-4.571,2.3327Z" style="fill:#2f3942;"/><path d="m116.4712,130.9094c-.1898.0969-.7049-.0217-1.1481-.2653l-10.6989-5.8805c-.4452-.2447-.6501-.5218-.4603-.6187l4.571-2.3327c.1897-.0968.7036.0226,1.1488.2673l10.6989,5.8805c.4432.2436.6493.5198.4596.6167l-4.571,2.3327Z" style="fill:#2f3942;"/><path d="m102.5724,138.0023c-.1894.0966-.7029-.0227-1.1461-.2663l-10.6989-5.8805c-.4452-.2447-.6515-.5211-.4622-.6177l4.5706-2.3325c.1912-.0976.7046.0221,1.1498.2668l10.6989,5.8805c.4432.2436.6497.5196.4585.6172l-4.5706,2.3325Z" style="fill:#2f3942;"/><path d="m90.9953,138.8064c-.1897.0968-.5634.0545-.833-.0937l-6.5112-3.5788c-.269-.1479-.3376-.3486-.1479-.4455l4.571-2.3327c.1917-.0978.5674-.0538.8365.094l6.5112,3.5788c.2696.1482.336.3473.1444.4451l-4.571,2.3327Z" style="fill:#2f3942;"/><path d="m101.1625,144.3947c-.1897.0968-.5646.0538-.8342-.0943l-6.5112-3.5788c-.2704-.1486-.3362-.3479-.1465-.4447l4.571-2.3327c.1917-.0978.5647-.0553.8351.0933l6.5112,3.5788c.2696.1482.3373.3479.1456.4457l-4.571,2.3327Z" style="fill:#2f3942;"/><path d="m110.7945,149.6887c-.1897.0968-.5646.0538-.8369-.0958l-6.5098-3.578c-.2704-.1486-.3349-.3471-.1451-.444l4.571-2.3327c.1917-.0978.5633-.0561.8337.0926l6.5098,3.578c.2723.1497.34.3494.1483.4472l-4.571,2.3327Z" style="fill:#2f3942;"/><path d="m158.3496,183.271c-.1897.0968-.1742.3888-.8306.028-.6578-.3616-56.8669-31.256-57.5-31.604-.6299-.3462-1.2567-.9742-1.067-1.071l4.4729-2.2826c.1907-.0973,1.6063.5346,2.097.8044,7.7822,4.2774,63.9246,35.1352,57.2557,31.4697.6199.3407.2356.2756.0449.373l-4.4729,2.2826Z" style="fill:#2f3942;"/><path d="m182.8978,196.8304c-.1898.0969-.4621.1637-.7064.0294l-9.1518-5.0302c-.2476-.1361-.4975-.4899-.3077-.5868l4.471-2.2817c.1921-.098.8476.0487,1.0953.1849l9.1518,5.0302c.2444.1343.111.2745-.0811.3725l-4.471,2.2817Z" style="fill:#2f3942;"/><path d="m170.5918,190.0666c-.1898.0969-.4047.1952-.6504.0602l-9.1537-5.0312c-.2478-.1362-.5515-.5196-.3617-.6165l4.471-2.2817c.1921-.098.9015.0783,1.1493.2145l9.1537,5.0312c.2457.1351.0549.2437-.1372.3417l-4.471,2.2817Z" style="fill:#2f3942;"/><path d="m83.9828,142.4023c-.1907.0973-.3202.3025-.5012.203l-6.7626-3.717c-.1815-.0998-.4352-.5156-.2445-.6129l4.4715-2.2819c.1898-.0969.85.1115,1.0316.2112l6.7626,3.717c.181.0995-.096.1018-.2859.1986l-4.4715,2.2819Z" style="fill:#2f3942;"/><path d="m96.2738,149.1579c-.1907.0973-.084.4324-.3297.2973l-9.1558-5.0324c-.2471-.1358-.3372-.4617-.1465-.559l4.4715-2.2819c.1898-.0969.6865.0216.9336.1574l9.1558,5.0324c.2457.1351-.2676.0075-.4574.1043l-4.4715,2.2819Z" style="fill:#2f3942;"/></g><path d="m117.8765,107.102l127.8575,70.3432c1.1102.6069,3.4695.6733,5.0049-.0716,1.9681-.9549,3.0203-2.9998,3.0203-4.356l1.7058-96.7041c0-2.4142-2.0727-5.5226-4.606-6.9074L123.1824,1.6776c-4.5035-2.2135-9.3362,1.8745-9.3362,4.2887v91.3861c-.013,2.4394.1873,4.531.9406,6.1882.7795,1.7148,2.1289,2.9631,3.0897,3.5614Z" style="fill:#f3f3fb;"/><path d="m119.907,108.2191l125.4737,68.1151c2.4766,1.3723,4.503.5378,4.503-1.8545l1.8025-95.2605c0-2.3923-2.0263-5.4725-4.503-6.8448L119.4961,3.6242c-4.1747-2.0642-5.6498.5908-5.6498,2.9831l.0467,92.6853c0,1.5998.7302,3.8811,1.5464,5.4076s3.2294,2.8328,4.4677,3.5189Z" style="fill:#fff;"/><path d="m119.4961,106.4123l124.9023,69.2105c2.4766,1.3723,4.503.5378,4.503-1.8545l1.7058-93.9683c0-2.3923-2.0263-5.4725-4.503-6.8448L119.4961,4.882c-2.4766-1.3723-4.503-.5378-4.503,1.8545v91.2841c0,1.5998.1199,3.3547.936,4.8811.8162,1.5264,2.3286,2.8245,3.5669,3.5106Z" style="fill:#2f3942;"/><polygon points="123.7483 100.8329 240.5407 165.0995 242.2466 78.9313 123.7483 15.2437 123.7483 100.8329" style="fill:#e5e5e5;"/><path d="m76.0016,180.0065l21.3899-11.5957c.7792-.4153,2.2875-.304,2.9168.0221l30.397,16.4194c.154.0798.2616.2058.327.3552.1604-.4414.0604-.928-.327-1.1287l-30.397-16.4194c-.6293-.326-2.1376-.4374-2.9168-.0221l-21.3899,11.5957c-.7269.3841-.8227.9514-.6388,1.4028.0998-.2294.2986-.4496.6388-.6293Z" style="fill:#c1c3c2;"/><path d="m93.8936,201.5033l.6411-.3903c.5328-.3209.6493-1.0957.24-1.3082l-19.7484-10.7441c-.4093-.2125-1.4115-.244-1.9444.0769l-.849.5192,21.6607,11.8464Z" style="fill:#d7dada;"/><polygon points="189.3857 217.5567 230.3711 194.7149 230.3711 192.7007 189.3857 215.5425 189.3857 217.5567" style="fill:#767e7e;"/></g><path d="m377.0088,363.3199l-108.6195-67.0369c-4.3094-2.9909-6.0977-5.3852-2.1328-6.7071l54.8908-14.7737c3.9648-1.3218,11.5534.2766,15.2411,2.5435l108.2747,67.3172c3.6877,2.2669,3.461,5.2031-.5039,6.5249l-55.3458,14.8726c-3.9648,1.3218-8.1169-.4738-11.8046-2.7406Z" style="fill:url(#c); opacity:.1;"/><path d="m372.2102,277.5846l-42.2808-24.4885c-1.6549-1.1291-2.2633-2.1459-.4637-3.044l24.6744-10.7565c1.7996-.8981,4.9632-.654,6.3993.1731l42.113,24.6453c1.4361.8271,1.1387,2.2386-.6609,3.1366l-24.8773,10.8344c-1.7996.8981-3.4679.3266-4.904-.5005Z" style="fill:url(#d); opacity:.25;"/><g><rect x="357.964" y="295.2557" width="2.2379" height="5.6102" style="fill:#b9b7b5;"/><rect x="182.6896" y="246.5435" width="2.5344" height="3.8734" style="fill:#b9b7b5;"/><path d="m308.3367,322.7623l-123.5065-68.6571c-3.302-1.821-2.7182-4.8898,1.2975-6.8197l34.5377-18.7763c4.0156-1.9299,10.0028-2.019,13.3049-.198l124.0911,69.0902c3.302,1.821,2.7182,4.8898-1.2975,6.8197l-35.1222,18.3432c-4.0156,1.9299-10.0028,2.019-13.3049.198Z" style="fill:#8f94ba;"/><path d="m308.3367,317.959l-123.5065-68.6571c-3.302-1.821-2.7182-4.8898,1.2975-6.8197l34.5377-18.7763c4.0156-1.9299,10.0028-2.019,13.3049-.198l124.0911,69.0902c3.302,1.821,2.7182,4.8898-1.2975,6.8197l-35.1222,18.3432c-4.0156,1.9299-10.0028,2.019-13.3049.198Z" style="fill:#f3f3fb;"/><g><path d="m222.3861,237.4935c-.2248.1147-.668.0655-.9866-.1096l-7.6955-4.2297c-.318-.1748-.3974-.4128-.1726-.5276l5.402-2.7568c.2237-.1142.6684-.0625.9863.1123l7.6955,4.2297c.3186.1751.3966.4107.1729.5249l-5.402,2.7568Z" style="fill:#2f3942;"/><path d="m233.7685,243.7497c-.2248.1147-.6664.0664-.9866-.1096l-7.6947-4.2293c-.3212-.1765-.3966-.4124-.1718-.5271l5.402-2.7568c.2237-.1142.6643-.0647.9855.1119l7.6947,4.2293c.3202.176.3966.4107.1729.5249l-5.402,2.7568Z" style="fill:#2f3942;"/><path d="m231.6541,251.5299c-.2238.1142-.6629.0655-.9815-.1097l-7.6955-4.2297c-.3235-.1778-.3975-.4111-.1737-.5253l5.4019-2.7567c.2259-.1153.663-.0672.9864.1106l7.6955,4.2297c.3186.1751.3948.4091.1688.5244l-5.4019,2.7567Z" style="fill:#2f3942;"/><path d="m245.7866,250.3552c-.2248.1147-.6695.0647-.9891-.1109l-7.6962-4.2301c-.3196-.1757-.3942-.4111-.1694-.5258l5.402-2.7568c.2237-.1142.6635-.0651.9831.1105l7.6962,4.2301c.3196.1757.399.412.1753.5262l-5.402,2.7568Z" style="fill:#2f3942;"/><path d="m243.0428,257.7895c-.2238.1142-.6668.0633-.9854-.1118l-7.6971-4.2306c-.321-.1765-.3983-.4115-.1745-.5257l5.4019-2.7567c.2259-.1153.6662-.0655.9872.111l7.6971,4.2306c.3186.1751.3986.4112.1727.5265l-5.4019,2.7567Z" style="fill:#2f3942;"/><path d="m257.1657,256.6096c-.2248.1147-.6638.0678-.9865-.1095l-7.6949-4.2294c-.3202-.176-.3949-.4114-.17-.5262l5.402-2.7568c.2237-.1142.6635-.0651.9838.1109l7.6949,4.2294c.3227.1773.3964.4106.1728.5248l-5.402,2.7568Z" style="fill:#2f3942;"/><path d="m241.3733,265.343c-.2242.1144-.6673.0636-.9877-.1125l-7.6939-4.2288c-.3202-.176-.3989-.412-.1746-.5264l5.4025-2.757c.2265-.1156.6682-.0649.9884.1111l7.6939,4.2288c.3204.1761.4004.4122.1739.5278l-5.4025,2.757Z" style="fill:#2f3942;"/><path d="m255.054,264.3913c-.2238.1142-.6629.0655-.9817-.1097l-7.6978-4.231c-.318-.1748-.3991-.412-.1753-.5262l5.4019-2.7567c.2259-.1153.6701-.0633.988.1114l7.6978,4.231c.3188.1752.3949.4092.169.5245l-5.4019,2.7567Z" style="fill:#2f3942;"/><path d="m269.1824,263.2144c-.2248.1147-.6656.0669-.9874-.11l-7.6939-4.2288c-.3188-.1752-.3966-.4124-.1718-.5271l5.402-2.7568c.2237-.1142.6668-.0633.9855.1119l7.6939,4.2288c.3218.1769.3974.4111.1737.5253l-5.402,2.7568Z" style="fill:#2f3942;"/><path d="m252.754,271.5982c-.2242.1144-.6635.0658-.9853-.1111l-7.6939-4.2288c-.3188-.1752-.3982-.4116-.174-.526l5.4025-2.757c.2265-.1156.669-.0645.9878.1107l7.6939,4.2288c.3218.1769.398.4109.1715.5265l-5.4025,2.757Z" style="fill:#2f3942;"/><path d="m267.0729,270.9974c-.2238.1142-.6676.0629-.9855-.1119l-7.6971-4.2306c-.3202-.176-.3966-.4106-.1728-.5248l5.4019-2.7567c.2259-.1153.6652-.066.9855.11l7.6971,4.2306c.318.1748.3988.4113.1728.5266l-5.4019,2.7567Z" style="fill:#2f3942;"/><path d="m281.1975,269.8183c-.2248.1147-.6656.0669-.9842-.1083l-7.6971-4.2306c-.3188-.1752-.395-.4115-.1702-.5262l5.402-2.7568c.2237-.1142.6651-.0642.9839.111l7.6971,4.2306c.3186.1751.3942.4094.1705.5235l-5.402,2.7568Z" style="fill:#2f3942;"/><path d="m264.7691,278.2022c-.2242.1144-.6635.0658-.9821-.1094l-7.6971-4.2306c-.3188-.1752-.3966-.4107-.1724-.5252l5.4025-2.757c.2265-.1156.6674-.0654.9862.1098l7.6971,4.2306c.3186.1751.3948.4091.1682.5247l-5.4025,2.757Z" style="fill:#2f3942;"/><path d="m278.4545,277.2531c-.2238.1142-.6659.0638-.9847-.1114l-7.6955-4.2297c-.3186-.1751-.3982-.4115-.1744-.5257l5.4019-2.7567c.2259-.1153.6685-.0642.9871.1109l7.6955,4.2297c.3188.1752.398.4109.172.5262l-5.4019,2.7567Z" style="fill:#2f3942;"/><path d="m292.5815,276.0754c-.2248.1147-.6672.066-.9875-.11l-7.6924-4.228c-.321-.1765-.3973-.4128-.1725-.5275l5.402-2.7568c.2237-.1142.6651-.0642.9862.1122l7.6924,4.228c.3202.176.3974.4112.1737.5253l-5.402,2.7568Z" style="fill:#2f3942;"/><path d="m276.7872,284.8078c-.2242.1144-.6665.0641-.9868-.1119l-7.6924-4.228c-.3235-.1778-.3989-.412-.1746-.5264l5.4025-2.757c.2265-.1156.665-.0667.9884.1111l7.6924,4.228c.3202.176.3994.4117.1729.5273l-5.4025,2.757Z" style="fill:#2f3942;"/><path d="m290.4718,283.8582c-.2238.1142-.6668.0633-.9854-.1118l-7.6971-4.2306c-.3188-.1752-.3983-.4115-.1745-.5258l5.4019-2.7567c.2259-.1153.6685-.0642.9872.111l7.6971,4.2306c.3186.1751.3986.4112.1727.5265l-5.4019,2.7567Z" style="fill:#2f3942;"/><path d="m303.9677,282.3336c-.2248.1147-.6656.0669-.9891-.1109l-7.6978-4.231c-.3188-.1752-.3926-.4102-.1678-.5249l5.402-2.7568c.2237-.1142.6627-.0656.9815.1097l7.6978,4.231c.3235.1778.399.412.1753.5262l-5.402,2.7568Z" style="fill:#2f3942;"/><path d="m288.1696,291.0639c-.2242.1144-.6635.0658-.9837-.1103l-7.6971-4.2306c-.3178-.1747-.3972-.4111-.173-.5255l5.4025-2.757c.2265-.1156.669-.0645.9868.1102l7.6971,4.2306c.3202.176.3964.41.1699.5256l-5.4025,2.757Z" style="fill:#2f3942;"/><path d="m301.8558,290.1152c-.2238.1142-.6659.0638-.9862-.1122l-7.6955-4.2297c-.3188-.1752-.3983-.4115-.1745-.5258l5.4019-2.7567c.2259-.1153.6685-.0642.9872.111l7.6955,4.2297c.3202.176.3994.4117.1735.527l-5.4019,2.7567Z" style="fill:#2f3942;"/><path d="m315.9827,288.9375c-.2248.1147-.6687.0652-.9891-.1109l-7.6923-4.228c-.3204-.1761-.3958-.412-.171-.5267l5.402-2.7568c.2237-.1142.6643-.0647.9847.1114l7.6923,4.228c.3204.1761.399.412.1753.5262l-5.402,2.7568Z" style="fill:#2f3942;"/><path d="m300.1855,297.6682c-.2242.1144-.6643.0653-.9837-.1103l-7.6955-4.2297c-.321-.1765-.3966-.4107-.1724-.5252l5.4025-2.757c.2265-.1156.6652-.0666.9862.1098l7.6955,4.2297c.3194.1756.3964.41.1699.5256l-5.4025,2.757Z" style="fill:#2f3942;"/><path d="m313.8708,296.7191c-.2238.1142-.6668.0633-.9863-.1123l-7.6947-4.2293c-.3194-.1756-.3967-.4107-.1729-.5249l5.4019-2.7567c.2259-.1153.6662-.0655.9856.1101l7.6947,4.2293c.3196.1757.3996.4118.1736.5271l-5.4019,2.7567Z" style="fill:#2f3942;"/><path d="m327.3651,295.1937c-.2248.1147-.6672.066-.9891-.1109l-7.6915-4.2275c-.3227-.1773-.3966-.4124-.1718-.5271l5.402-2.7568c.2237-.1142.6629-.0655.9855.1119l7.6915,4.2275c.3218.1769.399.412.1753.5262l-5.402,2.7568Z" style="fill:#2f3942;"/><path d="m311.5717,303.9265c-.2242.1144-.6673.0636-.9884-.1128l-7.6947-4.2293c-.3188-.1752-.3982-.4116-.174-.526l5.4025-2.757c.2265-.1156.669-.0645.9878.1107l7.6947,4.2293c.321.1765.401.4125.1745.5281l-5.4025,2.757Z" style="fill:#2f3942;"/><path d="m331.4467,306.3796c-.2238.1142-.8404-.0321-1.3848-.3313l-13.0876-7.1934c-.5376-.2955-.799-.6317-.5752-.746l5.4019-2.7567c.2259-.1153.8503.0357,1.3879.3312l13.0876,7.1934c.5445.2992.798.6308.5721.7461l-5.4019,2.7567Z" style="fill:#2f3942;"/><path d="m339.3802,301.7976c-.2248.1147-.6672.066-.9891-.1109l-7.6908-4.2272c-.3235-.1778-.3973-.4128-.1725-.5275l5.402-2.7568c.2237-.1142.6627-.0656.9862.1122l7.6908,4.2272c.3218.1769.399.412.1753.5262l-5.402,2.7568Z" style="fill:#2f3942;"/><path d="m322.9518,310.1814c-.2242.1144-.6479.0743-.9452-.0891l-7.143-3.926c-.2973-.1634-.3565-.3887-.1323-.5031l5.4025-2.757c.2265-.1156.6488-.0756.9461.0878l7.143,3.926c.2973.1634.3578.3888.1313.5044l-5.4025,2.757Z" style="fill:#2f3942;"/><path d="m347.6842,297.8925c-.2244.1145-.8371-.0279-1.3747-.3234l-12.923-7.1029c-.5309-.2918-.7849-.6258-.5606-.7403l5.4025-2.757c.2242-.1144.8435.0333,1.3743.3251l12.923,7.1029c.5376.2955.7853.6242.561.7387l-5.4025,2.757Z" style="fill:#2f3942;"/><path d="m330.2977,288.3361c-.2244.1145-.669.0645-.9886-.1112l-7.6947-4.2293c-.3194-.1756-.395-.4115-.1707-.526l5.4025-2.757c.2242-.1144.665-.0648.9844.1108l7.6947,4.2293c.3196.1757.3991.412.1749.5264l-5.4025,2.757Z" style="fill:#2f3942;"/><path d="m318.2826,281.7322c-.2244.1145-.6682.0649-.9884-.1111l-7.6955-4.2297c-.3188-.1752-.3966-.4124-.1723-.5269l5.4025-2.757c.2242-.1144.6672-.0636.986.1116l7.6955,4.2297c.3202.176.399.4119.1747.5263l-5.4025,2.757Z" style="fill:#2f3942;"/><path d="m306.8986,275.4752c-.2244.1145-.669.0645-.9876-.1106l-7.6971-4.2306c-.3188-.1752-.3966-.4124-.1723-.5269l5.4025-2.757c.2242-.1144.6672-.0636.986.1116l7.6971,4.2306c.3186.1751.3982.4115.1739.5259l-5.4025,2.757Z" style="fill:#2f3942;"/><path d="m294.8813,268.87c-.2244.1145-.6682.0649-.987-.1103l-7.6955-4.2297c-.3186-.1751-.3965-.4123-.1721-.5268l5.4025-2.757c.2242-.1144.6672-.0636.9858.1115l7.6955,4.2297c.3188.1752.3975.4111.1733.5255l-5.4025,2.757Z" style="fill:#2f3942;"/><path d="m283.4998,262.6143c-.2244.1145-.6698.0641-.9878-.1107l-7.6971-4.2306c-.3202-.176-.3949-.4114-.1705-.5259l5.4025-2.757c.2242-.1144.664-.0654.9842.1107l7.6971,4.2306c.318.1748.3983.4115.1741.526l-5.4025,2.757Z" style="fill:#2f3942;"/><path d="m271.4808,256.0083c-.2244.1145-.6651.0666-.9839-.1086l-7.6978-4.231c-.318-.1748-.3974-.4128-.1731-.5273l5.4025-2.757c.2242-.1144.6688-.0627.9868.1121l7.6978,4.231c.3188.1752.3945.4094.1702.5239l-5.4025,2.757Z" style="fill:#2f3942;"/><path d="m259.4696,249.4065c-.2244.1145-.669.0645-.9877-.1106l-7.6971-4.2306c-.321-.1765-.3966-.4124-.1723-.5269l5.4025-2.757c.2242-.1144.665-.0648.986.1116l7.6971,4.2306c.3186.1751.3982.4115.1739.5259l-5.4025,2.757Z" style="fill:#2f3942;"/><path d="m248.081,243.1469c-.2244.1145-.6652.0666-.9838-.1085l-7.6955-4.2297c-.3235-.1778-.3958-.412-.1715-.5265l5.4025-2.757c.2242-.1144.6617-.0666.9852.1112l7.6955,4.2297c.3186.1751.3943.4093.17.5238l-5.4025,2.757Z" style="fill:#2f3942;"/><path d="m236.0674,236.5439c-.2244.1145-.8331-.0257-1.3569-.3136l-12.645-6.9501c-.5262-.2892-.7684-.6167-.544-.7312l5.4025-2.757c.2242-.1144.8315.0267,1.3577.316l12.645,6.9501c.5238.2879.7674.6144.5432.7288l-5.4025,2.757Z" style="fill:#2f3942;"/><path d="m219.6406,244.9269c-.2238.1142-.8308-.0268-1.3546-.3147l-12.645-6.9501c-.5262-.2892-.7701-.6159-.5463-.7301l5.4019-2.7567c.2259-.1153.8328.0261,1.359.3153l12.645,6.9501c.5238.2879.7679.6142.5419.7295l-5.4019,2.7567Z" style="fill:#2f3942;"/><path d="m205.9577,245.8773c-.2242.1144-.6659.0644-.9845-.1107l-7.6955-4.2297c-.318-.1748-.399-.412-.1748-.5265l5.4025-2.757c.2265-.1156.6706-.0636.9886.1112l7.6955,4.2297c.3186.1751.3972.4104.1707.526l-5.4025,2.757Z" style="fill:#2f3942;"/><path d="m217.9742,252.4821c-.2242.1144-.6673.0636-.9859-.1115l-7.6955-4.2297c-.3196-.1757-.3974-.4112-.1732-.5256l5.4025-2.757c.2265-.1156.6674-.0654.987.1103l7.6955,4.2297c.3186.1751.3986.4112.1721.5268l-5.4025,2.757Z" style="fill:#2f3942;"/><path d="m229.3582,258.7391c-.2242.1144-.6673.0636-.9892-.1133l-7.6939-4.2288c-.3196-.1757-.3958-.4103-.1715-.5247l5.4025-2.757c.2265-.1156.6658-.0663.9854.1094l7.6939,4.2288c.3218.1769.4018.413.1753.5286l-5.4025,2.757Z" style="fill:#2f3942;"/><path d="m285.5632,298.4297c-.2242.1144-.2058.4595-.9817.0331-.7775-.4273-67.2105-36.9413-67.9588-37.3526-.7444-.4092-1.4853-1.1514-1.2611-1.2658l5.2865-2.6978c.2254-.115,1.8984.6319,2.4785.9507,9.1977,5.0554,75.552,41.526,67.67,37.1938.7327.4027.2785.3258.0531.4408l-5.2865,2.6978Z" style="fill:#2f3942;"/><path d="m314.5766,314.4555c-.2244.1145-.5461.1935-.8349.0347l-10.8165-5.9451c-.2927-.1609-.588-.579-.3637-.6935l5.2842-2.6967c.2271-.1159,1.0018.0576,1.2945.2185l10.8165,5.9451c.2888.1587.1312.3244-.0959.4403l-5.2842,2.6967Z" style="fill:#2f3942;"/><path d="m300.0321,306.4614c-.2244.1145-.4783.2307-.7687.0711l-10.8187-5.9464c-.2928-.161-.6518-.6141-.4275-.7286l5.2842-2.6967c.2271-.1159,1.0655.0926,1.3583.2536l10.8187,5.9464c.2904.1596.0649.288-.1621.4039l-5.2842,2.6967Z" style="fill:#2f3942;"/><path d="m197.6696,250.1273c-.2254.115-.3785.3576-.5924.24l-7.9927-4.3931c-.2145-.1179-.5143-.6094-.2889-.7244l5.2848-2.697c.2244-.1145,1.0047.1317,1.2192.2496l7.9927,4.3931c.2139.1176-.1135.1203-.3379.2348l-5.2848,2.697Z" style="fill:#2f3942;"/><path d="m212.1963,258.1117c-.2254.115-.0992.511-.3897.3514l-10.8212-5.9477c-.292-.1605-.3985-.5457-.1731-.6607l5.2848-2.697c.2244-.1145.8114.0255,1.1034.186l10.8212,5.9477c.2904.1596-.3162.0088-.5406.1233l-5.2848,2.697Z" style="fill:#2f3942;"/></g></g><g><path d="m344.2984,260.3851l-60.9488-33.8814c-1.6295-.8986-1.3414-2.4131.6403-3.3654l17.0439-9.2659c1.9817-.9524,4.9363-.9963,6.5658-.0977l61.2373,34.0951c1.6295.8986,1.3414,2.4131-.6403,3.3654l-17.3323,9.0521c-1.9817.9524-4.9363.9963-6.5658.0977Z" style="fill:#8f94ba;"/><rect x="282.2359" y="220.1952" width="7.4604" height="4.8659" style="fill:#b9b7b5;"/><rect x="366.6635" y="244.8312" width="3.2361" height="4.4197" style="fill:#b9b7b5;"/><path d="m344.3049,256.1394l-60.9488-33.8814c-1.6295-.8986-1.3414-2.4131.6403-3.3654l17.0439-9.2659c1.9817-.9524,4.9363-.9963,6.5658-.0977l61.2373,34.0951c1.6295.8986,1.3414,2.4131-.6403,3.3654l-17.3323,9.0521c-1.9817.9524-4.9363.9963-6.5658.0977Z" style="fill:#f3f3fb;"/><polygon points="340.161 190.2582 315.8034 177.6068 315.8034 226.5341 336.642 241.2504 340.161 239.1855 340.161 190.2582" style="fill:#8f94ba;"/><polygon points="336.7549 192.2045 312.3973 179.5531 312.3973 228.4805 336.7549 241.1318 336.7549 192.2045" style="fill:#ececeb;"/></g><g><path d="m244.1527,153.9705l185.6145,102.1193c1.6117.8811,5.0368.9775,7.2657-.104,2.8571-1.3863,4.3846-4.3549,4.3846-6.3237l2.4764-140.3882c0-3.5048-3.009-8.0173-6.6866-10.0277L251.8555.9229c-6.5378-3.2134-13.5537,2.7213-13.5537,6.226v132.6678c-.0189,3.5413.2718,6.5778,1.3655,8.9836,1.1317,2.4895,3.0906,4.3016,4.4854,5.1702Z" style="fill:#f3f3fb;"/><path d="m247.1005,155.5923l182.1538,98.8846c3.5954,1.9923,6.5371.7808,6.5371-2.6922l2.6168-138.2924c0-3.473-2.9417-7.9446-6.5371-9.9368L246.5039,3.7488c-6.0605-2.9966-8.202.8576-8.202,4.3306l.0678,134.554c0,2.3225,1.0601,5.6343,2.2449,7.8503,1.1848,2.216,4.6882,4.1124,6.4859,5.1085Z" style="fill:#fff;"/><path d="m246.5039,152.9694l181.3244,100.4749c3.5954,1.9923,6.5371.7808,6.5371-2.6922l2.4764-136.4165c0-3.473-2.9417-7.9446-6.5371-9.9368L246.5039,5.5748c-3.5954-1.9923-6.5371-.7808-6.5371,2.6922v132.5198c0,2.3225.174,4.8701,1.3588,7.086,1.1848,2.216,3.3805,4.1004,5.1782,5.0965Z" style="fill:#2f3942;"/><polygon points="252.677 144.8696 422.228 238.1673 424.7044 113.0744 252.677 20.6173 252.677 144.8696" style="fill:#e5e5e5;"/></g></g><g><polygon points="203.1387 132.4943 157.6832 107.4253 158.9795 42.7228 204.4778 67.1761 203.1387 132.4943" style="fill:none;"/><path id="f" d="m180.3324,118.3255c-11.8948-6.556-21.2506-25.6715-20.9103-42.6468s10.2585-25.616,22.164-19.2132c11.9664,6.4355,21.4611,25.6401,21.11,42.7752-.351,17.129-10.4081,25.6744-22.3637,19.0849Zm1.2009-59.2561c-10.9008-5.8686-19.986,2.0383-20.2981,17.5965-.3121,15.5531,8.258,33.0616,19.1499,39.0587,10.9429,6.0252,20.1444-1.8069,20.4654-17.4889.3211-15.6871-8.3653-33.2703-19.3172-39.1663Z" style="fill:url(#e);"/><path id="h" d="m181.5858,56.4775c-11.9008-6.4002-21.8151,2.231-22.1554,19.2057-.3401,16.9688,9.012,36.0767,20.9022,42.6302,11.951,6.5869,22.0041-1.9551,22.3549-19.0774s-9.14-36.3255-21.1017-42.7585Z" style="fill:url(#g); mix-blend-mode:lighten; opacity:.32;"/><path id="j" d="m180.3324,118.3255c-11.8948-6.556-21.2506-25.6715-20.9103-42.6468s10.2585-25.616,22.164-19.2132c11.9664,6.4355,21.4611,25.6401,21.11,42.7752-.351,17.129-10.4081,25.6744-22.3637,19.0849Zm1.2009-59.2561c-10.9008-5.8686-19.986,2.0383-20.2981,17.5965-.3121,15.5531,8.258,33.0616,19.1499,39.0587,10.9429,6.0252,20.1444-1.8069,20.4654-17.4889.3211-15.6871-8.3653-33.2703-19.3172-39.1663Z" style="fill:url(#i); opacity:.44;"/><path id="k" d="m181.5299,59.2352c-10.9846-5.9141-20.1391,2.0475-20.4534,17.7181s8.3214,33.3034,19.2969,39.3479c11.0273,6.0731,20.3-1.8126,20.6234-17.6088.3235-15.8014-8.4304-33.5152-19.4668-39.4572Z" style="fill:rgba(15,15,13,.35);"/><path id="l" d="m180.3324,118.3255c-11.8948-6.556-21.2506-25.6715-20.9103-42.6468.3404-16.9814,10.2585-25.616,22.164-19.2132,11.9664,6.4355,21.4611,25.6401,21.11,42.7752-.351,17.129-10.4081,25.6744-22.3637,19.0849Zm1.2403-61.1977c-11.9053-6.4043-21.8197,2.045-22.1556,18.8002-.3357,16.7494,9.0238,35.6809,20.9186,42.2366,11.9556,6.5891,22.009-1.7713,22.3553-18.6724.3464-16.907-9.152-35.9273-21.1183-42.3644Z" style="fill:#0f0f0d; opacity:.35;"/><path id="n" d="m181.5333,59.0694c-10.9057-5.8712-19.9946,2.0335-20.3068,17.5917-.3121,15.5532,8.2618,33.0637,19.1586,39.0635,10.9477,6.0279,20.1532-1.802,20.4743-17.4841s-8.3693-33.2725-19.326-39.1711Z" style="fill:url(#m);"/><path id="p" d="m181.4855,61.4259c-3.2536-1.7533-5.9737.6045-6.0676,5.2532s2.4727,9.8635,5.7255,11.6282c3.2573,1.7672,5.9877-.584,6.0824-5.2437.0947-4.6602-2.4822-9.882-5.7403-11.6377Z" style="fill:url(#o); mix-blend-mode:lighten; opacity:.7;"/><path id="r" d="m171.0547,57.6006c-.0011.0092-.0023.0181-.0034.0273-.0258-.0069-.026-.0159.0034-.0273Zm14.5803,26.267l-.4169,6.8572,3.1394,6.8098-3.3441,3.2707,2.0744,4.5042-2.2097,2.158.1334,7.0967-9.0955-5.0008.6195-30.6385c-3.5547-4.602-5.8966-11.6432-5.7644-18.2039.0221-1.0981.1499-2.0548.2802-3.0931.393.1052,6.7998-.2828,6.7998-.2828-.0609.3825,7.4042,4.4025,7.3597,3.9626,0,0,6.0745,7.0932,6.6888,7.6119.1343,1.1672.1671,2.2015.145,3.2881-.1343,6.5899-2.7829,10.9494-6.4096,11.6599Zm6.2555-15.0312c.0033.0281.0059.0552.0091.0832.0673.0568.07.0359-.0091-.0832Z" style="fill:url(#q); mix-blend-mode:multiply; opacity:.3;"/><path id="s" d="m169.9938,100.0962c-3.4093-6.2757-5.4916-13.9076-5.3472-21.0944.1681-8.3637,3.3745-14.4343,8.496-16.0293-.1069.7894-.2125,1.5143-.2294,2.3524-.1002,4.9632,1.8381,10.3806,4.7714,13.9944l-.458,22.6389,3.6352,7.4077,3.8583-3.301-.1303-4.8385,1.8152-1.555-1.7129-3.4831,2.7468-2.3561-2.592-5.2666.3337-5.175c2.9825-.4065,5.1549-3.6095,5.2563-8.5909.0171-.8411-.0124-1.6419-.1313-2.5565,1.8107,2.5832,3.3503,5.4875,4.5703,8.5456-2.9439-7.6628-7.8376-14.2507-13.4409-17.2727-9.2545-4.9911-16.944,1.6349-17.2081,14.7786-.1494,7.4357,2.1073,15.3817,5.767,21.8014Zm9.7946,1.4394l-1.263-.6917.3618-17.8705,1.2633.687-.3621,17.8752Zm-1.0441-38.5387c.9978.2773,2.0386.7082,3.0321,1.2442,1.0404.4959,2.0308,1.2261,3.0203,2.0213.0387.3475.0773.6951.0708,1.0182-.0499,2.4557-1.4921,3.7012-3.2089,2.7729-1.7156-.9276-3.0738-3.6845-3.0241-6.1371.0065-.3227.0582-.6211.1098-.9195Z" style="fill:#0f0f0d; mix-blend-mode:multiply; opacity:.2;"/><path id="u" d="m181.5333,59.0694c-10.9008-5.8686-19.9859,2.0383-20.2981,17.5965s8.258,33.0616,19.1499,39.0587c10.9429,6.0252,20.1444-1.8069,20.4654-17.4889.3211-15.6871-8.3654-33.2703-19.3172-39.1663Zm-3.1226,3.2411c.9977.2771,2.0384.7079,3.0317,1.2436,1.0403.4957,2.0305,1.2257,3.0199,2.0207.0387.3475.0773.695.0708,1.0181-.0498,2.4556-1.4918,3.7012-3.2085,2.7732-1.7154-.9273-3.0733-3.6838-3.0237-6.1362.0065-.3227.0582-.621.1098-.9194Zm1.406,20.6619l-.362,17.8741-1.2628-.6914.3617-17.8694,1.2631.6867Zm.6589,28.2846c-9.1885-5.0503-16.4256-19.7553-16.1606-32.9405.1681-8.3632,3.374-14.4339,8.4948-16.0296-.1069.7894-.2125,1.5143-.2294,2.3522-.1001,4.9629,1.8378,10.3797,4.7707,13.9928l-.4579,22.6375,3.6347,7.4067,3.8578-3.3014-.1303-4.8382,1.8149-1.5552-1.7126-3.4826,2.7464-2.3563-2.5917-5.2659.3337-5.1747c2.9821-.407,5.1541-3.61,5.2555-8.5911.0171-.841-.0124-1.6418-.1313-2.5563,4.948,7.0588,7.8797,16.5058,7.753,24.952-.27,13.2125-7.9777,19.8456-17.2477,14.7504Z" style="fill:url(#t);"/></g><g><polygon points="361.8359 186.0193 298.1202 150.8797 299.9372 60.1851 363.713 94.4617 361.8359 186.0193" style="fill:none;"/><path id="w" d="m329.8679,166.1586c-16.6732-9.1897-29.7873-35.9841-29.3103-59.7787.4771-23.803,14.3796-35.9063,31.0676-26.9315,16.7735,9.0207,30.0824,35.9401,29.5902,59.9587-.492,24.01-14.5892,35.9882-31.3476,26.7516Zm1.6834-83.0602c-15.2799-8.2261-28.0146,2.8571-28.4522,24.6652-.4374,21.8011,11.5754,46.343,26.8427,54.7493,15.3388,8.4456,28.2368-2.5328,28.6868-24.5144.4501-21.9889-11.7258-46.6355-27.0773-54.9001Z" style="fill:url(#v);"/><path id="y" d="m331.6249,79.4653c-16.6816-8.9713-30.5786,3.1272-31.0556,26.921-.4768,23.7854,12.6323,50.5694,29.2989,59.7554,16.7518,9.233,30.8435-2.7406,31.3353-26.7412.4919-24.0091-12.8117-50.918-29.5786-59.9353Z" style="fill:url(#x); mix-blend-mode:lighten; opacity:.32;"/><path id="aa" d="m329.8679,166.1586c-16.6732-9.1897-29.7873-35.9841-29.3103-59.7787.4771-23.803,14.3796-35.9063,31.0676-26.9315,16.7735,9.0207,30.0824,35.9401,29.5902,59.9587-.492,24.01-14.5892,35.9882-31.3476,26.7516Zm1.6834-83.0602c-15.2799-8.2261-28.0146,2.8571-28.4522,24.6652-.4374,21.8011,11.5754,46.343,26.8427,54.7493,15.3388,8.4456,28.2368-2.5328,28.6868-24.5144.4501-21.9889-11.7258-46.6355-27.0773-54.9001Z" style="fill:url(#z); opacity:.44;"/><path id="ab" d="m331.5466,83.3308c-15.3973-8.2898-28.2292,2.87-28.6699,24.8357-.4405,21.9585,11.6642,46.6819,27.0488,55.1546,15.4572,8.5127,28.4548-2.5408,28.9081-24.6825.4534-22.1491-11.817-46.9788-27.287-55.3078Z" style="fill:rgba(15,15,13,.35);"/><path id="ac" d="m329.8679,166.1586c-16.6732-9.1897-29.7873-35.9841-29.3103-59.7787.4771-23.803,14.3796-35.9063,31.0676-26.9315,16.7735,9.0207,30.0824,35.9401,29.5902,59.9587-.492,24.01-14.5892,35.9882-31.3476,26.7516Zm1.7385-85.7818c-16.6879-8.9771-30.5851,2.8664-31.0558,26.3526-.4706,23.4779,12.6488,50.0146,29.3219,59.2037,16.7584,9.2361,30.8503-2.4829,31.3357-26.1733.4856-23.6988-12.8286-50.3599-29.6018-59.3829Z" style="fill:#0f0f0d; opacity:.35;"/><path id="ae" d="m331.5513,83.0984c-15.2867-8.2297-28.0268,2.8504-28.4643,24.6586-.4374,21.8011,11.5807,46.3459,26.8549,54.7559,15.3456,8.4494,28.2491-2.5259,28.6991-24.5077.4501-21.989-11.7314-46.6386-27.0896-54.9068Z" style="fill:url(#ad);"/><path id="ag" d="m331.4843,86.4015c-4.5606-2.4576-8.3734.8473-8.5051,7.3636-.1317,6.5156,3.466,13.8258,8.0255,16.2994,4.5659,2.4771,8.3931-.8186,8.5259-7.3502.1328-6.5323-3.4793-13.8517-8.0463-16.3127Z" style="fill:url(#af); mix-blend-mode:lighten; opacity:.7;"/><path id="ai" d="m316.8633,81.0395c-.0016.0129-.0032.0254-.0048.0383-.0362-.0097-.0364-.0223.0048-.0383Zm20.4374,36.8188l-.5844,9.6118,4.4005,9.5455-4.6875,4.5846,2.9078,6.3137-3.0974,3.0249.187,9.9475-12.7493-7.0097.8684-42.9465c-4.9827-6.4507-8.2654-16.3204-8.08-25.5167.031-1.5392.2101-2.8802.3927-4.3356.5509.1475,9.5314-.3964,9.5314-.3964-.0854.5362,10.3785,6.1711,10.3162,5.5544,0,0,8.5147,9.9426,9.3758,10.6697.1882,1.6361.2342,3.0859.2032,4.609-.1882,9.2371-3.9008,15.348-8.9844,16.3439Zm8.7685-21.0695c.0047.0394.0082.0774.0127.1166.0943.0796.0981.0504-.0127-.1166Z" style="fill:url(#ah); mix-blend-mode:multiply; opacity:.3;"/><path id="aj" d="m315.3762,140.6064c-4.7789-8.7967-7.6977-19.4945-7.4952-29.5683.2356-11.7236,4.7302-20.2328,11.909-22.4686-.1499,1.1065-.2979,2.1227-.3216,3.2973-.1404,6.957,2.5765,14.5507,6.6881,19.6162l-.642,31.7333,5.0955,10.3835,5.4083-4.6271-.1827-6.7823,2.5444-2.1796-2.401-4.8823,3.8502-3.3026-3.6333-7.3823.4678-7.2538c4.1806-.5699,7.2257-5.0595,7.3678-12.042.024-1.1789-.0174-2.3015-.184-3.5835,2.5381,3.6209,4.6961,7.692,6.4063,11.9786-4.1265-10.7411-10.9861-19.9755-18.8404-24.2114-12.9721-6.9961-23.7507,2.2917-24.1209,20.7154-.2094,10.4228,2.9538,21.5608,8.0837,30.5594Zm13.7292,2.0176l-1.7704-.9695.5071-25.0494,1.7708.9629-.5076,25.056Zm-1.4635-54.0203c1.3987.3887,2.8576.9927,4.2502,1.7439,1.4583.6951,2.8466,1.7187,4.2336,2.8332.0542.4872.1084.9743.0992,1.4272-.0699,3.4423-2.0914,5.188-4.498,3.8868-2.4048-1.3003-4.3085-5.1647-4.239-8.6024.0092-.4523.0816-.8705.1539-1.2888Z" style="fill:#0f0f0d; mix-blend-mode:multiply; opacity:.2;"/><path id="al" d="m331.5513,83.0985c-15.2799-8.2261-28.0146,2.8571-28.4522,24.6652-.4374,21.8011,11.5754,46.343,26.8427,54.7493,15.3388,8.4456,28.2368-2.5327,28.6868-24.5144.4501-21.9889-11.7259-46.6355-27.0773-54.9001Zm-4.377,4.5431c1.3985.3885,2.8572.9923,4.2496,1.7432,1.4581.6949,2.8462,1.7181,4.233,2.8324.0542.4871.1084.9742.0992,1.4271-.0699,3.442-2.0911,5.188-4.4974,3.8873-2.4045-1.2998-4.3079-5.1637-4.2384-8.6013.0092-.4523.0815-.8705.1539-1.2888Zm1.9709,28.9622l-.5075,25.0544-1.7701-.9692.507-25.0478,1.7706.9626Zm.9236,39.647c-12.8796-7.0792-23.024-27.6913-22.6526-46.1733.2356-11.7229,4.7294-20.2322,11.9072-22.4689-.1498,1.1065-.2978,2.1226-.3215,3.2972-.1404,6.9566,2.5761,14.5494,6.6872,19.614l-.6419,31.7314,5.0948,10.3821,5.4075-4.6276-.1827-6.7818,2.544-2.1799-2.4006-4.8816,3.8497-3.3029-3.6328-7.3812.4677-7.2535c4.18-.5705,7.2246-5.0603,7.3668-12.0423.024-1.1788-.0174-2.3014-.184-3.5832,6.9357,9.8944,11.0451,23.1364,10.8675,34.9757-.3785,18.5202-11.1825,27.8179-24.1765,20.6759Z" style="fill:url(#ak);"/></g></g><g><path d="m93.491,373.027l-58.5943-26.7849c-4.6463-3.2359-4.8923-7.7886-.7761-8.9902l72.8902-39.683c4.1161-1.2015,7.5875-.1738,11.5521,2.2952l57.6013,40.1705c3.9646,2.469-1.1206,11.1855-5.2368,12.387l-13.9393,6.0929c-4.1161,1.2015-59.5326,16.9814-63.4972,14.5124Z" style="fill:url(#am); opacity:.1;"/><g><path d="m116.3951,254.8099L6.6392,325.1394c-3.1919,1.3539-6.6392-.537-6.6392-3.4281v-81.8308c0-2.891,2.797-5.7058,5.6177-7.1678l77.093-41.4695c3.0217-1.3539,4.4775-1.7934,8.7415,1.0253l21.3467,12.8009c2.002,1.1635,3.2671,1.6671,3.2483,5.7124-.0912,19.5941.3478,44.028.3478,44.028Z" style="fill:#ba8736;"/><polygon points="0 324.3574 31.8786 344.0372 28.8755 255.1735 0 238.8843 0 324.3574" style="fill:#997033;"/><path d="m111.313,301.5688l-76.4313,42.323c-2.8876,1.2362-6.0061-1.2871-6.0061-3.9269v-83.4824c0-2.6397,2.5303-5.2098,5.0821-6.5448l80.5242-43.8121c2.1901,2.1867,1.4742,4.5216,1.4742,7.1613l.439,81.7371c0,2.6397-1.9015,5.1368-5.0821,6.5448Z" style="fill:#edb145;"/><path d="m82.7589,271.4757c3.9274-6.4241,3.6179-13.5365-.6911-15.886-4.309-2.3495-10.9859.9537-14.9133,7.3778-3.9274,6.4242-3.6179,13.5366.6911,15.8861.6969.38,1.4563.6099,2.2554.7049l-1.3314,19.4288,15.5928-7.5265-3.4719-17.3964c.6698-.7928,1.2987-1.6567,1.8684-2.5886Z" style="fill:#2f3942;"/><path d="m65.112,152.0648c-3.1635-.0331-6.5643.645-10.1053,2.1186-16.7836,6.9844-30.4379,29.169-30.4379,49.4532v35.6774l4.1126,1.8707,6.5029-6.972v-34.4661c0-14.0546,9.2281-29.426,20.5712-34.2654,2.29-.977,4.4911-1.4431,6.5502-1.462,8.0425.2502,13.7911,7.2193,13.7911,18.1743v29.0008l.23-.1255v.1255l3.8826,1.2014,5.2354-6.3027v-27.7897c0-16.2351-8.5326-26.4054-20.3327-26.2385Z" style="fill:#9e7438;"/><path d="m69.2245,153.2662c-3.1635-.0331-6.5643.645-10.1053,2.1186-16.7836,6.9844-30.4379,29.169-30.4379,49.4532v36.3466l1.4975-.6692,9.1179-5.1014v-34.4661c0-14.0546,9.2281-29.426,20.5712-34.2654,2.29-.977,4.4911-1.4431,6.5502-1.462,8.0425.2502,13.7911,7.2193,13.7911,18.1743v29.0008l.23-.1255v.1255l9.1179-5.1013v-27.7897c0-16.2351-8.5326-26.4054-20.3327-26.2385Z" style="fill:#ce9849;"/></g></g></g></g></svg>