<?xml version="1.0" encoding="UTF-8"?><svg xmlns="http://www.w3.org/2000/svg" viewBox="0 0 748.7367 505.5228"><g id="a" style="isolation:isolate; opacity:.15;"><g><path d="m649.5776,171.6536v19.6324h2.297v-19.6324c0-1.4137-.514-2.5609-1.1485-2.5609s-1.1485,1.1472-1.1485,2.5609Z" style="fill:#efbb54;"/><path d="m642.1903,181.3379h19.6324v-2.297h-19.6324c-1.4137,0-2.5609.514-2.5609,1.1485,0,.6345,1.1472,1.1485,2.5609,1.1485Z" style="fill:#efbb54;"/></g><g><path d="m375.8754,72.981v19.6324h2.297v-19.6324c0-1.4137-.514-2.5609-1.1485-2.5609s-1.1485,1.1472-1.1485,2.5609Z" style="fill:#efbb54;"/><path d="m368.4881,82.6653h19.6324v-2.297h-19.6324c-1.4137,0-2.5609.514-2.5609,1.1485,0,.6345,1.1472,1.1485,2.5609,1.1485Z" style="fill:#efbb54;"/></g><g><path d="m614.2362,13.1945v13.5589h1.5864v-13.5589c0-.9764-.355-1.7686-.7932-1.7686s-.7932.7923-.7932,1.7686Z" style="fill:#efbb54;"/><path d="m609.1343,19.8829h13.5589v-1.5864h-13.5589c-.9764,0-1.7686.355-1.7686.7932,0,.4382.7923.7932,1.7686.7932Z" style="fill:#efbb54;"/></g><g style="mix-blend-mode:multiply;"><path d="m271.1246,53.0856l-4.2708,4.2708-2.5462-2.5462,4.2708-4.2708-4.5049-4.5049,2.6208-2.6208,4.5049,4.5049,4.271-4.271,2.5462,2.5462-4.271,4.271,4.5049,4.5049-2.6208,2.6208-4.5049-4.5049Z" style="fill:#efbb54;"/></g><g style="mix-blend-mode:multiply; opacity:.6;"><path d="m122.4228,126.417l-6.4268,6.4268-3.8315-3.8315,6.4268-6.4268-6.779-6.779,3.9438-3.9438,6.779,6.779,6.4271-6.4271,3.8315,3.8315-6.4271,6.4271,6.779,6.779-3.9438,3.9438-6.779-6.779Z" style="fill:#45862b;"/></g><g style="mix-blend-mode:multiply; opacity:.6;"><path d="m275.7086,171.8722h-6.8836s0-4.1038,0-4.1038h6.8836v-7.2608s4.2241,0,4.2241,0v7.2608h6.8839s0,4.1038,0,4.1038h-6.8839v7.2608s-4.2241,0-4.2241,0v-7.2608Z" style="fill:#45862b;"/></g><g style="mix-blend-mode:multiply; opacity:.7;"><path d="m691.4156,440.5316l-6.2281,6.2281-3.713-3.713,6.2281-6.2281-6.5694-6.5694,3.8219-3.8219,6.5694,6.5694,6.2283-6.2283,3.713,3.713-6.2283,6.2283,6.5694,6.5694-3.8219,3.8219-6.5694-6.5694Z" style="fill:#efbb54;"/></g><g style="mix-blend-mode:multiply; opacity:.7;"><path d="m10.2824,15.1933l-6.2281,6.2281-3.713-3.713,6.2281-6.2281L0,4.9109,3.8219,1.0891l6.5694,6.5694,6.2283-6.2283,3.713,3.713-6.2283,6.2283,6.5694,6.5694-3.8219,3.8219-6.5694-6.5694Z" style="fill:#efbb54;"/></g><circle cx="473.8883" cy="37.2534" r="19.1419" style="fill:#45862b; opacity:.4;"/><circle cx="685.4732" cy="297.7613" r="19.1419" style="fill:#45862b; opacity:.3;"/><circle cx="613.2341" cy="107.8998" r="11.8885" style="fill:#45862b; opacity:.5;"/><circle cx="730.4769" cy="11.8885" r="11.8885" style="fill:#45862b; opacity:.5;"/><circle cx="546.5056" cy="186.7865" r="11.8885" style="fill:#45862b;"/><circle cx="356.0272" cy="269.3463" r="14.505" style="fill:#45862b;"/><circle cx="487.1498" cy="63.2086" r="3.6848" style="fill:#45862b; opacity:.4;"/><circle cx="497.4818" cy="75.1992" r="7.6936" style="fill:#45862b; opacity:.4;"/><circle cx="707.975" cy="320.2507" r="7.6936" style="fill:#45862b; opacity:.3;"/><circle cx="500.7238" cy="56.3953" r="7.6936" style="fill:#45862b; opacity:.4;"/><circle cx="658.4197" cy="313.8349" r="7.6936" style="fill:#45862b; opacity:.3;"/><circle cx="719.2393" cy="330.8307" r="3.8468" style="fill:#45862b; opacity:.3;"/><circle cx="510.4619" cy="67.5056" r="3.7649" style="fill:#45862b; opacity:.4;"/><g style="opacity:.6;"><path d="m704.6536,76.9209c0-3.4017,1.487-6.1594,3.3214-6.1594s3.3214,2.7576,3.3214,6.1594c0,2.7359-2.1484,9.7656-2.9894,12.4128-.1491.4693-.5148.4693-.6639,0-.841-2.6471-2.9894-9.6769-2.9894-12.4128Z" style="fill:#45862b;"/><path d="m694.0706,84.0561c-2.4054-2.4054-3.3039-5.4068-2.0068-6.7039s4.2985-.3986,6.7039,2.0068c1.9346,1.9346,5.3862,8.4245,6.6633,10.891.2264.4373-.0321.6959-.4694.4694-2.4665-1.2771-8.9564-4.7287-10.891-6.6633Z" style="fill:#45862b;"/><path d="m691.6325,96.5848c-3.4017,0-6.1594-1.487-6.1594-3.3214,0-1.8343,2.7576-3.3214,6.1594-3.3214,2.7359,0,9.7656,2.1484,12.4128,2.9894.4693.1491.4693.5148,0,.6639-2.6471.841-9.6769,2.9894-12.4128,2.9894Z" style="fill:#45862b;"/><path d="m698.7677,107.1679c-2.4054,2.4054-5.4068,3.3039-6.7039,2.0068s-.3986-4.2985,2.0068-6.7039c1.9346-1.9346,8.4245-5.3862,10.891-6.6633.4373-.2264.6959.0321.4694.4694-1.2771,2.4665-4.7287,8.9564-6.6633,10.891Z" style="fill:#45862b;"/><path d="m711.2964,109.6059c0,3.4017-1.487,6.1594-3.3214,6.1594s-3.3214-2.7576-3.3214-6.1594c0-2.7359,2.1484-9.7656,2.9894-12.4128.1491-.4693.5148-.4693.6639,0,.841,2.6471,2.9894,9.6769,2.9894,12.4128Z" style="fill:#45862b;"/><path d="m721.8795,102.4707c2.4054,2.4054,3.3039,5.4068,2.0068,6.7039s-4.2985.3986-6.7039-2.0068c-1.9346-1.9346-5.3862-8.4245-6.6633-10.891-.2264-.4373.0321-.6959.4694-.4694,2.4665,1.2771,8.9564,4.7287,10.891,6.6633Z" style="fill:#45862b;"/><path d="m724.3175,89.942c3.4017,0,6.1594,1.487,6.1594,3.3214,0,1.8343-2.7576,3.3214-6.1594,3.3214-2.7359,0-9.7656-2.1484-12.4128-2.9894-.4693-.1491-.4693-.5148,0-.6639,2.6471-.841,9.6769-2.9894,12.4128-2.9894Z" style="fill:#45862b;"/><path d="m717.1824,79.3589c2.4054-2.4054,5.4068-3.3039,6.7039-2.0068s.3986,4.2985-2.0068,6.7039c-1.9346,1.9346-8.4245,5.3862-10.891,6.6633-.4373.2264-.6959-.0321-.4694-.4694,1.2771-2.4665,4.7287-8.9564,6.6633-10.891Z" style="fill:#45862b;"/></g><g><path d="m732.4893,202.8296c-.7957-1.5316-.7713-3.121.0546-3.5501s2.1405.4647,2.9362,1.9963c.64,1.2318,1.317,4.8994,1.5576,6.288.0426.2462-.122.3317-.2989.1553-.9979-.9951-3.6095-3.6576-4.2495-4.8894Z" style="fill:#45862b;"/><path d="m729.3934,208.5177c-1.6457-.5203-2.7523-1.6615-2.4717-2.5489s1.8421-1.185,3.4878-.6646c1.3235.4185,4.3957,2.5331,5.5476,3.3449.2042.1439.1483.3208-.1015.3212-1.4092.002-5.1387-.034-6.4622-.4525Z" style="fill:#45862b;"/><path d="m731.2264,214.7289c-1.5316.7957-3.121.7713-3.5501-.0546s.4647-2.1405,1.9963-2.9362c1.2318-.64,4.8994-1.317,6.288-1.5576.2462-.0426.3317.122.1553.2989-.9951.9979-3.6576,3.6095-4.8894,4.2495Z" style="fill:#45862b;"/><path d="m736.9145,217.8247c-.5203,1.6457-1.6615,2.7523-2.5489,2.4717s-1.185-1.8421-.6646-3.4878c.4185-1.3235,2.5331-4.3957,3.3449-5.5476.1439-.2042.3208-.1483.3212.1015.002,1.4092-.034,5.1387-.4525,6.4622Z" style="fill:#45862b;"/><path d="m743.1257,215.9918c.7957,1.5316.7713,3.121-.0546,3.5501s-2.1405-.4647-2.9362-1.9963c-.64-1.2318-1.317-4.8994-1.5576-6.288-.0426-.2462.122-.3317.2989-.1553.9979.9951,3.6095,3.6576,4.2495,4.8894Z" style="fill:#45862b;"/><path d="m746.2215,210.3037c1.6457.5203,2.7523,1.6615,2.4717,2.5489s-1.8421,1.185-3.4878.6646c-1.3235-.4185-4.3957-2.5331-5.5476-3.3449-.2042-.1439-.1483-.3208.1015-.3212,1.4092-.002,5.1387.034,6.4622.4525Z" style="fill:#45862b;"/><path d="m744.3886,204.0925c1.5316-.7957,3.121-.7713,3.5501.0546s-.4647,2.1405-1.9963,2.9362c-1.2318.64-4.8994,1.317-6.288,1.5576-.2462.0426-.3317-.122-.1553-.2989.9951-.9979,3.6576-3.6095,4.8894-4.2495Z" style="fill:#45862b;"/><path d="m738.7005,200.9966c.5203-1.6457,1.6615-2.7523,2.5489-2.4717s1.185,1.8421.6646,3.4878c-.4185,1.3235-2.5331,4.3957-3.3449,5.5476-.1439.2042-.3208.1483-.3212-.1015-.002-1.4092.034-5.1387.4525-6.4622Z" style="fill:#45862b;"/></g><g><path d="m582.4918,488.0125c-.7957-1.5316-.7713-3.121.0546-3.5501s2.1405.4647,2.9362,1.9963c.64,1.2318,1.317,4.8994,1.5576,6.288.0426.2462-.122.3317-.2989.1553-.9979-.9951-3.6095-3.6576-4.2495-4.8894Z" style="fill:#45862b;"/><path d="m579.3959,493.7006c-1.6457-.5203-2.7523-1.6615-2.4717-2.5489s1.8421-1.185,3.4878-.6646c1.3235.4185,4.3957,2.5331,5.5476,3.3449.2042.1439.1483.3208-.1015.3212-1.4092.002-5.1387-.034-6.4622-.4525Z" style="fill:#45862b;"/><path d="m581.2288,499.9118c-1.5316.7957-3.121.7713-3.5501-.0546s.4647-2.1405,1.9963-2.9362c1.2318-.64,4.8994-1.317,6.288-1.5576.2462-.0426.3317.122.1553.2989-.9951.9979-3.6576,3.6095-4.8894,4.2495Z" style="fill:#45862b;"/><path d="m586.9169,503.0077c-.5203,1.6457-1.6615,2.7523-2.5489,2.4717s-1.185-1.8421-.6646-3.4878c.4185-1.3235,2.5331-4.3957,3.3449-5.5476.1439-.2042.3208-.1483.3212.1015.002,1.4092-.034,5.1387-.4525,6.4622Z" style="fill:#45862b;"/><path d="m593.1281,501.1747c.7957,1.5316.7713,3.121-.0546,3.5501s-2.1405-.4647-2.9362-1.9963c-.64-1.2318-1.317-4.8994-1.5576-6.288-.0426-.2462.122-.3317.2989-.1553.9979.9951,3.6095,3.6576,4.2495,4.8894Z" style="fill:#45862b;"/><path d="m596.224,495.4866c1.6457.5203,2.7523,1.6615,2.4717,2.5489s-1.8421,1.185-3.4878.6646c-1.3235-.4185-4.3957-2.5331-5.5476-3.3449-.2042-.1439-.1483-.3208.1015-.3212,1.4092-.002,5.1387.034,6.4622.4525Z" style="fill:#45862b;"/><path d="m594.391,489.2754c1.5316-.7957,3.121-.7713,3.5501.0546s-.4647,2.1405-1.9963,2.9362c-1.2318.64-4.8994,1.317-6.288,1.5576-.2462.0426-.3317-.122-.1553-.2989.9951-.9979,3.6576-3.6095,4.8894-4.2495Z" style="fill:#45862b;"/><path d="m588.703,486.1796c.5203-1.6457,1.6615-2.7523,2.5489-2.4717s1.185,1.8421.6646,3.4878c-.4185,1.3235-2.5331,4.3957-3.3449,5.5476-.1439.2042-.3208.1483-.3212-.1015-.002-1.4092.034-5.1387.4525-6.4622Z" style="fill:#45862b;"/></g><g><path d="m479.9314,314.9474c-.7957-1.5316-.7713-3.121.0546-3.5501s2.1405.4647,2.9362,1.9963c.64,1.2318,1.317,4.8994,1.5576,6.288.0426.2462-.122.3317-.2989.1553-.9979-.9951-3.6095-3.6576-4.2495-4.8894Z" style="fill:#45862b;"/><path d="m476.8355,320.6355c-1.6457-.5203-2.7523-1.6615-2.4717-2.5489s1.8421-1.185,3.4878-.6646c1.3235.4185,4.3957,2.5331,5.5476,3.3449.2042.1439.1483.3208-.1015.3212-1.4092.002-5.1387-.034-6.4622-.4525Z" style="fill:#45862b;"/><path d="m478.6684,326.8467c-1.5316.7957-3.121.7713-3.5501-.0546s.4647-2.1405,1.9963-2.9362c1.2318-.64,4.8994-1.317,6.288-1.5576.2462-.0426.3317.122.1553.2989-.9951.9979-3.6576,3.6095-4.8894,4.2495Z" style="fill:#45862b;"/><path d="m484.3565,329.9425c-.5203,1.6457-1.6615,2.7523-2.5489,2.4717s-1.185-1.8421-.6646-3.4878c.4185-1.3235,2.5331-4.3957,3.3449-5.5476.1439-.2042.3208-.1483.3212.1015.002,1.4092-.034,5.1387-.4525,6.4622Z" style="fill:#45862b;"/><path d="m490.5677,328.1096c.7957,1.5316.7713,3.121-.0546,3.5501s-2.1405-.4647-2.9362-1.9963c-.64-1.2318-1.317-4.8994-1.5576-6.288-.0426-.2462.122-.3317.2989-.1553.9979.9951,3.6095,3.6576,4.2495,4.8894Z" style="fill:#45862b;"/><path d="m493.6636,322.4215c1.6457.5203,2.7523,1.6615,2.4717,2.5489s-1.8421,1.185-3.4878.6646c-1.3235-.4185-4.3957-2.5331-5.5476-3.3449-.2042-.1439-.1483-.3208.1015-.3212,1.4092-.002,5.1387.034,6.4622.4525Z" style="fill:#45862b;"/><path d="m491.8306,316.2103c1.5316-.7957,3.121-.7713,3.5501.0546s-.4647,2.1405-1.9963,2.9362c-1.2318.64-4.8994,1.317-6.288,1.5576-.2462.0426-.3317-.122-.1553-.2989.9951-.9979,3.6576-3.6095,4.8894-4.2495Z" style="fill:#45862b;"/><path d="m486.1426,313.1144c.5203-1.6457,1.6615-2.7523,2.5489-2.4717s1.185,1.8421.6646,3.4878c-.4185,1.3235-2.5331,4.3957-3.3449,5.5476-.1439.2042-.3208.1483-.3212-.1015-.002-1.4092.034-5.1387.4525-6.4622Z" style="fill:#45862b;"/></g><g><path d="m592.7305,368.1006c-.7957-1.5316-.7713-3.121.0546-3.5501s2.1405.4647,2.9362,1.9963c.64,1.2318,1.317,4.8994,1.5576,6.288.0426.2462-.122.3317-.2989.1553-.9979-.9951-3.6095-3.6576-4.2495-4.8894Z" style="fill:#efbb54;"/><path d="m589.6346,373.7887c-1.6457-.5203-2.7523-1.6615-2.4717-2.5489s1.8421-1.185,3.4878-.6646c1.3235.4185,4.3957,2.5331,5.5476,3.3449.2042.1439.1483.3208-.1015.3212-1.4092.002-5.1387-.034-6.4622-.4525Z" style="fill:#efbb54;"/><path d="m591.4676,379.9999c-1.5316.7957-3.121.7713-3.5501-.0546s.4647-2.1405,1.9963-2.9362c1.2318-.64,4.8994-1.317,6.288-1.5576.2462-.0426.3317.122.1553.2989-.9951.9979-3.6576,3.6095-4.8894,4.2495Z" style="fill:#efbb54;"/><path d="m597.1556,383.0958c-.5203,1.6457-1.6615,2.7523-2.5489,2.4717s-1.185-1.8421-.6646-3.4878c.4185-1.3235,2.5331-4.3957,3.3449-5.5476.1439-.2042.3208-.1483.3212.1015.002,1.4092-.034,5.1387-.4525,6.4622Z" style="fill:#efbb54;"/><path d="m603.3668,381.2628c.7957,1.5316.7713,3.121-.0546,3.5501s-2.1405-.4647-2.9362-1.9963c-.64-1.2318-1.317-4.8994-1.5576-6.288-.0426-.2462.122-.3317.2989-.1553.9979.9951,3.6095,3.6576,4.2495,4.8894Z" style="fill:#efbb54;"/><path d="m606.4627,375.5747c1.6457.5203,2.7523,1.6615,2.4717,2.5489s-1.8421,1.185-3.4878.6646c-1.3235-.4185-4.3957-2.5331-5.5476-3.3449-.2042-.1439-.1483-.3208.1015-.3212,1.4092-.002,5.1387.034,6.4622.4525Z" style="fill:#efbb54;"/><path d="m604.6297,369.3635c1.5316-.7957,3.121-.7713,3.5501.0546s-.4647,2.1405-1.9963,2.9362c-1.2318.64-4.8994,1.317-6.288,1.5576-.2462.0426-.3317-.122-.1553-.2989.9951-.9979,3.6576-3.6095,4.8894-4.2495Z" style="fill:#efbb54;"/><path d="m598.9417,366.2677c.5203-1.6457,1.6615-2.7523,2.5489-2.4717s1.185,1.8421.6646,3.4878c-.4185,1.3235-2.5331,4.3957-3.3449,5.5476-.1439.2042-.3208.1483-.3212-.1015-.002-1.4092.034-5.1387.4525-6.4622Z" style="fill:#efbb54;"/></g><g style="opacity:.8;"><path d="m180.4772,62.2287c-1.0236-1.9702-.9921-4.0149.0703-4.5669s2.7535.5978,3.7771,2.568c.8233,1.5846,1.6942,6.3026,2.0037,8.0889.0549.3167-.1569.4267-.3845.1998-1.2837-1.2801-4.6433-4.7052-5.4666-6.2898Z" style="fill:#45862b;"/><path d="m176.4946,69.5459c-2.117-.6694-3.5405-2.1374-3.1796-3.279s2.3697-1.5243,4.4867-.855c1.7026.5384,5.6546,3.2586,7.1365,4.3029.2627.1852.1908.4127-.1306.4131-1.8129.0025-6.6104-.0438-8.313-.5821Z" style="fill:#45862b;"/><path d="m178.8526,77.536c-1.9702,1.0236-4.0149.9921-4.5669-.0703s.5978-2.7535,2.568-3.7771c1.5846-.8233,6.3026-1.6942,8.0889-2.0037.3167-.0549.4267.1569.1998.3845-1.2801,1.2837-4.7052,4.6433-6.2898,5.4666Z" style="fill:#45862b;"/><path d="m186.1697,81.5185c-.6694,2.117-2.1374,3.5405-3.279,3.1796s-1.5243-2.3697-.855-4.4867c.5384-1.7026,3.2586-5.6546,4.3029-7.1365.1852-.2627.4127-.1908.4131.1306.0025,1.8129-.0438,6.6104-.5821,8.313Z" style="fill:#45862b;"/><path d="m194.1598,79.1606c1.0236,1.9702.9921,4.0149-.0703,4.5669s-2.7535-.5978-3.7771-2.568c-.8233-1.5846-1.6942-6.3026-2.0037-8.0889-.0549-.3167.1569-.4267.3845-.1998,1.2837,1.2801,4.6433,4.7052,5.4666,6.2898Z" style="fill:#45862b;"/><path d="m198.1424,71.8434c2.117.6694,3.5405,2.1374,3.1796,3.279s-2.3697,1.5243-4.4867.855c-1.7026-.5384-5.6546-3.2586-7.1365-4.3029-.2627-.1852-.1908-.4127.1306-.4131,1.8129-.0025,6.6104.0438,8.313.5821Z" style="fill:#45862b;"/><path d="m195.7845,63.8533c1.9702-1.0236,4.0149-.9921,4.5669.0703s-.5978,2.7535-2.568,3.7771c-1.5846.8233-6.3026,1.6942-8.0889,2.0037-.3167.0549-.4267-.1569-.1998-.3845,1.2801-1.2837,4.7052-4.6433,6.2898-5.4666Z" style="fill:#45862b;"/><path d="m188.4673,59.8708c.6694-2.117,2.1374-3.5405,3.279-3.1796s1.5243,2.3697.855,4.4867c-.5384,1.7026-3.2586,5.6546-4.3029,7.1365-.1852.2627-.4127.1908-.4131-.1306-.0025-1.8129.0438-6.6104.5821-8.313Z" style="fill:#45862b;"/></g><g style="opacity:.8;"><path d="m78.8279,22.0738c-.5658-1.0891-.5484-2.2193.0389-2.5244s1.522.3304,2.0878,1.4195c.4551.8759.9365,3.4838,1.1075,4.4712.0303.1751-.0867.2359-.2125.1104-.7096-.7076-2.5666-2.6008-3.0217-3.4767Z" style="fill:#45862b;"/><path d="m76.6265,26.1184c-1.1702-.37-1.957-1.1815-1.7575-1.8125s1.3099-.8426,2.4801-.4726c.9411.2976,3.1256,1.8012,3.9448,2.3785.1452.1023.1055.2281-.0722.2284-1.0021.0014-3.6539-.0242-4.5951-.3218Z" style="fill:#45862b;"/><path d="m77.9299,30.535c-1.0891.5658-2.2193.5484-2.5244-.0389s.3304-1.522,1.4195-2.0878c.8759-.4551,3.4838-.9365,4.4712-1.1075.1751-.0303.2359.0867.1104.2125-.7076.7096-2.6008,2.5666-3.4767,3.0217Z" style="fill:#45862b;"/><path d="m81.9745,32.7364c-.37,1.1702-1.1815,1.957-1.8125,1.7575s-.8426-1.3099-.4726-2.4801c.2976-.9411,1.8012-3.1256,2.3785-3.9448.1023-.1452.2281-.1055.2284.0722.0014,1.0021-.0242,3.6539-.3218,4.5951Z" style="fill:#45862b;"/><path d="m86.3911,31.4331c.5658,1.0891.5484,2.2193-.0389,2.5244s-1.522-.3304-2.0878-1.4195c-.4551-.8759-.9365-3.4838-1.1075-4.4712-.0303-.1751.0867-.2359.2125-.1104.7096.7076,2.5666,2.6008,3.0217,3.4767Z" style="fill:#45862b;"/><path d="m88.5925,27.3884c1.1702.37,1.957,1.1815,1.7575,1.8125s-1.3099.8426-2.4801.4726c-.9411-.2976-3.1256-1.8012-3.9448-2.3785-.1452-.1023-.1055-.2281.0722-.2284,1.0021-.0014,3.6539.0242,4.5951.3218Z" style="fill:#45862b;"/><path d="m87.2891,22.9718c1.0891-.5658,2.2193-.5484,2.5244.0389s-.3304,1.522-1.4195,2.0878c-.8759.4551-3.4838.9365-4.4712,1.1075-.1751.0303-.2359-.0867-.1104-.2125.7076-.7096,2.6008-2.5666,3.4767-3.0217Z" style="fill:#45862b;"/><path d="m83.2445,20.7705c.37-1.1702,1.1815-1.957,1.8125-1.7575s.8426,1.3099.4726,2.4801c-.2976.9411-1.8012,3.1256-2.3785,3.9448-.1023.1452-.2281.1055-.2284-.0722-.0014-1.0021.0242-3.6539.3218-4.5951Z" style="fill:#45862b;"/></g><g><g><path d="m358.8496,137.3849c.2017-1.0263.2797-2.1106.2323-3.2221-.0073-.1782-.1164-.3389-.2777-.4104l-2.286-1.0116-.0306-.1459c-.1689-.8004-.43-1.5866-.7768-2.3377l-.0626-.1357,1.2248-2.1901c.0875-.1567.0797-.3468-.0208-.4956-.3226-.4797-.641-.8998-.9729-1.2841-.3187-.373-.6856-.7499-1.1227-1.1518-.1316-.122-.3153-.1561-.4817-.0903l-2.3152.9162-.1237-.0817c-.6822-.4479-1.4161-.818-2.1811-1.1001l-.1386-.0511-.6691-2.424c-.0474-.1726-.1843-.3009-.3574-.3355-1.0326-.2055-2.1079-.2799-3.1955-.2254-.1776.0097-.3319.1175-.4031.2821l-.9931,2.303-.1448.0312c-.7987.1709-1.5782.4348-2.3174.7845l-.1344.0636-2.1595-1.2381c-.1532-.088-.3403-.08-.4881.0187-.4261.2895-.8435.6102-1.2747.9804-.4084.365-.7914.7488-1.1451,1.1467-.1181.1328-.1518.319-.0875.4854l.9041,2.3445-.0799.1249c-.4407.6892-.8074,1.4328-1.0893,2.2105l-.0505.1396-2.3991.684c-.1697.0483-.2962.1879-.3302.3627-.1995,1.0394-.2752,2.1254-.2255,3.2272.0081.18.1147.3372.2786.4099l2.2874,1.0082.0311.1453c.1776.8203.4359,1.6059.7684,2.3343l.0614.1351-1.2197,2.1946c-.0864.1555-.0774.3508.0227.4973.3459.5064.6542.9151.9706,1.2869.3383.3883.7167.7754,1.1235,1.1473.1316.1215.317.155.4819.0891l2.3138-.9196.124.0817c.6741.4434,1.4066.8135,2.1777,1.1013l.1377.0511.6735,2.4313c.0474.1714.1896.3031.3622.3355,1.0646.1998,2.1379.2753,3.1817.2225.177-.0091.331-.1158.4026-.2793l1.0091-2.3104.1439-.0307c.8003-.1714,1.5791-.4348,2.3149-.7834l.1335-.063,2.1704,1.2313c.1546.0886.3422.08.4878-.0204.4533-.3111.8823-.6409,1.275-.9815.3695-.327.7428-.6999,1.1395-1.1387.1189-.1317.1537-.3241.0886-.4905l-.9173-2.3348.0814-.1266c.4463-.6926.8138-1.4385,1.0921-2.2162l.0502-.1408,2.3949-.6801c.1692-.0483.2957-.1868.3299-.361Zm-.8292-.65l-.0286.1845-2.3564.6699c-.1506.0426-.2687.1578-.3167.3088-.303.9571-.747,1.8586-1.3204,2.6788-.0912.1306-.1105.2963-.0525.4451l.9016,2.2951-.1293.1351c-.2572.2679-.4979.5007-.7358.7113-.2564.222-.526.4365-.8031.6403l-.149.1096-2.1337-1.2108c-.1361-.0778-.3004-.0812-.4396-.0079-.8797.4564-1.8206.7749-2.7966.9457-.1534.0272-.2825.1294-.3453.2736l-.9925,2.2713-.1851.0017c-.0418.0006-.0836.0006-.1257.0006-.6267,0-1.266-.0483-1.9022-.1442l-.1843-.0272-.6609-2.3871c-.0418-.151-.1549-.2708-.3024-.3202-.9529-.3168-1.8403-.7658-2.6369-1.3335-.1282-.092-.2917-.1118-.4379-.0539l-2.2748.9037-.1327-.13c-.2455-.2396-.4814-.4888-.7019-.7414-.2096-.2464-.4157-.5115-.6326-.8129l-.1086-.1504,1.1973-2.1543c.0763-.1374.0799-.3031.0093-.4434-.4343-.8646-.7484-1.8177-.9339-2.8327-.0281-.1538-.1293-.2827-.271-.3446l-2.2453-.9906-.0017-.1885c-.0062-.6994.0418-1.3914.1428-2.0567l.0281-.1845,2.3575-.6727c.1492-.0426.2673-.1572.3159-.3065.3094-.9577.7529-1.8574,1.3182-2.6749.0892-.1294.1086-.2935.0522-.4405l-.8881-2.3047.1276-.134c.2351-.2458.4828-.4854.7367-.7124.276-.2367.5406-.4485.8045-.6426l.1495-.1101,2.1244,1.2171c.1372.0795.3027.0817.441.0097.8792-.4581,1.822-.7771,2.8025-.9486.1543-.0267.2842-.13.347-.2753l.9765-2.265.1851-.0028c.6822-.0148,1.3692.0369,2.0347.1419l.1829.029.6581,2.3842c.0421.1521.156.2719.3047.3207.9426.3082,1.8304.7561,2.6389,1.3312.1279.0908.2909.1118.4362.0534l2.2753-.9009.1327.13c.2626.2572.4926.5018.7024.7476.2157.2492.4233.5132.6334.8044l.1091.1516-1.2037,2.1515c-.0769.1379-.0802.3043-.009.4456.455.8998.7714,1.8517.9403,2.8293.0266.1555.1282.2867.2715.3503l2.2445.994.0014.1885c.0053.7011-.0435,1.3914-.1456,2.051Z" style="fill:#efbb54;"/><path d="m346.0021,148.2623c-.8443,0-1.7008-.0806-2.555-.2414-.2221-.0414-.4052-.2108-.4662-.4316l-.6552-2.3648-.0737-.0271c-.7818-.2917-1.5235-.6669-2.2045-1.1151l-.0664-.0437-2.25.8943c-.213.0851-.4513.0408-.6206-.1151-.4063-.3713-.7878-.761-1.1336-1.1575-.3211-.3773-.6323-.7899-.9802-1.2995-.1292-.1887-.1406-.4398-.0292-.64l1.1862-2.1348-.0328-.0727c-.3359-.7354-.5977-1.5301-.7776-2.3614l-.0169-.0783-2.2245-.9807c-.2109-.0935-.3484-.2956-.3586-.5272-.0503-1.1143.0266-2.2107.2276-3.2591.0443-.2261.207-.405.4253-.4669l2.3331-.6653.0271-.0748c.2852-.7865.6563-1.5391,1.1026-2.2373l.043-.0669-.8794-2.2803c-.0826-.2142-.0393-.4535.1125-.6245.3589-.4037.7479-.7931,1.1563-1.1578.4344-.3731.8552-.6969,1.2883-.9913.1914-.1278.432-.1375.6287-.024l2.0995,1.2036.0719-.034c.749-.3541,1.5383-.6213,2.3464-.7944l.0776-.0166.9656-2.2397c.0917-.2116.2904-.3504.5182-.3626,1.1052-.0551,2.1909.0211,3.2284.2277.2229.0443.399.2097.4599.4316l.6505,2.3569.0742.0274c.7747.2856,1.5177.6606,2.2081,1.114l.0667.0437,2.2513-.8909c.2135-.0848.451-.0403.6201.1165.4396.4042.8104.7847,1.1333,1.1631.3352.3876.6565.8118.9823,1.2964.1294.191.1396.4356.0268.6379l-1.1912,2.1295.0336.0727c.3508.7602.6154,1.5562.7865,2.3664l.0164.0783,2.2229.9839c.2078.092.3484.2993.3578.5286.0477,1.1222-.0313,2.217-.2349,3.2539h0c-.0443.2245-.2068.4026-.4245.4645l-2.3289.6614-.0268.0756c-.2823.7881-.6544,1.543-1.106,2.2442l-.0435.0677.8919,2.27c.0836.2145.0385.4622-.1143.6313-.3984.4408-.7747.8168-1.15,1.1491-.3961.3436-.8292.6769-1.288.9918-.188.1302-.4292.1402-.6284.0263l-2.1104-1.1973-.0716.0337c-.7432.3523-1.5318.6192-2.3435.7931l-.0773.0163-.9813,2.2473c-.0919.21-.2904.3475-.5177.3594-.2182.0111-.4378.0166-.6578.0166Zm-5.9907-4.5257l.1815.1196c.6646.4371,1.3883.8031,2.1511,1.088l.2016.0748.6922,2.4976c.0339.1223.1349.2163.2578.239,1.057.1987,2.1175.2732,3.1508.2208.1263-.0066.2365-.083.2875-.1995l1.0365-2.3735.2109-.0448c.7914-.1697,1.5604-.43,2.2857-.7736l.1958-.0922,2.2297,1.265c.1107.0638.2443.058.3477-.0142.451-.3093.8761-.6366,1.2636-.9725.3667-.3246.7359-.6938,1.1276-1.1272.0849-.0938.1096-.2311.0633-.3499l-.943-2.3994.119-.185c.4406-.6838.8034-1.4202,1.0787-2.1886l.0734-.2063,2.461-.6988c.1203-.0343.2107-.1331.2352-.2574.1995-1.0155.2768-2.089.2297-3.1898-.0049-.127-.0828-.2419-.1979-.2927l-2.349-1.0392-.0445-.214c-.1667-.7899-.425-1.5667-.7672-2.3085l-.0914-.1989,1.2583-2.2502c.0625-.112.0568-.2472-.0148-.3531-.3198-.4756-.6349-.8914-.963-1.2713-.3167-.3707-.6802-.7438-1.112-1.1409-.0951-.0883-.2234-.112-.3432-.0643l-2.3792.9415-.1813-.1196c-.6734-.4421-1.3982-.8079-2.1539-1.0866l-.2029-.0748-.6875-2.4905c-.0339-.1231-.1315-.2147-.2547-.2395-1.0164-.2024-2.0808-.2772-3.1633-.2229-.1263.0069-.2365.0841-.2875.2016l-1.0203,2.3664-.212.0456c-.7883.1686-1.5581.4295-2.2886.7749l-.1969.093-2.219-1.2727c-.1089-.0624-.2427-.0567-.3492.014-.424.2883-.8367.606-1.2617.9707-.3987.3562-.7805.7386-1.1323,1.1343-.0844.0946-.1083.2274-.0625.346l.9289,2.4088-.1169.1829c-.4357.6814-.7979,1.416-1.0761,2.1836l-.074.2045-2.4646.7027c-.1208.0343-.2112.1336-.2357.259-.1971,1.0268-.2721,2.1021-.2232,3.1951.006.1283.082.2403.1992.2922l2.3495,1.0355.0456.2129c.176.8121.4315,1.5883.7594,2.3063l.0896.1981-1.2529,2.2544c-.0617.1109-.0552.2501.0161.3544.3427.5017.6482.9069.962,1.2756.338.3879.7125.7702,1.1117,1.1351.094.0867.226.1101.3438.0638l2.3779-.9451Zm6.0001,3.5859c-.6349,0-1.2815-.049-1.9219-.146l-.2695-.0395-.6844-2.4716c-.0297-.108-.1104-.1931-.2156-.2284-.9651-.3209-1.8641-.7757-2.6722-1.3512-.0914-.0656-.2073-.0801-.3122-.0387l-2.3545.9354-.1945-.1902c-.2477-.2419-.4862-.4938-.7091-.7491-.2125-.2501-.4219-.5188-.6404-.8229l-.1591-.2203,1.2393-2.2299c.0544-.098.057-.2163.0068-.3162-.4401-.8756-.7583-1.841-.9461-2.8692-.0201-.1096-.0922-.2013-.193-.2453l-2.325-1.0255-.0023-.2764c-.0063-.7069.0422-1.4063.1443-2.0782l.0411-.2701,2.4401-.6964c.1063-.0303.1906-.1122.2255-.219.3133-.9699.7628-1.8816,1.3357-2.71.063-.092.0771-.2095.037-.3143l-.9193-2.3849.1872-.1963c.2391-.2503.4893-.4922.744-.7199.2836-.2432.5495-.4556.8146-.6506l.2188-.1613,2.1992,1.2598c.0971.0564.2143.0593.3143.0074.8912-.4645,1.8469-.7881,2.8407-.9617.1102-.019.2029-.0925.2477-.1963l1.0109-2.3445.2708-.0042c.6672-.0148,1.3612.0335,2.0573.1433l.2677.0424.681,2.4679c.0302.1083.1115.1939.2175.2287.9552.3125,1.855.7665,2.6742,1.3491.0919.0656.2083.0798.3104.0385l2.356-.9328.194.1902c.2669.2614.4992.5088.7104.7562.2159.2493.4258.5154.6404.8131l.1599.2219-1.2461,2.2273c-.0547.098-.057.2169-.0063.3178.4609.9117.7815,1.8766.9529,2.8673.019.1112.0914.2045.194.2501l2.3232,1.0289.0023.2759c.0052.7104-.0443,1.4078-.1471,2.0729l-.0419.2703-2.4391.6932c-.1073.0303-.1914.1125-.2258.2203-.307.9702-.7573,1.8837-1.3383,2.7153-.0648.0927-.0789.2116-.0375.3178l.9333,2.3756-.1891.1979c-.2625.2732-.506.5083-.744.7188-.2573.2229-.5302.4406-.8125.6479l-.218.1605-2.2081-1.2529c-.0977-.0556-.2143-.058-.313-.0061-.8927.4632-1.8464.7857-2.8354.9588-.1091.0195-.2013.0925-.2458.195l-1.0274,2.3511-.3982.0032Zm-1.9815-.4274l.0987.0145c.6276.0951,1.261.1431,1.8828.1431l.2237-.0016.9578-2.1917c.0807-.1852.2466-.317.4443-.3518.9625-.1686,1.8906-.4825,2.7586-.933.1784-.0933.3898-.0901.5662.0105l2.0586,1.1683.0799-.0588c.2766-.2034.544-.4166.7948-.6337.2315-.2047.4698-.435.7271-.7027l.069-.0722-.8698-2.2141c-.0747-.1916-.0492-.4058.0677-.5731.5654-.8089,1.0034-1.6977,1.3021-2.6418.0617-.1945.2143-.3431.4081-.3976l2.2737-.6463.0154-.0991c.1008-.6506.1492-1.3333.144-2.0291l-.0008-.1009-2.1651-.9588c-.1849-.0822-.3154-.2506-.3497-.4511-.1667-.9639-.4787-1.9029-.9276-2.7906-.0917-.1818-.0872-.396.0115-.5734l1.1617-2.0761-.0586-.0812c-.2099-.2912-.4148-.5512-.626-.7952-.2068-.2419-.4336-.4835-.6948-.7394l-.0711-.0696-2.1956.8693c-.1859.0748-.3961.049-.5615-.0688-.7974-.5673-1.6735-1.0089-2.6032-1.3132-.1914-.0627-.3378-.2169-.3922-.4126l-.6352-2.3008-.0979-.0155c-.68-.1072-1.356-.1534-2.0112-.1402l-.1003.0016-.9422,2.1854c-.081.1873-.2479.3196-.4466.3544-.9669.1689-1.8969.4835-2.7641.9354-.1807.0938-.3932.0891-.5682-.0126l-2.049-1.1739-.0802.059c-.2596.191-.5203.3992-.7969.6363-.2474.2213-.4927.4585-.7268.7033l-.0685.0717.8573,2.2244c.0721.1889.0471.4005-.0669.5665-.5581.8068-.9956,1.6948-1.3008,2.6397-.0628.1923-.2146.3396-.4065.3947l-2.275.649-.0151.0988c-.0997.6574-.1474,1.3422-.1411,2.0347l.0008.1012,2.1662.9557c.182.0796.3125.2456.3487.4437.1833,1.0026.4935,1.9433.9216,2.7959.0909.1805.0865.3937-.012.5707l-1.155,2.0787.0578.0804c.2146.2983.4193.5615.626.8044.2169.2485.4508.4954.6935.7325l.0711.0696,2.1951-.8722c.1878-.074.3987-.0485.5635.0696.7862.5602,1.6615,1.0028,2.6016,1.3156.1898.0632.3354.2174.3891.4118l.6375,2.3024Z" style="fill:#efbb54;"/></g><g><path d="m345.9785,139.0985c-2.3103,0-4.1898-1.9018-4.1898-4.2394s1.8795-4.2393,4.1898-4.2393,4.1898,1.9017,4.1898,4.2393-1.8795,4.2394-4.1898,4.2394Zm0-7.8158c-1.9491,0-3.5348,1.6044-3.5348,3.5765s1.5857,3.5766,3.5348,3.5766,3.5348-1.6044,3.5348-3.5766-1.5857-3.5765-3.5348-3.5765Z" style="fill:#efbb54;"/><path d="m345.9784,139.3681c-2.4573,0-4.4563-2.0228-4.4563-4.5091s1.999-4.5091,4.4563-4.5091,4.4566,2.0228,4.4566,4.5091-1.9992,4.5091-4.4566,4.5091Zm0-8.4786c-2.163,0-3.923,1.7807-3.923,3.9695s1.7599,3.9695,3.923,3.9695,3.9232-1.7807,3.9232-3.9695-1.7599-3.9695-3.9232-3.9695Zm0,7.816c-2.0961,0-3.8013-1.7256-3.8013-3.8465s1.7052-3.8462,3.8013-3.8462,3.8016,1.7253,3.8016,3.8462-1.7055,3.8465-3.8016,3.8465Zm0-7.153c-1.8021,0-3.268,1.4832-3.268,3.3066s1.4659,3.3068,3.268,3.3068,3.2683-1.4835,3.2683-3.3068-1.4662-3.3066-3.2683-3.3066Z" style="fill:#efbb54;"/></g></g><g><g><path d="m583.2091,281.7365c.2489-1.2667.3452-2.6049.2867-3.9767-.009-.22-.1437-.4183-.3428-.5065l-2.8214-1.2485-.0377-.1801c-.2084-.9879-.5308-1.9582-.9587-2.8851l-.0772-.1674,1.5116-2.703c.108-.1934.0983-.4281-.0256-.6116-.3982-.592-.7911-1.1105-1.2007-1.5848-.3933-.4603-.8462-.9255-1.3856-1.4216-.1624-.1506-.3892-.1927-.5945-.1114l-2.8574,1.1308-.1527-.1009c-.842-.5528-1.7477-1.0096-2.6919-1.3578l-.171-.0631-.8257-2.9916c-.0585-.213-.2275-.3713-.4411-.4141-1.2745-.2536-2.6015-.3454-3.9438-.2781-.2192.0119-.4096.145-.4975.3482l-1.2256,2.8424-.1787.0385c-.9857.2109-1.9479.5367-2.8602.9683l-.1658.0785-2.6652-1.528c-.189-.1086-.42-.0988-.6024.0231-.5259.3573-1.0411.7532-1.5732,1.21-.5041.4505-.9767.9241-1.4133,1.4153-.1458.1639-.1873.3937-.108.599l1.1159,2.8936-.0987.1541c-.5439.8506-.9964,1.7684-1.3444,2.7282l-.0623.1724-2.9609.8442c-.2095.0596-.3656.2319-.4075.4477-.2462,1.2828-.3396,2.6231-.2784,3.983.01.2221.1416.4162.3438.5058l2.8231,1.2443.0384.1794c.2192,1.0124.538,1.9821.9483,2.8809l.0758.1667-1.5054,2.7086c-.1066.192-.0956.433.028.6137.4269.625.8074,1.1294,1.1979,1.5883.4175.4792.8846.957,1.3866,1.416.1624.1499.3912.1913.5948.11l2.8557-1.135.153.1009c.832.5472,1.736,1.004,2.6877,1.3592l.17.0631.8313,3.0008c.0585.2116.234.3741.447.4141,1.3139.2466,2.6386.3398,3.9269.2746.2185-.0112.4085-.1429.4968-.3447l1.2454-2.8515.1776-.0378c.9878-.2116,1.9489-.5367,2.857-.9669l.1648-.0778,2.6787,1.5196c.1908.1093.4224.0988.6021-.0252.5595-.3839,1.0889-.791,1.5736-1.2114.456-.4036.9168-.8639,1.4064-1.4054.1468-.1625.1897-.4001.1094-.6053l-1.1322-2.8816.1004-.1562c.5508-.8548,1.0044-1.7754,1.3479-2.7352l.062-.1738,2.9557-.8393c.2088-.0596.3649-.2305.4072-.4456Zm-1.0234-.8022l-.0353.2277-2.9083.8267c-.1859.0525-.3317.1948-.3909.3811-.3739,1.1812-.922,2.2938-1.6297,3.3062-.1125.1611-.1364.3657-.0647.5493l1.1128,2.8326-.1596.1667c-.3175.3307-.6145.6179-.9081.8779-.3164.2739-.6492.5388-.9912.7903l-.1838.1352-2.6334-1.4944c-.1679-.096-.3708-.1002-.5425-.0098-1.0858.5633-2.247.9563-3.4515,1.1672-.1894.0336-.3486.1597-.4262.3377l-1.2249,2.8032-.2285.0021c-.0516.0007-.1032.0007-.1551.0007-.7735,0-1.5625-.0596-2.3478-.178l-.2275-.0336-.8157-2.9461c-.0516-.1864-.1911-.3342-.3732-.3951-1.1761-.3909-2.2712-.9451-3.2545-1.6458-.1582-.1135-.3601-.138-.5405-.0666l-2.8075,1.1154-.1638-.1604c-.3029-.2957-.5941-.6032-.8663-.915-.2586-.3041-.5131-.6313-.7807-1.0033l-.134-.1857,1.4777-2.6588c.0942-.1695.0987-.3741.0114-.5472-.536-1.067-.9237-2.2434-1.1526-3.4961-.0346-.1899-.1596-.3489-.3345-.4253l-2.7712-1.2226-.0021-.2326c-.0076-.8632.0516-1.7172.1762-2.5383l.0346-.2277,2.9097-.8302c.1842-.0525.33-.1941.3898-.3783.3819-1.1819.9293-2.2924,1.6269-3.3013.1101-.1597.134-.3622.0644-.5437l-1.0961-2.8445.1575-.1653c.2901-.3034.5959-.599.9092-.8793.3407-.2922.6672-.5535.993-.7931l.1845-.1359,2.622,1.5021c.1693.0981.3736.1009.5443.0119,1.0851-.5654,2.2487-.9591,3.4588-1.1707.1904-.0329.3507-.1604.4283-.3398l1.2052-2.7955.2285-.0035c.842-.0182,1.6899.0455,2.5112.1752l.2257.0357.8122,2.9426c.0519.1878.1925.3356.376.3958,1.1633.3804,2.2591.9332,3.2569,1.643.1579.1121.359.138.5384.0659l2.8082-1.1119.1638.1604c.3241.3174.608.6193.8669.9227.2662.3076.5225.6334.7818.9928l.1347.1871-1.4857,2.6553c-.0949.1703-.099.3755-.0111.55.5616,1.1105.9521,2.2854,1.1605,3.4919.0329.192.1582.3538.3351.4323l2.7701,1.2268.0017.2326c.0066.8653-.0537,1.7172-.1797,2.5313Z" style="fill:#efbb54;"/><path d="m567.3527,295.1614c-1.042,0-2.0991-.0995-3.1533-.2979-.2742-.0511-.5001-.2602-.5753-.5327l-.8087-2.9187-.091-.0335c-.9649-.36-1.8802-.8231-2.7207-1.3763l-.082-.054-2.777,1.1037c-.2629.105-.557.0504-.7659-.1421-.5014-.4582-.9723-.9392-1.3991-1.4286-.3963-.4657-.7804-.975-1.2098-1.6039-.1594-.2328-.1736-.5428-.036-.7899l1.464-2.6348-.0405-.0898c-.4146-.9076-.7376-1.8884-.9597-2.9145l-.0209-.0966-2.7455-1.2104c-.2603-.1154-.43-.3649-.4426-.6507-.062-1.3753.0328-2.7284.2809-4.0224.0546-.279.2555-.4998.5249-.5763l2.8795-.8211.0334-.0924c.3519-.9707.81-1.8995,1.3608-2.7613l.053-.0826-1.0854-2.8143c-.1019-.2644-.0485-.5597.1388-.7707.4429-.4982.9231-.9789,1.4271-1.4289.5361-.4605,1.0555-.8602,1.59-1.2234.2362-.1577.5332-.1698.7759-.0296l2.5912,1.4855.0887-.042c.9244-.4371,1.8986-.7668,2.8959-.9805l.0958-.0205,1.1918-2.7642c.1131-.2611.3584-.4325.6396-.4475,1.3641-.068,2.704.026,3.9845.281.2751.0546.4924.2589.5676.5327l.8029,2.9089.0916.0338c.9562.3525,1.8732.8153,2.7252,1.3749l.0823.054,2.7786-1.0995c.2636-.1047.5567-.0498.7653.1437.5425.4989,1.0002.9684,1.3988,1.4354.4137.4784.8103,1.0019,1.2124,1.6.1597.2358.1723.5376.0331.7873l-1.4701,2.6283.0415.0898c.4329.9382.7595,1.9206.9707,2.9206l.0202.0966,2.7435,1.2143c.2565.1135.43.3694.4416.6524.0588,1.385-.0386,2.7362-.2899,4.0159h0c-.0546.2771-.2552.4969-.5239.5733l-2.8744.8163-.0331.0933c-.3484.9727-.8077,1.9044-1.365,2.7697l-.0537.0836,1.1008,2.8016c.1032.2647.0476.5704-.1411.7792-.4918.5441-.9562,1.0081-1.4193,1.4182-.4889.4241-1.0234.8354-1.5897,1.2241-.2321.1606-.5297.173-.7756.0325l-2.6047-1.4777-.0884.0416c-.9173.4348-1.8905.7642-2.8924.9789l-.0955.0202-1.2111,2.7736c-.1135.2592-.3584.4289-.639.4436-.2693.0137-.5403.0205-.8119.0205Zm-7.3937-5.5857l.224.1476c.8202.5395,1.7134.9912,2.6548,1.3428l.2488.0924.8543,3.0826c.0418.1509.1665.267.3182.295,1.3046.2452,2.6134.3372,3.8887.2725.1559-.0081.2918-.1024.3548-.2462l1.2792-2.9294.2603-.0553c.9768-.2094,1.9259-.5307,2.821-.9548l.2417-.1138,2.7519,1.5613c.1366.0787.3015.0715.4291-.0176.5567-.3818,1.0812-.7857,1.5595-1.2003.4525-.4006.9083-.8563,1.3917-1.3912.1048-.1158.1353-.2852.0781-.4319l-1.1638-2.9613.1469-.2283c.5438-.8439.9915-1.7528,1.3313-2.7011l.0906-.2546,3.0373-.8624c.1485-.0423.26-.1642.2902-.3177.2462-1.2533.3417-2.5782.2835-3.9369-.0061-.1567-.1022-.2985-.2443-.3613l-2.8991-1.2826-.055-.2641c-.2057-.975-.5245-1.9336-.9469-2.8491l-.1128-.2455,1.553-2.7772c.0771-.1382.0701-.305-.0183-.4358-.3947-.587-.7836-1.1002-1.1886-1.5691-.3908-.4576-.8395-.918-1.3724-1.4081-.1173-.1089-.2758-.1382-.4236-.0793l-2.9364,1.1619-.2237-.1476c-.8312-.5457-1.7256-.9971-2.6584-1.3411l-.2504-.0924-.8485-3.0738c-.0418-.1519-.1623-.265-.3143-.2956-1.2545-.2498-2.5681-.3421-3.9042-.2751-.1559.0085-.2918.1037-.3548.2488l-1.2593,2.9206-.2616.0563c-.9729.2081-1.923.5301-2.8245.9564l-.243.1148-2.7387-1.5707c-.1343-.0771-.2996-.0699-.431.0172-.5233.3558-1.0327.748-1.5572,1.198-.4921.4397-.9633.9115-1.3975,1.4-.1041.1167-.1337.2806-.0771.427l1.1465,2.973-.1443.2257c-.5377.841-.9848,1.7476-1.3281,2.6949l-.0913.2524-3.0418.8673c-.1491.0423-.2607.1649-.2909.3197-.2433,1.2673-.3359,2.5945-.2754,3.9434.0074.1584.1012.2966.2459.3606l2.8998,1.278.0562.2628c.2173,1.0023.5326,1.9603.9372,2.8465l.1106.2446-1.5463,2.7824c-.0762.1369-.0681.3086.0199.4374.423.6192.8,1.1193,1.1873,1.5743.4172.4787.8794.9506,1.3721,1.401.116.107.279.1359.4243.0787l2.9348-1.1665Zm7.4053,4.4257c-.7836,0-1.5817-.0605-2.372-.1802l-.3327-.0488-.8447-3.0504c-.0366-.1333-.1363-.2384-.2661-.2819-1.1911-.3961-2.3006-.9574-3.298-1.6676-.1128-.081-.2558-.0989-.3854-.0478l-2.9059,1.1545-.2401-.2348c-.3057-.2985-.6001-.6094-.8752-.9245-.2623-.3086-.5207-.6403-.7903-1.0156l-.1964-.2719,1.5296-2.7522c.0672-.121.0704-.267.0084-.3902-.5432-1.0806-.9359-2.2722-1.1677-3.5411-.0247-.1353-.1138-.2485-.2382-.3028l-2.8695-1.2657-.0029-.3411c-.0077-.8725.0521-1.7356.1781-2.5649l.0508-.3333,3.0116-.8595c.1311-.0374.2353-.1385.2783-.2702.3867-1.1971.9414-2.3223,1.6485-3.3447.0778-.1135.0951-.2585.0456-.388l-1.1346-2.9434.2311-.2423c.2951-.3089.6039-.6075.9183-.8884.35-.3002.6782-.5623,1.0054-.8029l.27-.199,2.7143,1.5548c.1199.0696.2645.0732.3879.0091,1.0999-.5733,2.2794-.9727,3.5059-1.187.136-.0234.2504-.1141.3057-.2423l1.2477-2.8936.3343-.0052c.8235-.0182,1.68.0413,2.5391.1769l.3304.0524.8405,3.0458c.0373.1337.1376.2393.2684.2823,1.1789.3857,2.2894.946,3.3006,1.665.1135.081.2571.0985.3831.0475l2.9078-1.1512.2394.2348c.3294.3226.6161.628.8768.9333.2664.3076.5255.6361.7903,1.0036l.1973.2738-1.5379,2.7489c-.0675.121-.0704.2676-.0077.3922.5689,1.1252.9645,2.3161,1.176,3.5388.0235.1372.1128.2524.2394.3086l2.8673,1.2699.0029.3405c.0064.8767-.0546,1.7375-.1816,2.5584l-.0517.3337-3.0103.8556c-.1324.0374-.2362.1389-.2787.2719-.3789,1.1974-.9347,2.3249-1.6517,3.3512-.08.1145-.0974.2611-.0463.3922l1.1519,2.932-.2333.2442c-.324.3372-.6245.6273-.9183.8871-.3176.2751-.6544.5437-1.0028.7997l-.269.198-2.7252-1.5463c-.1205-.0686-.2645-.0715-.3863-.0075-1.1018.5717-2.2788.9697-3.4995,1.1834-.1347.0241-.2484.1141-.3034.2406l-1.268,2.9018-.4914.0039Zm-2.4456-.5275l.1218.0179c.7746.1174,1.5563.1766,2.3238.1766l.2761-.002,1.1821-2.705c.0996-.2286.3044-.3912.5483-.4341,1.1879-.2081,2.3334-.5954,3.4047-1.1515.2202-.1151.4811-.1112.6987.013l2.5407,1.4419.0987-.0725c.3413-.2511.6714-.5141.9809-.7821.2857-.2527.5798-.5369.8974-.8673l.0852-.0891-1.0735-2.7327c-.0922-.2364-.0607-.5008.0836-.7073.6978-.9984,1.2384-2.0953,1.607-3.2605.0762-.24.2645-.4234.5036-.4907l2.8062-.7977.019-.1223c.1244-.8029.1842-1.6455.1777-2.5044l-.001-.1246-2.6722-1.1834c-.2282-.1015-.3892-.3093-.4317-.5567-.2057-1.1896-.5908-2.3486-1.1449-3.4442-.1131-.2244-.1077-.4888.0141-.7076l1.4338-2.5623-.0723-.1002c-.2591-.3593-.512-.6803-.7727-.9815-.2552-.2985-.5351-.5967-.8575-.9125l-.0877-.0859-2.7098,1.0728c-.2295.0924-.4889.0605-.693-.0849-.9842-.7002-2.0654-1.2452-3.2128-1.6208-.2362-.0774-.4169-.2676-.484-.5093l-.7839-2.8397-.1208-.0192c-.8392-.1324-1.6736-.1893-2.4822-.173l-.1237.002-1.1629,2.6972c-.1.2312-.306.3945-.5512.4374-1.1934.2085-2.3411.5967-3.4114,1.1545-.2231.1158-.4853.1099-.7013-.0156l-2.5288-1.4488-.099.0728c-.3204.2358-.6422.4927-.9835.7854-.3053.2732-.6081.5658-.8971.868l-.0845.0885,1.0581,2.7453c.089.2332.0582.4943-.0826.6992-.6888.9958-1.2287,2.0917-1.6054,3.2579-.0775.2374-.2648.4192-.5017.4872l-2.8078.801-.0186.122c-.1231.8114-.1819,1.6566-.1742,2.5112l.001.1249,2.6735,1.1795c.2247.0982.3857.3031.4304.5476.2263,1.2374.6091,2.3984,1.1375,3.4507.1122.2228.1067.4859-.0148.7044l-1.4255,2.5655.0714.0992c.2648.3681.5175.693.7727.9928.2677.3067.5564.6114.8559.9041l.0877.0859,2.7092-1.0764c.2317-.0914.4921-.0598.6955.0859.9703.6914,2.0506,1.2377,3.2109,1.6237.2343.078.414.2683.4802.5083l.7868,2.8416Z" style="fill:#efbb54;"/></g><g><path d="m567.3237,283.8514c-2.8514,0-5.1711-2.3472-5.1711-5.2322s2.3197-5.2321,5.1711-5.2321,5.1711,2.3471,5.1711,5.2321-2.3197,5.2322-5.1711,5.2322Zm0-9.6463c-2.4055,0-4.3626,1.9801-4.3626,4.4141s1.9571,4.4142,4.3626,4.4142,4.3626-1.9801,4.3626-4.4142-1.9571-4.4141-4.3626-4.4141Z" style="fill:#efbb54;"/><path d="m567.3235,284.1842c-3.0328,0-5.5-2.4966-5.5-5.5652s2.4671-5.5652,5.5-5.5652,5.5003,2.4966,5.5003,5.5652-2.4675,5.5652-5.5003,5.5652Zm0-10.4643c-2.6696,0-4.8417,2.1977-4.8417,4.8992s2.1721,4.8992,4.8417,4.8992,4.842-2.1977,4.842-4.8992-2.1721-4.8992-4.842-4.8992Zm0,9.6464c-2.587,0-4.6916-2.1297-4.6916-4.7473s2.1046-4.747,4.6916-4.747,4.6919,2.1294,4.6919,4.747-2.1049,4.7473-4.6919,4.7473Zm0-8.8282c-2.2242,0-4.0334,1.8306-4.0334,4.0809s1.8092,4.0813,4.0334,4.0813,4.0337-1.8309,4.0337-4.0813-1.8095-4.0809-4.0337-4.0809Z" style="fill:#efbb54;"/></g></g><g><g><path d="m486.8649,402.9388c.1245-.6334.1726-1.3025.1433-1.9884-.0045-.11-.0718-.2091-.1714-.2533l-1.4107-.6243-.0189-.09c-.1042-.4939-.2654-.9791-.4794-1.4426l-.0386-.0837.7558-1.3515c.054-.0967.0492-.214-.0128-.3058-.1991-.296-.3956-.5552-.6004-.7924-.1967-.2302-.4231-.4628-.6928-.7108-.0812-.0753-.1946-.0963-.2972-.0557l-1.4287.5654-.0763-.0504c-.421-.2764-.8739-.5048-1.346-.6789l-.0855-.0315-.4129-1.4958c-.0293-.1065-.1137-.1857-.2205-.207-.6372-.1268-1.3008-.1727-1.972-.1391-.1096.006-.2048.0725-.2488.1741l-.6128,1.4212-.0893.0193c-.4929.1054-.9739.2683-1.4301.4841l-.0829.0392-1.3326-.764c-.0945-.0543-.21-.0494-.3012.0116-.263.1787-.5206.3766-.7866.605-.2521.2253-.4884.4621-.7067.7076-.0729.082-.0937.1969-.054.2995l.5579,1.4468-.0493.0771c-.272.4253-.4982.8842-.6722,1.3641l-.0312.0862-1.4805.4221c-.1047.0298-.1828.116-.2038.2239-.1231.6414-.1698,1.3116-.1392,1.9915.005.111.0708.2081.1719.2529l1.4116.6222.0192.0897c.1096.5062.269.991.4742,1.4405l.0379.0834-.7527,1.3543c-.0533.096-.0478.2165.014.3069.2135.3125.4037.5647.599.7942.2088.2396.4423.4785.6933.708.0812.075.1956.0956.2974.055l1.4279-.5675.0765.0504c.416.2736.868.502,1.3439.6796l.085.0315.4156,1.5004c.0293.1058.117.1871.2235.207.657.1233,1.3193.1699,1.9635.1373.1092-.0056.2043-.0715.2484-.1724l.6227-1.4258.0888-.0189c.4939-.1058.9745-.2683,1.4285-.4834l.0824-.0389,1.3394.7598c.0954.0546.2112.0494.301-.0126.2798-.192.5444-.3955.7868-.6057.228-.2018.4584-.4319.7032-.7027.0734-.0813.0949-.2.0547-.3027l-.5661-1.4408.0502-.0781c.2754-.4274.5022-.8877.6739-1.3676l.031-.0869,1.4779-.4197c.1044-.0298.1825-.1153.2036-.2228Zm-.5117-.4011l-.0177.1139-1.4542.4134c-.093.0263-.1658.0974-.1954.1906-.187.5906-.461,1.1469-.8149,1.6531-.0563.0806-.0682.1829-.0324.2746l.5564,1.4163-.0798.0834c-.1587.1653-.3073.309-.4541.4389-.1582.137-.3246.2694-.4956.3952l-.0919.0676-1.3167-.7472c-.084-.048-.1854-.0501-.2713-.0049-.5429.2817-1.1235.4782-1.7258.5836-.0947.0168-.1743.0799-.2131.1689l-.6125,1.4016-.1143.0011c-.0258.0004-.0516.0004-.0776.0004-.3867,0-.7813-.0298-1.1739-.089l-.1137-.0168-.4079-1.4731c-.0258-.0932-.0956-.1671-.1866-.1976-.5881-.1955-1.1356-.4726-1.6273-.8229-.0791-.0568-.18-.069-.2702-.0333l-1.4038.5577-.0819-.0802c-.1515-.1478-.2971-.3016-.4331-.4575-.1293-.152-.2566-.3156-.3904-.5017l-.067-.0928.7389-1.3294c.0471-.0848.0493-.1871.0057-.2736-.268-.5335-.4619-1.1217-.5763-1.7481-.0173-.0949-.0798-.1745-.1672-.2126l-1.3856-.6113-.001-.1163c-.0038-.4316.0258-.8586.0881-1.2692l.0173-.1139,1.4549-.4151c.0921-.0263.165-.097.1949-.1892.1909-.591.4646-1.1462.8135-1.6507.0551-.0799.067-.1811.0322-.2718l-.5481-1.4223.0788-.0827c.1451-.1517.2979-.2995.4546-.4396.1703-.1461.3336-.2767.4965-.3966l.0923-.068,1.311.7511c.0847.049.1868.0504.2721.006.5425-.2827,1.1244-.4796,1.7294-.5854.0952-.0165.1754-.0802.2141-.1699l.6026-1.3978.1143-.0018c.421-.0091.845.0228,1.2556.0876l.1129.0179.4061,1.4713c.026.0939.0963.1678.188.1979.5817.1902,1.1296.4666,1.6285.8215.0789.0561.1795.069.2692.0329l1.4041-.5559.0819.0802c.162.1587.304.3097.4335.4614.1331.1538.2612.3167.3909.4964l.0673.0935-.7428,1.3277c-.0474.0851-.0495.1878-.0055.275.2808.5552.4761,1.1427.5803,1.746.0164.096.0791.1769.1676.2161l1.3851.6134.0009.1163c.0033.4326-.0268.8586-.0898,1.2657Z" style="fill:#efbb54;"/><path d="m478.9366,409.6513c-.521,0-1.0496-.0498-1.5767-.1489-.1371-.0255-.2501-.1301-.2877-.2663l-.4043-1.4594-.0455-.0167c-.4824-.18-.9401-.4115-1.3604-.6881l-.041-.027-1.3885.5519c-.1315.0525-.2785.0252-.383-.0711-.2507-.2291-.4861-.4696-.6996-.7143-.1982-.2328-.3902-.4875-.6049-.802-.0797-.1164-.0868-.2714-.018-.395l.732-1.3174-.0202-.0449c-.2073-.4538-.3688-.9442-.4799-1.4572l-.0104-.0483-1.3728-.6052c-.1302-.0577-.215-.1824-.2213-.3254-.031-.6876.0164-1.3642.1405-2.0112.0273-.1395.1278-.2499.2624-.2881l1.4398-.4106.0167-.0462c.176-.4854.405-.9498.6804-1.3807l.0265-.0413-.5427-1.4072c-.0509-.1322-.0243-.2798.0694-.3854.2215-.2491.4616-.4894.7135-.7145.2681-.2302.5278-.4301.795-.6117.1181-.0789.2666-.0849.3879-.0148l1.2956.7428.0444-.021c.4622-.2185.9493-.3834,1.448-.4902l.0479-.0102.5959-1.3821c.0566-.1306.1792-.2163.3198-.2237.682-.034,1.352.013,1.9923.1405.1376.0273.2462.1294.2838.2663l.4014,1.4545.0458.0169c.4781.1763.9366.4076,1.3626.6875l.0411.027,1.3893-.5498c.1318-.0524.2783-.0249.3826.0719.2713.2494.5001.4842.6994.7177.2068.2392.4051.501.6062.8.0799.1179.0861.2688.0166.3937l-.7351,1.3142.0207.0449c.2165.4691.3798.9603.4853,1.4603l.0101.0483,1.3718.6072c.1282.0567.215.1847.2208.3262.0294.6925-.0193,1.3681-.145,2.008h0c-.0273.1385-.1276.2485-.262.2867l-1.4372.4081-.0166.0467c-.1742.4863-.4039.9522-.6825,1.3849l-.0268.0418.5504,1.4008c.0516.1324.0238.2852-.0706.3896-.2459.272-.4781.5041-.7097.7091-.2444.212-.5117.4177-.7949.612-.116.0803-.2648.0865-.3878.0163l-1.3024-.7389-.0442.0208c-.4587.2174-.9453.3821-1.4462.4894l-.0477.0101-.6055,1.3868c-.0567.1296-.1792.2145-.3195.2218-.1347.0068-.2701.0102-.4059.0102Zm-3.6969-2.7929l.112.0738c.4101.2698.8567.4956,1.3274.6714l.1244.0462.4272,1.5413c.0209.0754.0832.1335.1591.1475.6523.1226,1.3067.1686,1.9444.1363.0779-.0041.1459-.0512.1774-.1231l.6396-1.4647.1302-.0276c.4884-.1047.963-.2654,1.4105-.4774l.1209-.0569,1.376.7807c.0683.0393.1507.0358.2145-.0088.2783-.1909.5406-.3928.7797-.6002.2263-.2003.4542-.4281.6959-.6956.0524-.0579.0677-.1426.0391-.2159l-.5819-1.4807.0734-.1141c.2719-.422.4958-.8764.6656-1.3506l.0453-.1273,1.5187-.4312c.0742-.0211.13-.0821.1451-.1589.1231-.6267.1708-1.2891.1417-1.9685-.0031-.0784-.0511-.1493-.1221-.1807l-1.4496-.6413-.0275-.132c-.1029-.4875-.2623-.9668-.4734-1.4246l-.0564-.1228.7765-1.3886c.0386-.0691.035-.1525-.0092-.2179-.1973-.2935-.3918-.5501-.5943-.7846-.1954-.2288-.4198-.459-.6862-.7041-.0587-.0545-.1379-.0691-.2118-.0397l-1.4682.581-.1119-.0738c-.4156-.2728-.8628-.4985-1.3292-.6706l-.1252-.0462-.4243-1.5369c-.0209-.0759-.0812-.1325-.1572-.1478-.6272-.1249-1.284-.1711-1.9521-.1376-.0779.0042-.1459.0519-.1774.1244l-.6296,1.4603-.1308.0281c-.4865.1041-.9615.265-1.4123.4782l-.1215.0574-1.3694-.7854c-.0672-.0385-.1498-.035-.2155.0086-.2616.1779-.5164.374-.7786.599-.246.2198-.4816.4558-.6988.7-.0521.0584-.0669.1403-.0386.2135l.5732,1.4865-.0722.1128c-.2689.4205-.4924.8738-.664,1.3475l-.0456.1262-1.5209.4337c-.0746.0211-.1303.0824-.1454.1598-.1217.6337-.1679,1.2972-.1377,1.9717.0037.0792.0506.1483.1229.1803l1.4499.639.0281.1314c.1086.5011.2663.9802.4686,1.4233l.0553.1223-.7732,1.3912c-.0381.0685-.0341.1543.01.2187.2115.3096.4.5597.5937.7872.2086.2394.4397.4753.6861.7005.058.0535.1395.068.2121.0393l1.4674-.5833Zm3.7027,2.2129c-.3918,0-.7908-.0302-1.186-.0901l-.1663-.0244-.4223-1.5252c-.0183-.0667-.0681-.1192-.1331-.141-.5956-.1981-1.1503-.4787-1.649-.8338-.0564-.0405-.1279-.0494-.1927-.0239l-1.453.5772-.12-.1174c-.1528-.1493-.3-.3047-.4376-.4623-.1311-.1543-.2603-.3202-.3952-.5078l-.0982-.1359.7648-1.3761c.0336-.0605.0352-.1335.0042-.1951-.2716-.5403-.468-1.1361-.5838-1.7706-.0124-.0676-.0569-.1242-.1191-.1514l-1.4348-.6328-.0014-.1706c-.0039-.4363.026-.8678.089-1.2824l.0254-.1667,1.5058-.4298c.0656-.0187.1176-.0693.1392-.1351.1933-.5985.4707-1.1611.8243-1.6724.0389-.0567.0476-.1293.0228-.194l-.5673-1.4717.1155-.1211c.1475-.1545.302-.3037.4591-.4442.175-.1501.3391-.2811.5027-.4015l.135-.0995,1.3572.7774c.0599.0348.1323.0366.194.0046.5499-.2867,1.1397-.4863,1.753-.5935.068-.0117.1252-.0571.1528-.1211l.6239-1.4468.1671-.0026c.4117-.0091.84.0207,1.2696.0885l.1652.0262.4202,1.5229c.0186.0668.0688.1197.1342.1411.5895.1928,1.1447.473,1.6503.8325.0567.0405.1286.0493.1916.0237l1.4539-.5756.1197.1174c.1647.1613.3081.314.4384.4667.1332.1538.2628.3181.3952.5018l.0987.1369-.769,1.3745c-.0337.0605-.0352.1338-.0039.1961.2845.5626.4823,1.1581.588,1.7694.0117.0686.0564.1262.1197.1543l1.4337.635.0014.1702c.0032.4384-.0273.8688-.0908,1.2792l-.0259.1668-1.5052.4278c-.0662.0187-.1181.0694-.1393.1359-.1895.5987-.4673,1.1624-.8259,1.6756-.04.0572-.0487.1306-.0231.1961l.576,1.466-.1167.1221c-.162.1686-.3123.3137-.4591.4436-.1588.1376-.3272.2719-.5014.3998l-.1345.099-1.3626-.7732c-.0603-.0343-.1323-.0358-.1932-.0037-.5509.2859-1.1394.4849-1.7498.5917-.0673.012-.1242.0571-.1517.1203l-.634,1.4509-.2457.002Zm-1.2228-.2637l.0609.0089c.3873.0587.7781.0883,1.1619.0883l.138-.001.5911-1.3525c.0498-.1143.1522-.1956.2742-.2171.594-.1041,1.1667-.2977,1.7024-.5758.1101-.0576.2406-.0556.3494.0065l1.2704.721.0493-.0363c.1707-.1255.3357-.2571.4905-.3911.1429-.1263.2899-.2685.4487-.4337l.0426-.0446-.5368-1.3664c-.0461-.1182-.0304-.2504.0418-.3537.3489-.4992.6192-1.0476.8035-1.6303.0381-.12.1323-.2117.2518-.2454l1.4031-.3989.0095-.0611c.0622-.4015.0921-.8228.0889-1.2522l-.0005-.0623-1.3361-.5917c-.1141-.0507-.1946-.1546-.2158-.2784-.1029-.5948-.2954-1.1743-.5724-1.7221-.0566-.1122-.0538-.2444.0071-.3538l.7169-1.2811-.0362-.0501c-.1295-.1797-.256-.3402-.3863-.4907-.1276-.1493-.2676-.2984-.4288-.4563l-.0439-.0429-1.3549.5364c-.1147.0462-.2444.0302-.3465-.0424-.4921-.3501-1.0327-.6226-1.6064-.8104-.1181-.0387-.2084-.1338-.242-.2546l-.392-1.4198-.0604-.0096c-.4196-.0662-.8368-.0946-1.2411-.0865l-.0619.001-.5814,1.3486c-.05.1156-.153.1972-.2756.2187-.5967.1042-1.1706.2984-1.7057.5772-.1115.0579-.2427.055-.3507-.0078l-1.2644-.7244-.0495.0364c-.1602.1179-.3211.2463-.4918.3927-.1527.1366-.3041.2829-.4485.434l-.0423.0442.529,1.3727c.0445.1166.0291.2472-.0413.3496-.3444.4979-.6144,1.0459-.8027,1.629-.0387.1187-.1324.2096-.2509.2436l-1.4039.4005-.0093.061c-.0616.4057-.091.8283-.0871,1.2556l.0005.0624,1.3368.5898c.1123.0491.1928.1515.2152.2738.1131.6187.3045,1.1992.5687,1.7254.0561.1114.0534.2429-.0074.3522l-.7127,1.2828.0357.0496c.1324.1841.2587.3465.3863.4964.1339.1533.2782.3057.428.452l.0439.0429,1.3546-.5382c.1159-.0457.246-.0299.3478.0429.4852.3457,1.0253.6189,1.6055.8119.1172.039.207.1341.2401.2541l.3934,1.4208Z" style="fill:#efbb54;"/></g><g><path d="m478.922,403.9962c-1.4257,0-2.5856-1.1736-2.5856-2.6162s1.1599-2.6161,2.5856-2.6161,2.5856,1.1736,2.5856,2.6161-1.1599,2.6162-2.5856,2.6162Zm0-4.8232c-1.2028,0-2.1813.9901-2.1813,2.2071s.9785,2.2071,2.1813,2.2071,2.1813-.9901,2.1813-2.2071-.9785-2.2071-2.1813-2.2071Z" style="fill:#efbb54;"/><path d="m478.922,404.1626c-1.5164,0-2.75-1.2483-2.75-2.7826s1.2336-2.7826,2.75-2.7826,2.7502,1.2483,2.7502,2.7826-1.2337,2.7826-2.7502,2.7826Zm0-5.2322c-1.3348,0-2.4209,1.0989-2.4209,2.4496s1.0861,2.4496,2.4209,2.4496,2.421-1.0989,2.421-2.4496-1.0861-2.4496-2.421-2.4496Zm0,4.8233c-1.2935,0-2.3458-1.0649-2.3458-2.3737s1.0523-2.3735,2.3458-2.3735,2.346,1.0647,2.346,2.3735-1.0525,2.3737-2.346,2.3737Zm0-4.4142c-1.1121,0-2.0167.9153-2.0167,2.0405s.9046,2.0407,2.0167,2.0407,2.0169-.9155,2.0169-2.0407-.9048-2.0405-2.0169-2.0405Z" style="fill:#efbb54;"/></g></g></g></svg>