<?xml version="1.0" encoding="UTF-8"?><svg xmlns="http://www.w3.org/2000/svg" xmlns:xlink="http://www.w3.org/1999/xlink" viewBox="0 0 552 376"><defs><filter id="b" filterUnits="userSpaceOnUse"><feOffset dx="4.2025" dy="4.2025"/><feGaussianBlur result="c" stdDeviation="0"/><feFlood flood-color="#000" flood-opacity=".08"/><feComposite in2="c" operator="in"/><feComposite in="SourceGraphic"/></filter><linearGradient id="d" x1="-1879.333" y1="1205.2637" x2="-1790.3614" y2="1294.2353" gradientTransform="translate(1545.4365 1972.8105) rotate(90)" gradientUnits="userSpaceOnUse"><stop offset="0" stop-color="#fcf5b8"/><stop offset="1" stop-color="#f7c959" stop-opacity="0"/></linearGradient></defs><g style="isolation:isolate;"><g id="a"><g><path d="m410.7227,120.0602c-93.3172-49.4761-88.4433-147.4877-210.6532-101.7512C115.4104,49.9925,59.2989,154.7798,72.246,244.5043c9.7667,67.6854,41.9899,117.8698,102.1425,101.618,60.152-16.2519,111.2854,3.476,157.5146,16.1996,58.1784,16.013,148.3469-34.039,163.0113-102.7352,14.6638-68.6965-20.4198-105.7154-84.1917-139.5265Z" style="fill:#ccd6c1; filter:url(#b); opacity:.2;"/><ellipse cx="339.5971" cy="344.4868" rx="87.1085" ry="10.6071" style="fill:#5e8436; mix-blend-mode:multiply; opacity:.36;"/><ellipse cx="194.8742" cy="327.0649" rx="50.5512" ry="8.4689" style="fill:#5e8436; mix-blend-mode:multiply; opacity:.36;"/><g><g><path d="m343.5909,82.736c-39.9218-27.9901-94.9754-18.3176-122.9655,21.6043-14.3825,20.5135-18.819,45.0216-14.318,67.8006,1.5003,7.593,6.8104,21.57.3527,31.6724-5.2656,8.2376-9.701,13.9112-13.2278,19.6461-7.7493,12.601-7.2642,16.1919-7.2642,16.1919,0,0,10.483,12.7677,29.2356,25.9158,18.7528,13.1479,34.3292,18.651,34.3292,18.651,0,0,3.5412-.768,12.7461-12.3484,4.1892-5.2704,8.0112-11.3741,13.9606-19.1322,7.2962-9.5145,22.2461-9.2868,29.8958-10.4645,22.9491-3.5331,44.4772-16.0579,58.8597-36.5714,27.9901-39.9218,18.3176-94.9754-21.6043-122.9655Z" style="fill:#f1b146;"/><path d="m308.4417,72.8107c11.7137,2.2054,22.6436,6.8226,32.4862,13.7235,18.2934,12.826,30.4973,32.0081,34.3634,54.0128,3.8661,22.0048-1.0683,44.198-13.8943,62.4914-6.6626,9.5026-15.0189,17.3612-24.8371,23.3576-9.4861,5.7936-19.8926,9.5928-30.9303,11.2922-1.198.1844-2.6892.3415-4.2679.5079-8.4983.8955-21.3412,2.2486-28.6032,11.7186-3.0427,3.9678-5.5574,7.5365-7.776,10.6851-2.2168,3.146-4.1314,5.863-6.1348,8.3835-4.9575,6.2369-7.9971,8.9686-9.5024,10.1103-4.6416-1.8808-17.0745-7.3659-31.2785-17.3246-14.2052-9.9596-23.6004-19.7795-26.949-23.5.5602-1.8043,2.0922-5.5931,6.2657-12.3796,1.6866-2.7424,3.5882-5.4683,5.79-8.6246,2.2038-3.1591,4.7017-6.7399,7.3949-10.9531,6.4274-10.055,3.322-22.5899,1.2669-30.8845-.3817-1.5409-.7423-2.9963-.9773-4.1855-2.1648-10.9558-2.1403-22.0341.0729-32.9271,2.2905-11.274,6.8301-21.8087,13.4925-31.3113,9.411-13.4227,22.4031-23.6973,37.5715-29.7129,14.7924-5.8665,30.8534-7.4155,46.4467-4.4797m.8583-4.5586c-33.0155-6.216-68.133,6.7901-88.6746,36.0882-14.3824,20.5135-18.819,45.0216-14.318,67.8006,1.5003,7.593,6.8104,21.57.3526,31.6724-5.2656,8.2377-9.7009,13.9113-13.2278,19.6461-7.7493,12.601-7.2641,16.192-7.2641,16.192,0,0,10.483,12.7677,29.2356,25.9157,18.7528,13.1479,34.3292,18.651,34.3292,18.651,0,0,3.5412-.768,12.7461-12.3484,4.1892-5.2704,8.0112-11.3741,13.9606-19.1323,7.2963-9.5146,22.2461-9.2868,29.8958-10.4645,22.9491-3.5331,44.4771-16.0579,58.8597-36.5714,27.9902-39.9218,18.3176-94.9753-21.6042-122.9654-10.6238-7.4485-22.3192-12.23-34.2909-14.484h0Z" style="fill:#fff6e1; opacity:.6;"/><path d="m309.3,68.252c11.9717,2.254,23.6671,7.0354,34.2909,14.484,39.9218,27.9901,49.5944,83.0436,21.6042,122.9654-14.3825,20.5136-35.9106,33.0383-58.8597,36.5714-7.6497,1.1777-22.5996.95-29.8958,10.4645-5.9494,7.7582-9.7713,13.8619-13.9606,19.1323-9.2049,11.5804-12.7461,12.3484-12.7461,12.3484,0,0-15.5764-5.5031-34.3292-18.651-18.7526-13.148-29.2356-25.9157-29.2356-25.9157,0,0-.4851-3.591,7.2641-16.192,3.5268-5.7349,7.9622-11.4085,13.2278-19.6461,6.4577-10.1024,1.1477-24.0793-.3526-31.6724-4.501-22.779-.0645-47.2871,14.318-67.8006,20.5416-29.2981,55.6591-42.3042,88.6746-36.0882m.8583-4.5586c-17.3203-3.261-35.1574-1.5413-51.5834,4.973-16.8575,6.6855-31.2936,18.1004-41.7477,33.0109-7.3992,10.5534-12.4418,22.2585-14.988,34.7902-2.4587,12.1018-2.4864,24.4067-.0825,36.5727.2779,1.4065.6644,2.9664,1.0736,4.618,1.7732,7.1576,4.2018,16.9604-.0787,23.6567-2.5923,4.0556-5.0333,7.5547-7.187,10.6418-2.1891,3.138-4.2567,6.102-6.0836,9.0727-5.5565,9.0354-8.3656,15.8693-7.9098,19.243l.1763,1.3049.8356,1.0177c.4444.5414,11.1046,13.4117,30.1577,26.7703,19.0533,13.3585,34.7865,18.9932,35.447,19.2266l1.2415.4387,1.2869-.2791c3.327-.7215,8.7941-5.6918,15.3943-13.9953,2.1702-2.7303,4.252-5.6847,6.4559-8.8125,2.1682-3.0768,4.6256-6.5642,7.5544-10.3834,4.8363-6.3068,14.8798-7.365,22.2133-8.1377,1.6921-.1783,3.2903-.3467,4.7073-.5649,12.2569-1.887,23.8154-6.1074,34.3543-12.544,10.9133-6.6652,20.1986-15.3958,27.5977-25.9492,14.2487-20.3225,19.7304-44.9773,15.4354-69.4228-4.2948-24.4455-17.8523-45.7552-38.1749-60.0038-10.9311-7.6641-23.0754-12.793-36.0956-15.2444h0Z" style="fill:#fff6e1; opacity:.32;"/><ellipse cx="295.687" cy="137.9633" rx="59.074" ry="66.5285" transform="translate(12.9749 300.8698) rotate(-54.9648)" style="fill:url(#d);"/><ellipse cx="220.2719" cy="258.6238" rx="5.6839" ry="32.4792" transform="translate(-117.9428 290.5117) rotate(-54.9648)" style="fill:#0d657f;"/><path d="m249.0325,284.0534s-15.2655-5.2851-33.5707-18.1192c-18.3052-12.8343-28.4772-25.384-28.4772-25.384,0,0-.2324-1.2569-.561-.5941-2.9066,5.8633-2.7172,7.7217-2.7172,7.7217,0,0,9.6666,12.1953,27.2442,24.5195,17.5777,12.324,32.3377,17.2547,32.3377,17.2547,0,0,1.8319-.4597,6.4103-5.2671.302-.3172-.666-.1314-.666-.1314Z" style="fill:#5d819f;"/><g><path d="m183.0393,323.4224l-11.3822-7.9803c-11.3577-7.9631.5254-13.9978-12.9993-25.3908h0c4.208-6.0019,16.9436-4.3972,28.3012,3.5659l11.3822,7.9803c11.3577,7.9631,17.2074,19.389,12.9993,25.3908h0c-13.8274-7.9755-16.9436,4.3972-28.3012-3.5659Z" style="fill:#1f638b; opacity:.5;"/><g><path d="m238.2898,288.7583c-3.6889-1.3186-13.9613-5.4988-28.0622-15.3851-13.1757-9.2379-20.9317-17.3144-24.088-20.9078-1.1182-1.273-9.4475,4.4277-9.4475,4.4277,0,0,10.8043,12.2825,27.9386,24.2959,17.1344,12.0132,32.0766,17.8815,32.0766,17.8815,0,0,2.5617-9.9622,1.5826-10.3122Z" style="fill:#144a5b;"/><path d="m238.9792,286.762c-3.6327-1.2793-13.7446-5.3468-27.5897-15.0538-12.9366-9.0703-20.5295-17.0323-23.6167-20.5773-1.0937-1.2559-9.3704,4.4818-9.3704,4.4818,0,0,10.5681,12.1169,27.3915,23.9124,16.8236,11.7952,31.5339,17.501,31.5339,17.501,0,0,2.6155-9.9245,1.6513-10.264Z" style="fill:#195871;"/><path d="m228.084,285.1434c-5.2429-2.7925-11.6156-6.5232-18.3394-11.2374-12.6471-8.8673-21.7576-17.9149-25.5022-21.8611-2.5543,1.3175-5.5429,3.3687-5.8011,3.5468.0116.0286.0231.0571.0348.0857.8281.9373,11.2013,12.5348,27.3314,23.8442,2.5547,1.7911,5.0592,3.4397,7.4724,4.9513,5.3606,1.367,10.4604,1.5968,14.8043.6706Z" style="fill:#3488a2; opacity:.7;"/><g style="opacity:.7;"><path d="m232.7944,295.0537c2.8619,1.3121,4.5395,1.9636,4.5395,1.9636,0,0,.9689-3.6784,1.5098-6.6332-1.0001-.4365-2.2981-1.0227-3.8187-1.7436-.3442,2.2693-1.0832,4.4302-2.2306,6.4131Z" style="fill:#7cbdd7;"/><path d="m187.0882,254.9531c-1.1496-1.1419-2.111-2.1312-2.8532-2.9134-2.6716,1.378-5.8265,3.5643-5.8265,3.5643,0,0,1.1891,1.3619,3.3945,3.6097,1.4794-1.7472,3.2647-3.1705,5.2852-4.2605Z" style="fill:#7cbdd7;"/></g><path d="m204.2275,274.7454c7.1091,4.9843,14.4731,7.9198,20.1123,8.4215-4.354-2.4629-9.2461-5.4685-14.3426-9.0418-9.3184-6.5334-16.7073-13.1576-21.4541-17.7741,1.6908,5.5995,7.4559,12.6252,15.6845,18.3944Z" style="fill:#7cbdd7; opacity:.5;"/></g><path d="m167.6137,311.6219c.827,1.2579,2.0664,2.5352,3.9657,3.8669l11.3822,7.9803c1.879,1.3174,3.5294,2.07,5.043,2.4585-2.9838-2.5783-6.295-5.1674-9.8734-7.6763-3.5561-2.4932-7.0967-4.7113-10.5176-6.6294Z" style="fill:#195871;"/><g><path d="m232.18,298.3125c-3.6889-1.3186-13.9613-5.4988-28.0622-15.3851-13.1757-9.2379-20.9317-17.3144-24.088-20.9078-1.1182-1.273-9.4475,4.4277-9.4475,4.4277,0,0,10.8043,12.2825,27.9386,24.2959,17.1344,12.0132,32.0766,17.8815,32.0766,17.8815,0,0,2.5617-9.9622,1.5826-10.3122Z" style="fill:#144a5b;"/><path d="m232.8694,296.3162c-3.6327-1.2793-13.7446-5.3468-27.5897-15.0538-12.9366-9.0703-20.5295-17.0323-23.6167-20.5773-1.0937-1.2559-9.3704,4.4818-9.3704,4.4818,0,0,10.5681,12.1169,27.3915,23.9124,16.8236,11.7952,31.5339,17.501,31.5339,17.501,0,0,2.6155-9.9245,1.6513-10.264Z" style="fill:#195871;"/><path d="m221.9742,294.6976c-5.2429-2.7925-11.6156-6.5232-18.3394-11.2374-12.6471-8.8673-21.7576-17.9149-25.5022-21.8611-2.5543,1.3175-5.5429,3.3687-5.8011,3.5468.0116.0286.0231.0571.0348.0857.8281.9373,11.2013,12.5348,27.3314,23.8442,2.5547,1.7911,5.0592,3.4397,7.4724,4.9513,5.3606,1.367,10.4604,1.5968,14.8043.6706Z" style="fill:#3488a2; opacity:.7;"/><g style="opacity:.7;"><path d="m226.6846,304.608c2.8619,1.3121,4.5395,1.9636,4.5395,1.9636,0,0,.9689-3.6784,1.5098-6.6332-1.0001-.4365-2.2981-1.0227-3.8187-1.7436-.3442,2.2693-1.0832,4.4302-2.2306,6.4131Z" style="fill:#7cbdd7;"/><path d="m180.9784,264.5074c-1.1496-1.1419-2.111-2.1312-2.8532-2.9134-2.6716,1.378-5.8265,3.5643-5.8265,3.5643,0,0,1.1891,1.3619,3.3945,3.6097,1.4794-1.7472,3.2647-3.1705,5.2852-4.2605Z" style="fill:#7cbdd7;"/></g><path d="m198.1177,284.2997c7.1091,4.9843,14.4731,7.9198,20.1123,8.4215-4.354-2.4629-9.2461-5.4685-14.3426-9.0418-9.3184-6.5334-16.7073-13.1576-21.4541-17.7741,1.6908,5.5995,7.4559,12.6252,15.6845,18.3944Z" style="fill:#7cbdd7; opacity:.5;"/></g><g><path d="m225.5616,307.885c-3.6889-1.3186-13.9613-5.4988-28.0622-15.3851-13.1757-9.2379-20.9317-17.3144-24.088-20.9078-1.1182-1.273-9.4475,4.4277-9.4475,4.4277,0,0,10.8043,12.2825,27.9386,24.2959,17.1344,12.0132,32.0766,17.8815,32.0766,17.8815,0,0,2.5617-9.9622,1.5826-10.3122Z" style="fill:#144a5b;"/><path d="m226.251,305.8886c-3.6327-1.2793-13.7446-5.3468-27.5897-15.0538-12.9366-9.0703-20.5295-17.0323-23.6167-20.5773-1.0937-1.2559-9.3704,4.4818-9.3704,4.4818,0,0,10.5681,12.1169,27.3915,23.9124,16.8236,11.7952,31.5339,17.501,31.5339,17.501,0,0,2.6155-9.9245,1.6513-10.264Z" style="fill:#195871;"/><path d="m215.3558,304.2701c-5.2429-2.7925-11.6156-6.5232-18.3394-11.2374-12.6471-8.8673-21.7576-17.9149-25.5022-21.8611-2.5543,1.3175-5.5429,3.3687-5.8011,3.5468.0116.0286.0231.0571.0348.0857.8281.9373,11.2013,12.5348,27.3314,23.8442,2.5547,1.7911,5.0592,3.4397,7.4724,4.9513,5.3606,1.367,10.4604,1.5968,14.8043.6706Z" style="fill:#3488a2; opacity:.7;"/><g style="opacity:.7;"><path d="m220.0662,314.1804c2.8619,1.3121,4.5395,1.9636,4.5395,1.9636,0,0,.9689-3.6784,1.5098-6.6332-1.0001-.4365-2.2981-1.0227-3.8187-1.7436-.3442,2.2693-1.0832,4.4302-2.2306,6.4131Z" style="fill:#7cbdd7;"/><path d="m174.36,274.0798c-1.1496-1.1419-2.111-2.1312-2.8532-2.9134-2.6716,1.378-5.8265,3.5643-5.8265,3.5643,0,0,1.1891,1.3619,3.3945,3.6097,1.4794-1.7472,3.2647-3.1705,5.2852-4.2605Z" style="fill:#7cbdd7;"/></g><path d="m191.4993,293.8721c7.1091,4.9843,14.4731,7.9198,20.1123,8.4215-4.354-2.4629-9.2461-5.4685-14.3426-9.0418-9.3184-6.5334-16.7073-13.1576-21.4541-17.7741,1.6908,5.5995,7.4559,12.6252,15.6845,18.3944Z" style="fill:#7cbdd7; opacity:.5;"/></g><g><path d="m218.8131,317.5102c-3.6889-1.3186-13.9613-5.4988-28.0622-15.3851-13.1757-9.2379-20.9317-17.3144-24.088-20.9078-1.1182-1.273-9.4475,4.4277-9.4475,4.4277,0,0,10.8043,12.2825,27.9386,24.2959,17.1344,12.0132,32.0766,17.8815,32.0766,17.8815,0,0,2.5617-9.9622,1.5826-10.3122Z" style="fill:#144a5b;"/><path d="m219.5026,315.5138c-3.6327-1.2793-13.7446-5.3468-27.5897-15.0538-12.9366-9.0703-20.5295-17.0323-23.6167-20.5773-1.0937-1.2559-9.3704,4.4818-9.3704,4.4818,0,0,10.5681,12.1169,27.3915,23.9124,16.8236,11.7952,31.5339,17.501,31.5339,17.501,0,0,2.6155-9.9245,1.6513-10.264Z" style="fill:#195871;"/><path d="m208.6073,313.8953c-5.2429-2.7925-11.6156-6.5232-18.3394-11.2374-12.6471-8.8673-21.7576-17.9149-25.5022-21.8611-2.5543,1.3175-5.5429,3.3687-5.8011,3.5468.0116.0286.0231.0571.0348.0857.8281.9373,11.2013,12.5348,27.3314,23.8442,2.5547,1.7911,5.0592,3.4397,7.4724,4.9513,5.3606,1.367,10.4604,1.5968,14.8043.6706Z" style="fill:#3488a2; opacity:.7;"/><g style="opacity:.7;"><path d="m213.3177,323.8056c2.8619,1.3121,4.5395,1.9636,4.5395,1.9636,0,0,.9689-3.6784,1.5098-6.6332-1.0001-.4365-2.2981-1.0227-3.8187-1.7436-.3442,2.2693-1.0832,4.4302-2.2306,6.4131Z" style="fill:#7cbdd7;"/><path d="m167.6116,283.705c-1.1496-1.1419-2.111-2.1312-2.8532-2.9134-2.6716,1.378-5.8265,3.5643-5.8265,3.5643,0,0,1.1891,1.3619,3.3945,3.6097,1.4794-1.7472,3.2647-3.1705,5.2852-4.2605Z" style="fill:#7cbdd7;"/></g><path d="m184.7509,303.4973c7.1091,4.9843,14.4731,7.9198,20.1123,8.4215-4.354-2.4629-9.2461-5.4685-14.3426-9.0418-9.3184-6.5334-16.7073-13.1576-21.4541-17.7741,1.6908,5.5995,7.4559,12.6252,15.6845,18.3944Z" style="fill:#7cbdd7; opacity:.5;"/></g></g><g><path d="m298.1512,194.7437l3.0253,2.1211c-8.3467,11.9048-20.061,19.8291-27.0602,24.5637-2.6793,1.8132-5.2105,3.5254-5.7615,4.3112l-28.8242,41.1114-3.0253-2.1211,28.8242-41.1114c.942-1.3435,3.2393-2.898,6.717-5.2498,6.7871-4.5925,18.149-12.278,26.1047-23.6252Z" style="fill:#153f5e;"/><g><path d="m247.6648,167.5466l.4374-.3553,2.2226,2.4437.0264-.0146h0c1.293,1.4594,3.1004,2.4371,5.014,2.8713-.8765-1.772-1.2612-3.7373-.9659-5.594.6835-4.2982,4.7424-6.4076,9.0479-4.702h.0001s-.0307.1929-.0307.1929l.1709-.0946h0c3.071,3.4663,2.4715,8.0012-1.3363,10.1088-1.6449.9104-3.6236,1.2187-5.5883.9987,1.0605,1.6509,2.5957,3.0169,4.4084,3.735h.0001s-.0233.1467-.0233.1467l.13-.0719h0c1.293,1.4594,3.1004,2.4371,5.014,2.8713-.8765-1.7721-1.2612-3.7373-.9659-5.594.6835-4.2982,4.7424-6.4076,9.0479-4.702h.0001s-.0307.1929-.0307.1929l.1709-.0946h0c3.071,3.4663,2.4715,8.0012-1.3363,10.1088-1.6449.9104-3.6236,1.2187-5.5883.9987,1.0605,1.6509,2.5957,3.0169,4.4084,3.735h.0001s-.064.4022-.064.4022l.3563-.1972h0c1.293,1.4595,3.1004,2.4371,5.014,2.8713-.8765-1.7721-1.2612-3.7373-.966-5.594.6835-4.2982,4.7424-6.4076,9.0479-4.702h0s-.0307.1929-.0307.1929l.1708-.0946h0c3.071,3.4663,2.4715,8.0012-1.3363,10.1088-1.6449.9104-3.6236,1.2187-5.5882.9987,1.0605,1.6509,2.5957,3.0169,4.4084,3.735h0s-.0233.1467-.0233.1467l.1299-.0719h0c1.293,1.4595,3.1004,2.4371,5.014,2.8713-.8765-1.7721-1.2612-3.7373-.966-5.594.6835-4.2982,4.7424-6.4076,9.0479-4.702h0s-.0307.1929-.0307.1929l.1708-.0946h0c3.071,3.4663,2.4715,8.0012-1.3363,10.1088-1.6449.9104-3.6236,1.2187-5.5882.9987,1.0605,1.6509,2.5957,3.0169,4.4084,3.735h0s-.0044.0275-.0044.0275l3.0462,1.2529-.1849.5323-2.952-1.2142-.0081.0511h-.0001c-2.1688-.8592-3.9911-2.5258-5.1801-4.517-2.2032-.4247-4.3175-1.5157-5.8539-3.1672-2.0763-.8815-3.8227-2.4972-4.9729-4.4237-2.2408-.432-4.3921-1.5507-5.9344-3.25-2.1232-.8707-3.9083-2.5117-5.0782-4.4711-2.2032-.4247-4.3175-1.5157-5.8539-3.1672-2.0763-.8815-3.8227-2.4972-4.9729-4.4237-2.2772-.439-4.4652-1.5841-6.0122-3.3301h0s.0432-.024.0432-.024l-2.1541-2.3684Zm46.6764,27.109c3.4302-1.8986,4.061-5.8887,1.4692-8.9754-3.7854-1.3844-7.3214.5687-7.9371,4.4406-.2886,1.815.1203,3.7352,1.0158,5.4311,1.8997.2638,3.8442-.0063,5.4521-.8963Zm-10.8268-7.591c3.4302-1.8986,4.061-5.8887,1.4692-8.9754-3.7854-1.3844-7.3214.5687-7.9371,4.4406-.2886,1.815.1203,3.7352,1.0158,5.4311,1.8997.2638,3.8442-.0063,5.4521-.8963Zm-11.0125-7.7211c3.4302-1.8986,4.0609-5.8887,1.4692-8.9755-3.7854-1.3844-7.3214.5687-7.9371,4.4406-.2886,1.815.1203,3.7352,1.0158,5.4311,1.8997.2638,3.8442-.0063,5.4521-.8963Zm-10.8268-7.591c3.4302-1.8986,4.0609-5.8887,1.4692-8.9755-3.7854-1.3844-7.3214.5687-7.9371,4.4406-.2886,1.815.1203,3.7352,1.0158,5.4311,1.8997.2638,3.8442-.0063,5.4521-.8963Z" style="fill:#153f5e;"/><path d="m263.6861,161.7087l.1156.1306.1622.0641-.0159.1012c1.6118,1.8274,2.3294,4.069,1.9717,6.1538-.3347,1.9544-1.5576,3.6044-3.444,4.6482-1.3981.7747-3.0994,1.1617-4.8713,1.1214.9779,1.242,2.2195,2.2051,3.575,2.7544l.0994-.0537.1283.1439.179.0715-.0166.1117c.9771,1.0828,2.3047,1.9233,3.8066,2.421-.6419-1.652-.858-3.3833-.6048-4.9607.3378-2.1285,1.4726-3.8414,3.1939-4.8225,1.839-1.0484,4.1944-1.1365,6.4628-.2424l.0887-.048.1116.1267.1622.0641-.0169.0995c1.6133,1.8285,2.3324,4.0711,1.9731,6.1548-.3347,1.9544-1.5582,3.6051-3.4446,4.6489-1.3981.7747-3.0994,1.1617-4.8713,1.1214.993,1.2581,2.255,2.2299,3.6385,2.7802l.222.051.0507.0565.0704.0284-.0065.0439.1302.1475c.9816,1.1046,2.3252,1.9663,3.8524,2.4719-.6419-1.652-.858-3.3833-.6048-4.9607.3378-2.1285,1.4726-3.8414,3.1939-4.8225,1.839-1.0484,4.1944-1.1365,6.4628-.2424l.0887-.048.1116.1267.1622.0641-.0169.0995c1.6133,1.8285,2.3324,4.0711,1.9731,6.1548-.3347,1.9544-1.5582,3.6051-3.4446,4.6489-1.3981.7747-3.0994,1.1617-4.8713,1.1214.9779,1.242,2.2195,2.2051,3.575,2.7544l.0994-.0537.1283.1439.179.0715-.0166.1117c.98,1.0881,2.3072,1.9261,3.8081,2.422-.6419-1.652-.858-3.3833-.6062-4.9618.3378-2.1285,1.4726-3.8414,3.1939-4.8225,1.8384-1.0477,4.1924-1.1368,6.4613-.2434l.0878-.0497.1156.1306.1572.0618-.0149.0998c1.6138,1.8277,2.3339,4.0721,1.9751,6.1583-.3356,1.9526-1.5591,3.6033-3.4455,4.6472-1.3976.774-3.0989,1.161-4.8707,1.1206.993,1.2581,2.255,2.2299,3.6385,2.7802l.3397.1346-.0048.0319,3.1161,1.2814-.49,1.4059-3.4054-1.3465c-2.128-.8398-4.0066-2.45-5.2986-4.5324-2.2546-.4769-4.3085-1.5919-5.8086-3.167l-.075.041.013-.0845c-1.9965-.8765-3.7439-2.4255-4.9573-4.3812-2.2611-.477-4.31-1.593-5.8122-3.1651l-.2956.164.0534-.3338c-1.99-.8763-3.7404-2.4242-4.9582-4.3863-2.2522-.4741-4.3071-1.5909-5.8071-3.1659l-.075.041.013-.0845c-1.9979-.8775-3.7439-2.4255-4.9573-4.3812-2.3982-.5015-4.5449-1.7169-6.0685-3.4373l-.3823-.4322.036-.0199-2.0907-2.2976,1.1577-.9378,2.2654,2.4917.0041-.0027.2755.267c.9879,1.1113,2.3302,1.9687,3.8539,2.4729-.6419-1.652-.858-3.3833-.6062-4.9618.3383-2.1292,1.4726-3.8414,3.1959-4.8222,1.8379-1.047,4.1899-1.1364,6.4573-.244l.0898-.0494Zm-7.1634,10.5124c1.795.2053,3.537-.1014,4.928-.8723h0c1.4909-.8254,2.4654-2.1053,2.7428-3.6041.2849-1.5376-.1764-3.1456-1.2988-4.5428l-.0867.0483.0148-.0965c-1.6937-.5761-3.3591-.4603-4.7065.3302-1.315.7724-2.1861,2.1249-2.4533,3.8071-.2506,1.5705.0549,3.3127.8597,4.9302Zm21.839,15.3119c1.795.2053,3.537-.1014,4.928-.8723h0c1.4909-.8254,2.4654-2.1053,2.7428-3.6041.2849-1.5376-.1764-3.1456-1.2988-4.5428l-.0867.0483.0148-.0965c-1.6937-.5761-3.3591-.4603-4.7065.3302-1.315.7724-2.1861,2.1249-2.4533,3.8071-.2496,1.5722.0558,3.3144.8597,4.9302Zm17.1192-1.3751l.0158-.098c-1.6961-.5789-3.3645-.4651-4.713.3268-1.315.7724-2.1875,2.1238-2.4553,3.8068-.2496,1.5722.0568,3.3162.8612,4.9312,1.793.205,3.535-.1017,4.928-.8723h0c1.4909-.8254,2.4639-2.1063,2.7419-3.6059.2853-1.5351-.174-3.1395-1.2929-4.5354l-.0857.0468Zm-23.2023-7.2174c1.4909-.8254,2.4639-2.1063,2.7419-3.6059.2849-1.5376-.1769-3.1448-1.2993-4.5421l-.0867.0483.0148-.0965c-1.6937-.5761-3.3591-.4603-4.7065.3302-1.315.7724-2.1861,2.1249-2.4533,3.8071-.2496,1.5722.0558,3.3144.8597,4.9302,1.795.2053,3.537-.1014,4.9295-.8713h0Z" style="fill:#153f5e;"/></g><path d="m250.3665,161.2408l3.0253,2.1211c-7.9558,11.3472-11.3077,24.6476-13.3106,32.5954-1.0255,4.0711-1.7038,6.7607-2.6458,8.1042l-28.8242,41.1114-3.0253-2.1211,28.8242-41.1114c.551-.7859,1.2978-3.7491,2.0892-6.886,2.0638-8.1949,5.5205-21.9088,13.8673-33.8136Z" style="fill:#153f5e;"/></g></g><path d="m237.3122,287.4457c-3.6328-1.2793-13.7446-5.3469-27.5897-15.0539-12.9366-9.0703-20.5294-17.0324-23.6167-20.5774-.4176-.4795-1.883.0616-3.5344.9126-.0011-.0012-.0023-.0025-.0034-.0036-2.6716,1.378-5.8266,3.5643-5.8266,3.5643,0,0,.0022.0023.0025.0027-.002.0014-.0085.0059-.0085.0059,0,0,.0315.0359.0901.1021-1.0627.6738-1.8006,1.1784-1.8006,1.1784,0,0,1.2535,1.4245,3.5814,3.7765-.6102.1873-1.3551.521-2.1448.9279-.0011-.0012-.0023-.0025-.0034-.0036-2.6716,1.378-5.8265,3.5643-5.8265,3.5643,0,0,.0021.0025.0023.0027-.002.0014-.0085.0059-.0085.0059,0,0,.0315.0359.0901.1021-1.0627.6738-1.8006,1.1784-1.8006,1.1784,0,0,1.221,1.3876,3.49,3.6839-.6686.1382-1.5825.534-2.5619,1.0387-.0012-.0012-.0023-.0025-.0034-.0036-2.6716,1.378-5.8265,3.5643-5.8265,3.5643,0,0,.0021.0025.0023.0028-.002.0013-.0085.0058-.0085.0058,0,0,.0315.0359.0901.1021-1.0628.674-1.8006,1.1784-1.8006,1.1784,0,0,1.2306,1.3984,3.5168,3.7111-.6787.1027-1.6589.5182-2.7188,1.0643l-.0035-.0035c-2.6716,1.378-5.8265,3.5642-5.8265,3.5642,0,0,.0021.0025.0025.0028-.002.0014-.0085.0059-.0085.0059,0,0,.0314.0359.09.102-1.0627.674-1.8004,1.1784-1.8004,1.1784,0,0,.9695,1.1019,2.7865,2.9672-.512.419-.9639.8969-1.344,1.4391h0c11.3471,9.5587,4.8118,15.3457,9.1201,21.6642-.0546-.0308-.1098-.063-.1643-.0935.827,1.2579,2.0664,2.5353,3.9658,3.867l11.3823,7.9803c1.8789,1.3174,3.5293,2.07,5.043,2.4585-.0343-.0297-.07-.0594-.1044-.089,7.7554,2.1302,11.8079-5.5599,23.4404,1.1497h0c.3111-.4437.5658-.9177.7686-1.417,3.2208,1.5044,5.1213,2.251,5.1213,2.251,0,0,.2217-.8625.5097-2.0883.0724.0287.111.0437.111.0437,0,0,.0009-.0039.0026-.0099.0004.0001.0034.0013.0034.0013,0,0,.9689-3.6784,1.5098-6.6332-.0012-.0006-.0025-.0012-.0036-.0016.2035-1.1127.3454-2.1209.352-2.791,2.6973,1.2383,4.2636,1.8538,4.2636,1.8538,0,0,.2218-.8625.5097-2.0883.0724.0287.111.0437.111.0437,0,0,.0011-.0039.0026-.0099.0005.0001.0034.0013.0034.0013,0,0,.9689-3.6784,1.5098-6.6333-.0012-.0005-.0025-.0011-.0035-.0015.1923-1.0524.33-2.0118.3498-2.6796,2.6185,1.199,4.1355,1.795,4.1355,1.795,0,0,.2218-.8624.5097-2.0883.0724.0288.111.0438.111.0438,0,0,.0011-.0039.0026-.01.0005.0001.0035.0013.0035.0013,0,0,.9688-3.6783,1.5097-6.6332-.0012-.0005-.0023-.0011-.0035-.0015.17-.9302.2971-1.7872.3381-2.435,2.3133,1.048,3.6387,1.5687,3.6387,1.5687,0,0,.2218-.8625.5097-2.0883.0724.0288.111.0438.111.0438,0,0,.0011-.0039.0026-.01.0005.0001.0034.0013.0034.0013,0,0,.9689-3.6783,1.5098-6.6332-.0012-.0005-.0025-.0011-.0036-.0015.3463-1.894.5157-3.4881.1392-3.6206Z" style="fill:#729edb; opacity:.65;"/></g><g><path d="m366.3592,198.4576c-.5338,9.1347-.1067,11.7354-2.6028,23.3266-3.867,17.9576-3.4318,13.7255-3.802,16.2451-1.7145,4.432-6.776,23.9107-8.6411,27.6513-.108,7.5914-1.2459,13.5629-3.4563,22.8124-2.6401,11.0475-10.3177,29.7766-14.196,40.0356l-7.6644-1.8317c1.1175-20.4465,3.9837-48.5144,8.3413-79.4045,2.7911-19.785.0988-38.1432,3.1498-54.1963l28.8715,5.3616Z" style="fill:#17330a;"/><g><path d="m382.9922,196.5523c1.9024,9.0087,2.2235,18.9082,2.5397,30.7621.4897,18.3646-2.6326,26.7495-2.3652,29.2863-.7558,4.7091-1.7044,9.1418-2.8248,13.2135,1.9681,7.4086,3.1161,16.2544,3.1161,25.7643,0,11.3586-.6816,24.2031-2.3272,35.0826h-9.3458c-4.3473-20.1464-8.7786-48.1117-12.2673-79.1687-2.2346-19.8918-3.8062-38.6174-4.7122-54.9401h28.1868Z" style="fill:#20440f;"/><ellipse cx="355.4611" cy="200.7001" rx="19.0103" ry="14.517" style="fill:#20440f;"/></g><g><polygon points="373.8449 337.2284 380.4121 337.2284 380.4121 327.5504 372.6784 327.5504 373.8449 337.2284" style="fill:#ea9f88;"/><path d="m370.4996,347.4186v1.4042s15.5539,0,15.5539,0v-1.4042c0-.3624-.0629-.7063-.1652-1.0271.6624-.0338.5451-.0475-.0128-.049-.2041-.6079-.5769-1.108-1.0463-1.4348-.4247-.8337-.9673-1.9285-1.4952-3.0813-.4611-1.0072-.711-4.0922-1.4283-5.6195-.9918-2.1119-2.4194-2.5924-2.4194-2.5924h-.7018c-1.545,1.0371-1.4712,3.1422-2.9275,3.4566-1.4562.3141-2.9435-.441-2.9435-.441l-1.6165,6.4804c-.1753.534-.2789,1.1782-.2789,1.8712v.6646c-.32.4933-.5185,1.1037-.5185,1.7723Zm6.564-2.9317l.0062.0154h-.4475v-.0154h.4413Z" style="fill:#163309;"/></g><g><polygon points="324.6134 335.5207 330.09 337.1981 332.9243 327.9444 326.4747 325.9691 324.6134 335.5207" style="fill:#ea9f88;"/><path d="m335.6956,342.2991l-2.3741-6.6826s-3.5026.7788-5.6413.4547c-2.1387-.3241-2.1314-2.2735-2.9812-3.5644h-2.8515s-3.7423,6.6396-11.0885,8.2954h-5.5022c-1.2832,0-2.3331,1.542-2.3331,3.4267v1.523s23.1363,0,23.1363,0l1.1665-2.0334h.648v2.0334s8.2306,0,8.2306,0v-1.523c0-.7149-.1521-1.379-.4096-1.9298Z" style="fill:#163309;"/></g><g><path d="m370.3973,110.9103c-2.3578,1.1285-5.0312,1.7759-7.8729,1.7759-3.2556,0-6.2874-.8524-8.8772-2.3055,1.0156-1.6974,1.6345-3.909,1.6345-6.3355,0-3.304-1.1409-6.2178-2.8792-7.964v-4.1335h10.5098c.4631,7.7069,3.2999,14.4613,7.485,18.9626Z" style="fill:#ea9f86;"/><g><path d="m349.6315,83.6278c1.1776-5.9175,7.6826-4.8417,12.4283-3.9021,3.0473.6033,5.6878,1.5798,6.8334,5.0686.6842-.5731,1.4179.9786,2.1915,1.1606,1.6012.3766,2.4546,1.1458,1.9216,3.4006-.5329,2.2549-2.2504,5.1414-3.8514,4.765-.078-.0184-.1456-.0594-.22-.0859-.5566,1.8053-.2695,3.383-1.4619,4.6532-2.3376,2.4906-6.8349,3.8633-9.823,3.8996-9.746.1185-9.1959-13.0421-8.0184-18.9596Z" style="fill:#ebb190;"/><path d="m344.9348,76.0051c.7971-4.8072,3.0679-7.4036,10.7967-6.2215,5.1351.7852,13.5791,3.0581,18.6163,5.587,5.1365,2.5788,3.203,6.5993,2.4861,8.3794-1.7656,4.3839-4.9511,10.6727-7.356,10.7806-.5587.0251-.961-.1977-1.2694-.5932.8541-.2495,1.7169-.916,2.3039-1.8924.9876-1.6428.8201-3.5114-.374-4.1736-.9766-.5414-2.3312-.0972-3.3349.9771-.8085-3.6458-2.4753-7.4966-9.5271-6.3359-7.7137,1.2698-13.1386-1.7002-12.3416-6.5074Z" style="fill:#1c3054;"/></g></g><path d="m366.1986,149.7975c-14.7285,0-28.7538-.7747-41.4996-2.1734.7016-18.1732,11.7287-33.3726,26.7547-38.4903,2.3433,2.0382,5.8188,3.3344,9.7064,3.3344,4.2912,0,8.0791-1.5794,10.396-3.9936,16.3306,4.3878,28.5342,20.4932,28.9902,39.856-10.7722.9503-22.3253,1.4669-34.3477,1.4669Z" style="fill:#44722b;"/><path d="m382.2137,199.3175c-.5398,0-43.9516,0-44.9862,0s-.8266-2.8759-.6902-3.2836c.8644-2.5848,1.7497-3.278,2.3249-6.2061.9118-4.6412,1.4243-9.6866,1.4243-15.0508,0-16.9596-5.1028-32.9845-11.8016-42.4389,4.4411-11.0119,12.9969-19.5307,23.5087-23.1109,2.3432,2.0382,5.8188,3.3344,9.7064,3.3344,4.2912,0,8.0791-1.5794,10.396-3.9936,12.3189,3.3098,22.2877,13.2898,26.6411,26.3028-9.7186,4.2874-17.0631,23.9227-17.0631,47.5103,0,3.6878.1852,7.2729.5297,10.7193.188,1.8822.9843,2.6959,1.0816,3.3656.2722,1.875-.5317,2.8515-1.0716,2.8515Z" style="fill:#44722b;"/><g><path d="m329.1651,146.089c-2.016,19.7581.9482,22.4304,5.0033,22.8121,4.0552.3816,7.6658-1.6719,9.6819-21.43,2.016-19.7581.363-36.0847-3.6922-36.4663-4.0551-.3817-8.9769,15.3261-10.993,35.0842Z" style="fill:#ea9f86;"/><path d="m337.9473,102.3652c-1.6318,4.7093-.8582,9.0592,2.1594,10.0236,3.0175.9644,5.5561-2.2996,7.1877-7.0089,1.6318-4.7093,1.9479-6.0252-1.0697-6.9895-3.0175-.9644-6.6458-.7345-8.2774,3.9749Z" style="fill:#ea9f86;"/></g><path d="m329.9145,164.7555c2.1782.3857,6.2286.5163,8.2577.5163,4.3976,0,2.8341-2.2903,2.8341-4.7958,0-.5476.5931-1.3912,1.1062-1.2708,2.7892.6544,4.9737,2.0332,5.926,3.7512l31.8359,1.0192v-17.2872s19.8698,2.0318,19.8698,2.0318c.2432,1.9521.3741,5.1423.3741,7.2192,0,15.8919-4.5234,23.8493-13.7659,23.8493-10.523,0-29.3249-5.1556-39.7349-9.8968-1.4582,1.7859-3.7085,3.1568-6.6909,3.1568-4.7126,0-9.2475-3.6667-11.1866-6.4993-1.2295-1.7961.6268-1.891,1.1745-1.794Z" style="fill:#efb290;"/></g><circle cx="428.9995" cy="85.3606" r="16.9957" style="fill:#5e8436; opacity:.2;"/><circle cx="453.5898" cy="104.424" r="6.3529" style="fill:#5e8436; opacity:.2;"/><circle cx="119.0909" cy="164.3025" r="14.505" style="fill:#5e8436; opacity:.2;"/><g style="opacity:.4;"><path d="m195.4003,52.0224c0-3.4017,1.487-6.1594,3.3214-6.1594s3.3214,2.7576,3.3214,6.1594c0,2.7359-2.1484,9.7656-2.9894,12.4128-.1491.4693-.5148.4693-.6639,0-.841-2.6471-2.9894-9.6769-2.9894-12.4128Z" style="fill:#e0b95c;"/><path d="m184.8172,59.1576c-2.4054-2.4054-3.3039-5.4068-2.0068-6.7039s4.2985-.3986,6.7039,2.0068c1.9346,1.9346,5.3862,8.4245,6.6633,10.891.2264.4373-.0321.6959-.4694.4694-2.4665-1.2771-8.9564-4.7287-10.891-6.6633Z" style="fill:#e0b95c;"/><path d="m182.3792,71.6863c-3.4017,0-6.1594-1.487-6.1594-3.3214s2.7576-3.3214,6.1594-3.3214c2.7359,0,9.7656,2.1484,12.4128,2.9894.4693.1491.4693.5148,0,.6639-2.6471.841-9.6769,2.9894-12.4128,2.9894Z" style="fill:#e0b95c;"/><path d="m189.5144,82.2694c-2.4054,2.4054-5.4068,3.3039-6.7039,2.0068-1.2971-1.2971-.3986-4.2985,2.0068-6.7039,1.9346-1.9346,8.4245-5.3862,10.891-6.6633.4373-.2264.6959.0321.4694.4694-1.2771,2.4665-4.7287,8.9564-6.6633,10.891Z" style="fill:#e0b95c;"/><path d="m202.0431,84.7074c0,3.4017-1.487,6.1594-3.3214,6.1594s-3.3214-2.7576-3.3214-6.1594c0-2.7359,2.1484-9.7656,2.9894-12.4128.1491-.4693.5148-.4693.6639,0,.841,2.6471,2.9894,9.6769,2.9894,12.4128Z" style="fill:#e0b95c;"/><path d="m212.6262,77.5722c2.4054,2.4054,3.3039,5.4068,2.0068,6.7039s-4.2985.3986-6.7039-2.0068c-1.9346-1.9346-5.3862-8.4245-6.6633-10.891-.2264-.4373.0321-.6959.4694-.4694,2.4665,1.2771,8.9564,4.7287,10.891,6.6633Z" style="fill:#e0b95c;"/><path d="m215.0642,65.0435c3.4017,0,6.1594,1.487,6.1594,3.3214,0,1.8343-2.7576,3.3214-6.1594,3.3214-2.7359,0-9.7656-2.1484-12.4128-2.9894-.4693-.1491-.4693-.5148,0-.6639,2.6471-.841,9.6769-2.9894,12.4128-2.9894Z" style="fill:#e0b95c;"/><path d="m207.929,54.4604c2.4054-2.4054,5.4068-3.3039,6.7039-2.0068s.3986,4.2985-2.0068,6.7039c-1.9346,1.9346-8.4245,5.3862-10.891,6.6633-.4373.2264-.6959-.0321-.4694-.4694,1.2771-2.4665,4.7287-8.9564,6.6633-10.891Z" style="fill:#e0b95c;"/></g><g style="opacity:.2;"><path d="m434.6294,245.0539c-.7957-1.5316-.7713-3.121.0546-3.5501s2.1405.4647,2.9362,1.9963c.64,1.2318,1.317,4.8994,1.5576,6.288.0426.2462-.122.3317-.2989.1553-.9979-.9951-3.6095-3.6576-4.2495-4.8894Z" style="fill:#5e8436;"/><path d="m431.5335,250.7419c-1.6457-.5203-2.7523-1.6615-2.4717-2.5489s1.8421-1.185,3.4878-.6646c1.3235.4185,4.3957,2.5331,5.5476,3.3449.2042.1439.1483.3208-.1015.3212-1.4092.002-5.1387-.034-6.4622-.4525Z" style="fill:#5e8436;"/><path d="m433.3665,256.9531c-1.5316.7957-3.121.7713-3.5501-.0546s.4647-2.1405,1.9963-2.9362c1.2318-.64,4.8994-1.317,6.288-1.5576.2462-.0426.3317.122.1553.2989-.9951.9979-3.6576,3.6095-4.8894,4.2495Z" style="fill:#5e8436;"/><path d="m439.0546,260.049c-.5203,1.6457-1.6615,2.7523-2.5489,2.4717s-1.185-1.8421-.6646-3.4878c.4185-1.3235,2.5331-4.3957,3.3449-5.5476.1439-.2042.3208-.1483.3212.1015.002,1.4092-.034,5.1387-.4525,6.4622Z" style="fill:#5e8436;"/><path d="m445.2658,258.2161c.7957,1.5316.7713,3.121-.0546,3.5501s-2.1405-.4647-2.9362-1.9963c-.64-1.2318-1.317-4.8994-1.5576-6.288-.0426-.2462.122-.3317.2989-.1553.9979.9951,3.6095,3.6576,4.2495,4.8894Z" style="fill:#5e8436;"/><path d="m448.3616,252.528c1.6457.5203,2.7523,1.6615,2.4717,2.5489s-1.8421,1.185-3.4878.6646c-1.3235-.4185-4.3957-2.5331-5.5476-3.3449-.2042-.1439-.1483-.3208.1015-.3212,1.4092-.002,5.1387.034,6.4622.4525Z" style="fill:#5e8436;"/><path d="m446.5287,246.3168c1.5316-.7957,3.121-.7713,3.5501.0546s-.4647,2.1405-1.9963,2.9362c-1.2318.64-4.8994,1.317-6.288,1.5576-.2462.0426-.3317-.122-.1553-.2989.9951-.9979,3.6576-3.6095,4.8894-4.2495Z" style="fill:#5e8436;"/><path d="m440.8406,243.2209c.5203-1.6457,1.6615-2.7523,2.5489-2.4717s1.185,1.8421.6646,3.4878c-.4185,1.3235-2.5331,4.3957-3.3449,5.5476-.1439.2042-.3208.1483-.3212-.1015-.002-1.4092.034-5.1387.4525-6.4622Z" style="fill:#5e8436;"/></g><g style="mix-blend-mode:multiply; opacity:.3;"><path d="m446.9986,185.2299l-4.2708,4.2708-2.5462-2.5462,4.2708-4.2708-4.5049-4.5049,2.6208-2.6208,4.5049,4.5049,4.271-4.271,2.5462,2.5462-4.271,4.271,4.5049,4.5049-2.6208,2.6208-4.5049-4.5049Z" style="fill:#e0b95c;"/></g></g></g></g></svg>