<?xml version="1.0" encoding="UTF-8"?><svg xmlns="http://www.w3.org/2000/svg" xmlns:xlink="http://www.w3.org/1999/xlink" viewBox="0 0 798.3056 515.0429"><defs><linearGradient id="b" x1="438.1012" y1="624.6556" x2="399.7022" y2="317.7524" gradientUnits="userSpaceOnUse"><stop offset=".2097" stop-color="#3a81bb" stop-opacity="0"/><stop offset=".6996" stop-color="#1f4d82"/></linearGradient><linearGradient id="d" x1="147.1086" y1="13.2983" x2="147.1086" y2="293.2653" gradientUnits="userSpaceOnUse"><stop offset="0" stop-color="#414141"/><stop offset=".196" stop-color="#3e3e3e"/><stop offset="1" stop-color="#3a3a3a"/></linearGradient><radialGradient id="f" cx="45.8766" cy="5.2848" fx="45.8766" fy="5.2848" r="476.3436" gradientTransform="translate(122.0755 141.4508) scale(.3539)" gradientUnits="userSpaceOnUse"><stop offset=".6733" stop-color="#fcfcfc" stop-opacity="0"/><stop offset="1" stop-color="#fcfcfc"/></radialGradient><radialGradient id="h" cx="65.0601" cy="68.0305" fx="65.0601" fy="68.0305" r="396.2505" gradientTransform="translate(122.0755 141.4508) scale(.3539)" gradientUnits="userSpaceOnUse"><stop offset=".1088" stop-color="#0f0f0d" stop-opacity="0"/><stop offset=".8856" stop-color="#414141" stop-opacity="0"/><stop offset=".9339" stop-color="#1e1e1d" stop-opacity=".6841"/><stop offset=".9874" stop-color="#0f0f0d"/></radialGradient><radialGradient id="l" cx="78.2665" cy="-169.5619" fx="78.2665" fy="-169.5619" r="769.6482" gradientTransform="translate(122.0755 116.0683) scale(.3539 .2026)" gradientUnits="userSpaceOnUse"><stop offset="0" stop-color="#2e6b26"/><stop offset="1" stop-color="#6ab536"/></radialGradient><radialGradient id="n" cx="72.5082" cy="-173.6205" fx="72.5082" fy="-173.6205" r="150.3098" gradientTransform="translate(122.0755 141.4508) scale(.3539)" gradientUnits="userSpaceOnUse"><stop offset="0" stop-color="#6ab536"/><stop offset="1" stop-color="#2e6b26"/></radialGradient><radialGradient id="p" cx="51.4422" cy="-74.1256" fx="51.4422" fy="-74.1256" r="222.0085" gradientTransform="translate(129.652 152.1406) scale(.3356 .5572)" gradientUnits="userSpaceOnUse"><stop offset="0" stop-color="#000"/><stop offset=".7842" stop-color="#4f4f4f" stop-opacity="0"/></radialGradient><radialGradient id="s" cx="69.3066" cy="-218.7986" fx="69.3066" fy="-218.7986" r="513.7558" gradientTransform="translate(122.0755 141.4508) scale(.3539)" gradientUnits="userSpaceOnUse"><stop offset="0" stop-color="#f5f5f5"/><stop offset=".5481" stop-color="#f2f2f2"/></radialGradient></defs><g style="isolation:isolate;"><g id="a"><polygon points="798.3056 515.0429 64.6152 491.354 46.0086 479.4029 657.9315 324.3392 798.3056 515.0429" style="fill:url(#b); opacity:.1;"/><g><path d="m658.3747,326.432V10.8855c0-5.987-5.0509-10.8855-11.2243-10.8855H141.5729c-6.1734,0-11.2243,4.8985-11.2243,10.8855v315.5465h528.0261Z" style="fill:#2f3942;"/><rect x="150.2453" y="22.0462" width="486.7023" height="295.5965" style="fill:#d0e6f4;"/><path d="m655.1205,344.5388H134.2372c-6.1734,0-97.6232,114.2369-97.6232,114.2369.631,10.342,2.7073,20.5723,10.3846,20.952h692.2999c7.6957-1.2034,9.9611-5.6849,12.2082-19.3,1.4723-8.9207-90.2128-115.8889-96.3861-115.8889Z" style="fill:#4f4f51;"/><path d="m655.1205,332.6637H134.2372c-6.1734,0-96.0188,113.0364-96.0188,113.0364-1.9091,13.4696-4.7655,21.8909,8.7802,22.1525h692.2999c8.7344,0,14.3135.5436,11.93-19.78-1.0531-8.9799-89.9345-115.409-96.1079-115.409Z" style="fill:#fff;"/><path d="m655.1205,324.3392H134.2372c-6.1734,0-93.5091,117.6541-93.5091,117.6541-6.4589,8.0902-2.6624,17.5348,6.2705,17.5348h692.2999c8.7344,0,15.1575-8.2698,10.2039-15.8334-4.9536-7.5636-88.2085-119.3555-94.3819-119.3555Z" style="fill:#f1f3fb;"/><path d="m219.9152,324.3392h348.8929v6.3729c0,1.0771-.8744,1.9515-1.9515,1.9515H221.8667c-1.0771,0-1.9515-.8744-1.9515-1.9515v-6.3729h0Z" style="fill:#2f3942;"/><polygon points="413.93 395.4664 126.267 395.4664 166.185 343.4808 413.93 343.4808 413.93 395.4664" style="fill:#d9dce9;"/><polygon points="413.93 441.8015 284.9886 441.8015 295.4433 407.8978 413.93 407.8978 413.93 441.8015" style="fill:#d9dce9;"/><polygon points="294.3979 411.2882 413.93 411.2882 413.93 407.8978 295.4433 407.8978 294.3979 411.2882" style="fill:#acb5c0;"/><polygon points="378.9606 395.4664 666.6236 395.4664 626.7056 343.4807 378.9606 343.4807 378.9606 395.4664" style="fill:#d9dce9;"/><polygon points="378.9606 441.8015 507.902 441.8015 497.4473 407.8978 378.9606 407.8978 378.9606 441.8015" style="fill:#d9dce9;"/><polygon points="498.4928 411.2881 378.9606 411.2881 378.9606 407.8978 497.4473 407.8978 498.4928 411.2881" style="fill:#acb5c0;"/><g><polygon points="208.6678 367.144 220.1505 367.144 220.2474 366.9547 221.5819 364.3461 222.9907 361.5922 211.6915 361.5922 197.5466 361.5922 168.6716 361.5922 166.8252 364.3461 165.0761 366.9547 164.9492 367.144 194.2931 367.144 208.6678 367.144" style="fill:#2f3942;"/><polygon points="249.7778 366.9547 250.8904 364.3461 252.0651 361.5922 226.6208 361.5922 225.2412 364.3461 223.9344 366.9547 223.8396 367.144 249.6971 367.144 249.7778 366.9547" style="fill:#2f3942;"/><polygon points="279.1057 366.9547 279.9979 364.3461 280.9399 361.5922 255.4957 361.5922 254.3487 364.3461 253.2623 366.9547 253.1834 367.144 279.0409 367.144 279.1057 366.9547" style="fill:#2f3942;"/><polygon points="308.231 366.9547 308.9045 364.3461 309.6155 361.5922 284.1712 361.5922 283.2553 364.3461 282.3877 366.9547 282.3247 367.144 308.1822 367.144 308.231 366.9547" style="fill:#2f3942;"/><polygon points="337.5589 366.9547 338.012 364.3461 338.4903 361.5922 313.0461 361.5922 312.3628 364.3461 311.7155 366.9547 311.6685 367.144 337.526 367.144 337.5589 366.9547" style="fill:#2f3942;"/><polygon points="367.0893 366.9547 367.3205 364.3461 367.5646 361.5922 342.1204 361.5922 341.6713 364.3461 341.246 366.9547 341.2151 367.144 367.0725 367.144 367.0893 366.9547" style="fill:#2f3942;"/><polygon points="396.4172 366.9547 396.4281 364.3461 396.4395 361.5922 370.9953 361.5922 370.7788 364.3461 370.5738 366.9547 370.5589 367.144 396.4164 367.144 396.4172 366.9547" style="fill:#2f3942;"/><polygon points="425.1435 366.8601 424.9386 364.2529 424.7222 361.5005 399.2848 361.5005 399.2963 364.2529 399.3071 366.8601 399.3079 367.0493 425.1583 367.0493 425.1435 366.8601" style="fill:#2f3942;"/><polygon points="454.4634 366.8601 454.0382 364.2529 453.5894 361.5005 428.152 361.5005 428.396 364.2529 428.627 366.8601 428.6438 367.0493 454.4943 367.0493 454.4634 366.8601" style="fill:#2f3942;"/><polygon points="483.9857 366.8601 483.3388 364.2529 482.6559 361.5005 457.2185 361.5005 457.6965 364.2529 458.1494 366.8601 458.1823 367.0493 484.0327 367.0493 483.9857 366.8601" style="fill:#2f3942;"/><polygon points="513.3056 366.8601 512.4385 364.2529 511.523 361.5005 486.0856 361.5005 486.7962 364.2529 487.4693 366.8601 487.5181 367.0493 513.3685 367.0493 513.3056 366.8601" style="fill:#2f3942;"/><polygon points="542.423 366.8601 541.3372 364.2529 540.1908 361.5005 514.7534 361.5005 515.6949 364.2529 516.5867 366.8601 516.6514 367.0493 542.5019 367.0493 542.423 366.8601" style="fill:#2f3942;"/><polygon points="544.7945 364.2529 545.9066 366.8601 545.9873 367.0493 571.8377 367.0493 571.7429 366.8601 570.4368 364.2529 569.058 361.5005 543.6206 361.5005 544.7945 364.2529" style="fill:#2f3942;"/><polygon points="589.6728 361.5005 572.6871 361.5005 574.0952 364.2529 575.429 366.8601 575.5258 367.0493 592.7873 367.0493 601.3762 367.0493 630.712 367.0493 630.5852 366.8601 628.8371 364.2529 626.9916 361.5005 598.1245 361.5005 589.6728 361.5005" style="fill:#2f3942;"/><polygon points="204.7047 377.3933 206.1992 374.6261 207.7764 371.7061 161.8903 371.7061 159.9325 374.6261 158.0771 377.3933 157.9424 377.5941 204.5962 377.5941 204.7047 377.3933" style="fill:#2f3942;"/><polygon points="209.6625 374.6261 208.1949 377.3933 208.0884 377.5941 233.9887 377.5941 234.0807 377.3933 235.348 374.6261 236.6852 371.7061 211.2111 371.7061 209.6625 374.6261" style="fill:#2f3942;"/><polygon points="263.6596 377.3933 264.698 374.6261 265.7937 371.7061 240.3196 371.7061 239.0125 374.6261 237.7738 377.3933 237.6838 377.5941 263.5842 377.5941 263.6596 377.3933" style="fill:#2f3942;"/><polygon points="293.0356 377.3933 293.8467 374.6261 294.7026 371.7061 269.2285 371.7061 268.1612 374.6261 267.1498 377.3933 267.0764 377.5941 292.9767 377.5941 293.0356 377.3933" style="fill:#2f3942;"/><polygon points="322.2088 377.3933 322.7942 374.6261 323.4119 371.7061 297.9377 371.7061 297.1087 374.6261 296.323 377.3933 296.266 377.5941 322.1663 377.5941 322.2088 377.3933" style="fill:#2f3942;"/><polygon points="351.5848 377.3933 351.9429 374.6261 352.3208 371.7061 326.8466 371.7061 326.2574 374.6261 325.699 377.3933 325.6585 377.5941 351.5588 377.5941 351.5848 377.3933" style="fill:#2f3942;"/><polygon points="381.1637 377.3933 381.2929 374.6261 381.4293 371.7061 355.9551 371.7061 355.6074 374.6261 355.2779 377.3933 355.254 377.5941 381.1543 377.5941 381.1637 377.3933" style="fill:#2f3942;"/><polygon points="410.5398 377.3933 410.4417 374.6261 410.3382 371.7061 384.864 371.7061 384.7562 374.6261 384.654 377.3933 384.6465 377.5941 410.5469 377.5941 410.5398 377.3933" style="fill:#2f3942;"/><polygon points="439.309 377.2929 438.9884 374.5273 438.6501 371.6089 413.183 371.6089 413.3101 374.5273 413.4305 377.2929 413.4392 377.4937 439.3323 377.4937 439.309 377.2929" style="fill:#2f3942;"/><polygon points="468.6768 377.2929 468.129 374.5273 467.551 371.6089 442.0839 371.6089 442.4507 374.5273 442.7983 377.2929 442.8235 377.4937 468.7166 377.4937 468.6768 377.2929" style="fill:#2f3942;"/><polygon points="498.2475 377.2929 497.4709 374.5273 496.6515 371.6089 471.1843 371.6089 471.7925 374.5273 472.3689 377.2929 472.4107 377.4937 498.3038 377.4937 498.2475 377.2929" style="fill:#2f3942;"/><polygon points="527.6152 377.2929 526.6115 374.5273 525.5524 371.6089 500.0853 371.6089 500.9331 374.5273 501.7367 377.2929 501.795 377.4937 527.6881 377.4937 527.6152 377.2929" style="fill:#2f3942;"/><polygon points="556.7802 377.2929 555.5509 374.5273 554.2537 371.6089 528.7866 371.6089 529.8725 374.5273 530.9016 377.2929 530.9764 377.4937 556.8695 377.4937 556.7802 377.2929" style="fill:#2f3942;"/><polygon points="559.0131 374.5273 560.2694 377.2929 560.3607 377.4937 586.2537 377.4937 586.148 377.2929 584.6915 374.5273 583.1546 371.6089 557.6875 371.6089 559.0131 374.5273" style="fill:#2f3942;"/><polygon points="606.9931 371.6089 586.7879 371.6089 588.355 374.5273 589.84 377.2929 589.9478 377.4937 610.491 377.4937 615.841 377.4937 637.7149 377.4937 637.5803 377.2929 635.726 374.5273 633.7693 371.6089 612.2551 371.6089 606.9931 371.6089" style="fill:#2f3942;"/><polygon points="196.2299 382.4368 154.6954 382.4368 152.6159 385.5383 150.6442 388.479 150.501 388.6925 192.7519 388.6925 207.3253 388.6925 218.9669 388.6925 219.0704 388.479 220.4964 385.5383 222.0003 382.4368 210.5562 382.4368 196.2299 382.4368" style="fill:#2f3942;"/><polygon points="224.2045 385.5383 222.8083 388.479 222.7069 388.6925 248.9219 388.6925 249.0081 388.479 250.1953 385.5383 251.4475 382.4368 225.677 382.4368 224.2045 385.5383" style="fill:#2f3942;"/><polygon points="253.6997 385.5383 252.5407 388.479 252.4565 388.6925 278.6715 388.6925 278.7405 388.479 279.6906 385.5383 280.6926 382.4368 254.9222 382.4368 253.6997 385.5383" style="fill:#2f3942;"/><polygon points="282.9913 385.5383 282.0677 388.479 282.0007 388.6925 308.2157 388.6925 308.2676 388.479 308.9822 385.5383 309.7358 382.4368 283.9653 382.4368 282.9913 385.5383" style="fill:#2f3942;"/><polygon points="312.4865 385.5383 311.8001 388.479 311.7502 388.6925 337.9653 388.6925 337.9999 388.479 338.4774 385.5383 338.9809 382.4368 313.2104 382.4368 312.4865 385.5383" style="fill:#2f3942;"/><polygon points="342.1855 385.5383 341.7378 388.479 341.7053 388.6925 367.9203 388.6925 367.9376 388.479 368.1763 385.5383 368.428 382.4368 342.6576 382.4368 342.1855 385.5383" style="fill:#2f3942;"/><polygon points="371.6807 385.5383 371.4702 388.479 371.4549 388.6925 397.6699 388.6925 397.67 388.479 397.6715 385.5383 397.6731 382.4368 371.9027 382.4368 371.6807 385.5383" style="fill:#2f3942;"/><polygon points="400.5776 385.4333 400.5994 388.3723 400.601 388.5857 426.8084 388.5857 426.7916 388.3723 426.561 385.4333 426.3177 382.3336 400.5546 382.3336 400.5776 385.4333" style="fill:#2f3942;"/><polygon points="430.0644 385.4333 430.3232 388.3723 430.342 388.5857 456.5494 388.5857 456.5154 388.3723 456.0478 385.4333 455.5545 382.3336 429.7914 382.3336 430.0644 385.4333" style="fill:#2f3942;"/><polygon points="459.7547 385.4333 460.2522 388.3723 460.2883 388.5857 486.4957 388.5857 486.4445 388.3723 485.7382 385.4333 484.9932 382.3336 459.2301 382.3336 459.7547 385.4333" style="fill:#2f3942;"/><polygon points="489.2415 385.4333 489.976 388.3723 490.0293 388.5857 516.2367 388.5857 516.1682 388.3723 515.2249 385.4333 514.23 382.3336 488.4669 382.3336 489.2415 385.4333" style="fill:#2f3942;"/><polygon points="518.5247 385.4333 519.4945 388.3723 519.5649 388.5857 545.7723 388.5857 545.6868 388.3723 544.5081 385.4333 543.265 382.3336 517.5018 382.3336 518.5247 385.4333" style="fill:#2f3942;"/><polygon points="548.0115 385.4333 549.2183 388.3723 549.3059 388.5857 575.5133 388.5857 575.4105 388.3723 573.9949 385.4333 572.5018 382.3336 546.7387 382.3336 548.0115 385.4333" style="fill:#2f3942;"/><polygon points="593.3806 382.3336 576.1774 382.3336 577.7019 385.4333 579.1473 388.3723 579.2523 388.5857 596.7521 388.5857 605.4596 388.5857 645.1521 388.5857 645.009 388.3723 643.0385 385.4333 640.9601 382.3336 601.9405 382.3336 593.3806 382.3336" style="fill:#2f3942;"/><polygon points="206.0999 357.1082 207.5001 354.6449 208.979 352.0433 175.0741 352.0433 173.3297 354.6449 171.6782 357.1082 171.5583 357.2869 205.9983 357.2869 206.0999 357.1082" style="fill:#2f3942;"/><polygon points="235.3253 357.1082 236.5122 354.6449 237.7657 352.0433 212.3992 352.0433 210.9471 354.6449 209.5722 357.1082 209.4725 357.2869 235.2392 357.2869 235.3253 357.1082" style="fill:#2f3942;"/><polygon points="264.7525 357.1082 265.7244 354.6449 266.751 352.0433 241.3846 352.0433 240.1595 354.6449 238.9994 357.1082 238.9153 357.2869 264.682 357.2869 264.7525 357.1082" style="fill:#2f3942;"/><polygon points="293.9778 357.1082 294.7364 354.6449 295.5376 352.0433 270.1712 352.0433 269.1714 354.6449 268.2248 357.1082 268.1561 357.2869 293.9228 357.2869 293.9778 357.1082" style="fill:#2f3942;"/><polygon points="323.0014 357.1082 323.5481 354.6449 324.1254 352.0433 298.759 352.0433 297.983 354.6449 297.2484 357.1082 297.195 357.2869 322.9618 357.2869 323.0014 357.1082" style="fill:#2f3942;"/><polygon points="352.2268 357.1082 352.56 354.6449 352.912 352.0433 327.5456 352.0433 326.995 354.6449 326.4738 357.1082 326.4359 357.2869 352.2026 357.2869 352.2268 357.1082" style="fill:#2f3942;"/><polygon points="381.654 357.1082 381.7724 354.6449 381.8974 352.0433 356.5309 352.0433 356.2073 354.6449 355.9009 357.1082 355.8787 357.2869 381.6454 357.2869 381.654 357.1082" style="fill:#2f3942;"/><polygon points="410.8794 357.1082 410.7843 354.6449 410.6839 352.0433 385.3176 352.0433 385.2193 354.6449 385.1263 357.1082 385.1196 357.2869 410.8863 357.2869 410.8794 357.1082" style="fill:#2f3942;"/><polygon points="439.5016 357.0188 439.1977 354.5569 438.8766 351.9567 413.5168 351.9567 413.6394 354.5569 413.7554 357.0188 413.7638 357.1975 439.5237 357.1975 439.5016 357.0188" style="fill:#2f3942;"/><polygon points="468.7193 357.0188 468.202 354.5569 467.6557 351.9567 442.2959 351.9567 442.6437 354.5569 442.973 357.0188 442.9969 357.1975 468.7568 357.1975 468.7193 357.0188" style="fill:#2f3942;"/><polygon points="498.1387 357.0188 497.4067 354.5569 496.6335 351.9567 471.2737 351.9567 471.8484 354.5569 472.3924 357.0188 472.4319 357.1975 498.1918 357.1975 498.1387 357.0188" style="fill:#2f3942;"/><polygon points="527.3563 357.0188 526.411 354.5569 525.4126 351.9567 500.0528 351.9567 500.8527 354.5569 501.6101 357.0188 501.665 357.1975 527.4249 357.1975 527.3563 357.0188" style="fill:#2f3942;"/><polygon points="556.3722 357.0188 555.2151 354.5569 553.993 351.9567 528.6331 351.9567 529.6567 354.5569 530.6259 357.0188 530.6963 357.1975 556.4562 357.1975 556.3722 357.0188" style="fill:#2f3942;"/><polygon points="585.5898 357.0188 584.2194 354.5569 582.772 351.9567 557.4123 351.9567 558.6611 354.5569 559.8436 357.0188 559.9294 357.1975 585.6893 357.1975 585.5898 357.0188" style="fill:#2f3942;"/><polygon points="611.7499 351.9567 606.5101 351.9567 586.39 351.9567 587.8657 354.5569 589.263 357.0188 589.3644 357.1975 609.8018 357.1975 615.1243 357.1975 624.1065 357.1975 623.9867 357.0188 622.3359 354.5569 620.5925 351.9567 611.7499 351.9567" style="fill:#2f3942;"/></g></g><g><path d="m584.5537,232.4515l-357.4585-6.6453c-1.1357-.0211-2.0472-.9396-2.0254-2.041l1.8087-91.5096c.0218-1.1015.9688-1.9854,2.1046-1.9642l357.4585,6.6453c1.1357.0211,2.0472.9396,2.0254,2.041l-1.8087,91.5096c-.0218,1.1015-.9688,1.9854-2.1046,1.9642Z" style="fill:#333433; opacity:.7;"/><rect x="233.1026" y="126.3471" width="361.6549" height="95.5324" rx="2.0339" ry="2.0339" style="fill:#efbb54;"/><g><circle cx="289.3003" cy="174.1133" r="22.5" style="fill:#333433;"/><circle cx="348.7921" cy="174.1133" r="22.5" style="fill:#333433;"/><circle cx="408.2839" cy="174.1133" r="22.5" style="fill:#333433;"/><circle cx="467.7757" cy="174.1133" r="22.5" style="fill:#333433;"/><circle cx="527.2675" cy="174.1133" r="22.5" style="fill:#333433;"/></g><rect x="563.6057" y="143.4566" width="7.8962" height="61.3133" style="fill:#333433;"/></g></g><g id="c"><rect y="20.9158" width="294.2182" height="294.2182" style="fill:none;"/><path id="e" d="m147.109,308.0085c-77.1876,0-139.9838-62.7967-139.9838-139.9835S69.9214,28.0415,147.109,28.0415s139.9832,62.7961,139.9832,139.9835-62.7956,139.9835-139.9832,139.9835Zm0-268.1889c-70.6617,0-128.1492,57.5127-128.1492,128.2054s57.4875,128.2054,128.1492,128.2054,128.1486-57.5133,128.1486-128.2054S217.7707,39.8196,147.109,39.8196Z" style="fill:url(#d);"/><path id="g" d="m147.1089,28.0962C69.9515,28.0962,7.1798,90.8678,7.1798,168.025s62.7717,139.9289,139.9291,139.9289,139.9286-62.7722,139.9286-139.9289S224.2664,28.0962,147.1089,28.0962Z" style="fill:url(#f); mix-blend-mode:lighten; opacity:.32;"/><path id="i" d="m147.109,308.0085c-77.1876,0-139.9838-62.7967-139.9838-139.9835S69.9214,28.0415,147.109,28.0415s139.9832,62.7961,139.9832,139.9835-62.7956,139.9835-139.9832,139.9835Zm0-268.1889c-70.6617,0-128.1492,57.5127-128.1492,128.2054s57.4875,128.2054,128.1492,128.2054,128.1486-57.5133,128.1486-128.2054S217.7707,39.8196,147.109,39.8196Z" style="fill:url(#h); opacity:.44;"/><path id="j" d="m147.1089,40.5696c-71.2062,0-129.1362,57.93-129.1362,129.136s57.93,129.136,129.1362,129.136,129.1357-57.9305,129.1357-129.136S218.3151,40.5696,147.1089,40.5696Z" style="fill:rgba(15,15,13,.35);"/><path id="k" d="m147.109,308.0085c-77.1876,0-139.9838-62.7967-139.9838-139.9835S69.9214,28.0415,147.109,28.0415s139.9832,62.7961,139.9832,139.9835-62.7956,139.9835-139.9832,139.9835Zm0-276.9711C69.9216,31.0374,7.1251,92.9983,7.1251,169.1586s62.7965,138.1212,139.9838,138.1212,139.9832-61.9615,139.9832-138.1212S224.2964,31.0374,147.109,31.0374Z" style="fill:#0f0f0d; opacity:.35;"/><path id="m" d="m147.1089,39.8197c-70.6931,0-128.2057,57.5125-128.2057,128.2054s57.5126,128.2054,128.2057,128.2054,128.2051-57.513,128.2051-128.2054S217.802,39.8197,147.1089,39.8197Z" style="fill:url(#l);"/><path id="o" d="m147.1087,50.4787c-21.0568,0-38.1876,17.1308-38.1876,38.1875s17.1308,38.1875,38.1876,38.1875,38.1874-17.1309,38.1874-38.1875-17.1306-38.1875-38.1874-38.1875Z" style="fill:url(#n); mix-blend-mode:lighten; opacity:.7;"/><path id="q" d="m79.7311,58.5309c-.0062.044-.0123.0868-.0185.1308-.1666.0314-.1691-.0084.0185-.1308Zm96.8109,82.2894l-1.7731,31.6794,20.9225,22.7939-20.9225,22.7938,13.8301,15.0671-13.8301,15.0671,1.7731,31.4207h-58.8667v-138.8219c-23.4049-11.9765-39.3626-37.8609-39.3626-67.6086,0-4.9784.697-9.5784,1.3999-14.5501,2.5391-.4785,43.5979-17.6869,43.5979-17.6869-.3409,1.86,47.9372,1.86,47.5963,0,0,0,39.6681,17.0686,43.648,17.9056,1.0067,4.8878,1.3498,9.4265,1.3498,14.3312,0,29.7478-16.3125,55.6322-39.3626,67.6087Zm37.9442-82.2895c.0249.1175.0445.2324.0686.3496.4358.0917.4505-.0081-.0686-.3496Z" style="fill:url(#p); mix-blend-mode:multiply; opacity:.3;"/><path id="r" d="m78.4185,251.7665c-22.7507-19.7863-37.1542-48.9526-37.1542-81.5922,0-37.9788,19.8617-73.036,52.5749-92.6097-.5842,3.7979-1.1683,7.3036-1.1683,11.1015,0,22.495,13.1437,42.0687,32.4212,51.1252v102.5426l24.2429,24.248,24.2429-24.248-1.4604-21.3265,11.3912-11.3936-11.3912-11.3936,17.2329-17.2365-17.2329-17.2365,1.4604-23.9558c18.9853-9.0565,32.4212-28.6301,32.4212-51.1252,0-3.7979-.292-7.3036-1.1683-11.1015,11.8705,7.1666,22.0485,16.4155,30.2076,27.1169-19.7313-27.0976-51.7854-44.7275-87.9818-44.7275-59.9724,0-108.5896,48.3851-108.5896,108.0711,0,33.773,15.5697,63.9238,39.9514,83.7415Zm63.0303-17.6126h-8.1783v-80.9239h8.1783v80.9239Zm-11.6833-170.0279c6.4258-1.1686,13.1438-1.7528,19.5696-1.7528,6.7179-.2922,13.1438.5842,19.5696,1.7528.292,1.4608.5842,2.9214.5842,4.3821,0,11.1015-9.0546,20.158-20.1538,20.158s-20.1538-9.0565-20.1538-20.158c0-1.4607.2922-2.9213.5842-4.3821Z" style="fill:#0f0f0d; mix-blend-mode:multiply; opacity:.2;"/><path id="t" d="m147.109,39.8197c-70.6617,0-128.1491,57.5126-128.1491,128.2054s57.4874,128.2054,128.1491,128.2054,128.1486-57.5132,128.1486-128.2054S217.7707,39.8197,147.109,39.8197Zm-19.5696,22.0392c6.4258-1.1686,13.1438-1.7528,19.5696-1.7528,6.7179-.2922,13.1438.5842,19.5696,1.7528.292,1.4608.5842,2.9214.5842,4.3821,0,11.1015-9.0546,20.158-20.1538,20.158s-20.1538-9.0565-20.1538-20.158c0-1.4607.2922-2.9213.5842-4.3821Zm11.6833,89.104v80.9239h-8.1783v-80.9239h8.1783Zm7.8862,125.0376c-59.585,0-108.0708-48.2038-108.0708-108.0933,0-37.9788,19.8617-73.036,52.5749-92.6097-.5842,3.7979-1.1683,7.3036-1.1683,11.1015,0,22.495,13.1437,42.0687,32.4212,51.1252v102.5426l24.2429,24.248,24.2429-24.248-1.4604-21.3265,11.3912-11.3936-11.3912-11.3936,17.2329-17.2365-17.2329-17.2365,1.4604-23.9558c18.9853-9.0565,32.4212-28.6301,32.4212-51.1252,0-3.7979-.292-7.3036-1.1683-11.1015,32.4212,19.5737,52.2829,54.631,52.5749,92.6098,0,59.5974-48.1938,108.0933-108.0708,108.0933Z" style="fill:url(#s);"/></g></g></svg>