<?xml version="1.0" encoding="UTF-8"?><svg id="a" xmlns="http://www.w3.org/2000/svg" xmlns:xlink="http://www.w3.org/1999/xlink" viewBox="0 0 552 376"><defs><linearGradient id="b" x1="643.1511" y1="-142.4712" x2="577.6004" y2="-256.0084" gradientTransform="translate(-183.3312 467.856) rotate(-11.6693) scale(.7105 .7439) skewX(-22.9181)" gradientUnits="userSpaceOnUse"><stop offset=".3027" stop-color="#3a81bb" stop-opacity="0"/><stop offset=".6996" stop-color="#1f4d82"/></linearGradient><linearGradient id="c" x1="786.3382" y1="-96.6195" x2="722.35" y2="-207.4503" gradientTransform="translate(-163.9273 279.38) rotate(13.0091) scale(.8142 .6155) skewX(22.0815)" xlink:href="#b"/><linearGradient id="d" x1="-642.0082" y1="-269.6819" x2="-705.9964" y2="-380.5127" gradientTransform="translate(649.0602 379.8683) rotate(5.7526) scale(.3313 .3031) skewX(10.9192)" xlink:href="#b"/><linearGradient id="h" x1="383.3338" y1="188.7759" x2="383.3338" y2="82.9633" gradientTransform="translate(56.1111 9.3686) rotate(-.714) scale(.8292 .9363) skewX(1.7658)" gradientUnits="userSpaceOnUse"><stop offset="0" stop-color="#414141"/><stop offset=".196" stop-color="#3e3e3e"/><stop offset="1" stop-color="#3a3a3a"/></linearGradient><radialGradient id="j" cx="-1543.5229" cy="1450.3231" fx="-1543.5229" fy="1450.3231" r="132.8728" gradientTransform="translate(849.0453 593.5465) rotate(-.714) scale(.2935 -.3313) skewX(-1.7658)" gradientUnits="userSpaceOnUse"><stop offset=".6733" stop-color="#fcfcfc" stop-opacity="0"/><stop offset="1" stop-color="#fcfcfc"/></radialGradient><radialGradient id="l" cx="382.9342" cy="131.0173" fx="382.9342" fy="131.0173" r="41.8696" gradientTransform="translate(56.1111 9.3686) rotate(-.714) scale(.8292 .9363) skewX(1.7658)" gradientUnits="userSpaceOnUse"><stop offset=".1088" stop-color="#0f0f0d" stop-opacity="0"/><stop offset=".8856" stop-color="#414141" stop-opacity="0"/><stop offset=".9339" stop-color="#1e1e1d" stop-opacity=".6841"/><stop offset=".9874" stop-color="#0f0f0d"/></radialGradient><radialGradient id="q" cx="-1537.1769" cy="2412.0248" fx="-1537.1769" fy="2412.0248" r="196.0526" gradientTransform="translate(847.2549 548.5364) rotate(-.714) scale(.2935 -.1897) skewX(-1.0111)" gradientUnits="userSpaceOnUse"><stop offset="0" stop-color="#2e6b26"/><stop offset="1" stop-color="#6ab536"/></radialGradient><radialGradient id="s" cx="-1532.2513" cy="1247.2171" fx="-1532.2513" fy="1247.2171" r="87.6758" gradientTransform="translate(849.8748 614.3993) rotate(-.714) scale(.2935 -.407) skewX(-2.1686)" gradientUnits="userSpaceOnUse"><stop offset="0" stop-color="#000"/><stop offset=".7192" stop-color="#fff"/></radialGradient><radialGradient id="u" cx="-1534.5048" cy="1514.8172" fx="-1534.5048" fy="1514.8172" r="42.309" gradientTransform="translate(849.0453 593.5465) rotate(-.714) scale(.2935 -.3313) skewX(-1.7658)" gradientUnits="userSpaceOnUse"><stop offset="0" stop-color="#6ab536"/><stop offset="1" stop-color="#2e6b26"/></radialGradient><radialGradient id="w" cx="384.9035" cy="146.9042" fx="384.9035" fy="146.9042" r="27.8531" gradientTransform="translate(56.1111 9.3686) rotate(-.714) scale(.8292 .9363) skewX(1.7658)" gradientUnits="userSpaceOnUse"><stop offset="0" stop-color="#000"/><stop offset=".7842" stop-color="#4f4f4f" stop-opacity="0"/></radialGradient><radialGradient id="z" cx="383.2286" cy="169.381" fx="383.2286" fy="169.381" r="37.3171" gradientTransform="translate(56.1111 9.3686) rotate(-.714) scale(.8292 .9363) skewX(1.7658)" gradientUnits="userSpaceOnUse"><stop offset="0" stop-color="#f5f5f5"/><stop offset="1" stop-color="#e3e3e3"/></radialGradient><linearGradient id="ae" x1="227.6363" y1="133.9427" x2="227.6363" y2="69.0487" gradientTransform="translate(36.9001 4.9644) rotate(-.7839) scale(.8883 .951) skewX(.6432)" xlink:href="#h"/><radialGradient id="ag" cx="-1981.5806" cy="1531.4062" fx="-1981.5806" fy="1531.4062" r="81.4898" gradientTransform="translate(875.5874 596.9074) rotate(-.7839) scale(.3144 -.3366) skewX(-.6432)" xlink:href="#j"/><radialGradient id="ai" cx="227.3912" cy="98.5198" fx="227.3912" fy="98.5198" r="25.6783" gradientTransform="translate(36.9001 4.9644) rotate(-.7839) scale(.8883 .951) skewX(.6432)" xlink:href="#l"/><radialGradient id="an" cx="-1977.6886" cy="2508.8022" fx="-1977.6886" fy="2508.8022" r="120.2375" gradientTransform="translate(874.4821 551.1806) rotate(-.7839) scale(.3144 -.1927) skewX(-.3682)" xlink:href="#q"/><radialGradient id="ap" cx="-1974.6678" cy="1307.3449" fx="-1974.6678" fy="1307.3449" r="53.7709" gradientTransform="translate(876.0996 618.0922) rotate(-.7839) scale(.3144 -.4134) skewX(-.7901)" xlink:href="#s"/><radialGradient id="ar" cx="-1976.0499" cy="1570.9599" fx="-1976.0499" fy="1570.9599" r="25.9478" gradientTransform="translate(875.5874 596.9074) rotate(-.7839) scale(.3144 -.3366) skewX(-.6432)" xlink:href="#u"/><radialGradient id="at" cx="228.599" cy="108.2631" fx="228.599" fy="108.2631" r="17.0821" gradientTransform="translate(36.9001 4.9644) rotate(-.7839) scale(.8883 .951) skewX(.6432)" xlink:href="#w"/><radialGradient id="aw" cx="227.5718" cy="122.0479" fx="227.5718" fy="122.0479" r="22.8863" gradientTransform="translate(36.9001 4.9644) rotate(-.7839) scale(.8883 .951) skewX(.6432)" xlink:href="#z"/><linearGradient id="ay" x1="451.6" y1="-.0836" x2="411.6603" y2="-69.2611" gradientTransform="translate(-189.0336 260.2984) rotate(14.5897) scale(.869 .6209) skewX(24.049)" xlink:href="#b"/></defs><g><g><path d="m249.0415,258.2634l-48.3112-27.0306c-2.6421-1.7039-3.2173-3.8188,1.0542-7.2241l67.728-44.7272c4.2716-3.4053,10.5817-4.883,12.9748-3.7821l57.4079,39.3815c2.3931,1.1009.8562,4.7879-3.4154,8.1932l-77.7374,33.2008c-4.2716,3.4053-7.3079,3.0894-9.701,1.9885Z" style="fill:url(#b); opacity:.1;"/><g><path d="m302.3459,191.151c.0505-.3085.049-.6103,0-.9053v-5.9882h-2.2447v3.6038c-.7416.9347-1.2717,1.0182-2.8999,2.01l-74.8967,41.054c-5.4534,3.3216-10.0737,2.0802-13.947-.0198l-113.9919-62.2527c-.1822-.1224-.3288-.2161-.4614-.2996v-3.8618h-3.408l.131,6.1959c.051,1.7788,1.8551,3.4931,4.3725,5.1834l113.2947,61.7781c3.893,2.1074,8.5399,3.3476,14.0361-.0135l75.4745-41.5609c2.7664-1.6918,4.2336-3.3359,4.5241-4.8347h.0167v-.0886Z" style="fill:#323970; opacity:.3;"/><path d="m302.3955,189.4999c.0505-.3085.049-.6103,0-.9053v-5.9882h-2.2447v3.6038c-.7416.9347-1.2717,1.0182-2.8999,2.01l-74.8967,41.054c-5.4534,3.3216-10.0737,2.0802-13.947-.0198l-113.9919-62.2527c-.1822-.1224-.3288-.2161-.4614-.2996v-3.8618h-3.408l.131,6.1959c.051,1.7788,1.8551,3.4931,4.3725,5.1834l113.2947,61.7781c3.893,2.1074,8.5399,3.3476,14.0361-.0135l75.4745-41.5609c2.7664-1.6918,4.2336-3.3359,4.5241-4.8347h.0167v-.0886Z" style="fill:#8f94ba;"/><path d="m302.3955,182.6063h-2.2447v3.6038c-.7416.9347-1.2717,1.0182-2.8999,2.01l-74.8967,41.054c-2.8677,1.7467-5.5047,2.2305-7.9242,1.9922v6.7473c2.4264.2275,5.0716-.2692,7.9502-2.0296l75.4745-41.5609c2.7664-1.6918,4.2336-3.3359,4.5241-4.8347h.0167v-.0886c.0505-.3085.049-.6103,0-.9053v-5.9882Z" style="fill:#8f94ba;"/><path d="m212.5836,237.6986c1.7134.4204,3.5453.5177,5.5008.077v-6.7332c-1.9553.4345-3.7874.3283-5.5008-.1009v6.757Z" style="fill:#d3dcdf;"/><path d="m208.4589,229.8988l-113.9919-62.2527c-4.409-2.9615-5.8431-5.9021-.3897-9.2237l74.2889-40.7511c5.4534-3.3216,14.4752-3.5513,18.3484-1.4513l113.4609,62.7871c3.8732,2.1,2.5804,6.5359-2.8729,9.8574l-74.8967,41.054c-5.4534,3.3216-10.0737,2.0802-13.9469-.0198Z" style="fill:#f3f3fb;"/><path d="m172.9946,200.3225l-28.8981-15.1877c-.59-.3057-1.0161-1.3231.0753-1.8998l20.0551-10.8721c.7306-.3894,2.1448-.285,2.7348.0207l28.5001,15.3948c.59.3057.4746,1.3191-.256,1.7085l-19.81,10.6835c-.7306.3894-1.8111.4579-2.4012.1522Z" style="fill:#6d73be; opacity:.31;"/><path d="m239.3839,202.3239l-97.9779-54.4658c-2.6195-1.4446-2.1563-3.8791,1.0293-5.4101l27.3988-14.8953c3.1856-1.531,7.9353-1.6017,10.5548-.1571l98.4417,54.8094c2.6195,1.4446,2.1563,3.8791-1.0293,5.4101l-27.8625,14.5517c-3.1856,1.531-7.9353,1.6017-10.5548.1571Z" style="fill:#d7dada;"/><g><path d="m171.1991,138.4905c-.1783.091-.5299.052-.7827-.0869l-6.1049-3.3554c-.2523-.1386-.3153-.3275-.1369-.4185l4.2854-2.187c.1774-.0906.5302-.0496.7825.0891l6.1049,3.3554c.2528.1389.3146.3258.1372.4164l-4.2854,2.187Z" style="fill:#2f3942;"/><path d="m180.2288,143.4535c-.1783.091-.5287.0527-.7827-.0869l-6.1042-3.3551c-.2548-.1401-.3146-.3272-.1363-.4182l4.2854-2.187c.1774-.0906.527-.0513.7818.0887l6.1042,3.3551c.254.1396.3146.3258.1372.4164l-4.2854,2.187Z" style="fill:#2f3942;"/><path d="m178.5515,149.6256c-.1775.0906-.5259.0519-.7786-.087l-6.1049-3.3554c-.2566-.141-.3154-.3261-.1378-.4167l4.2853-2.1869c.1792-.0915.5259-.0533.7825.0877l6.1049,3.3554c.2528.1389.3132.3245.1339.416l-4.2853,2.1869Z" style="fill:#2f3942;"/><path d="m189.7628,148.6937c-.1783.091-.5311.0514-.7846-.088l-6.1054-3.3557c-.2535-.1394-.3127-.3261-.1344-.4171l4.2854-2.187c.1774-.0906.5264-.0517.7799.0877l6.1054,3.3557c.2535.1394.3165.3269.1391.4174l-4.2854,2.187Z" style="fill:#2f3942;"/><path d="m187.5861,154.5914c-.1775.0906-.5289.0503-.7817-.0887l-6.1061-3.3562c-.2547-.14-.316-.3265-.1385-.4171l4.2853-2.1869c.1792-.0915.5285-.0519.7832.0881l6.1061,3.3562c.2528.1389.3162.3262.137.4177l-4.2853,2.1869Z" style="fill:#2f3942;"/><path d="m198.7899,153.6553c-.1783.091-.5266.0538-.7826-.0869l-6.1043-3.3552c-.2541-.1396-.3132-.3264-.1349-.4174l4.2854-2.187c.1774-.0906.5264-.0517.7804.088l6.1043,3.3552c.256.1407.3145.3257.137.4163l-4.2854,2.187Z" style="fill:#2f3942;"/><path d="m186.2617,160.5835c-.1779.0908-.5294.0505-.7836-.0892l-6.1036-3.3547c-.254-.1396-.3164-.3268-.1385-.4176l4.2858-2.1872c.1797-.0917.5301-.0515.7841.0881l6.1036,3.3547c.2542.1397.3176.327.1379.4187l-4.2858,2.1872Z" style="fill:#2f3942;"/><path d="m197.1146,159.8286c-.1775.0906-.5259.0519-.7788-.0871l-6.1067-3.3564c-.2523-.1386-.3166-.3268-.1391-.4174l4.2853-2.1869c.1792-.0915.5316-.0502.7838.0884l6.1067,3.3564c.2529.139.3133.3246.134.4161l-4.2853,2.1869Z" style="fill:#2f3942;"/><path d="m208.3227,158.8949c-.1783.091-.528.053-.7833-.0873l-6.1036-3.3547c-.2529-.139-.3146-.3272-.1363-.4182l4.2854-2.187c.1774-.0906.5289-.0503.7818.0887l6.1036,3.3547c.2553.1403.3153.3262.1378.4167l-4.2854,2.187Z" style="fill:#2f3942;"/><path d="m195.29,165.5458c-.1779.0908-.5263.0522-.7816-.0882l-6.1036-3.3547c-.2529-.139-.3159-.3265-.138-.4173l4.2858-2.1872c.1797-.0917.5307-.0512.7836.0878l6.1036,3.3547c.2553.1403.3157.3259.136.4176l-4.2858,2.1872Z" style="fill:#2f3942;"/><path d="m206.6493,165.0692c-.1775.0906-.5296.0499-.7818-.0887l-6.1061-3.3562c-.254-.1396-.3146-.3257-.137-.4163l4.2853-2.1869c.1792-.0915.5277-.0523.7818.0873l6.1061,3.3562c.2523.1386.3164.3263.1371.4178l-4.2853,2.1869Z" style="fill:#2f3942;"/><path d="m217.8543,164.1338c-.1783.091-.528.053-.7808-.0859l-6.1061-3.3562c-.2529-.139-.3134-.3265-.135-.4175l4.2854-2.187c.1774-.0906.5277-.051.7806.088l6.1061,3.3562c.2528.1389.3127.3248.1353.4153l-4.2854,2.187Z" style="fill:#2f3942;"/><path d="m204.8216,170.7847c-.1779.0908-.5263.0522-.7791-.0868l-6.1061-3.3562c-.2529-.139-.3146-.3258-.1367-.4166l4.2858-2.1872c.1797-.0917.5295-.0519.7823.0871l6.1061,3.3562c.2528.1389.3132.3245.1335.4162l-4.2858,2.1872Z" style="fill:#2f3942;"/><path d="m215.6783,170.0318c-.1775.0906-.5283.0506-.7812-.0884l-6.1049-3.3554c-.2528-.1389-.3159-.3264-.1383-.417l4.2853-2.1869c.1792-.0915.5303-.0509.7831.088l6.1049,3.3554c.2529.139.3157.3259.1365.4174l-4.2853,2.1869Z" style="fill:#2f3942;"/><path d="m226.8852,169.0975c-.1783.091-.5293.0523-.7834-.0873l-6.1024-3.3541c-.2547-.14-.3152-.3274-.1368-.4185l4.2854-2.187c.1774-.0906.5277-.051.7823.089l6.1024,3.3541c.254.1396.3153.3262.1378.4167l-4.2854,2.187Z" style="fill:#2f3942;"/><path d="m214.3556,176.025c-.1779.0908-.5287.0508-.7828-.0888l-6.1024-3.3541c-.2566-.141-.3164-.3268-.1385-.4176l4.2858-2.1872c.1797-.0917.5275-.0529.7841.0881l6.1024,3.3541c.254.1396.3169.3266.1372.4183l-4.2858,2.1872Z" style="fill:#2f3942;"/><path d="m225.2117,175.2717c-.1775.0906-.5289.0503-.7817-.0887l-6.1061-3.3561c-.2529-.139-.316-.3265-.1385-.4171l4.2853-2.1869c.1792-.0915.5303-.0509.7832.0881l6.1061,3.3561c.2528.1389.3162.3262.137.4177l-4.2853,2.1869Z" style="fill:#2f3942;"/><path d="m235.9179,174.0622c-.1783.091-.528.053-.7846-.088l-6.1067-3.3564c-.2529-.139-.3115-.3254-.1331-.4164l4.2854-2.187c.1774-.0906.5257-.052.7786.087l6.1067,3.3564c.2566.141.3165.3269.1391.4174l-4.2854,2.187Z" style="fill:#2f3942;"/><path d="m223.3853,180.988c-.1779.0908-.5263.0522-.7804-.0875l-6.1061-3.3562c-.2521-.1386-.3151-.3261-.1372-.4169l4.2858-2.1872c.1797-.0917.5307-.0512.7829.0874l6.1061,3.3562c.254.1396.3144.3252.1347.4169l-4.2858,2.1872Z" style="fill:#2f3942;"/><path d="m234.2426,180.2354c-.1775.0906-.5283.0506-.7823-.089l-6.1049-3.3554c-.2529-.139-.316-.3265-.1385-.4171l4.2853-2.1869c.1792-.0915.5303-.0509.7832.0881l6.1049,3.3554c.254.1396.3169.3266.1376.418l-4.2853,2.1869Z" style="fill:#2f3942;"/><path d="m245.4495,179.3011c-.1783.091-.5305.0517-.7846-.088l-6.1023-3.354c-.2542-.1397-.314-.3268-.1357-.4178l4.2854-2.187c.1774-.0906.527-.0513.7812.0884l6.1023,3.354c.2542.1397.3166.3269.1391.4174l-4.2854,2.187Z" style="fill:#2f3942;"/><path d="m232.9175,186.2272c-.1779.0908-.527.0518-.7804-.0875l-6.1049-3.3554c-.2547-.14-.3146-.3258-.1367-.4166l4.2858-2.1872c.1797-.0917.5277-.0529.7823.0871l6.1049,3.3554c.2534.1393.3144.3252.1347.4169l-4.2858,2.1872Z" style="fill:#2f3942;"/><path d="m243.7742,185.4743c-.1775.0906-.5289.0503-.7825-.0891l-6.1042-3.3551c-.2534-.1393-.3147-.3258-.1372-.4164l4.2853-2.1869c.1792-.0915.5285-.0519.7819.0874l6.1042,3.3551c.2535.1394.317.3266.1377.4181l-4.2853,2.1869Z" style="fill:#2f3942;"/><path d="m254.4792,184.2641c-.1783.091-.5293.0523-.7846-.088l-6.1017-3.3537c-.256-.1407-.3146-.3272-.1363-.4182l4.2854-2.187c.1774-.0906.5259-.0519.7818.0887l6.1017,3.3537c.2553.1403.3165.3269.1391.4174l-4.2854,2.187Z" style="fill:#2f3942;"/><path d="m241.9502,191.1919c-.1779.0908-.5294.0505-.7841-.0895l-6.1042-3.3551c-.2529-.139-.3159-.3265-.138-.4173l4.2858-2.1872c.1797-.0917.5307-.0512.7836.0878l6.1042,3.3551c.2547.14.3181.3273.1385.419l-4.2858,2.1872Z" style="fill:#2f3942;"/><path d="m257.7171,193.1379c-.1775.0906-.6667-.0254-1.0986-.2628l-10.3824-5.7066c-.4265-.2344-.6338-.5012-.4563-.5918l4.2853-2.1869c.1792-.0915.6745.0283,1.101.2628l10.3824,5.7066c.4319.2374.6331.5004.4538.5919l-4.2853,2.1869Z" style="fill:#2f3942;"/><path d="m264.0107,189.503c-.1783.091-.5293.0523-.7846-.088l-6.1012-3.3534c-.2566-.141-.3152-.3274-.1368-.4185l4.2854-2.187c.1774-.0906.5257-.052.7823.089l6.1012,3.3534c.2553.1403.3165.3269.1391.4174l-4.2854,2.187Z" style="fill:#2f3942;"/><path d="m250.9781,196.1539c-.1779.0908-.514.059-.7498-.0707l-5.6666-3.1145c-.2358-.1296-.2828-.3083-.1049-.3991l4.2858-2.1872c.1797-.0917.5147-.06.7505.0696l5.6666,3.1145c.2358.1296.2839.3084.1042.4001l-4.2858,2.1872Z" style="fill:#2f3942;"/><path d="m270.5984,186.4051c-.178.0908-.6641-.0221-1.0906-.2565l-10.2518-5.6348c-.4211-.2315-.6227-.4965-.4447-.5873l4.2858-2.1872c.1779-.0908.6691.0264,1.0902.2579l10.2518,5.6348c.4265.2344.623.4952.4451.586l-4.2858,2.1872Z" style="fill:#2f3942;"/><path d="m256.8056,178.824c-.178.0908-.5307.0512-.7843-.0882l-6.1042-3.3551c-.2534-.1393-.3134-.3265-.1354-.4173l4.2858-2.1872c.1779-.0908.5275-.0514.7809.0879l6.1042,3.3551c.2535.1394.3166.3268.1387.4176l-4.2858,2.1872Z" style="fill:#2f3942;"/><path d="m247.274,173.5851c-.178.0908-.5301.0515-.7841-.0881l-6.1049-3.3554c-.2529-.139-.3147-.3272-.1367-.418l4.2858-2.1872c.1779-.0908.5293-.0504.7822.0886l6.1049,3.3554c.254.1396.3165.3268.1386.4175l-4.2858,2.1872Z" style="fill:#2f3942;"/><path d="m238.2431,168.6214c-.178.0908-.5307.0512-.7835-.0878l-6.1061-3.3561c-.2529-.139-.3147-.3272-.1367-.418l4.2858-2.1872c.1779-.0908.5293-.0504.7822.0886l6.1061,3.3561c.2528.1389.3159.3264.138.4172l-4.2858,2.1872Z" style="fill:#2f3942;"/><path d="m228.7097,163.3816c-.178.0908-.5301.0515-.783-.0875l-6.1049-3.3554c-.2528-.1389-.3145-.3271-.1365-.4179l4.2858-2.1872c.1779-.0908.5293-.0504.7821.0885l6.1049,3.3554c.2529.139.3154.3261.1375.4169l-4.2858,2.1872Z" style="fill:#2f3942;"/><path d="m219.6807,158.4189c-.178.0908-.5314.0508-.7836-.0878l-6.1061-3.3562c-.254-.1396-.3132-.3264-.1353-.4172l4.2858-2.1872c.1779-.0908.5267-.0518.7808.0878l6.1061,3.3562c.2523.1386.316.3265.1381.4173l-4.2858,2.1872Z" style="fill:#2f3942;"/><path d="m210.146,153.1783c-.178.0908-.5277.0529-.7806-.0861l-6.1067-3.3564c-.2523-.1386-.3153-.3275-.1373-.4183l4.2858-2.1872c.1779-.0908.5306-.0497.7828.0889l6.1067,3.3564c.2529.139.3129.3248.135.4156l-4.2858,2.1872Z" style="fill:#2f3942;"/><path d="m200.6175,147.9411c-.178.0908-.5307.0512-.7835-.0878l-6.1061-3.3562c-.2547-.14-.3146-.3272-.1367-.418l4.2858-2.1872c.1779-.0908.5275-.0514.7822.0886l6.1061,3.3562c.2528.1389.3159.3264.138.4172l-4.2858,2.1872Z" style="fill:#2f3942;"/><path d="m191.5829,142.9754c-.178.0908-.5277.0529-.7804-.0861l-6.1049-3.3554c-.2566-.141-.314-.3268-.136-.4176l4.2858-2.1872c.1779-.0908.525-.0528.7816.0882l6.1049,3.3554c.2528.1389.3128.3247.1349.4155l-4.2858,2.1872Z" style="fill:#2f3942;"/><path d="m182.0525,137.7372c-.178.0908-.6609-.0204-1.0764-.2488l-10.0313-5.5135c-.4174-.2294-.6095-.4892-.4316-.5801l4.2858-2.1872c.1779-.0908.6597.0212,1.0771.2506l10.0313,5.5135c.4155.2284.6088.4874.4309.5782l-4.2858,2.1872Z" style="fill:#2f3942;"/><path d="m169.0211,144.3874c-.1775.0906-.6591-.0213-1.0746-.2497l-10.0313-5.5135c-.4174-.2294-.6109-.4886-.4334-.5792l4.2853-2.1869c.1792-.0915.6606.0207,1.0781.2501l10.0313,5.5135c.4155.2284.6091.4872.4299.5787l-4.2853,2.1869Z" style="fill:#2f3942;"/><path d="m158.1664,145.1414c-.1779.0908-.5282.0511-.781-.0878l-6.1049-3.3554c-.2523-.1386-.3165-.3269-.1386-.4177l4.2858-2.1872c.1797-.0917.532-.0505.7843.0882l6.1049,3.3554c.2528.1389.3151.3256.1354.4173l-4.2858,2.1872Z" style="fill:#2f3942;"/><path d="m167.6992,150.3809c-.1779.0908-.5294.0505-.7822-.0884l-6.1049-3.3554c-.2535-.1394-.3153-.3262-.1374-.417l4.2858-2.1872c.1797-.0917.5295-.0519.783.0875l6.1049,3.3554c.2528.1389.3162.3262.1365.4179l-4.2858,2.1872Z" style="fill:#2f3942;"/><path d="m176.7301,155.3446c-.1779.0908-.5294.0505-.7847-.0898l-6.1036-3.3547c-.2535-.1394-.314-.3255-.1361-.4163l4.2858-2.1872c.1797-.0917.5282-.0526.7817.0868l6.1036,3.3547c.2553.1403.3188.3276.1391.4193l-4.2858,2.1872Z" style="fill:#2f3942;"/><path d="m221.3177,186.8313c-.1779.0908-.1633.3645-.7788.0262-.6168-.339-53.3183-29.3056-53.9119-29.6319-.5906-.3246-1.1783-.9134-1.0004-1.0042l4.1938-2.1402c.1788-.0912,1.506.5013,1.9662.7542,7.2966,4.0105,59.9356,32.9427,53.6828,29.5059.5812.3195.2209.2584.0421.3497l-4.1938,2.1402Z" style="fill:#2f3942;"/><path d="m244.334,199.5446c-.178.0908-.4332.1535-.6624.0275l-8.5807-4.7163c-.2322-.1276-.4665-.4593-.2885-.5502l4.192-2.1393c.1801-.0919.7947.0457,1.0269.1733l8.5807,4.7163c.2291.1259.1041.2574-.0761.3493l-4.192,2.1393Z" style="fill:#2f3942;"/><path d="m232.7959,193.2028c-.178.0908-.3794.1831-.6098.0564l-8.5825-4.7173c-.2323-.1277-.5171-.4872-.3391-.578l4.192-2.1393c.1801-.0919.8452.0735,1.0776.2011l8.5825,4.7173c.2304.1266.0515.2285-.1286.3204l-4.192,2.1393Z" style="fill:#2f3942;"/><path d="m151.5915,148.5129c-.1788.0912-.3002.2837-.4699.1904l-6.3406-3.485c-.1702-.0935-.408-.4834-.2292-.5747l4.1924-2.1395c.178-.0908.797.1045.9672.198l6.3406,3.485c.1697.0933-.09.0954-.268.1862l-4.1924,2.1395Z" style="fill:#2f3942;"/><path d="m163.1155,154.8469c-.1788.0912-.0787.4054-.3091.2788l-8.5845-4.7183c-.2317-.1273-.3161-.4329-.1373-.5242l4.1924-2.1395c.178-.0908.6437.0202.8753.1476l8.5845,4.7183c.2304.1266-.2509.007-.4289.0978l-4.1924,2.1395Z" style="fill:#2f3942;"/></g><path d="m183.3702,115.4154l119.8789,65.9536c1.0409.5691,3.253.6313,4.6926-.0672,1.8453-.8953,2.8318-2.8126,2.8318-4.0842l1.5994-90.6696c0-2.2636-1.9434-5.1779-4.3186-6.4764l-119.7093-63.5019c-4.2224-2.0754-8.7536,1.7575-8.7536,4.0211v85.6834c-.0122,2.2871.1756,4.2482.8819,5.802.7309,1.6078,1.9961,2.7782,2.8969,3.3391Z" style="fill:#f3f3fb;"/><path d="m185.274,116.4628l117.6438,63.8645c2.3221,1.2867,4.222.5043,4.222-1.7388l1.69-89.316c0-2.243-1.8999-5.131-4.222-6.4177L184.8887,18.3949c-3.9142-1.9354-5.2973.5539-5.2973,2.7969l.0438,86.9015c0,1.5.6846,3.6389,1.4499,5.0701.7652,1.4312,3.0279,2.656,4.1889,3.2993Z" style="fill:#fff;"/><path d="m184.8887,114.7688l117.1081,64.8916c2.3221,1.2867,4.222.5043,4.222-1.7388l1.5994-88.1044c0-2.243-1.8999-5.131-4.222-6.4177l-118.7075-63.8253c-2.3221-1.2867-4.222-.5043-4.222,1.7388v85.5878c0,1.5.1124,3.1453.8776,4.5765.7652,1.4312,2.1833,2.6482,3.3444,3.2916Z" style="fill:#2f3942;"/><polygon points="188.8756 109.5376 298.3799 169.7938 299.9793 89.0027 188.8756 29.2894 188.8756 109.5376" style="fill:#e5e5e5;"/><path d="m144.1084,183.7706l20.0551-10.8721c.7306-.3894,2.1448-.285,2.7348.0207l28.5002,15.3948c.1444.0748.2453.1929.3066.3331.1504-.4139.0567-.8701-.3066-1.0582l-28.5002-15.3948c-.59-.3057-2.0042-.4101-2.7348-.0207l-20.0551,10.8721c-.6816.3601-.7713.892-.599,1.3152.0935-.215.28-.4215.599-.59Z" style="fill:#c1c3c2;"/><path d="m160.8839,203.9259l.6011-.3659c.4995-.3009.6088-1.0273.225-1.2265l-18.5161-10.0737c-.3838-.1992-1.3234-.2288-1.823.0721l-.796.4868,20.309,11.1072Z" style="fill:#d7dada;"/><polygon points="250.417 218.9775 288.8448 197.561 288.8448 195.6726 250.417 217.089 250.417 218.9775" style="fill:#767e7e;"/></g><path d="m426.332,355.6447l-101.8414-62.8536c-4.0405-2.8043-5.7172-5.0492-1.9997-6.2885l51.4655-13.8518c3.7174-1.2394,10.8325.2594,14.2901,2.3848l101.5181,63.1165c3.4576,2.1254,3.245,4.8784-.4724,6.1177l-51.8921,13.9445c-3.7174,1.2394-7.6104-.4442-11.068-2.5696Z" style="fill:url(#c); opacity:.1;"/><path d="m421.8328,275.2595l-39.6423-22.9604c-1.5517-1.0586-2.1221-2.012-.4348-2.854l23.1346-10.0852c1.6873-.842,4.6535-.6132,6,.1623l39.4851,23.1073c1.3465.7755,1.0676,2.0989-.6197,2.9409l-23.3249,10.1583c-1.6873.842-3.2515.3062-4.598-.4692Z" style="fill:url(#d); opacity:.25;"/><g><rect x="408.4756" y="291.8279" width="2.0983" height="5.2601" style="fill:#b9b7b5;"/><rect x="244.1388" y="246.1555" width="2.3763" height="3.6317" style="fill:#b9b7b5;"/><path d="m361.9452,317.618l-115.7994-64.3727c-3.096-1.7073-2.5485-4.5847,1.2165-6.3941l32.3824-17.6046c3.7651-1.8094,9.3786-1.893,12.4746-.1857l116.3475,64.7788c3.096,1.7073,2.5485,4.5847-1.2165,6.3941l-32.9305,17.1986c-3.7651,1.8094-9.3786,1.893-12.4746.1857Z" style="fill:#8f94ba;"/><path d="m361.9452,313.1144l-115.7994-64.3727c-3.096-1.7073-2.5485-4.5847,1.2165-6.3941l32.3824-17.6046c3.7651-1.8094,9.3786-1.893,12.4746-.1857l116.3475,64.7788c3.096,1.7073,2.5485,4.5847-1.2165,6.3941l-32.9305,17.1986c-3.7651,1.8094-9.3786,1.893-12.4746.1857Z" style="fill:#f3f3fb;"/><g><path d="m281.3581,237.6702c-.2108.1076-.6263.0614-.9251-.1028l-7.2153-3.9658c-.2981-.1639-.3726-.3871-.1618-.4947l5.0649-2.5848c.2097-.107.6267-.0586.9248.1053l7.2153,3.9658c.2987.1642.3719.3851.1621.4921l-5.0649,2.5848Z" style="fill:#2f3942;"/><path d="m292.0302,243.5359c-.2108.1076-.6248.0623-.9251-.1028l-7.2145-3.9654c-.3012-.1655-.3719-.3867-.1611-.4942l5.0649-2.5848c.2097-.107.6229-.0606.924.1049l7.2145,3.9654c.3003.165.3719.3851.1621.4921l-5.0649,2.5848Z" style="fill:#2f3942;"/><path d="m290.0478,250.8307c-.2098.1071-.6215.0614-.9203-.1028l-7.2153-3.9658c-.3033-.1667-.3727-.3854-.1629-.4925l5.0648-2.5847c.2118-.1081.6216-.063.9249.1037l7.2153,3.9658c.2987.1642.3701.3836.1583.4917l-5.0648,2.5847Z" style="fill:#2f3942;"/><path d="m303.2984,249.7293c-.2108.1076-.6277.0607-.9273-.104l-7.2159-3.9661c-.2996-.1647-.3696-.3854-.1588-.493l5.0649-2.5848c.2097-.107.6221-.0611.9218.1036l7.2159,3.9661c.2996.1647.3741.3863.1644.4934l-5.0649,2.5848Z" style="fill:#2f3942;"/><path d="m300.7258,256.6997c-.2098.1071-.6252.0594-.9239-.1048l-7.2168-3.9666c-.301-.1654-.3735-.3859-.1636-.4929l5.0648-2.5847c.2118-.1081.6246-.0614.9256.1041l7.2168,3.9666c.2987.1642.3738.3856.1619.4937l-5.0648,2.5847Z" style="fill:#2f3942;"/><path d="m313.9674,255.5934c-.2108.1076-.6224.0636-.9249-.1027l-7.2147-3.9654c-.3003-.165-.3702-.3858-.1594-.4933l5.0649-2.5848c.2097-.107.6221-.0611.9224.104l7.2147,3.9654c.3025.1663.3717.385.162.492l-5.0649,2.5848Z" style="fill:#2f3942;"/><path d="m299.1605,263.7818c-.2103.1073-.6257.0597-.9261-.1054l-7.2138-3.965c-.3003-.165-.374-.3862-.1637-.4935l5.0654-2.585c.2124-.1084.6265-.0609.9268.1041l7.2138,3.965c.3004.1651.3754.3865.163.4948l-5.0654,2.585Z" style="fill:#2f3942;"/><path d="m311.9875,262.8895c-.2098.1071-.6215.0614-.9204-.1029l-7.2174-3.9669c-.2981-.1639-.3742-.3863-.1644-.4934l5.0648-2.5847c.2118-.1081.6283-.0594.9264.1045l7.2174,3.9669c.2989.1643.3703.3836.1584.4918l-5.0648,2.5847Z" style="fill:#2f3942;"/><path d="m325.2342,261.7861c-.2108.1076-.6241.0627-.9258-.1032l-7.2138-3.965c-.2989-.1643-.3719-.3867-.1611-.4942l5.0649-2.5848c.2097-.107.6251-.0594.924.1049l7.2138,3.965c.3018.1659.3726.3855.1629.4925l-5.0649,2.5848Z" style="fill:#2f3942;"/><path d="m309.831,269.6467c-.2103.1073-.6221.0617-.9238-.1042l-7.2138-3.965c-.2989-.1643-.3734-.3859-.1631-.4932l5.0654-2.585c.2124-.1084.6273-.0605.9262.1038l7.2138,3.965c.3018.1659.3731.3852.1608.4936l-5.0654,2.585Z" style="fill:#2f3942;"/><path d="m323.2564,269.0833c-.2098.1071-.6259.059-.924-.1049l-7.2168-3.9666c-.3003-.165-.3718-.3849-.162-.492l5.0648-2.5847c.2118-.1081.6237-.0619.924.1032l7.2168,3.9666c.2981.1639.3739.3856.162.4938l-5.0648,2.5847Z" style="fill:#2f3942;"/><path d="m336.4995,267.9779c-.2108.1076-.6241.0627-.9228-.1015l-7.2168-3.9666c-.2989-.1643-.3704-.3858-.1596-.4934l5.0649-2.5848c.2097-.107.6236-.0602.9225.1041l7.2168,3.9666c.2987.1642.3696.3838.1599.4909l-5.0649,2.5848Z" style="fill:#2f3942;"/><path d="m321.0963,275.8385c-.2103.1073-.6221.0617-.9208-.1025l-7.2168-3.9666c-.2989-.1643-.3719-.3851-.1616-.4924l5.0654-2.585c.2124-.1084.6258-.0613.9247.103l7.2168,3.9666c.2987.1642.3701.3836.1577.4919l-5.0654,2.585Z" style="fill:#2f3942;"/><path d="m333.9277,274.9487c-.2098.1071-.6244.0598-.9233-.1045l-7.2153-3.9658c-.2987-.1642-.3733-.3858-.1635-.4929l5.0648-2.5847c.2118-.1081.6267-.0602.9255.104l7.2153,3.9658c.2989.1643.3731.3852.1613.4933l-5.0648,2.5847Z" style="fill:#2f3942;"/><path d="m347.1731,273.8445c-.2108.1076-.6256.0619-.9258-.1032l-7.2124-3.9642c-.301-.1654-.3725-.387-.1617-.4946l5.0649-2.5848c.2097-.107.6236-.0602.9246.1052l7.2124,3.9642c.3003.165.3726.3855.1629.4925l-5.0649,2.5848Z" style="fill:#2f3942;"/><path d="m332.3645,282.0319c-.2103.1073-.6249.0601-.9252-.1049l-7.2124-3.9642c-.3033-.1667-.374-.3862-.1637-.4935l5.0654-2.585c.2124-.1084.6235-.0626.9268.1041l7.2124,3.9642c.3003.165.3745.386.1621.4944l-5.0654,2.585Z" style="fill:#2f3942;"/><path d="m345.1951,281.1416c-.2098.1071-.6251.0594-.9239-.1048l-7.2168-3.9666c-.2989-.1643-.3735-.3859-.1636-.4929l5.0648-2.5847c.2118-.1081.6267-.0602.9256.1041l7.2168,3.9666c.2987.1642.3737.3856.1619.4937l-5.0648,2.5847Z" style="fill:#2f3942;"/><path d="m357.8488,279.7122c-.2108.1076-.6241.0627-.9273-.104l-7.2174-3.9669c-.2989-.1643-.3681-.3846-.1573-.4922l5.0649-2.5848c.2097-.107.6214-.0615.9203.1028l7.2174,3.9669c.3033.1667.3741.3863.1644.4934l-5.0649,2.5848Z" style="fill:#2f3942;"/><path d="m343.0366,287.8977c-.2103.1073-.6221.0617-.9223-.1034l-7.2168-3.9666c-.298-.1638-.3725-.3854-.1622-.4927l5.0654-2.585c.2124-.1084.6273-.0605.9253.1033l7.2168,3.9666c.3003.165.3716.3844.1593.4928l-5.0654,2.585Z" style="fill:#2f3942;"/><path d="m355.8687,287.0082c-.2098.1071-.6244.0598-.9246-.1052l-7.2153-3.9658c-.2989-.1643-.3735-.3859-.1636-.4929l5.0648-2.5847c.2118-.1081.6267-.0602.9256.1041l7.2153,3.9658c.3003.165.3745.386.1627.4941l-5.0648,2.5847Z" style="fill:#2f3942;"/><path d="m369.1141,285.904c-.2108.1076-.6269.0611-.9274-.104l-7.2123-3.9641c-.3004-.1651-.3711-.3863-.1603-.4938l5.0649-2.5848c.2097-.107.6229-.0606.9233.1045l7.2123,3.9641c.3004.1651.3741.3863.1644.4934l-5.0649,2.5848Z" style="fill:#2f3942;"/><path d="m354.3026,294.0899c-.2103.1073-.6228.0612-.9223-.1034l-7.2153-3.9658c-.301-.1654-.3719-.3851-.1616-.4924l5.0654-2.585c.2124-.1084.6236-.0625.9247.103l7.2153,3.9658c.2995.1646.3716.3844.1593.4928l-5.0654,2.585Z" style="fill:#2f3942;"/><path d="m367.134,293.2c-.2098.1071-.6251.0594-.9248-.1053l-7.2145-3.9654c-.2995-.1646-.372-.385-.1621-.4921l5.0648-2.5847c.2118-.1081.6246-.0614.9241.1032l7.2145,3.9654c.2996.1647.3747.3861.1628.4942l-5.0648,2.5847Z" style="fill:#2f3942;"/><path d="m379.7862,291.7697c-.2108.1076-.6256.0619-.9273-.104l-7.2115-3.9637c-.3025-.1663-.3719-.3867-.1611-.4942l5.0649-2.5848c.2097-.107.6215-.0614.924.1049l7.2115,3.9637c.3018.1659.3741.3863.1644.4934l-5.0649,2.5848Z" style="fill:#2f3942;"/><path d="m364.9783,299.9576c-.2103.1073-.6257.0597-.9267-.1058l-7.2145-3.9654c-.2989-.1643-.3734-.3859-.1631-.4932l5.0654-2.585c.2124-.1084.6273-.0605.9262.1038l7.2145,3.9654c.301.1654.376.3868.1636.4952l-5.0654,2.585Z" style="fill:#2f3942;"/><path d="m383.6131,302.2576c-.2098.1071-.7879-.0301-1.2984-.3106l-12.2709-6.7445c-.5041-.2771-.7491-.5923-.5393-.6994l5.0648-2.5847c.2118-.1081.7972.0335,1.3013.3105l12.2709,6.7445c.5105.2806.7482.5914.5364.6995l-5.0648,2.5847Z" style="fill:#2f3942;"/><path d="m391.0515,297.9615c-.2108.1076-.6256.0619-.9273-.104l-7.2109-3.9634c-.3033-.1667-.3725-.387-.1617-.4946l5.0649-2.5848c.2097-.107.6214-.0615.9246.1052l7.2109,3.9634c.3018.1659.3741.3863.1644.4934l-5.0649,2.5848Z" style="fill:#2f3942;"/><path d="m375.6483,305.8222c-.2103.1073-.6074.0697-.8862-.0835l-6.6973-3.681c-.2787-.1532-.3343-.3644-.124-.4717l5.0654-2.585c.2124-.1084.6083-.0709.8871.0823l6.6973,3.681c.2787.1532.3355.3645.1231.4729l-5.0654,2.585Z" style="fill:#2f3942;"/><path d="m398.8373,294.3001c-.2104.1074-.7849-.0262-1.289-.3032l-12.1165-6.6597c-.4977-.2736-.736-.5868-.5256-.6941l5.0654-2.585c.2103-.1073.7908.0312,1.2885.3048l12.1165,6.6597c.5041.277.7363.5853.526.6926l-5.0654,2.585Z" style="fill:#2f3942;"/><path d="m382.5358,285.3401c-.2104.1074-.6273.0605-.9269-.1042l-7.2145-3.9654c-.2995-.1646-.3704-.3858-.16-.4932l5.0654-2.585c.2103-.1073.6235-.0608.923.1038l7.2145,3.9654c.2996.1647.3742.3863.164.4936l-5.0654,2.585Z" style="fill:#2f3942;"/><path d="m371.2704,279.1483c-.2104.1074-.6265.0609-.9268-.1041l-7.2153-3.9658c-.2989-.1643-.3719-.3867-.1615-.494l5.0654-2.585c.2103-.1073.6256-.0596.9245.1047l7.2153,3.9658c.3003.165.3741.3862.1638.4935l-5.0654,2.585Z" style="fill:#2f3942;"/><path d="m360.5969,273.2817c-.2104.1074-.6273.0605-.926-.1037l-7.2168-3.9666c-.2989-.1643-.3719-.3867-.1615-.494l5.0654-2.585c.2103-.1073.6256-.0596.9245.1047l7.2168,3.9666c.2987.1642.3733.3858.1631.4931l-5.0654,2.585Z" style="fill:#2f3942;"/><path d="m349.3294,267.0888c-.2104.1074-.6265.0609-.9254-.1034l-7.2153-3.9658c-.2987-.1642-.3717-.3866-.1614-.4939l5.0654-2.585c.2103-.1073.6256-.0596.9243.1046l7.2153,3.9658c.2989.1643.3727.3854.1625.4927l-5.0654,2.585Z" style="fill:#2f3942;"/><path d="m338.6581,261.2234c-.2104.1074-.628.0601-.9262-.1038l-7.2168-3.9666c-.3003-.165-.3702-.3858-.1599-.4931l5.0654-2.585c.2103-.1073.6226-.0613.9228.1038l7.2168,3.9666c.2981.1639.3735.3859.1632.4932l-5.0654,2.585Z" style="fill:#2f3942;"/><path d="m327.3892,255.0296c-.2104.1074-.6236.0625-.9225-.1018l-7.2174-3.9669c-.2981-.1639-.3726-.3871-.1623-.4944l5.0654-2.585c.2103-.1073.6271-.0588.9252.1051l7.2174,3.9669c.2989.1643.3698.3839.1596.4912l-5.0654,2.585Z" style="fill:#2f3942;"/><path d="m316.1275,248.8398c-.2104.1074-.6273.0605-.926-.1037l-7.2168-3.9666c-.301-.1654-.3719-.3867-.1615-.494l5.0654-2.585c.2103-.1073.6235-.0608.9245.1047l7.2168,3.9666c.2987.1642.3733.3858.1631.4931l-5.0654,2.585Z" style="fill:#2f3942;"/><path d="m305.4496,242.9708c-.2104.1074-.6236.0625-.9224-.1017l-7.2153-3.9658c-.3033-.1667-.3711-.3863-.1608-.4936l5.0654-2.585c.2103-.1073.6204-.0624.9237.1043l7.2153,3.9658c.2987.1642.3697.3838.1594.4911l-5.0654,2.585Z" style="fill:#2f3942;"/><path d="m294.1857,236.7799c-.2104.1074-.7811-.0241-1.2722-.294l-11.8559-6.5164c-.4934-.2712-.7204-.5782-.5101-.6856l5.0654-2.585c.2103-.1073.7796.0251,1.273.2962l11.8559,6.5164c.4911.2699.7195.5761.5093.6834l-5.0654,2.585Z" style="fill:#2f3942;"/><path d="m278.784,244.6398c-.2098.1071-.779-.0251-1.2701-.2951l-11.8559-6.5164c-.4934-.2712-.722-.5774-.5122-.6845l5.0648-2.5847c.2118-.1081.7808.0245,1.2742.2956l11.8559,6.5164c.4911.2699.7199.5758.5081.684l-5.0648,2.5847Z" style="fill:#2f3942;"/><path d="m265.9549,245.5309c-.2103.1073-.6243.0604-.9231-.1038l-7.2153-3.9658c-.2981-.1639-.3741-.3863-.1639-.4936l5.0654-2.585c.2124-.1084.6288-.0596.9269.1042l7.2153,3.9658c.2987.1642.3724.3848.16.4932l-5.0654,2.585Z" style="fill:#2f3942;"/><path d="m277.2216,251.7234c-.2103.1073-.6257.0597-.9244-.1045l-7.2153-3.9658c-.2996-.1647-.3726-.3855-.1624-.4928l5.0654-2.585c.2124-.1084.6258-.0613.9254.1034l7.2153,3.9658c.2987.1642.3737.3856.1614.4939l-5.0654,2.585Z" style="fill:#2f3942;"/><path d="m287.8951,257.59c-.2103.1073-.6257.0597-.9274-.1062l-7.2138-3.965c-.2996-.1647-.3711-.3847-.1608-.492l5.0654-2.585c.2124-.1084.6242-.0621.9239.1026l7.2138,3.965c.3018.1659.3768.3872.1644.4956l-5.0654,2.585Z" style="fill:#2f3942;"/><path d="m340.5929,294.8038c-.2103.1073-.193.4308-.9204.031-.7289-.4007-63.0164-34.6361-63.718-35.0217-.698-.3836-1.3927-1.0795-1.1824-1.1868l4.9566-2.5295c.2113-.1078,1.78.5924,2.3238.8913,8.6238,4.7399,70.8374,38.9347,63.4473,34.8729.6869.3776.2611.3054.0498.4133l-4.9566,2.5295Z" style="fill:#2f3942;"/><path d="m367.7957,309.8296c-.2104.1074-.512.1814-.7828.0325l-10.1415-5.5741c-.2744-.1508-.5513-.5429-.341-.6502l4.9545-2.5284c.2129-.1087.9393.054,1.2137.2048l10.1415,5.5741c.2708.1488.123.3042-.0899.4128l-4.9545,2.5284Z" style="fill:#2f3942;"/><path d="m354.1589,302.3343c-.2104.1074-.4484.2163-.7207.0667l-10.1436-5.5753c-.2746-.1509-.6112-.5758-.4008-.6831l4.9545-2.5284c.2129-.1087.999.0868,1.2736.2377l10.1436,5.5753c.2723.1497.0609.27-.152.3787l-4.9545,2.5284Z" style="fill:#2f3942;"/><path d="m258.184,249.5157c-.2113.1078-.3548.3352-.5554.225l-7.4939-4.1189c-.2011-.1106-.4822-.5713-.2709-.6792l4.955-2.5287c.2104-.1074.942.1235,1.1431.2341l7.4939,4.1189c.2006.1102-.1064.1128-.3168.2201l-4.955,2.5287Z" style="fill:#2f3942;"/><path d="m271.8042,257.0018c-.2113.1078-.093.4791-.3653.3295l-10.1459-5.5765c-.2738-.1505-.3736-.5117-.1623-.6195l4.955-2.5287c.2104-.1074.7607.0239,1.0345.1744l10.1459,5.5765c.2723.1497-.2965.0083-.5069.1156l-4.955,2.5287Z" style="fill:#2f3942;"/></g></g><g><path d="m395.6628,259.1333l-57.1455-31.7671c-1.5278-.8425-1.2577-2.2625.6003-3.1554l15.9803-8.6877c1.858-.8929,4.6282-.9342,6.156-.0916l57.4159,31.9675c1.5278.8425,1.2577,2.2625-.6003,3.1554l-16.2508,8.4873c-1.858.8929-4.6282.9342-6.156.0916Z" style="fill:#8f94ba;"/><rect x="337.4732" y="221.4513" width="6.9949" height="4.5623" style="fill:#b9b7b5;"/><rect x="416.6323" y="244.55" width="3.0342" height="4.1439" style="fill:#b9b7b5;"/><path d="m395.6689,255.1525l-57.1455-31.7671c-1.5278-.8425-1.2577-2.2625.6003-3.1554l15.9803-8.6877c1.858-.8929,4.6282-.9342,6.156-.0916l57.4159,31.9675c1.5278.8425,1.2577,2.2625-.6003,3.1554l-16.2508,8.4873c-1.858.8929-4.6282.9342-6.156.0916Z" style="fill:#f3f3fb;"/><polygon points="391.7836 193.3825 368.946 181.5206 368.946 227.3947 388.4842 241.1927 391.7836 239.2566 391.7836 193.3825" style="fill:#8f94ba;"/><polygon points="388.59 195.2074 365.7524 183.3455 365.7524 229.2196 388.59 241.0815 388.59 195.2074" style="fill:#ececeb;"/></g><g><path d="m301.7665,159.3593l174.0317,95.7468c1.5111.8261,4.7225.9165,6.8123-.0975,2.6788-1.2998,4.111-4.0831,4.111-5.9291l2.3219-131.6277c0-3.2861-2.8212-7.517-6.2694-9.402L308.9886,15.8622c-6.1298-3.0129-12.7079,2.5514-12.7079,5.8375v124.389c-.0177,3.3203.2549,6.1673,1.2803,8.423,1.0611,2.3341,2.8978,4.0331,4.2055,4.8475Z" style="fill:#f3f3fb;"/><path d="m304.5303,160.8798l170.787,92.714c3.371,1.8679,6.1291.732,6.1291-2.5242l2.4535-129.6627c0-3.2563-2.7581-7.4488-6.1291-9.3167L303.9709,18.5117c-5.6823-2.8096-7.6902.8041-7.6902,4.0604l.0636,126.1575c0,2.1776.9939,5.2827,2.1048,7.3604,1.1109,2.0777,4.3956,3.8558,6.0811,4.7897Z" style="fill:#fff;"/><path d="m303.9709,158.4206l170.0093,94.205c3.371,1.8679,6.1291.732,6.1291-2.5242l2.3219-127.9038c0-3.2563-2.7581-7.4488-6.1291-9.3167L303.9709,20.2237c-3.371-1.8679-6.1291-.732-6.1291,2.5242v124.2503c0,2.1776.1631,4.5661,1.274,6.6438,1.1109,2.0777,3.1696,3.8445,4.8551,4.7785Z" style="fill:#2f3942;"/><polygon points="309.7588 150.8263 468.7294 238.3019 471.0513 121.0151 309.7588 34.3276 309.7588 150.8263" style="fill:#e5e5e5;"/></g></g><g id="e"><g id="f"><g id="g"><path id="i" d="m378.7258,175.0623c-12.7831-7.1759-23.1515-34.4181-23.1129-60.7273.0386-26.3092,10.4698-41.8755,23.2529-34.6996,12.7831,7.1759,23.1514,34.4178,23.1128,60.7272-.0386,26.3094-10.4696,41.8756-23.2528,34.6997Zm.1341-91.4123c-11.7024-6.5692-21.2517,7.6896-21.2871,31.7852-.0353,24.0956,9.4565,49.0433,21.1589,55.6125,11.7024,6.5692,21.2516-7.6899,21.2869-31.7853.0353-24.0954-9.4564-49.0432-21.1588-55.6123Z" style="fill:url(#h);"/><path id="k" d="m378.8657,79.6541c-12.7782-7.1731-23.2052,8.3869-23.2438,34.686-.0386,26.2991,10.3258,53.5305,23.1039,60.7036,12.7781,7.173,23.2051-8.3873,23.2437-34.6862.0386-26.2989-10.3257-53.5304-23.1038-60.7034Z" style="fill:url(#j); isolation:isolate; opacity:.32;"/><path id="m" d="m378.7258,175.0623c-12.7831-7.1759-23.1515-34.4181-23.1129-60.7273.0386-26.3092,10.4698-41.8755,23.2529-34.6996,12.7831,7.1759,23.1514,34.4178,23.1128,60.7272-.0386,26.3094-10.4696,41.8756-23.2528,34.6997Zm.1341-91.4123c-11.7024-6.5692-21.2517,7.6896-21.2871,31.7852-.0353,24.0956,9.4565,49.0433,21.1589,55.6125,11.7024,6.5692,21.2516-7.6899,21.2869-31.7853.0353-24.0954-9.4564-49.0432-21.1588-55.6123Z" style="fill:url(#l); isolation:isolate; opacity:.44;"/><path id="n" d="m378.8595,83.9056c-11.7925-6.6198-21.4154,7.7401-21.451,32.0107-.0356,24.2706,9.5293,49.4016,21.3219,56.0214s21.4153-7.7404,21.4509-32.0108-9.5292-49.4015-21.3218-56.0213Z"/><path id="o" d="m378.7258,175.0623c-12.7831-7.1759-23.1515-34.4181-23.1129-60.7273.0386-26.3092,10.4698-41.8755,23.2529-34.6996,12.7831,7.1759,23.1514,34.4178,23.1128,60.7272-.0386,26.3094-10.4696,41.8756-23.2528,34.6997Zm.1385-94.4057c-12.7831-7.1758-23.2139,8.1056-23.2519,34.0648s10.3308,52.9167,23.1139,60.0925c12.7831,7.1758,23.2138-8.1059,23.2518-34.065.0381-25.9591-10.3306-52.9165-23.1137-60.0924Z" style="fill:#0f0f0d; isolation:isolate; opacity:.35;"/></g><g id="p"><path id="r" d="m378.8598,83.6501c-11.7075-6.5721-21.261,7.6842-21.2964,31.78s9.4606,49.0456,21.1682,55.6177c11.7076,6.5721,21.261-7.6845,21.2963-31.7801.0353-24.0955-9.4606-49.0455-21.1681-55.6176Z" style="fill:url(#q);"/><path id="t" d="m378.8598,83.6501c-11.7075-6.5721-21.261,7.6842-21.2964,31.78s9.4606,49.0456,21.1682,55.6177c11.7076,6.5721,21.261-7.6845,21.2963-31.7801.0353-24.0955-9.4606-49.0455-21.1681-55.6176Z" style="fill:url(#s); isolation:isolate; opacity:.13;"/><path id="v" d="m378.8545,87.2832c-3.4872-1.9576-6.3328,2.2889-6.3434,9.4661-.0105,7.1772,2.818,14.6088,6.3052,16.5664s6.3328-2.289,6.3434-9.4661c.0105-7.1771-2.818-14.6088-6.3052-16.5664Z" style="fill:url(#u); isolation:isolate; opacity:.7;"/><path id="x" d="m367.692,83.7639c-.001.0145-.0021.0285-.0032.0428-.0276-.0049-.028-.0186.0032-.0428Zm15.9918,37.0485l-.3095,10.6331,3.4536,9.7144-3.4764,5.8242,2.2829,6.4213-2.2979,3.8499.2779,10.8746-9.749-5.4726.0694-47.3175c-3.8701-6.2581-6.5-16.5643-6.4851-26.7038.0025-1.697.1202-3.2.2391-4.8293.4207.0729,7.2291-1.9754,7.2291-1.9754-.0574.6023,7.938,5.0905,7.8825,4.4249,0,0,6.5609,9.5057,7.2197,10.161.1643,1.7596.2189,3.3385.2164,5.0103-.0149,10.1396-2.7293,17.4458-6.5527,19.3851Zm6.3251-24.5208c.004.0423.0072.0833.0112.1255.0721.0718.0746.0391-.0112-.1255Z" style="fill:url(#w); isolation:isolate; opacity:.3;"/><path id="y" d="m367.378,149.5063c-3.7579-8.8592-6.1287-20.1397-6.1124-31.2648.019-12.945,3.3258-23.0479,8.7533-26.6784-.0986,1.2402-.1972,2.3808-.1991,3.6753-.0112,7.6674,2.1557,15.5611,5.3437,20.4401l-.0513,34.9517,4.0028,10.5187,4.027-6.0112-.2312-7.4049,1.8922-2.8246-1.8808-4.9425,2.8626-4.273-2.8453-7.4772.2538-8.0296c3.1487-1.3219,5.3836-6.7445,5.3949-14.412.0019-1.2945-.0447-2.5166-.188-3.8926,1.9623,3.5463,3.6433,7.645,4.9892,12.0511-3.2542-11.0706-8.5539-20.0597-14.5484-23.4247-9.9321-5.5754-18.0078,6.3969-18.0377,26.7409-.0169,11.5116,2.5466,23.236,6.5745,32.2574h0Zm10.4473-.1434l-1.3544-.7603.0405-27.583,1.3544.7603-.0405,27.583Zm-1.8499-59.0402c1.0648.1991,2.1776.6245,3.2418,1.2219,1.1127.5249,2.1764,1.421,3.2401,2.4168.0477.525.0953,1.05.0945,1.5479-.0055,3.7839-1.5096,6.0291-3.3478,4.9972s-3.3332-4.9605-3.3276-8.7445c.0007-.4979.0499-.9686.0989-1.4393Z" style="fill:#0f0f0d; isolation:isolate; opacity:.2;"/><path id="aa" d="m378.8598,83.6501c-11.7024-6.5692-21.2517,7.6896-21.2871,31.7852-.0353,24.0956,9.4565,49.0433,21.1589,55.6125,11.7024,6.5692,21.2516-7.6899,21.2869-31.7853.0353-24.0954-9.4564-49.0432-21.1588-55.6123Zm-3.252,5.6927c1.0648.1991,2.1776.6245,3.2418,1.2219,1.1127.5249,2.1764,1.421,3.2401,2.4168.0477.525.0953,1.05.0945,1.5479-.0055,3.7839-1.5096,6.0291-3.3478,4.9972s-3.3332-4.9605-3.3276-8.7445c.0007-.4979.0499-.9686.0989-1.4393Zm1.8903,31.4572l-.0405,27.583-1.3544-.7603.0405-27.583,1.3544.7603Zm1.2436,43.3524c-9.868-5.5394-17.8737-26.4773-17.8437-46.8907.019-12.945,3.3258-23.0479,8.7533-26.6784-.0986,1.2402-.1972,2.3808-.1991,3.6753-.0112,7.6674,2.1557,15.5611,5.3437,20.4401l-.0513,34.9517,4.0028,10.5187,4.027-6.0112-.2312-7.4049,1.8922-2.8246-1.8808-4.9425,2.8626-4.273-2.8453-7.4772.2538-8.0296c3.1487-1.3219,5.3836-6.7445,5.3949-14.412.0019-1.2945-.0447-2.5166-.188-3.8926,5.3595,9.6858,8.6313,23.4815,8.6607,36.4538-.0298,20.3138-8.0355,32.3633-17.9518,26.7967v.0002Z" style="fill:url(#z);"/></g></g></g><g id="ab"><g id="ac"><g id="ad"><path id="af" d="m240.7627,125.1783c-8.317-4.4557-14.8258-21.4178-14.5093-37.8112s7.3403-26.1057,15.6573-21.65,14.8257,21.4176,14.5092,37.8112c-.3165,16.3936-7.3402,26.1057-15.6572,21.6501Zm1.0997-56.9597c-7.6138-4.079-14.0439,4.8174-14.3338,19.8316-.2899,15.0142,5.6686,30.5476,13.2824,34.6266,7.6138,4.079,14.0439-4.8176,14.3337-19.8317.2899-15.014-5.6685-30.5475-13.2823-34.6265Z" style="fill:url(#ae);"/><path id="ah" d="m241.9105,65.7287c-8.3137-4.4539-15.3348,5.2544-15.6511,21.6415-.3164,16.3872,6.1899,33.3425,14.5036,37.7965s15.3347-5.2546,15.6511-21.6416c.3164-16.387-6.1898-33.3425-14.5035-37.7964Z" style="fill:url(#ag); isolation:isolate; opacity:.32;"/><path id="aj" d="m240.7627,125.1783c-8.317-4.4557-14.8258-21.4178-14.5093-37.8112s7.3403-26.1057,15.6573-21.65,14.8257,21.4176,14.5092,37.8112c-.3165,16.3936-7.3402,26.1057-15.6572,21.6501Zm1.0997-56.9597c-7.6138-4.079-14.0439,4.8174-14.3338,19.8316-.2899,15.0142,5.6686,30.5476,13.2824,34.6266,7.6138,4.079,14.0439-4.8176,14.3337-19.8317.2899-15.014-5.6685-30.5475-13.2823-34.6265Z" style="fill:url(#ai); isolation:isolate; opacity:.44;"/><path id="ak" d="m241.8593,68.3778c-7.6725-4.1104-14.152,4.8491-14.444,19.9723-.292,15.1232,5.7124,30.7708,13.3849,34.8812s14.1519-4.8493,14.4439-19.9724c.292-15.123-5.7124-30.7707-13.3848-34.8811Z"/><path id="al" d="m240.7627,125.1783c-8.317-4.4557-14.8258-21.4178-14.5093-37.8112s7.3403-26.1057,15.6573-21.65,14.8257,21.4176,14.5092,37.8112c-.3165,16.3936-7.3402,26.1057-15.6572,21.6501Zm1.1357-58.8249c-8.3169-4.4557-15.3373,5.079-15.6496,21.2545-.3123,16.1754,6.2,32.9601,14.5169,37.4157s15.3373-5.0793,15.6496-21.2546c.3123-16.1753-6.1999-32.96-14.5168-37.4156Z" style="fill:#0f0f0d; isolation:isolate; opacity:.35;"/></g><g id="am"><path id="ao" d="m241.8624,68.2186c-7.6172-4.0808-14.05,4.8141-14.3399,19.8284-.2899,15.0142,5.6713,30.549,13.2885,34.6298,7.6172,4.0808,14.05-4.8143,14.3398-19.8284.2899-15.0141-5.6713-30.549-13.2884-34.6297Z" style="fill:url(#an);"/><path id="aq" d="m241.8624,68.2186c-7.6172-4.0808-14.05,4.8141-14.3399,19.8284-.2899,15.0142,5.6713,30.549,13.2885,34.6298,7.6172,4.0808,14.05-4.8143,14.3398-19.8284.2899-15.0141-5.6713-30.549-13.2884-34.6297Z" style="fill:url(#ap); isolation:isolate; opacity:.13;"/><path id="as" d="m241.8187,70.4824c-2.2689-1.2155-4.1849,1.434-4.2713,5.9061-.0863,4.4722,1.6893,9.0994,3.9581,10.3149s4.1849-1.434,4.2713-5.9061c.0863-4.4721-1.6893-9.0994-3.9581-10.3149Z" style="fill:url(#ar); isolation:isolate; opacity:.7;"/><path id="au" d="m234.5257,68.3032c-.0008.009-.0017.0177-.0025.0267-.0181-.003-.0182-.0115.0025-.0267Zm10.094,23.0656l-.321,6.6259,2.1609,6.0489-2.3479,3.6333,1.4284,3.9984-1.552,2.4017.0622,6.7757-6.3429-3.3981.5692-29.4839c-2.4728-3.8947-4.0861-10.3134-3.9641-16.6314.0204-1.0574.1144-1.9941.2105-3.0095.2755.0449,4.7702-1.2397,4.7702-1.2397-.0443.3754,5.1576,3.1622,5.1285,2.7475,0,0,4.2042,5.915,4.6297,6.3225.0884,1.0962.1068,2.08.0867,3.1217-.122,6.3181-1.9858,10.8739-4.5186,12.087Zm4.4259-15.2868c.0022.0264.0038.0519.006.0782.0466.0446.0486.0243-.006-.0782Z" style="fill:url(#at); isolation:isolate; opacity:.3;"/><path id="av" d="m233.5919,109.268c-2.3703-5.5156-3.8026-12.5416-3.6688-19.4738.1557-8.0662,2.4396-14.3653,6.0447-16.6342-.0785.7729-.1559,1.4837-.1714,2.2904-.0922,4.7776,1.2437,9.6936,3.2837,12.7298l-.4205,21.7787,2.5127,6.5494,2.7116-3.7505-.0699-4.6137,1.2741-1.7623-1.1807-3.0774,1.9275-2.6661-1.7862-4.6556.2556-5.0036c2.0828-.8275,3.6108-4.2091,3.703-8.9868.0156-.8066-.0015-1.5681-.0804-2.4253,1.2497,2.2073,2.3084,4.7592,3.1437,7.503-2.0149-6.8942-5.3965-12.4888-9.2966-14.5783-6.462-3.4619-11.8989,4.008-12.1437,16.6845-.1385,7.1729,1.4155,14.4753,3.9614,20.0917h0Zm6.8637-.1021l-.8812-.4721.3318-17.1872.8812.4721-.3318,17.1872Zm-.5617-36.786c.6972.1228,1.4234.3864,2.1158.7574.7251.3257,1.4138.8828,2.1014,1.5019.0255.3271.051.6542.045.9644-.0455,2.3578-1.0583,3.7586-2.2542,3.1179s-2.1344-3.0868-2.0889-5.4447c.006-.3102.0435-.6036.0809-.897Z" style="fill:#0f0f0d; isolation:isolate; opacity:.2;"/><path id="ax" d="m241.8624,68.2186c-7.6138-4.079-14.0439,4.8174-14.3338,19.8316-.2899,15.0142,5.6686,30.5476,13.2824,34.6266,7.6138,4.079,14.0439-4.8176,14.3337-19.8317.2899-15.014-5.6685-30.5475-13.2823-34.6265Zm-2.199,3.5512c.6972.1228,1.4234.3864,2.1158.7574.7251.3257,1.4138.8828,2.1014,1.5019.0255.3271.051.6542.045.9644-.0455,2.3578-1.0583,3.7586-2.2542,3.1179s-2.1344-3.0868-2.0889-5.4447c.006-.3102.0435-.6036.0809-.897Zm.8935,19.5989l-.3318,17.1872-.8812-.4721.3318-17.1872.8812.4721Zm.337,27.0116c-6.4203-3.4396-11.447-16.4763-11.2014-29.196.1557-8.0662,2.4396-14.3653,6.0447-16.6342-.0785.7729-.1559,1.4837-.1714,2.2904-.0922,4.7776,1.2437,9.6936,3.2837,12.7298l-.4205,21.7787,2.5127,6.5494,2.7116-3.7505-.0699-4.6137,1.2741-1.7623-1.1807-3.0774,1.9275-2.6661-1.7862-4.6556.2556-5.0036c2.0828-.8275,3.6108-4.2091,3.703-8.9868.0156-.8066-.0015-1.5681-.0804-2.4253,3.4131,6.0287,5.4095,14.6209,5.2852,22.704-.2444,12.6577-5.6361,20.1756-12.0879,16.7192h0Z" style="fill:url(#aw);"/></g></g></g></g><g><path d="m160.5064,364.7461l-54.9378-25.1134c-4.3563-3.034-4.587-7.3026-.7277-8.4292l68.3417-37.2067c3.8593-1.1265,7.114-.1629,10.8312,2.152l54.0069,37.6638c3.7172,2.3149-1.0507,10.4875-4.91,11.6141l-13.0694,5.7127c-3.8593,1.1265-55.8176,15.9217-59.5348,13.6068Z" style="fill:url(#ay); opacity:.1;"/><g><path d="m181.9812,253.906l-102.9069,65.9408c-2.9927,1.2694-6.2249-.5035-6.2249-3.2141v-76.7243c0-2.7106,2.6225-5.3497,5.2672-6.7206l72.2822-38.8817c2.8331-1.2694,4.1981-1.6815,8.196.9613l20.0146,12.0021c1.8771,1.0909,3.0633,1.563,3.0456,5.3559-.0855,18.3714.3261,41.2806.3261,41.2806Z" style="fill:#ba8736;"/><polygon points="72.8494 319.1136 102.7387 337.5653 99.9231 254.2469 72.8494 238.9742 72.8494 319.1136" style="fill:#997033;"/><path d="m177.2162,297.747l-71.6618,39.6819c-2.7074,1.1591-5.6313-1.2068-5.6313-3.6818v-78.2729c0-2.475,2.3724-4.8847,4.765-6.1364l75.4993-41.0781c2.0535,2.0503,1.3822,4.2394,1.3822,6.7144l.4116,76.6365c0,2.475-1.7829,4.8163-4.765,6.1364Z" style="fill:#edb145;"/><path d="m150.444,269.5319c3.6823-6.0232,3.3922-12.6918-.6479-14.8947-4.0401-2.2029-10.3004.8942-13.9827,6.9174-3.6823,6.0233-3.3922,12.6919.6479,14.8947.6534.3563,1.3654.5718,2.1147.6609l-1.2483,18.2164,14.6198-7.0568-3.2553-16.3108c.628-.7434,1.2177-1.5533,1.7518-2.427Z" style="fill:#2f3942;"/><path d="m133.8983,157.5724c-2.9661-.0311-6.1546.6047-9.4747,1.9864-15.7362,6.5486-28.5385,27.3488-28.5385,46.3672v33.451l3.8559,1.7539,6.0971-6.537v-32.3153c0-13.1775,8.6523-27.5898,19.2875-32.1272,2.1471-.916,4.2109-1.353,6.1415-1.3708,7.5406.2346,12.9305,6.7688,12.9305,17.0402v27.1911l.2156-.1176v.1176l3.6403,1.1264,4.9087-5.9094v-26.0555c0-15.222-8.0001-24.7576-19.0639-24.6011Z" style="fill:#9e7438;"/><path d="m137.7542,158.6989c-2.9661-.0311-6.1546.6047-9.4747,1.9864-15.7362,6.5486-28.5385,27.3488-28.5385,46.3672v34.0785l1.4041-.6275,8.549-4.783v-32.3153c0-13.1775,8.6523-27.5898,19.2875-32.1272,2.1471-.916,4.2109-1.353,6.1415-1.3708,7.5406.2346,12.9305,6.7688,12.9305,17.0402v27.1911l.2156-.1176v.1176l8.549-4.7829v-26.0555c0-15.222-8.0001-24.7576-19.0639-24.6011Z" style="fill:#ce9849;"/></g></g></svg>