<?xml version="1.0" encoding="UTF-8"?><svg xmlns="http://www.w3.org/2000/svg" xmlns:xlink="http://www.w3.org/1999/xlink" viewBox="0 0 791.0489 515.0429"><defs><linearGradient id="b" x1="430.8445" y1="624.6556" x2="392.4454" y2="317.7524" gradientUnits="userSpaceOnUse"><stop offset=".2097" stop-color="#3a81bb" stop-opacity="0"/><stop offset=".6996" stop-color="#1f4d82"/></linearGradient><linearGradient id="g" x1="160.7524" y1="1063.266" x2="160.7524" y2="783.5613" gradientTransform="translate(-20.9 1076.7091) scale(1 -1)" gradientUnits="userSpaceOnUse"><stop offset="0" stop-color="#414141"/><stop offset=".196" stop-color="#3e3e3e"/><stop offset="1" stop-color="#3a3a3a"/></linearGradient><radialGradient id="i" cx="613.332" cy="1679.7233" fx="613.332" fy="1679.7233" r="475.8974" gradientTransform="translate(-86.026 738.3911) scale(.3539 -.3539)" gradientUnits="userSpaceOnUse"><stop offset=".6733" stop-color="#fcfcfc" stop-opacity="0"/><stop offset="1" stop-color="#fcfcfc"/></radialGradient><radialGradient id="k" cx="632.4975" cy="1617.0363" fx="632.4975" fy="1617.0363" r="395.8793" gradientTransform="translate(-86.026 738.3911) scale(.3539 -.3539)" gradientUnits="userSpaceOnUse"><stop offset=".1088" stop-color="#0f0f0d" stop-opacity="0"/><stop offset=".8856" stop-color="#414141" stop-opacity="0"/><stop offset=".9339" stop-color="#1e1e1d" stop-opacity=".6841"/><stop offset=".9874" stop-color="#0f0f0d"/></radialGradient><radialGradient id="p" cx="645.6916" cy="2897.7591" fx="645.6916" fy="2897.7591" r="768.9273" gradientTransform="translate(-86.026 668.8996) scale(.3539 -.2026)" gradientUnits="userSpaceOnUse"><stop offset="0" stop-color="#2e6b26"/><stop offset="1" stop-color="#6ab536"/></radialGradient><radialGradient id="r" cx="670.8078" cy="1485.2692" fx="670.8078" fy="1485.2692" r="340.1232" gradientTransform="translate(-86.026 772.0998) scale(.3539 -.4347)" gradientUnits="userSpaceOnUse"><stop offset="0" stop-color="#000"/><stop offset=".7192" stop-color="#fff"/></radialGradient><radialGradient id="t" cx="639.9387" cy="1858.4611" fx="639.9387" fy="1858.4611" r="150.169" gradientTransform="translate(-86.026 738.3911) scale(.3539 -.3539)" gradientUnits="userSpaceOnUse"><stop offset="0" stop-color="#6ab536"/><stop offset="1" stop-color="#2e6b26"/></radialGradient><radialGradient id="v" cx="665.7245" cy="1283.6889" fx="665.7245" fy="1283.6889" r="221.8007" gradientTransform="translate(-83.761 826.1585) scale(.3356 -.5572)" gradientUnits="userSpaceOnUse"><stop offset="0" stop-color="#000"/><stop offset=".7842" stop-color="#4f4f4f" stop-opacity="0"/></radialGradient><radialGradient id="y" cx="636.7401" cy="1903.5967" fx="636.7401" fy="1903.5967" r="513.2746" gradientTransform="translate(-86.026 738.3911) scale(.3539 -.3539)" gradientUnits="userSpaceOnUse"><stop offset="0" stop-color="#f5f5f5"/><stop offset="1" stop-color="#e3e3e3"/></radialGradient></defs><g id="a"><polygon points="791.0489 515.0429 57.3584 491.354 38.7519 479.4029 650.6748 324.3392 791.0489 515.0429" style="fill:url(#b); opacity:.1;"/><g><path d="m651.118,326.432V10.8855c0-5.987-5.0509-10.8855-11.2243-10.8855H134.3162c-6.1734,0-11.2243,4.8985-11.2243,10.8855v315.5465h528.0261Z" style="fill:#2f3942;"/><rect x="142.9885" y="22.0462" width="486.7023" height="295.5965" style="fill:#d0e6f4;"/><path d="m647.8638,344.5388H126.9805c-6.1734,0-97.6232,114.2369-97.6232,114.2369.631,10.342,2.7073,20.5723,10.3846,20.952h692.2999c7.6957-1.2034,9.9611-5.6849,12.2082-19.3,1.4723-8.9207-90.2128-115.8889-96.3861-115.8889Z" style="fill:#4f4f51;"/><path d="m647.8638,332.6637H126.9805c-6.1734,0-96.0188,113.0364-96.0188,113.0364-1.9091,13.4696-4.7655,21.8909,8.7802,22.1525h692.2999c8.7344,0,14.3135.5436,11.93-19.78-1.0531-8.9799-89.9345-115.409-96.1079-115.409Z" style="fill:#fff;"/><path d="m647.8638,324.3392H126.9805c-6.1734,0-93.5091,117.6541-93.5091,117.6541-6.4589,8.0902-2.6624,17.5348,6.2705,17.5348h692.2999c8.7344,0,15.1575-8.2698,10.2039-15.8334-4.9536-7.5636-88.2085-119.3555-94.3819-119.3555Z" style="fill:#f1f3fb;"/><path d="m212.6585,324.3392h348.8929v6.3729c0,1.0771-.8744,1.9515-1.9515,1.9515H214.61c-1.0771,0-1.9515-.8744-1.9515-1.9515v-6.3729h0Z" style="fill:#2f3942;"/><polygon points="406.6733 395.4664 119.0103 395.4664 158.9283 343.4808 406.6733 343.4808 406.6733 395.4664" style="fill:#d9dce9;"/><polygon points="406.6733 441.8015 277.7319 441.8015 288.1866 407.8978 406.6733 407.8978 406.6733 441.8015" style="fill:#d9dce9;"/><polygon points="287.1411 411.2882 406.6733 411.2882 406.6733 407.8978 288.1866 407.8978 287.1411 411.2882" style="fill:#acb5c0;"/><polygon points="371.7039 395.4664 659.3669 395.4664 619.4489 343.4807 371.7039 343.4807 371.7039 395.4664" style="fill:#d9dce9;"/><polygon points="371.7039 441.8015 500.6453 441.8015 490.1906 407.8978 371.7039 407.8978 371.7039 441.8015" style="fill:#d9dce9;"/><polygon points="491.236 411.2881 371.7039 411.2881 371.7039 407.8978 490.1906 407.8978 491.236 411.2881" style="fill:#acb5c0;"/><g><polygon points="201.411 367.144 212.8938 367.144 212.9906 366.9547 214.3252 364.3461 215.734 361.5922 204.4348 361.5922 190.2898 361.5922 161.4149 361.5922 159.5684 364.3461 157.8194 366.9547 157.6925 367.144 187.0364 367.144 201.411 367.144" style="fill:#2f3942;"/><polygon points="242.5211 366.9547 243.6337 364.3461 244.8083 361.5922 219.3641 361.5922 217.9845 364.3461 216.6777 366.9547 216.5829 367.144 242.4403 367.144 242.5211 366.9547" style="fill:#2f3942;"/><polygon points="271.8489 366.9547 272.7412 364.3461 273.6832 361.5922 248.239 361.5922 247.092 364.3461 246.0056 366.9547 245.9267 367.144 271.7842 367.144 271.8489 366.9547" style="fill:#2f3942;"/><polygon points="300.9743 366.9547 301.6478 364.3461 302.3587 361.5922 276.9145 361.5922 275.9986 364.3461 275.1309 366.9547 275.068 367.144 300.9255 367.144 300.9743 366.9547" style="fill:#2f3942;"/><polygon points="330.3022 366.9547 330.7553 364.3461 331.2336 361.5922 305.7894 361.5922 305.1061 364.3461 304.4588 366.9547 304.4118 367.144 330.2693 367.144 330.3022 366.9547" style="fill:#2f3942;"/><polygon points="359.8326 366.9547 360.0638 364.3461 360.3079 361.5922 334.8637 361.5922 334.4146 364.3461 333.9892 366.9547 333.9584 367.144 359.8158 367.144 359.8326 366.9547" style="fill:#2f3942;"/><polygon points="389.1605 366.9547 389.1713 364.3461 389.1828 361.5922 363.7386 361.5922 363.5221 364.3461 363.3171 366.9547 363.3022 367.144 389.1597 367.144 389.1605 366.9547" style="fill:#2f3942;"/><polygon points="417.8868 366.8601 417.6818 364.2529 417.4655 361.5005 392.0281 361.5005 392.0396 364.2529 392.0504 366.8601 392.0512 367.0493 417.9016 367.0493 417.8868 366.8601" style="fill:#2f3942;"/><polygon points="447.2067 366.8601 446.7815 364.2529 446.3327 361.5005 420.8953 361.5005 421.1392 364.2529 421.3703 366.8601 421.3871 367.0493 447.2375 367.0493 447.2067 366.8601" style="fill:#2f3942;"/><polygon points="476.729 366.8601 476.0821 364.2529 475.3991 361.5005 449.9618 361.5005 450.4398 364.2529 450.8927 366.8601 450.9255 367.0493 476.776 367.0493 476.729 366.8601" style="fill:#2f3942;"/><polygon points="506.0489 366.8601 505.1817 364.2529 504.2663 361.5005 478.8289 361.5005 479.5395 364.2529 480.2125 366.8601 480.2614 367.0493 506.1118 367.0493 506.0489 366.8601" style="fill:#2f3942;"/><polygon points="535.1663 366.8601 534.0805 364.2529 532.9341 361.5005 507.4967 361.5005 508.4382 364.2529 509.33 366.8601 509.3947 367.0493 535.2451 367.0493 535.1663 366.8601" style="fill:#2f3942;"/><polygon points="537.5378 364.2529 538.6498 366.8601 538.7306 367.0493 564.581 367.0493 564.4862 366.8601 563.1801 364.2529 561.8012 361.5005 536.3638 361.5005 537.5378 364.2529" style="fill:#2f3942;"/><polygon points="582.4161 361.5005 565.4304 361.5005 566.8385 364.2529 568.1722 366.8601 568.269 367.0493 585.5306 367.0493 594.1195 367.0493 623.4553 367.0493 623.3285 366.8601 621.5804 364.2529 619.7349 361.5005 590.8678 361.5005 582.4161 361.5005" style="fill:#2f3942;"/><polygon points="197.4479 377.3933 198.9425 374.6261 200.5196 371.7061 154.6336 371.7061 152.6758 374.6261 150.8204 377.3933 150.6857 377.5941 197.3394 377.5941 197.4479 377.3933" style="fill:#2f3942;"/><polygon points="202.4058 374.6261 200.9382 377.3933 200.8316 377.5941 226.732 377.5941 226.824 377.3933 228.0913 374.6261 229.4285 371.7061 203.9544 371.7061 202.4058 374.6261" style="fill:#2f3942;"/><polygon points="256.4028 377.3933 257.4413 374.6261 258.537 371.7061 233.0629 371.7061 231.7558 374.6261 230.517 377.3933 230.4271 377.5941 256.3275 377.5941 256.4028 377.3933" style="fill:#2f3942;"/><polygon points="285.7789 377.3933 286.59 374.6261 287.4459 371.7061 261.9718 371.7061 260.9045 374.6261 259.8931 377.3933 259.8197 377.5941 285.72 377.5941 285.7789 377.3933" style="fill:#2f3942;"/><polygon points="314.9521 377.3933 315.5374 374.6261 316.1552 371.7061 290.681 371.7061 289.8519 374.6261 289.0663 377.3933 289.0092 377.5941 314.9096 377.5941 314.9521 377.3933" style="fill:#2f3942;"/><polygon points="344.3281 377.3933 344.6862 374.6261 345.064 371.7061 319.5899 371.7061 319.0007 374.6261 318.4423 377.3933 318.4018 377.5941 344.3021 377.5941 344.3281 377.3933" style="fill:#2f3942;"/><polygon points="373.907 377.3933 374.0362 374.6261 374.1725 371.7061 348.6984 371.7061 348.3507 374.6261 348.0212 377.3933 347.9973 377.5941 373.8976 377.5941 373.907 377.3933" style="fill:#2f3942;"/><polygon points="403.283 377.3933 403.1849 374.6261 403.0814 371.7061 377.6073 371.7061 377.4994 374.6261 377.3972 377.3933 377.3898 377.5941 403.2902 377.5941 403.283 377.3933" style="fill:#2f3942;"/><polygon points="432.0523 377.2929 431.7317 374.5273 431.3934 371.6089 405.9263 371.6089 406.0533 374.5273 406.1738 377.2929 406.1825 377.4937 432.0756 377.4937 432.0523 377.2929" style="fill:#2f3942;"/><polygon points="461.4201 377.2929 460.8723 374.5273 460.2943 371.6089 434.8272 371.6089 435.194 374.5273 435.5416 377.2929 435.5668 377.4937 461.4599 377.4937 461.4201 377.2929" style="fill:#2f3942;"/><polygon points="490.9907 377.2929 490.2142 374.5273 489.3948 371.6089 463.9276 371.6089 464.5358 374.5273 465.1121 377.2929 465.154 377.4937 491.0471 377.4937 490.9907 377.2929" style="fill:#2f3942;"/><polygon points="520.3585 377.2929 519.3548 374.5273 518.2956 371.6089 492.8285 371.6089 493.6764 374.5273 494.4799 377.2929 494.5383 377.4937 520.4313 377.4937 520.3585 377.2929" style="fill:#2f3942;"/><polygon points="549.5235 377.2929 548.2942 374.5273 546.997 371.6089 521.5298 371.6089 522.6158 374.5273 523.6449 377.2929 523.7196 377.4937 549.6128 377.4937 549.5235 377.2929" style="fill:#2f3942;"/><polygon points="551.7564 374.5273 553.0127 377.2929 553.1039 377.4937 578.997 377.4937 578.8913 377.2929 577.4348 374.5273 575.8979 371.6089 550.4308 371.6089 551.7564 374.5273" style="fill:#2f3942;"/><polygon points="599.7364 371.6089 579.5312 371.6089 581.0983 374.5273 582.5833 377.2929 582.6911 377.4937 603.2343 377.4937 608.5842 377.4937 630.4582 377.4937 630.3236 377.2929 628.4693 374.5273 626.5125 371.6089 604.9984 371.6089 599.7364 371.6089" style="fill:#2f3942;"/><polygon points="188.9732 382.4368 147.4387 382.4368 145.3592 385.5383 143.3874 388.479 143.2443 388.6925 185.4952 388.6925 200.0686 388.6925 211.7101 388.6925 211.8137 388.479 213.2397 385.5383 214.7436 382.4368 203.2995 382.4368 188.9732 382.4368" style="fill:#2f3942;"/><polygon points="216.9477 385.5383 215.5516 388.479 215.4502 388.6925 241.6652 388.6925 241.7514 388.479 242.9386 385.5383 244.1908 382.4368 218.4203 382.4368 216.9477 385.5383" style="fill:#2f3942;"/><polygon points="246.443 385.5383 245.284 388.479 245.1998 388.6925 271.4148 388.6925 271.4838 388.479 272.4338 385.5383 273.4359 382.4368 247.6654 382.4368 246.443 385.5383" style="fill:#2f3942;"/><polygon points="275.7345 385.5383 274.811 388.479 274.744 388.6925 300.959 388.6925 301.0109 388.479 301.7254 385.5383 302.4791 382.4368 276.7086 382.4368 275.7345 385.5383" style="fill:#2f3942;"/><polygon points="305.2298 385.5383 304.5434 388.479 304.4935 388.6925 330.7085 388.6925 330.7432 388.479 331.2207 385.5383 331.7242 382.4368 305.9537 382.4368 305.2298 385.5383" style="fill:#2f3942;"/><polygon points="334.9287 385.5383 334.4811 388.479 334.4486 388.6925 360.6636 388.6925 360.6809 388.479 360.9196 385.5383 361.1713 382.4368 335.4008 382.4368 334.9287 385.5383" style="fill:#2f3942;"/><polygon points="364.4239 385.5383 364.2135 388.479 364.1982 388.6925 390.4131 388.6925 390.4132 388.479 390.4148 385.5383 390.4164 382.4368 364.646 382.4368 364.4239 385.5383" style="fill:#2f3942;"/><polygon points="393.3209 385.4333 393.3427 388.3723 393.3443 388.5857 419.5517 388.5857 419.5349 388.3723 419.3043 385.4333 419.061 382.3336 393.2979 382.3336 393.3209 385.4333" style="fill:#2f3942;"/><polygon points="422.8076 385.4333 423.0665 388.3723 423.0852 388.5857 449.2927 388.5857 449.2587 388.3723 448.7911 385.4333 448.2978 382.3336 422.5347 382.3336 422.8076 385.4333" style="fill:#2f3942;"/><polygon points="452.498 385.4333 452.9955 388.3723 453.0316 388.5857 479.239 388.5857 479.1877 388.3723 478.4814 385.4333 477.7365 382.3336 451.9733 382.3336 452.498 385.4333" style="fill:#2f3942;"/><polygon points="481.9848 385.4333 482.7193 388.3723 482.7726 388.5857 508.98 388.5857 508.9115 388.3723 507.9682 385.4333 506.9733 382.3336 481.2102 382.3336 481.9848 385.4333" style="fill:#2f3942;"/><polygon points="511.268 385.4333 512.2378 388.3723 512.3082 388.5857 538.5156 388.5857 538.43 388.3723 537.2514 385.4333 536.0083 382.3336 510.2451 382.3336 511.268 385.4333" style="fill:#2f3942;"/><polygon points="540.7548 385.4333 541.9616 388.3723 542.0492 388.5857 568.2566 388.5857 568.1538 388.3723 566.7381 385.4333 565.2451 382.3336 539.4819 382.3336 540.7548 385.4333" style="fill:#2f3942;"/><polygon points="586.1239 382.3336 568.9206 382.3336 570.4451 385.4333 571.8906 388.3723 571.9955 388.5857 589.4954 388.5857 598.2029 388.5857 637.8954 388.5857 637.7523 388.3723 635.7817 385.4333 633.7034 382.3336 594.6837 382.3336 586.1239 382.3336" style="fill:#2f3942;"/><polygon points="198.8432 357.1082 200.2434 354.6449 201.7223 352.0433 167.8174 352.0433 166.073 354.6449 164.4214 357.1082 164.3016 357.2869 198.7416 357.2869 198.8432 357.1082" style="fill:#2f3942;"/><polygon points="228.0686 357.1082 229.2554 354.6449 230.5089 352.0433 205.1425 352.0433 203.6904 354.6449 202.3155 357.1082 202.2157 357.2869 227.9825 357.2869 228.0686 357.1082" style="fill:#2f3942;"/><polygon points="257.4958 357.1082 258.4677 354.6449 259.4943 352.0433 234.1279 352.0433 232.9027 354.6449 231.7427 357.1082 231.6586 357.2869 257.4252 357.2869 257.4958 357.1082" style="fill:#2f3942;"/><polygon points="286.7211 357.1082 287.4797 354.6449 288.2808 352.0433 262.9145 352.0433 261.9147 354.6449 260.9681 357.1082 260.8994 357.2869 286.6661 357.2869 286.7211 357.1082" style="fill:#2f3942;"/><polygon points="315.7447 357.1082 316.2914 354.6449 316.8687 352.0433 291.5023 352.0433 290.7263 354.6449 289.9916 357.1082 289.9383 357.2869 315.7051 357.2869 315.7447 357.1082" style="fill:#2f3942;"/><polygon points="344.9701 357.1082 345.3033 354.6449 345.6553 352.0433 320.2889 352.0433 319.7383 354.6449 319.217 357.1082 319.1792 357.2869 344.9459 357.2869 344.9701 357.1082" style="fill:#2f3942;"/><polygon points="374.3973 357.1082 374.5157 354.6449 374.6407 352.0433 349.2742 352.0433 348.9506 354.6449 348.6442 357.1082 348.622 357.2869 374.3887 357.2869 374.3973 357.1082" style="fill:#2f3942;"/><polygon points="403.6227 357.1082 403.5276 354.6449 403.4272 352.0433 378.0608 352.0433 377.9626 354.6449 377.8696 357.1082 377.8629 357.2869 403.6296 357.2869 403.6227 357.1082" style="fill:#2f3942;"/><polygon points="432.2449 357.0188 431.9409 354.5569 431.6199 351.9567 406.2601 351.9567 406.3827 354.5569 406.4987 357.0188 406.5071 357.1975 432.267 357.1975 432.2449 357.0188" style="fill:#2f3942;"/><polygon points="461.4626 357.0188 460.9453 354.5569 460.399 351.9567 435.0392 351.9567 435.387 354.5569 435.7163 357.0188 435.7402 357.1975 461.5001 357.1975 461.4626 357.0188" style="fill:#2f3942;"/><polygon points="490.8819 357.0188 490.1499 354.5569 489.3768 351.9567 464.017 351.9567 464.5917 354.5569 465.1357 357.0188 465.1752 357.1975 490.9351 357.1975 490.8819 357.0188" style="fill:#2f3942;"/><polygon points="520.0996 357.0188 519.1543 354.5569 518.1559 351.9567 492.7961 351.9567 493.596 354.5569 494.3533 357.0188 494.4083 357.1975 520.1682 357.1975 520.0996 357.0188" style="fill:#2f3942;"/><polygon points="549.1155 357.0188 547.9583 354.5569 546.7362 351.9567 521.3764 351.9567 522.4 354.5569 523.3692 357.0188 523.4395 357.1975 549.1995 357.1975 549.1155 357.0188" style="fill:#2f3942;"/><polygon points="578.3331 357.0188 576.9627 354.5569 575.5153 351.9567 550.1555 351.9567 551.4044 354.5569 552.5869 357.0188 552.6727 357.1975 578.4326 357.1975 578.3331 357.0188" style="fill:#2f3942;"/><polygon points="604.4931 351.9567 599.2533 351.9567 579.1333 351.9567 580.609 354.5569 582.0062 357.0188 582.1077 357.1975 602.5451 357.1975 607.8676 357.1975 616.8498 357.1975 616.7299 357.0188 615.0792 354.5569 613.3358 351.9567 604.4931 351.9567" style="fill:#2f3942;"/></g></g><g><path d="m577.297,232.4515l-357.4585-6.6453c-1.1357-.0211-2.0472-.9396-2.0254-2.041l1.8087-91.5096c.0218-1.1015.9688-1.9854,2.1046-1.9642l357.4585,6.6453c1.1357.0211,2.0472.9396,2.0254,2.041l-1.8087,91.5096c-.0218,1.1015-.9688,1.9854-2.1046,1.9642Z" style="fill:#333433; opacity:.7;"/><rect x="225.8459" y="126.3471" width="361.6549" height="95.5324" rx="2.0339" ry="2.0339" style="fill:#efbb54;"/><g><circle cx="282.0436" cy="174.1133" r="22.5" style="fill:#333433;"/><circle cx="341.5354" cy="174.1133" r="22.5" style="fill:#333433;"/><circle cx="401.0272" cy="174.1133" r="22.5" style="fill:#333433;"/><circle cx="460.519" cy="174.1133" r="22.5" style="fill:#333433;"/><circle cx="520.0108" cy="174.1133" r="22.5" style="fill:#333433;"/></g><rect x="556.349" y="143.4566" width="7.8962" height="61.3133" style="fill:#333433;"/></g></g><g id="c"><g id="d"><g id="e"><g id="f"><path id="h" d="m139.8527,307.8773C62.7375,307.8773,0,245.1395,0,168.0249S62.7375,28.1726,139.8527,28.1726s139.8521,62.7371,139.8521,139.8524-62.7368,139.8524-139.8521,139.8524Zm0-267.9375c-70.5955,0-128.0292,57.4587-128.0292,128.0852s57.4337,128.0852,128.0292,128.0852,128.0286-57.4594,128.0286-128.0852S210.4482,39.9398,139.8527,39.9398Z" style="fill:url(#g);"/><path id="j" d="m139.8527,28.2272C62.7674,28.2272.0547,90.9399.0547,168.0249s62.713,139.7977,139.798,139.7977,139.7974-62.7133,139.7974-139.7977S216.9377,28.2272,139.8527,28.2272Z" style="fill:url(#i); isolation:isolate; opacity:.32;"/><path id="l" d="m139.8527,307.8773C62.7375,307.8773,0,245.1395,0,168.0249S62.7375,28.1726,139.8527,28.1726s139.8521,62.7371,139.8521,139.8524-62.7368,139.8524-139.8521,139.8524Zm0-267.9375c-70.5955,0-128.0292,57.4587-128.0292,128.0852s57.4337,128.0852,128.0292,128.0852,128.0286-57.4594,128.0286-128.0852S210.4482,39.9398,139.8527,39.9398Z" style="fill:url(#k); isolation:isolate; opacity:.44;"/><path id="m" d="m139.8527,40.6889C68.7132,40.6889,10.8374,98.5646,10.8374,169.7038s57.8757,129.015,129.0153,129.015,129.0146-57.8764,129.0146-129.0149S210.9922,40.6889,139.8527,40.6889Z"/><path id="n" d="m139.8527,307.8773C62.7375,307.8773,0,245.1395,0,168.0249S62.7375,28.1726,139.8527,28.1726s139.8521,62.7371,139.8521,139.8524-62.7368,139.8524-139.8521,139.8524Zm0-276.7116c-77.1149,0-139.8527,61.9028-139.8527,137.9919s62.7378,137.9919,139.8527,137.9919,139.8521-61.9035,139.8521-137.9919S216.9679,31.1657,139.8527,31.1657Z" style="fill:#0f0f0d; isolation:isolate; opacity:.35;"/></g><g id="o"><path id="q" d="m139.8527,39.9398C69.226,39.9398,11.7672,97.3982,11.7672,168.0249s57.4587,128.0852,128.0855,128.0852,128.0852-57.4591,128.0852-128.0852S210.4794,39.9398,139.8527,39.9398Z" style="fill:url(#p);"/><path id="s" d="m139.8527,39.9398C69.226,39.9398,11.7672,97.3982,11.7672,168.0249s57.4587,128.0852,128.0855,128.0852,128.0852-57.4591,128.0852-128.0852S210.4794,39.9398,139.8527,39.9398Z" style="fill:url(#r); isolation:isolate; opacity:.13;"/><path id="u" d="m139.8524,50.5888c-21.037,0-38.1517,17.1147-38.1517,38.1517s17.1147,38.1517,38.1517,38.1517,38.1517-17.115,38.1517-38.1517-17.1147-38.1517-38.1517-38.1517Z" style="fill:url(#t); isolation:isolate; opacity:.7;"/><path id="w" d="m72.5381,58.6334c-.0061.044-.0122.0868-.0186.1305-.1665.0312-.1691-.0084.0186-.1305Zm96.7203,82.2123l-1.7715,31.6497,20.903,22.7725-20.903,22.7725,13.8171,15.0529-13.8171,15.0529,1.7715,31.3912h-58.8116v-138.6918c-23.383-11.9653-39.3258-37.8254-39.3258-67.5452,0-4.9739.6964-9.5694,1.3985-14.5366,2.5366-.4781,43.5571-17.6703,43.5571-17.6703-.3405,1.8583,47.8922,1.8583,47.5517,0,0,0,39.6309,17.0527,43.6073,17.8889,1.0056,4.8833,1.3487,9.4177,1.3487,14.3177,0,29.7201-16.2971,55.5802-39.3259,67.5455Zm37.9087-82.2123c.0247.1173.0444.2321.0685.3491.4353.0916.4501-.008-.0685-.3491Z" style="fill:url(#v); isolation:isolate; opacity:.3;"/><path id="x" d="m71.2267,251.6878c-22.7294-19.7677-37.1194-48.9069-37.1194-81.5156,0-37.9431,19.843-72.9676,52.5257-92.5231-.5835,3.7943-1.1674,7.2968-1.1674,11.0911,0,22.4738,13.1313,42.0293,32.3908,51.0773v102.4465l24.2202,24.2253,24.2202-24.2253-1.459-21.3064,11.3804-11.383-11.3804-11.383,17.2166-17.2205-17.2166-17.2205,1.459-23.9334c18.9675-9.048,32.3908-28.6032,32.3908-51.0773,0-3.7943-.2919-7.2968-1.1674-11.0911,11.8595,7.1598,22.0279,16.4,30.1795,27.0915-19.7128-27.0722-51.737-44.6856-87.8993-44.6856-59.9163,0-108.4878,48.3397-108.4878,107.9699,0,33.7414,15.5551,63.864,39.9139,83.6629l.0003.0003Zm62.9712-17.596h-8.1706v-80.8482h8.1706v80.8482Zm-11.6724-169.8686c6.4197-1.1674,13.1313-1.7512,19.5514-1.7512,6.7116-.2919,13.1313.5835,19.5514,1.7512.2919,1.4593.5835,2.9186.5835,4.3779,0,11.0911-9.046,20.1391-20.1349,20.1391s-20.1349-9.048-20.1349-20.1391c0-1.4593.2919-2.9186.5835-4.3779Z" style="fill:#0f0f0d; isolation:isolate; opacity:.2;"/><path id="z" d="m139.8527,39.9398C69.2571,39.9398,11.8235,97.3985,11.8235,168.0249s57.4337,128.0852,128.0292,128.0852,128.0286-57.4594,128.0286-128.0852S210.4482,39.9398,139.8527,39.9398Zm-19.5514,22.0186c6.4197-1.1674,13.1313-1.7512,19.5514-1.7512,6.7116-.2919,13.1313.5835,19.5514,1.7512.2919,1.4593.5835,2.9186.5835,4.3779,0,11.0911-9.046,20.1391-20.1349,20.1391s-20.1349-9.048-20.1349-20.1391c0-1.4593.2919-2.9186.5835-4.3779Zm11.6724,89.0204v80.8482h-8.1706v-80.8482h8.1706Zm7.879,124.9206c-59.5292,0-107.9696-48.1587-107.9696-107.9921,0-37.9431,19.843-72.9676,52.5257-92.5231-.5835,3.7943-1.1674,7.2968-1.1674,11.0911,0,22.4738,13.1313,42.0293,32.3908,51.0773v102.4465l24.2202,24.2253,24.2202-24.2253-1.459-21.3064,11.3804-11.383-11.3804-11.383,17.2166-17.2205-17.2166-17.2205,1.459-23.9334c18.9675-9.048,32.3908-28.6032,32.3908-51.0773,0-3.7943-.2919-7.2968-1.1674-11.0911,32.3908,19.5555,52.2341,54.5797,52.5257,92.5231,0,59.5414-48.1488,107.9921-107.9696,107.9921l.0006.0003Z" style="fill:url(#y);"/></g></g></g></g></svg>