<?xml version="1.0" encoding="UTF-8"?><svg xmlns="http://www.w3.org/2000/svg" xmlns:xlink="http://www.w3.org/1999/xlink" viewBox="0 0 448.269 376"><defs><filter id="b" filterUnits="userSpaceOnUse"><feOffset dx="4.4032" dy="4.4032"/><feGaussianBlur result="c" stdDeviation="0"/><feFlood flood-color="#000" flood-opacity=".08"/><feComposite in2="c" operator="in"/><feComposite in="SourceGraphic"/></filter><linearGradient id="d" x1="-1934.3459" y1="1222.6826" x2="-1841.1251" y2="1315.9034" gradientTransform="translate(1505.3491 2025.5172) rotate(90)" gradientUnits="userSpaceOnUse"><stop offset="0" stop-color="#fcf5b8"/><stop offset="1" stop-color="#f7c959" stop-opacity="0"/></linearGradient></defs><g style="isolation:isolate;"><g id="a"><g><path d="m356.5857,119.0236c-97.7739-51.839-92.6672-154.5315-220.7136-106.6106C47.1698,45.6096-11.6215,155.4014,1.9439,249.4109c10.2331,70.9179,43.9953,123.4991,107.0207,106.4711,63.0247-17.028,116.6002,3.642,165.0373,16.9733,60.9569,16.7777,155.4317-35.6646,170.7964-107.6416,15.3641-71.9774-21.395-110.7641-88.2126-146.1901Z" style="fill:#ccd6c1; filter:url(#b); opacity:.2;"/><ellipse cx="282.0633" cy="354.1685" rx="91.2687" ry="11.1136" style="fill:#5e8436; mix-blend-mode:multiply; opacity:.36;"/><ellipse cx="130.4287" cy="335.9145" rx="52.9654" ry="8.8734" style="fill:#5e8436; mix-blend-mode:multiply; opacity:.36;"/><g><g><path d="m286.2478,79.9168c-41.8284-29.3269-99.5112-19.1924-128.8381,22.6361-15.0694,21.4932-19.7178,47.1718-15.0018,71.0387,1.572,7.9556,7.1356,22.6001.3695,33.185-5.5171,8.631-10.1643,14.5756-13.8595,20.5843-8.1194,13.2028-7.6111,16.9652-7.6111,16.9652,0,0,10.9837,13.3775,30.6319,27.1535,19.6484,13.7758,35.9687,19.5417,35.9687,19.5417,0,0,3.7103-.8046,13.3549-12.9382,4.3893-5.5221,8.3938-11.9173,14.6274-20.046,7.6446-9.9689,23.3086-9.7303,31.3236-10.9643,24.0451-3.7019,46.6013-16.8248,61.6707-38.318,29.3269-41.8284,19.1924-99.5112-22.6361-128.8381Z" style="fill:#f1b146;"/><path d="m249.42,69.5175c12.2731,2.3107,23.725,7.1485,34.0376,14.3789,19.1671,13.4385,31.9538,33.5367,36.0046,56.5924,4.0507,23.0557-1.1194,46.3088-14.5579,65.4759-6.9808,9.9564-15.7362,18.1904-26.0233,24.4731-9.9392,6.0703-20.8427,10.051-32.4074,11.8315-1.2552.1932-2.8176.3578-4.4717.5321-8.9042.9382-22.3604,2.356-29.9692,12.2782-3.188,4.1573-5.8228,7.8964-8.1474,11.1954-2.3227,3.2963-4.3287,6.143-6.4278,8.7839-5.1942,6.5348-8.379,9.397-9.9562,10.5931-4.8633-1.9707-17.8899-7.7176-32.7723-18.152-14.8836-10.4353-24.7275-20.7241-28.236-24.6223.5869-1.8904,2.1921-5.8602,6.565-12.9708,1.7671-2.8734,3.7595-5.7295,6.0665-9.0365,2.3091-3.31,4.9263-7.0617,7.7481-11.4762,6.7344-10.5352,3.4806-23.6688,1.3274-32.3595-.4-1.6145-.7778-3.1394-1.0239-4.3854-2.2682-11.4791-2.2425-23.0864.0764-34.4996,2.3999-11.8125,7.1563-22.8503,14.1369-32.8067,9.8605-14.0638,23.473-24.829,39.3659-31.1319,15.4989-6.1466,32.3269-7.7697,48.6649-4.6936m.8993-4.7764c-34.5923-6.5128-71.3869,7.1144-92.9096,37.8117-15.0693,21.4932-19.7178,47.1718-15.0018,71.0387,1.572,7.9556,7.1356,22.6001.3695,33.185-5.5171,8.6311-10.1642,14.5756-13.8595,20.5844-8.1193,13.2028-7.611,16.9653-7.611,16.9653,0,0,10.9836,13.3775,30.6319,27.1534,19.6484,13.7758,35.9687,19.5417,35.9687,19.5417,0,0,3.7103-.8047,13.3549-12.9382,4.3893-5.5221,8.3938-11.9173,14.6273-20.046,7.6447-9.969,23.3085-9.7303,31.3236-10.9643,24.0451-3.7018,46.6013-16.8248,61.6707-38.318,29.3269-41.8284,19.1924-99.5112-22.636-128.838-11.1312-7.8043-23.3851-12.8141-35.9286-15.1757h0Z" style="fill:#fff6e1; opacity:.6;"/><path d="m250.3192,64.7412c12.5435,2.3616,24.7974,7.3714,35.9286,15.1757,41.8284,29.3269,51.963,87.0096,22.636,128.838-15.0694,21.4933-37.6256,34.6162-61.6707,38.318-8.0151,1.234-23.6789.9953-31.3236,10.9643-6.2335,8.1287-10.238,14.5239-14.6273,20.046-9.6446,12.1335-13.3549,12.9382-13.3549,12.9382,0,0-16.3203-5.7659-35.9687-19.5417-19.6482-13.7759-30.6319-27.1534-30.6319-27.1534,0,0-.5083-3.7625,7.611-16.9653,3.6953-6.0087,8.3424-11.9533,13.8595-20.5844,6.7662-10.5848,1.2025-25.2293-.3695-33.185-4.716-23.8669-.0675-49.5454,15.0018-71.0387,21.5227-30.6973,58.3173-44.3246,92.9096-37.8117m.8993-4.7764c-18.1475-3.4167-36.8365-1.6149-54.0469,5.2105-17.6626,7.0047-32.7881,18.9649-43.7415,34.5874-7.7526,11.0575-13.036,23.3216-15.7038,36.4517-2.5761,12.6798-2.6052,25.5723-.0864,38.3194.2911,1.4737.6961,3.1081,1.1249,4.8386,1.8579,7.4995,4.4025,17.7704-.0824,24.7865-2.7161,4.2493-5.2737,7.9155-7.5302,11.1501-2.2936,3.2879-4.46,6.3934-6.3742,9.506-5.8218,9.4669-8.7651,16.6272-8.2876,20.1621l.1847,1.3672.8755,1.0663c.4656.5672,11.635,14.0522,31.598,28.0488,19.9632,13.9965,36.4478,19.9003,37.1399,20.1448l1.3008.4596,1.3483-.2924c3.4859-.7559,9.2141-5.9637,16.1295-14.6637,2.2739-2.8607,4.455-5.9562,6.7643-9.2333,2.2717-3.2237,4.8465-6.8777,7.9151-10.8793,5.0673-6.608,15.5904-7.7168,23.2741-8.5263,1.7729-.1868,3.4474-.3633,4.9321-.5919,12.8422-1.9771,24.9527-6.3991,35.995-13.143,11.4345-6.9835,21.1632-16.1311,28.9158-27.1885,14.9292-21.2931,20.6727-47.1254,16.1726-72.7383-4.5-25.6129-18.7048-47.9404-39.998-62.8695-11.4532-8.0301-24.1774-13.404-37.8195-15.9725h0Z" style="fill:#fff6e1; opacity:.32;"/><ellipse cx="236.0561" cy="137.7817" rx="61.8953" ry="69.7058" transform="translate(-12.2745 251.9667) rotate(-54.9648)" style="fill:url(#d);"/><ellipse cx="157.0393" cy="264.2048" rx="5.9553" ry="34.0304" transform="translate(-149.4445 241.114) rotate(-54.9648)" style="fill:#0d657f;"/><path d="m187.1735,290.8488s-15.9945-5.5375-35.174-18.9845c-19.1794-13.4472-29.8372-26.5963-29.8372-26.5963,0,0-.2436-1.317-.5878-.6225-3.0455,6.1433-2.847,8.0904-2.847,8.0904,0,0,10.1282,12.7778,28.5453,25.6905,18.4172,12.9126,33.8821,18.0788,33.8821,18.0788,0,0,1.9194-.4817,6.7165-5.5187.3165-.3323-.6978-.1377-.6978-.1377Z" style="fill:#5d819f;"/><g><path d="m118.0286,332.098l-11.9258-8.3614c-11.9001-8.3434.5505-14.6663-13.6201-26.6034h0c4.409-6.2885,17.7528-4.6072,29.6529,3.7362l11.9258,8.3614c11.9001,8.3434,18.0291,20.315,13.6201,26.6034h0c-14.4878-8.3564-17.7528,4.6072-29.6529-3.7362Z" style="fill:#1f638b; opacity:.5;"/><g><path d="m175.9177,295.7784c-3.865-1.3816-14.628-5.7614-29.4024-16.1199-13.8049-9.6791-21.9314-18.1413-25.2384-21.9063-1.1716-1.3338-9.8987,4.6392-9.8987,4.6392,0,0,11.3203,12.8691,29.2729,25.4562,17.9527,12.5869,33.6085,18.7355,33.6085,18.7355,0,0,2.6841-10.438,1.6582-10.8047Z" style="fill:#144a5b;"/><path d="m176.64,293.6867c-3.8062-1.3404-14.401-5.6022-28.9073-15.7728-13.5545-9.5035-21.5099-17.8458-24.7446-21.5601-1.146-1.3159-9.8179,4.6958-9.8179,4.6958,0,0,11.0728,12.6956,28.6997,25.0544,17.627,12.3585,33.0399,18.3368,33.0399,18.3368,0,0,2.7404-10.3985,1.7302-10.7542Z" style="fill:#195871;"/><path d="m165.2245,291.9909c-5.4933-2.9258-12.1703-6.8348-19.2153-11.7741-13.2511-9.2908-22.7967-18.7704-26.7202-22.9052-2.6763,1.3804-5.8076,3.5296-6.0782,3.7162.0121.0299.0242.0599.0364.0898.8677.982,11.7362,13.1335,28.6367,24.9829,2.6767,1.8767,5.3008,3.6039,7.8292,5.1877,5.6166,1.4323,10.96,1.6731,15.5113.7026Z" style="fill:#3488a2; opacity:.7;"/><g style="opacity:.7;"><path d="m170.1598,302.3745c2.9986,1.3748,4.7563,2.0574,4.7563,2.0574,0,0,1.0152-3.854,1.5819-6.95-1.0479-.4573-2.4078-1.0715-4.0011-1.8268-.3607,2.3777-1.1349,4.6418-2.3371,6.7194Z" style="fill:#7cbdd7;"/><path d="m122.2708,260.3588c-1.2045-1.1965-2.2118-2.233-2.9895-3.0526-2.7992,1.4438-6.1047,3.7345-6.1047,3.7345,0,0,1.2459,1.4269,3.5566,3.7821,1.5501-1.8306,3.4206-3.3219,5.5376-4.464Z" style="fill:#7cbdd7;"/></g><path d="m140.2287,281.0963c7.4486,5.2224,15.1643,8.2981,21.0729,8.8237-4.5619-2.5805-9.6876-5.7297-15.0276-9.4736-9.7634-6.8454-17.5052-13.786-22.4788-18.623,1.7716,5.8669,7.812,13.2282,16.4335,19.2729Z" style="fill:#7cbdd7; opacity:.5;"/></g><path d="m101.8662,319.734c.8665,1.318,2.165,2.6563,4.1551,4.0516l11.9258,8.3615c1.9687,1.3803,3.6979,2.1689,5.2839,2.5759-3.1263-2.7014-6.5956-5.4142-10.3449-8.043-3.7259-2.6123-7.4356-4.9364-11.0199-6.946Z" style="fill:#195871;"/><g><path d="m169.5161,305.7889c-3.865-1.3816-14.628-5.7614-29.4024-16.1199-13.8049-9.6791-21.9314-18.1413-25.2384-21.9063-1.1716-1.3338-9.8987,4.6392-9.8987,4.6392,0,0,11.3203,12.8691,29.2729,25.4562,17.9527,12.5869,33.6085,18.7355,33.6085,18.7355,0,0,2.6841-10.438,1.6582-10.8047Z" style="fill:#144a5b;"/><path d="m170.2384,303.6973c-3.8062-1.3404-14.401-5.6022-28.9073-15.7728-13.5545-9.5035-21.5099-17.8458-24.7446-21.5601-1.146-1.3159-9.8179,4.6958-9.8179,4.6958,0,0,11.0728,12.6956,28.6997,25.0544,17.627,12.3585,33.0399,18.3368,33.0399,18.3368,0,0,2.7404-10.3985,1.7302-10.7542Z" style="fill:#195871;"/><path d="m158.8229,302.0014c-5.4933-2.9258-12.1703-6.8348-19.2153-11.7741-13.2511-9.2908-22.7967-18.7704-26.7202-22.9052-2.6763,1.3804-5.8076,3.5296-6.0782,3.7162.0121.0299.0242.0599.0364.0898.8677.982,11.7362,13.1335,28.6367,24.9829,2.6767,1.8767,5.3008,3.6039,7.8292,5.1877,5.6166,1.4323,10.96,1.6731,15.5113.7026Z" style="fill:#3488a2; opacity:.7;"/><g style="opacity:.7;"><path d="m163.7583,312.3851c2.9986,1.3748,4.7563,2.0574,4.7563,2.0574,0,0,1.0152-3.854,1.5819-6.95-1.0479-.4573-2.4078-1.0715-4.0011-1.8268-.3607,2.3777-1.1349,4.6418-2.3371,6.7194Z" style="fill:#7cbdd7;"/><path d="m115.8692,270.3693c-1.2045-1.1965-2.2118-2.233-2.9895-3.0526-2.7992,1.4438-6.1047,3.7345-6.1047,3.7345,0,0,1.2459,1.4269,3.5566,3.7821,1.5501-1.8306,3.4206-3.3219,5.5376-4.464Z" style="fill:#7cbdd7;"/></g><path d="m133.8271,291.1069c7.4486,5.2224,15.1643,8.2981,21.0729,8.8237-4.5619-2.5805-9.6876-5.7297-15.0276-9.4736-9.7634-6.8454-17.5052-13.786-22.4788-18.623,1.7716,5.8669,7.812,13.2282,16.4335,19.2729Z" style="fill:#7cbdd7; opacity:.5;"/></g><g><path d="m162.5816,315.8186c-3.865-1.3816-14.628-5.7614-29.4024-16.1199-13.8049-9.6791-21.9314-18.1413-25.2384-21.9063-1.1716-1.3338-9.8987,4.6392-9.8987,4.6392,0,0,11.3203,12.8691,29.2729,25.4562,17.9527,12.5869,33.6085,18.7355,33.6085,18.7355,0,0,2.6841-10.438,1.6582-10.8047Z" style="fill:#144a5b;"/><path d="m163.304,313.7269c-3.8062-1.3404-14.401-5.6022-28.9073-15.7728-13.5545-9.5035-21.5099-17.8458-24.7446-21.5601-1.146-1.3159-9.8179,4.6958-9.8179,4.6958,0,0,11.0728,12.6956,28.6997,25.0544,17.627,12.3585,33.0399,18.3368,33.0399,18.3368,0,0,2.7404-10.3985,1.7302-10.7542Z" style="fill:#195871;"/><path d="m151.8884,312.031c-5.4933-2.9258-12.1703-6.8348-19.2153-11.7741-13.2511-9.2908-22.7967-18.7704-26.7202-22.9052-2.6763,1.3804-5.8076,3.5296-6.0782,3.7162.0121.0299.0242.0599.0364.0898.8677.982,11.7362,13.1335,28.6367,24.9829,2.6767,1.8767,5.3008,3.6039,7.8292,5.1877,5.6166,1.4323,10.96,1.6731,15.5113.7026Z" style="fill:#3488a2; opacity:.7;"/><g style="opacity:.7;"><path d="m156.8238,322.4147c2.9986,1.3748,4.7563,2.0574,4.7563,2.0574,0,0,1.0152-3.854,1.5819-6.95-1.0479-.4573-2.4078-1.0715-4.0011-1.8268-.3607,2.3777-1.1349,4.6418-2.3371,6.7194Z" style="fill:#7cbdd7;"/><path d="m108.9347,280.3989c-1.2045-1.1965-2.2118-2.233-2.9895-3.0526-2.7992,1.4438-6.1047,3.7345-6.1047,3.7345,0,0,1.2459,1.4269,3.5566,3.7821,1.5501-1.8306,3.4206-3.3219,5.5376-4.464Z" style="fill:#7cbdd7;"/></g><path d="m126.8926,301.1365c7.4486,5.2224,15.1643,8.2981,21.0729,8.8237-4.5619-2.5805-9.6876-5.7297-15.0276-9.4736-9.7634-6.8454-17.5052-13.786-22.4788-18.623,1.7716,5.8669,7.812,13.2282,16.4335,19.2729Z" style="fill:#7cbdd7; opacity:.5;"/></g><g><path d="m155.5109,325.9034c-3.865-1.3816-14.628-5.7614-29.4024-16.1199-13.8049-9.6791-21.9314-18.1413-25.2384-21.9063-1.1716-1.3338-9.8987,4.6392-9.8987,4.6392,0,0,11.3203,12.8691,29.2729,25.4562,17.9527,12.5869,33.6085,18.7355,33.6085,18.7355,0,0,2.6841-10.438,1.6582-10.8047Z" style="fill:#144a5b;"/><path d="m156.2332,323.8118c-3.8062-1.3404-14.401-5.6022-28.9073-15.7728-13.5545-9.5035-21.5099-17.8458-24.7446-21.5601-1.146-1.3159-9.8179,4.6958-9.8179,4.6958,0,0,11.0728,12.6956,28.6997,25.0544,17.627,12.3585,33.0399,18.3368,33.0399,18.3368,0,0,2.7404-10.3985,1.7302-10.7542Z" style="fill:#195871;"/><path d="m144.8176,322.1159c-5.4933-2.9258-12.1703-6.8348-19.2153-11.7741-13.2511-9.2908-22.7967-18.7704-26.7202-22.9052-2.6763,1.3804-5.8076,3.5296-6.0782,3.7162.0121.0299.0242.0599.0364.0898.8677.982,11.7362,13.1335,28.6367,24.9829,2.6767,1.8767,5.3008,3.6039,7.8292,5.1877,5.6166,1.4323,10.96,1.6731,15.5113.7026Z" style="fill:#3488a2; opacity:.7;"/><g style="opacity:.7;"><path d="m149.753,332.4996c2.9986,1.3748,4.7563,2.0574,4.7563,2.0574,0,0,1.0152-3.854,1.5819-6.95-1.0479-.4573-2.4078-1.0715-4.0011-1.8268-.3607,2.3777-1.1349,4.6418-2.3371,6.7194Z" style="fill:#7cbdd7;"/><path d="m101.864,290.4838c-1.2045-1.1965-2.2118-2.233-2.9895-3.0526-2.7992,1.4438-6.1047,3.7345-6.1047,3.7345,0,0,1.2459,1.4269,3.5566,3.7821,1.5501-1.8306,3.4206-3.3219,5.5376-4.464Z" style="fill:#7cbdd7;"/></g><path d="m119.8219,311.2214c7.4486,5.2224,15.1643,8.2981,21.0729,8.8237-4.5619-2.5805-9.6876-5.7297-15.0276-9.4736-9.7634-6.8454-17.5052-13.786-22.4788-18.623,1.7716,5.8669,7.812,13.2282,16.4335,19.2729Z" style="fill:#7cbdd7; opacity:.5;"/></g></g><g><path d="m238.638,197.2739l3.1698,2.2224c-8.7454,12.4734-21.0191,20.7761-28.3526,25.7369-2.8072,1.8998-5.4593,3.6937-6.0367,4.5171l-30.2008,43.0749-3.1698-2.2224,30.2008-43.0749c.987-1.4077,3.394-3.0364,7.0378-5.5005,7.1113-4.8118,19.0157-12.8644,27.3515-24.7535Z" style="fill:#153f5e;"/><g><path d="m185.7404,168.7778l.4583-.3723,2.3287,2.5604.0276-.0153h0c1.3547,1.5291,3.2485,2.5535,5.2534,3.0084-.9183-1.8567-1.3214-3.9158-1.0121-5.8612.7161-4.5035,4.9689-6.7136,9.48-4.9266h.0001s-.0321.2021-.0321.2021l.179-.0991h0c3.2177,3.6319,2.5895,8.3833-1.4002,10.5916-1.7234.9539-3.7966,1.2769-5.8551,1.0464,1.1111,1.7298,2.7196,3.161,4.6189,3.9134h.0001s-.0245.1537-.0245.1537l.1362-.0754h0c1.3547,1.5291,3.2485,2.5535,5.2534,3.0084-.9183-1.8567-1.3214-3.9158-1.0121-5.8612.7161-4.5035,4.9689-6.7136,9.48-4.9266h.0001s-.0321.2021-.0321.2021l.179-.0991h0c3.2177,3.6319,2.5895,8.3833-1.4002,10.5916-1.7234.9539-3.7966,1.2769-5.8551,1.0464,1.1111,1.7298,2.7196,3.161,4.6189,3.9134h.0001s-.067.4214-.067.4214l.3733-.2066h0c1.3548,1.5292,3.2485,2.5535,5.2534,3.0085-.9183-1.8567-1.3214-3.9158-1.0121-5.8612.7161-4.5035,4.9689-6.7136,9.48-4.9266h0s-.0321.2021-.0321.2021l.179-.0991h0c3.2177,3.6319,2.5895,8.3833-1.4002,10.5916-1.7234.9539-3.7966,1.2769-5.8551,1.0464,1.1111,1.7298,2.7196,3.161,4.6189,3.9134h0s-.0244.1537-.0244.1537l.1362-.0754h0c1.3548,1.5292,3.2485,2.5535,5.2534,3.0085-.9183-1.8567-1.3214-3.9158-1.0121-5.8612.7161-4.5035,4.9689-6.7136,9.48-4.9266h0s-.0321.2021-.0321.2021l.179-.0991h0c3.2177,3.6319,2.5895,8.3833-1.4002,10.5916-1.7234.9539-3.7966,1.2769-5.8551,1.0464,1.1111,1.7298,2.7196,3.161,4.6189,3.9134h0s-.0046.0288-.0046.0288l3.1917,1.3127-.1938.5577-3.093-1.2722-.0085.0535h-.0001c-2.2724-.9002-4.1818-2.6465-5.4274-4.7328-2.3084-.445-4.5237-1.5881-6.1335-3.3185-2.1755-.9236-4.0052-2.6165-5.2104-4.635-2.3478-.4526-4.6018-1.6248-6.2178-3.4053-2.2246-.9123-4.0949-2.6317-5.3207-4.6846-2.3084-.445-4.5237-1.5881-6.1335-3.3185-2.1755-.9236-4.0052-2.6165-5.2104-4.635-2.386-.4599-4.6785-1.6597-6.2993-3.4892h0s.0453-.0251.0453-.0251l-2.257-2.4815Zm48.9056,28.4036c3.594-1.9893,4.2549-6.1699,1.5394-9.4041-3.9661-1.4505-7.6711.5959-8.3162,4.6527-.3024,1.9017.126,3.9136,1.0643,5.6905,1.9904.2764,4.0278-.0066,5.7125-.9391Zm-11.3439-7.9535c3.594-1.9893,4.2549-6.1699,1.5394-9.4041-3.9661-1.4505-7.6711.5959-8.3162,4.6527-.3024,1.9017.126,3.9136,1.0643,5.6905,1.9904.2764,4.0278-.0066,5.7125-.9391Zm-11.5385-8.0899c3.594-1.9893,4.2549-6.1699,1.5393-9.4041-3.9661-1.4505-7.6711.5959-8.3162,4.6527-.3024,1.9017.126,3.9135,1.0643,5.6905,1.9904.2764,4.0278-.0066,5.7125-.9391Zm-11.3439-7.9535c3.594-1.9893,4.2549-6.1699,1.5393-9.4041-3.9661-1.4505-7.6711.5959-8.3162,4.6527-.3024,1.9017.126,3.9135,1.0643,5.6905,1.9904.2764,4.0278-.0066,5.7125-.9391Z" style="fill:#153f5e;"/><path d="m202.5269,162.6611l.1211.1368.1699.0672-.0166.1061c1.6887,1.9147,2.4407,4.2634,2.0658,6.4477-.3507,2.0477-1.632,3.7765-3.6085,4.8702-1.4649.8117-3.2474,1.2172-5.1039,1.1749,1.0246,1.3013,2.3255,2.3104,3.7458,2.886l.1041-.0563.1344.1508.1876.0749-.0174.1171c1.0238,1.1345,2.4148,2.0151,3.9884,2.5366-.6726-1.7309-.899-3.5449-.6336-5.1976.3539-2.2301,1.5429-4.0248,3.3464-5.0528,1.9268-1.0985,4.3947-1.1908,6.7714-.254l.093-.0503.117.1328.1699.0672-.0177.1042c1.6903,1.9158,2.4438,4.2655,2.0674,6.4487-.3507,2.0477-1.6326,3.7773-3.6091,4.871-1.4649.8117-3.2474,1.2172-5.1039,1.1749,1.0404,1.3182,2.3627,2.3364,3.8123,2.913l.2326.0534.0531.0592.0738.0298-.0068.046.1364.1545c1.0285,1.1574,2.4363,2.0602,4.0364,2.5899-.6726-1.7309-.899-3.5449-.6336-5.1976.3539-2.2301,1.5429-4.0248,3.3464-5.0528,1.9268-1.0985,4.3947-1.1908,6.7714-.254l.093-.0503.117.1328.1699.0672-.0177.1042c1.6903,1.9158,2.4438,4.2655,2.0674,6.4487-.3507,2.0477-1.6326,3.7773-3.6091,4.871-1.4649.8117-3.2474,1.2172-5.1039,1.1749,1.0246,1.3013,2.3255,2.3104,3.7458,2.886l.1041-.0563.1344.1508.1876.0749-.0174.1171c1.0268,1.1401,2.4174,2.0181,3.9899,2.5377-.6726-1.7309-.899-3.5449-.6352-5.1987.3539-2.2301,1.5429-4.0248,3.3464-5.0528,1.9262-1.0977,4.3927-1.1911,6.7699-.2551l.0919-.0521.1211.1368.1647.0647-.0156.1045c1.6908,1.915,2.4453,4.2666,2.0694,6.4525-.3517,2.0459-1.6336,3.7754-3.6101,4.8691-1.4643.811-3.2469,1.2164-5.1034,1.1742,1.0404,1.3182,2.3627,2.3364,3.8123,2.913l.3559.141-.005.0334,3.2649,1.3426-.5134,1.4731-3.568-1.4108c-2.2296-.8799-4.198-2.567-5.5516-4.7489-2.3623-.4996-4.5143-1.668-6.086-3.3182l-.0786.043.0136-.0886c-2.0918-.9183-3.9227-2.5414-5.194-4.5905-2.3691-.4998-4.5159-1.669-6.0898-3.3162l-.3098.1718.0559-.3498c-2.085-.9182-3.9191-2.54-5.1949-4.5957-2.3597-.4967-4.5128-1.6669-6.0845-3.3171l-.0786.043.0136-.0886c-2.0934-.9194-3.9227-2.5414-5.194-4.5905-2.5127-.5255-4.7619-1.7989-6.3584-3.6015l-.4005-.4528.0377-.0209-2.1906-2.4074,1.213-.9826,2.3735,2.6107.0043-.0028.2887.2797c1.0351,1.1644,2.4415,2.0627,4.038,2.591-.6726-1.7309-.899-3.5449-.6352-5.1987.3544-2.2309,1.5429-4.0248,3.3485-5.0525,1.9257-1.097,4.39-1.1906,6.7657-.2557l.094-.0518Zm-7.5055,11.0145c1.8807.2151,3.7059-.1062,5.1633-.914h0c1.5621-.8648,2.5831-2.2059,2.8738-3.7762.2985-1.6111-.1848-3.2958-1.3608-4.7598l-.0909.0506.0155-.1011c-1.7746-.6036-3.5195-.4822-4.9313.346-1.3778.8093-2.2905,2.2264-2.5705,3.9889-.2626,1.6455.0575,3.4709.9008,5.1656Zm22.882,16.0431c1.8807.2151,3.7059-.1062,5.1633-.914h0c1.5621-.8648,2.5831-2.2059,2.8738-3.7762.2985-1.6111-.1848-3.2958-1.3608-4.7598l-.0909.0506.0155-.1011c-1.7746-.6036-3.5195-.4822-4.9313.346-1.3778.8093-2.2905,2.2264-2.5705,3.9889-.2616,1.6473.0585,3.4727.9008,5.1656Zm17.9368-1.4408l.0166-.1027c-1.7772-.6065-3.5252-.4874-4.938.3424-1.3778.8093-2.292,2.2253-2.5726,3.9886-.2616,1.6473.0595,3.4746.9023,5.1667,1.8786.2148,3.7038-.1065,5.1633-.914h0c1.5621-.8648,2.5816-2.2069,2.8728-3.7781.2989-1.6084-.1823-3.2895-1.3547-4.752l-.0898.049Zm-24.3104-7.562c1.5621-.8648,2.5816-2.2069,2.8728-3.7781.2985-1.6111-.1854-3.295-1.3613-4.759l-.0909.0506.0155-.1011c-1.7746-.6036-3.5195-.4822-4.9313.346-1.3778.8093-2.2905,2.2264-2.5705,3.9889-.2616,1.6473.0585,3.4727.9008,5.1656,1.8807.2151,3.7059-.1062,5.1649-.9129h0Z" style="fill:#153f5e;"/></g><path d="m188.5712,162.1709l3.1698,2.2224c-8.3357,11.8891-11.8477,25.8247-13.9463,34.1521-1.0745,4.2655-1.7852,7.0835-2.7722,8.4912l-30.2008,43.0749-3.1698-2.2224,30.2008-43.0749c.5773-.8234,1.3597-3.9282,2.1889-7.2149,2.1624-8.5863,5.7842-22.9551,14.5296-35.4285Z" style="fill:#153f5e;"/></g></g><path d="m174.8934,294.4032c-3.8063-1.3404-14.401-5.6023-28.9074-15.7728-13.5544-9.5035-21.5099-17.8458-24.7446-21.5601-.4376-.5024-1.973.0645-3.7032.9561-.0011-.0012-.0025-.0026-.0036-.0038-2.7992,1.4438-6.1048,3.7346-6.1048,3.7346,0,0,.0023.0025.0026.0028-.0021.0015-.0089.0062-.0089.0062,0,0,.033.0377.0944.107-1.1134.706-1.8865,1.2347-1.8865,1.2347,0,0,1.3133,1.4925,3.7524,3.9569-.6393.1962-1.4198.5459-2.2472.9723-.0011-.0012-.0025-.0026-.0036-.0038-2.7992,1.4438-6.1047,3.7346-6.1047,3.7346,0,0,.0022.0026.0025.0028-.0021.0015-.0089.0062-.0089.0062,0,0,.033.0377.0944.107-1.1134.706-1.8865,1.2347-1.8865,1.2347,0,0,1.2794,1.4539,3.6567,3.8599-.7005.1447-1.6581.5596-2.6843,1.0883-.0012-.0012-.0025-.0026-.0036-.0038-2.7992,1.4438-6.1047,3.7346-6.1047,3.7346,0,0,.0022.0026.0025.003-.0021.0014-.0089.006-.0089.006,0,0,.033.0377.0944.107-1.1136.7061-1.8865,1.2347-1.8865,1.2347,0,0,1.2893,1.4652,3.6847,3.8883-.7111.1076-1.7381.5429-2.8486,1.1152l-.0037-.0037c-2.7992,1.4438-6.1047,3.7344-6.1047,3.7344,0,0,.0022.0026.0026.003-.0021.0015-.0089.0062-.0089.0062,0,0,.0329.0377.0943.1068-1.1134.7061-1.8864,1.2347-1.8864,1.2347,0,0,1.0158,1.1546,2.9196,3.1089-.5364.439-1.0099.9398-1.4082,1.5078h0c11.8891,10.0152,5.0416,16.0786,9.5557,22.6989-.0572-.0322-.1151-.066-.1722-.098.8665,1.318,2.1651,2.6563,4.1552,4.0516l11.9259,8.3614c1.9686,1.3803,3.6979,2.1689,5.2839,2.576-.0359-.0311-.0734-.0623-.1094-.0933,8.1258,2.2319,12.3718-5.8254,24.5598,1.2046h0c.3259-.4649.5928-.9616.8054-1.4847,3.3747,1.5762,5.3658,2.3585,5.3658,2.3585,0,0,.2323-.9037.5341-2.188.0758.03.1163.0458.1163.0458,0,0,.001-.0041.0027-.0103.0004.0001.0036.0014.0036.0014,0,0,1.0152-3.8541,1.5819-6.95-.0012-.0006-.0026-.0012-.0038-.0017.2132-1.1659.3619-2.2222.3688-2.9243,2.8261,1.2975,4.4672,1.9423,4.4672,1.9423,0,0,.2324-.9037.5341-2.188.0758.03.1163.0458.1163.0458,0,0,.0011-.0041.0027-.0103.0005.0001.0036.0014.0036.0014,0,0,1.0152-3.8541,1.5819-6.9501-.0012-.0005-.0026-.0011-.0037-.0016.2015-1.1026.3458-2.1079.3666-2.8076,2.7436,1.2562,4.333,1.8808,4.333,1.8808,0,0,.2324-.9036.5341-2.188.0758.0302.1163.0459.1163.0459,0,0,.0011-.0041.0027-.0105.0005.0001.0037.0014.0037.0014,0,0,1.0151-3.854,1.5818-6.95-.0012-.0005-.0025-.0011-.0037-.0016.1781-.9746.3113-1.8725.3542-2.5513,2.4238,1.0981,3.8125,1.6436,3.8125,1.6436,0,0,.2324-.9037.5341-2.188.0758.0302.1163.0459.1163.0459,0,0,.0011-.0041.0027-.0105.0005.0001.0036.0014.0036.0014,0,0,1.0152-3.854,1.5819-6.95-.0012-.0005-.0026-.0011-.0038-.0016.3629-1.9844.5404-3.6547.1459-3.7935Z" style="fill:#729edb; opacity:.65;"/></g><g><path d="m310.1035,201.1652c-.5593,9.571-.1118,12.2958-2.7271,24.4406-4.0516,18.8152-3.5957,14.381-3.9836,17.0209-1.7963,4.6437-7.0996,25.0526-9.0538,28.9719-.1132,7.9539-1.3054,14.2106-3.6214,23.9018-2.7662,11.5751-10.8104,31.1987-14.8739,41.9476l-8.0304-1.9192c1.1709-21.423,4.174-50.8313,8.7397-83.1968,2.9244-20.7299.1035-39.9649,3.3002-56.7847l30.2503,5.6177Z" style="fill:#17330a;"/><g><path d="m327.5309,199.1689c1.9932,9.439,2.3297,19.8112,2.661,32.2312.5131,19.2416-2.7584,28.0271-2.4781,30.685-.7919,4.934-1.7858,9.5784-2.9597,13.8446,2.0621,7.7624,3.2649,17.0307,3.2649,26.9947,0,11.9011-.7142,25.359-2.4384,36.7581h-9.7922c-4.555-21.1085-9.1978-50.4094-12.8532-82.9496-2.3413-20.8418-3.988-40.4618-4.9373-57.564h29.533Z" style="fill:#20440f;"/><ellipse cx="298.6849" cy="203.5147" rx="19.9182" ry="15.2103" style="fill:#20440f;"/></g><g><polygon points="317.9467 346.5634 324.8275 346.5634 324.8275 336.4232 316.7245 336.4232 317.9467 346.5634" style="fill:#ea9f88;"/><path d="m314.4417,357.2402v1.4712s16.2968,0,16.2968,0v-1.4712c0-.3798-.0659-.7401-.1731-1.0762.694-.0354.5712-.0497-.0134-.0513-.2139-.6369-.6044-1.1609-1.0962-1.5034-.445-.8735-1.0135-2.0206-1.5666-3.2285-.4832-1.0553-.745-4.2877-1.4965-5.8878-1.0392-2.2128-2.5349-2.7162-2.5349-2.7162h-.7353c-1.6187,1.0866-1.5415,3.2923-3.0674,3.6217-1.5257.3292-3.0841-.462-3.0841-.462l-1.6937,6.7898c-.1837.5595-.2922,1.2345-.2922,1.9606v.6963c-.3353.5169-.5433,1.1564-.5433,1.857Zm6.8775-3.0718l.0065.0161h-.4689v-.0161h.4624Z" style="fill:#163309;"/></g><g><polygon points="266.364 344.7741 272.1022 346.5316 275.0718 336.836 268.3142 334.7663 266.364 344.7741" style="fill:#ea9f88;"/><path d="m277.9754,351.8762l-2.4875-7.0018s-3.6699.816-5.9107.4764c-2.2409-.3395-2.2332-2.382-3.1236-3.7346h-2.9877s-3.921,6.9567-11.6181,8.6915h-5.765c-1.3445,0-2.4445,1.6157-2.4445,3.5904v1.5958s24.2413,0,24.2413,0l1.2223-2.1305h.679v2.1305s8.6237,0,8.6237,0v-1.5958c0-.749-.1594-1.4448-.4291-2.022Z" style="fill:#163309;"/></g><g><path d="m314.3345,109.4367c-2.4704,1.1824-5.2714,1.8608-8.2488,1.8608-3.4111,0-6.5877-.8931-9.3012-2.4157,1.0641-1.7785,1.7126-4.0956,1.7126-6.638,0-3.4618-1.1954-6.5147-3.0168-8.3443v-4.3309h11.0117c.4852,8.0749,3.4575,15.152,7.8424,19.8682Z" style="fill:#ea9f86;"/><g><path d="m292.5769,80.8512c1.2339-6.2001,8.0495-5.073,13.0219-4.0884,3.1929.6321,5.9594,1.6553,7.1597,5.3107.7168-.6005,1.4856,1.0253,2.2961,1.216,1.6777.3945,2.5719,1.2005,2.0134,3.563-.5583,2.3626-2.3579,5.3869-4.0354,4.9925-.0818-.0193-.1525-.0622-.2305-.09-.5831,1.8916-.2823,3.5445-1.5317,4.8754-2.4493,2.6095-7.1613,4.0478-10.2921,4.0859-10.2114.1242-9.6351-13.665-8.4014-19.8651Z" style="fill:#ebb190;"/><path d="m287.6559,72.8645c.8352-5.0368,3.2144-7.7571,11.3123-6.5186,5.3803.8227,14.2276,3.2041,19.5054,5.8538,5.3818,2.7019,3.3559,6.9145,2.6049,8.7795-1.8499,4.5932-5.1876,11.1824-7.7073,11.2954-.5853.0263-1.0069-.2072-1.3301-.6215.8949-.2614,1.7989-.9597,2.4139-1.9827,1.0348-1.7213.8592-3.6791-.3919-4.373-1.0233-.5672-2.4425-.1018-3.4942,1.0238-.8471-3.8199-2.5935-7.8547-9.9821-6.6385-8.0821,1.3304-13.7661-1.7814-12.931-6.8182Z" style="fill:#1c3054;"/></g></g><path d="m309.9352,150.1811c-15.4319,0-30.127-.8117-43.4816-2.2772.7351-19.0411,12.2889-34.9664,28.0324-40.3285,2.4553,2.1355,6.0967,3.4937,10.17,3.4937,4.4962,0,8.4649-1.6548,10.8925-4.1844,17.1105,4.5974,29.897,21.4719,30.3748,41.7594-11.2866.9956-23.3916,1.537-35.9881,1.537Z" style="fill:#44722b;"/><path d="m326.7151,202.0661c-.5655,0-46.0506,0-47.1346,0s-.8661-3.0132-.7232-3.4404c.9057-2.7083,1.8333-3.4345,2.4359-6.5025.9553-4.8628,1.4924-10.1492,1.4924-15.7696,0-17.7696-5.3465-34.5597-12.3653-44.4657,4.6532-11.5378,13.6176-20.4634,24.6314-24.2146,2.4551,2.1355,6.0967,3.4937,10.17,3.4937,4.4962,0,8.4649-1.6548,10.8925-4.1844,12.9072,3.4679,23.3521,13.9245,27.9134,27.5589-10.1827,4.4921-17.878,25.0652-17.878,49.7793,0,3.8639.1941,7.6202.555,11.2313.197,1.9721,1.0313,2.8246,1.1333,3.5263.2852,1.9645-.5571,2.9877-1.1228,2.9877Z" style="fill:#44722b;"/><g><path d="m271.133,146.2955c-2.1123,20.7017.9934,23.5017,5.2422,23.9016,4.2489.3998,8.0319-1.7517,10.1443-22.4535,2.1123-20.7017.3804-37.808-3.8685-38.2079-4.2488-.3999-9.4056,16.0581-11.518,36.7598Z" style="fill:#ea9f86;"/><path d="m280.3346,100.4835c-1.7097,4.9342-.8992,9.4919,2.2625,10.5023,3.1616,1.0104,5.8215-2.4094,7.531-7.3436,1.7097-4.9342,2.0409-6.3129-1.1208-7.3234-3.1616-1.0104-6.9632-.7695-8.6727,4.1647Z" style="fill:#ea9f86;"/></g><path d="m271.9182,165.8535c2.2822.4041,6.5261.541,8.6521.541,4.6076,0,2.9695-2.3996,2.9695-5.0248,0-.5737.6214-1.4577,1.1591-1.3315,2.9224.6857,5.2112,2.1303,6.209,3.9304l33.3563,1.0679v-18.1128s20.8187,2.1288,20.8187,2.1288c.2548,2.0453.392,5.3879.392,7.564,0,16.6508-4.7394,24.9883-14.4233,24.9883-11.0256,0-30.7254-5.4019-41.6325-10.3695-1.5278,1.8711-3.8857,3.3075-7.0105,3.3075-4.9376,0-9.6891-3.8418-11.7209-6.8096-1.2883-1.8819.6567-1.9813,1.2306-1.8797Z" style="fill:#efb290;"/></g><circle cx="375.7354" cy="82.6668" r="17.8074" style="fill:#5e8436; opacity:.2;"/><circle cx="401.5001" cy="102.6407" r="6.6563" style="fill:#5e8436; opacity:.2;"/><circle cx="51.0261" cy="165.3788" r="15.1978" style="fill:#5e8436; opacity:.2;"/><g style="opacity:.4;"><path d="m130.9799,47.7364c0-3.5642,1.558-6.4535,3.48-6.4535s3.48,2.8894,3.48,6.4535c0,2.8666-2.251,10.232-3.1322,13.0056-.1562.4918-.5393.4918-.6956,0-.8812-2.7736-3.1322-10.139-3.1322-13.0056Z" style="fill:#e0b95c;"/><path d="m119.8914,55.2124c-2.5203-2.5203-3.4616-5.6651-2.1026-7.0241,1.359-1.359,4.5038-.4177,7.0241,2.1026,2.027,2.027,5.6434,8.8268,6.9815,11.4111.2372.4582-.0336.7291-.4918.4918-2.5843-1.3381-9.3842-4.9546-11.4111-6.9815Z" style="fill:#e0b95c;"/><path d="m117.3369,68.3394c-3.5642,0-6.4535-1.558-6.4535-3.48,0-1.922,2.8894-3.48,6.4535-3.48,2.8666,0,10.232,2.251,13.0056,3.1322.4918.1562.4918.5393,0,.6956-2.7736.8812-10.139,3.1322-13.0056,3.1322Z" style="fill:#e0b95c;"/><path d="m124.8129,79.4279c-2.5203,2.5203-5.6651,3.4616-7.0241,2.1026-1.359-1.359-.4177-4.5038,2.1026-7.0241,2.027-2.027,8.8268-5.6434,11.4111-6.9815.4582-.2372.7291.0336.4918.4918-1.3381,2.5843-4.9546,9.3842-6.9815,11.4111Z" style="fill:#e0b95c;"/><path d="m137.9399,81.9824c0,3.5642-1.558,6.4535-3.48,6.4535s-3.48-2.8894-3.48-6.4535c0-2.8666,2.251-10.232,3.1322-13.0056.1562-.4918.5393-.4918.6956,0,.8812,2.7736,3.1322,10.139,3.1322,13.0056Z" style="fill:#e0b95c;"/><path d="m149.0284,74.5064c2.5203,2.5203,3.4616,5.6651,2.1026,7.0241-1.359,1.359-4.5038.4177-7.0241-2.1026-2.027-2.027-5.6434-8.8268-6.9815-11.4111-.2372-.4582.0336-.7291.4918-.4918,2.5843,1.3381,9.3842,4.9546,11.4111,6.9815Z" style="fill:#e0b95c;"/><path d="m151.5829,61.3794c3.5642,0,6.4535,1.558,6.4535,3.48,0,1.922-2.8894,3.48-6.4535,3.48-2.8666,0-10.232-2.251-13.0056-3.1322-.4918-.1562-.4918-.5393,0-.6956,2.7736-.8812,10.139-3.1322,13.0056-3.1322Z" style="fill:#e0b95c;"/><path d="m144.1069,50.2909c2.5203-2.5203,5.6651-3.4616,7.0241-2.1026,1.359,1.359.4177,4.5038-2.1026,7.0241-2.027,2.027-8.8268,5.6434-11.4111,6.9815-.4582.2372-.7291-.0336-.4918-.4918,1.3381-2.5843,4.9546-9.3842,6.9815-11.4111Z" style="fill:#e0b95c;"/></g><g style="opacity:.2;"><path d="m381.6342,249.9867c-.8337-1.6047-.8081-3.2701.0573-3.7197s2.2427.4869,3.0764,2.0916c.6705,1.2906,1.3799,5.1334,1.632,6.5883.0447.258-.1278.3476-.3132.1627-1.0455-1.0426-3.7819-3.8323-4.4524-5.1229Z" style="fill:#5e8436;"/><path d="m378.3904,255.9465c-1.7242-.5452-2.8837-1.7409-2.5897-2.6707s1.9301-1.2415,3.6543-.6964c1.3868.4385,4.6056,2.6541,5.8126,3.5047.214.1508.1554.3361-.1064.3365-1.4766.002-5.3841-.0356-6.7708-.4741Z" style="fill:#5e8436;"/><path d="m380.3109,262.4543c-1.6047.8337-3.2701.8081-3.7197-.0573s.4869-2.2427,2.0916-3.0764c1.2906-.6705,5.1334-1.3799,6.5883-1.632.258-.0447.3476.1278.1627.3132-1.0426,1.0455-3.8323,3.7819-5.1229,4.4524Z" style="fill:#5e8436;"/><path d="m386.2707,265.698c-.5452,1.7242-1.7409,2.8837-2.6707,2.5897s-1.2415-1.9301-.6964-3.6543c.4385-1.3868,2.6541-4.6056,3.5047-5.8126.1508-.214.3361-.1554.3365.1064.002,1.4766-.0356,5.3841-.4741,6.7708Z" style="fill:#5e8436;"/><path d="m392.7785,263.7775c.8337,1.6047.8081,3.2701-.0573,3.7197s-2.2427-.4869-3.0764-2.0916c-.6705-1.2906-1.3799-5.1334-1.632-6.5883-.0447-.258.1278-.3476.3132-.1627,1.0455,1.0426,3.7819,3.8323,4.4524,5.1229Z" style="fill:#5e8436;"/><path d="m396.0222,257.8178c1.7242.5452,2.8837,1.7409,2.5897,2.6707s-1.9301,1.2415-3.6543.6964c-1.3868-.4385-4.6056-2.6541-5.8126-3.5047-.214-.1508-.1554-.3361.1064-.3365,1.4766-.002,5.3841.0356,6.7708.4741Z" style="fill:#5e8436;"/><path d="m394.1017,251.31c1.6047-.8337,3.2701-.8081,3.7197.0573s-.4869,2.2427-2.0916,3.0764c-1.2906.6705-5.1334,1.3799-6.5883,1.632-.258.0447-.3476-.1278-.1627-.3132,1.0426-1.0455,3.8323-3.7819,5.1229-4.4524Z" style="fill:#5e8436;"/><path d="m388.142,248.0663c.5452-1.7242,1.7409-2.8837,2.6707-2.5897s1.2415,1.9301.6964,3.6543c-.4385,1.3868-2.6541,4.6056-3.5047,5.8126-.1508.214-.3361.1554-.3365-.1064-.002-1.4766.0356-5.3841.4741-6.7708Z" style="fill:#5e8436;"/></g><g style="mix-blend-mode:multiply; opacity:.3;"><path d="m394.5941,187.3056l-4.4748,4.4748-2.6678-2.6678,4.4748-4.4748-4.72-4.72,2.746-2.746,4.72,4.72,4.475-4.475,2.6678,2.6678-4.475,4.475,4.72,4.72-2.746,2.746-4.72-4.72Z" style="fill:#e0b95c;"/></g></g></g></g></svg>