<svg xmlns="http://www.w3.org/2000/svg" width="500" height="500" viewBox="0 0 45 45" shape-rendering="crispEdges"><path fill="#ffffff" d="M0 0h45v45H0z"/><path stroke="#000000" d="M2 2.5h7m1 0h1m1 0h1m2 0h2m1 0h5m2 0h2m1 0h1m1 0h1m1 0h2m2 0h7M2 3.5h1m5 0h1m3 0h1m2 0h2m1 0h2m1 0h2m3 0h1m3 0h1m1 0h1m3 0h1m5 0h1M2 4.5h1m1 0h3m1 0h1m2 0h1m1 0h5m4 0h2m1 0h3m1 0h4m1 0h1m1 0h1m1 0h3m1 0h1M2 5.5h1m1 0h3m1 0h1m1 0h1m2 0h2m1 0h2m1 0h2m2 0h2m3 0h2m1 0h1m2 0h1m1 0h1m1 0h3m1 0h1M2 6.5h1m1 0h3m1 0h1m1 0h1m1 0h1m1 0h1m1 0h1m3 0h5m3 0h1m4 0h2m1 0h1m1 0h3m1 0h1M2 7.5h1m5 0h1m1 0h3m7 0h3m3 0h1m1 0h3m1 0h1m3 0h1m5 0h1M2 8.5h7m1 0h1m1 0h1m1 0h1m1 0h1m1 0h1m1 0h1m1 0h1m1 0h1m1 0h1m1 0h1m1 0h1m1 0h1m1 0h1m1 0h7M10 9.5h1m1 0h2m1 0h1m1 0h1m1 0h1m3 0h1m1 0h2m2 0h4M2 10.5h1m3 0h1m1 0h3m3 0h5m2 0h1m2 0h1m1 0h1m1 0h2m2 0h1m2 0h5m2 0h1M10 11.5h3m1 0h2m1 0h1m3 0h1m2 0h2m2 0h1m3 0h1m1 0h1m1 0h1m2 0h2m1 0h1M3 12.5h1m4 0h4m4 0h1m1 0h2m3 0h2m1 0h1m2 0h4m4 0h1m2 0h3M2 13.5h3m2 0h1m1 0h2m1 0h3m1 0h1m2 0h1m3 0h1m1 0h5m2 0h2m2 0h4m1 0h2M2 14.5h1m5 0h1m2 0h1m1 0h1m1 0h4m1 0h1m3 0h5m1 0h3m1 0h3m1 0h5M3 15.5h2m1 0h1m2 0h1m2 0h2m1 0h1m1 0h1m1 0h5m9 0h1m6 0h1M2 16.5h2m1 0h1m2 0h3m2 0h1m2 0h2m1 0h1m2 0h1m6 0h1m2 0h2m1 0h3m1 0h1m1 0h2M3 17.5h1m2 0h1m4 0h2m3 0h3m4 0h2m1 0h1m1 0h4m1 0h4m1 0h1m1 0h1M3 18.5h3m2 0h2m1 0h1m1 0h1m2 0h3m1 0h7m5 0h1m1 0h1m2 0h1M2 19.5h1m2 0h1m1 0h1m3 0h3m1 0h4m1 0h1m2 0h1m2 0h3m1 0h3m1 0h3m1 0h1m1 0h1M6 20.5h1m1 0h2m1 0h1m1 0h2m1 0h4m5 0h1m3 0h1m2 0h2m1 0h4m1 0h2M2 21.5h1m1 0h4m1 0h2m2 0h1m1 0h2m1 0h3m3 0h1m3 0h3m2 0h2m1 0h3m1 0h1m1 0h1M3 22.5h4m1 0h1m2 0h2m3 0h3m1 0h1m1 0h1m1 0h2m1 0h2m4 0h1m5 0h2m1 0h1M2 23.5h1m1 0h1m1 0h2m1 0h2m1 0h3m1 0h2m3 0h3m2 0h2m2 0h4m3 0h1M5 24.5h4m3 0h1m1 0h3m1 0h2m2 0h2m1 0h2m6 0h3m4 0h1m1 0h1M5 25.5h3m1 0h3m3 0h1m1 0h1m1 0h1m1 0h1m1 0h3m3 0h1m1 0h1m2 0h2m2 0h1m1 0h2M2 26.5h2m2 0h4m2 0h3m1 0h1m2 0h2m1 0h3m2 0h1m1 0h2m2 0h2m1 0h1m1 0h5M2 27.5h2m1 0h1m1 0h1m2 0h2m1 0h3m2 0h1m1 0h1m3 0h2m4 0h2m1 0h2m1 0h5M3 28.5h2m3 0h2m3 0h2m3 0h4m1 0h1m1 0h1m3 0h1m1 0h1m3 0h2m2 0h2M2 29.5h3m1 0h2m1 0h2m1 0h3m4 0h4m3 0h1m3 0h1m1 0h2m2 0h2m1 0h1m2 0h1M2 30.5h2m1 0h1m2 0h4m3 0h1m4 0h1m1 0h2m1 0h1m2 0h1m3 0h4m3 0h4M2 31.5h1m2 0h1m1 0h1m2 0h2m1 0h3m1 0h3m1 0h1m1 0h2m1 0h1m1 0h1m1 0h1m2 0h2m4 0h1m1 0h2M5 32.5h2m1 0h1m1 0h1m2 0h1m2 0h1m1 0h4m3 0h2m1 0h1m1 0h1m1 0h1m2 0h2m2 0h1M4 33.5h4m1 0h1m5 0h2m1 0h1m1 0h6m1 0h1m3 0h1m3 0h2m3 0h3M2 34.5h4m1 0h2m6 0h2m1 0h2m2 0h3m1 0h1m1 0h2m2 0h7m1 0h2M10 35.5h2m2 0h9m2 0h2m1 0h1m1 0h1m1 0h3m3 0h3m1 0h1M2 36.5h7m1 0h3m1 0h2m2 0h1m1 0h1m1 0h3m2 0h3m1 0h1m2 0h1m1 0h1m1 0h5M2 37.5h1m5 0h1m4 0h2m3 0h1m2 0h1m1 0h1m1 0h3m1 0h6m3 0h3m1 0h1M2 38.5h1m1 0h3m1 0h1m1 0h2m2 0h1m1 0h1m1 0h1m3 0h1m2 0h1m1 0h1m2 0h1m1 0h9m1 0h1M2 39.5h1m1 0h3m1 0h1m4 0h2m1 0h1m1 0h7m1 0h1m1 0h2m3 0h1m4 0h1M2 40.5h1m1 0h3m1 0h1m4 0h2m2 0h1m2 0h2m1 0h4m1 0h1m5 0h1m2 0h1m1 0h1m1 0h2M2 41.5h1m5 0h1m2 0h1m1 0h2m3 0h1m1 0h1m1 0h4m2 0h6m1 0h1m1 0h1m3 0h2M2 42.5h7m1 0h2m3 0h1m2 0h1m1 0h2m2 0h2m7 0h1m1 0h1m1 0h3m1 0h1"/></svg>
