<?xml version="1.0" standalone="no"?>
<!DOCTYPE svg PUBLIC "-//W3C//DTD SVG 20010904//EN"
 "http://www.w3.org/TR/2001/REC-SVG-20010904/DTD/svg10.dtd">
<svg version="1.0" xmlns="http://www.w3.org/2000/svg"
 width="700.000000pt" height="700.000000pt" viewBox="0 0 700.000000 700.000000"
 preserveAspectRatio="xMidYMid meet">
<metadata>
Created by potrace 1.11, written by Peter Selinger 2001-2013
</metadata>
<g transform="translate(0.000000,700.000000) scale(0.100000,-0.100000)"
fill="#000000" stroke="none">
<path d="M3235 6815 c-11 -2 -69 -9 -130 -15 -559 -59 -1134 -291 -1610 -650
-717 -541 -1180 -1345 -1297 -2250 -18 -142 -18 -658 0 -800 117 -905 580
-1709 1297 -2250 474 -357 1011 -575 1605 -652 142 -18 658 -18 800 0 905 117
1709 580 2250 1297 357 474 575 1011 652 1605 18 142 18 658 0 800 -140 1085
-777 2016 -1733 2530 -349 187 -716 307 -1126 366 -99 14 -651 29 -708 19z
m415 -215 c577 -32 1089 -198 1554 -505 830 -547 1343 -1440 1395 -2433 58
-1104 -470 -2147 -1395 -2757 -692 -456 -1544 -614 -2363 -439 -1182 253
-2122 1193 -2375 2375 -124 580 -79 1209 125 1746 441 1160 1508 1946 2733
2012 78 5 143 9 146 9 3 1 84 -3 180 -8z"/>
<path d="M3375 6084 c-131 -8 -326 -37 -341 -51 -10 -10 -14 -38 -14 -92 0
-135 47 -249 139 -342 191 -191 495 -190 683 3 93 95 138 205 138 339 0 54 -4
82 -14 92 -29 28 -411 61 -591 51z"/>
<path d="M2100 5672 c-508 -338 -864 -796 -1049 -1350 -94 -282 -132 -521
-132 -832 1 -428 95 -812 292 -1190 125 -238 269 -432 473 -635 387 -385 883
-635 1438 -722 161 -25 595 -25 756 0 555 87 1051 337 1438 722 148 147 234
251 339 410 221 331 359 708 411 1115 26 204 18 526 -17 740 -109 651 -487
1264 -1014 1646 -109 79 -196 136 -201 132 -2 -3 1 -29 7 -59 16 -84 13 -320
-6 -428 -70 -402 -327 -762 -677 -951 -67 -36 -78 -45 -78 -68 0 -15 -7 -144
-16 -286 l-16 -259 206 -206 206 -206 -205 -205 -205 -205 137 -137 138 -138
-138 -138 -137 -137 17 -258 17 -258 -292 -292 -292 -292 -290 290 -290 290 0
1232 0 1231 -77 42 c-295 158 -533 449 -636 775 -32 103 -46 175 -56 303 -8
94 1 300 15 344 8 25 -3 22 -66 -20z"/>
<path d="M3110 3453 c0 -247 3 -681 7 -965 l6 -518 89 0 88 0 0 965 0 965 -95
0 -95 0 0 -447z"/>
</g>
</svg>
